%TF.GenerationSoftware,KiCad,Pcbnew,5.99.0-unknown-c3175b4~86~ubuntu16.04.1*%
%TF.CreationDate,2019-10-16T11:56:15+02:00*%
%TF.ProjectId,atmegax8_with_bluetooth,61746d65-6761-4783-985f-776974685f62,rev?*%
%TF.SameCoordinates,Original*%
%TF.FileFunction,Paste,Bot*%
%TF.FilePolarity,Positive*%
%FSLAX46Y46*%
G04 Gerber Fmt 4.6, Leading zero omitted, Abs format (unit mm)*
G04 Created by KiCad (PCBNEW 5.99.0-unknown-c3175b4~86~ubuntu16.04.1) date 2019-10-16 11:56:15*
%MOMM*%
%LPD*%
G04 APERTURE LIST*
%ADD10R,1.250000X1.500000*%
%ADD11R,1.600000X0.550000*%
%ADD12R,0.550000X1.600000*%
%ADD13R,1.300000X0.600000*%
%ADD14R,0.508000X1.143000*%
%ADD15R,1.600200X3.599180*%
%ADD16R,2.148840X1.501140*%
%ADD17R,1.500000X1.250000*%
%ADD18R,1.300000X1.500000*%
%ADD19R,0.800100X0.800100*%
%ADD20R,1.700000X1.300000*%
%ADD21R,1.727200X1.727200*%
%ADD22O,1.727200X1.727200*%
%ADD23R,2.999740X1.600200*%
%ADD24R,3.000000X1.600000*%
%ADD25R,1.500000X1.300000*%
G04 APERTURE END LIST*
D10*
%TO.C,C24*%
X94805500Y-150221000D03*
X94805500Y-147721000D03*
%TD*%
D11*
%TO.C,IC1*%
X105585840Y-156324800D03*
X105585840Y-157124800D03*
X105585840Y-157924800D03*
X105585840Y-158724800D03*
X105585840Y-159524800D03*
X105585840Y-160324800D03*
X105585840Y-161124800D03*
X105585840Y-161924800D03*
D12*
X104135840Y-163374800D03*
X103335840Y-163374800D03*
X102535840Y-163374800D03*
X101735840Y-163374800D03*
X100935840Y-163374800D03*
X100135840Y-163374800D03*
X99335840Y-163374800D03*
X98535840Y-163374800D03*
D11*
X97085840Y-161924800D03*
X97085840Y-161124800D03*
X97085840Y-160324800D03*
X97085840Y-159524800D03*
X97085840Y-158724800D03*
X97085840Y-157924800D03*
X97085840Y-157124800D03*
X97085840Y-156324800D03*
D12*
X98535840Y-154874800D03*
X99335840Y-154874800D03*
X100135840Y-154874800D03*
X100935840Y-154874800D03*
X101735840Y-154874800D03*
X102535840Y-154874800D03*
X103335840Y-154874800D03*
X104135840Y-154874800D03*
%TD*%
D13*
%TO.C,Y1*%
X108452920Y-161607460D03*
X108452920Y-160657460D03*
X108452920Y-162557460D03*
%TD*%
D14*
%TO.C,U3*%
X76200000Y-154345640D03*
X74930000Y-154345640D03*
X73660000Y-154345640D03*
X72390000Y-154345640D03*
X72390000Y-160695640D03*
X73660000Y-160695640D03*
X74930000Y-160695640D03*
X76200000Y-160695640D03*
%TD*%
D15*
%TO.C,C14*%
X73660000Y-164269420D03*
X73660000Y-169771060D03*
%TD*%
D16*
%TO.C,C22*%
X85598000Y-147066000D03*
X88600280Y-147066000D03*
%TD*%
D17*
%TO.C,C15*%
X78658400Y-154686000D03*
X81158400Y-154686000D03*
%TD*%
D18*
%TO.C,R25*%
X88419440Y-144595840D03*
X88419440Y-141895840D03*
%TD*%
D10*
%TO.C,C4*%
X108013500Y-158666500D03*
X108013500Y-156166500D03*
%TD*%
D19*
%TO.C,U4*%
X95971360Y-169636440D03*
X93972380Y-168686440D03*
X93972380Y-170586440D03*
%TD*%
D10*
%TO.C,C1*%
X94869000Y-159936500D03*
X94869000Y-157436500D03*
%TD*%
%TO.C,C5*%
X91998800Y-168676000D03*
X91998800Y-171176000D03*
%TD*%
D18*
%TO.C,R3*%
X101716840Y-149160240D03*
X101716840Y-151860240D03*
%TD*%
D20*
%TO.C,D1*%
X92146120Y-166331840D03*
X92146120Y-162831840D03*
%TD*%
D21*
%TO.C,P2*%
X98425000Y-168148000D03*
D22*
X98425000Y-170688000D03*
X100965000Y-168148000D03*
X100965000Y-170688000D03*
X103505000Y-168148000D03*
X103505000Y-170688000D03*
%TD*%
D23*
%TO.C,C20*%
X88788240Y-157226000D03*
X84388960Y-157226000D03*
%TD*%
D24*
%TO.C,C19*%
X88433000Y-151384000D03*
X84033000Y-151384000D03*
%TD*%
D23*
%TO.C,C21*%
X84388960Y-169418000D03*
X88788240Y-169418000D03*
%TD*%
D18*
%TO.C,R2*%
X99288600Y-149160240D03*
X99288600Y-151860240D03*
%TD*%
D25*
%TO.C,R23*%
X81440000Y-168402000D03*
X78740000Y-168402000D03*
%TD*%
D10*
%TO.C,C3*%
X94869000Y-143022000D03*
X94869000Y-145522000D03*
%TD*%
D18*
%TO.C,R5*%
X106301540Y-168319440D03*
X106301540Y-165619440D03*
%TD*%
%TO.C,R6*%
X108452920Y-164719000D03*
X108452920Y-167419000D03*
%TD*%
D23*
%TO.C,C6*%
X88813640Y-163322000D03*
X84414360Y-163322000D03*
%TD*%
D15*
%TO.C,C9*%
X73400920Y-149064980D03*
X73400920Y-143563340D03*
%TD*%
D25*
%TO.C,R8*%
X78740000Y-161544000D03*
X81440000Y-161544000D03*
%TD*%
D18*
%TO.C,R9*%
X78232000Y-144415500D03*
X78232000Y-141715500D03*
%TD*%
%TO.C,R13*%
X107127040Y-149127220D03*
X107127040Y-151827220D03*
%TD*%
D25*
%TO.C,R15*%
X81309200Y-156972000D03*
X78609200Y-156972000D03*
%TD*%
D17*
%TO.C,C16*%
X78740000Y-166116000D03*
X81240000Y-166116000D03*
%TD*%
D25*
%TO.C,R18*%
X81440000Y-163830000D03*
X78740000Y-163830000D03*
%TD*%
D18*
%TO.C,R19*%
X104792780Y-151909760D03*
X104792780Y-149209760D03*
%TD*%
D25*
%TO.C,R20*%
X80280500Y-152400000D03*
X77580500Y-152400000D03*
%TD*%
%TO.C,R21*%
X78634600Y-159258000D03*
X81334600Y-159258000D03*
%TD*%
%TO.C,R26*%
X107012720Y-143479520D03*
X104312720Y-143479520D03*
%TD*%
D18*
%TO.C,R27*%
X86423500Y-141906000D03*
X86423500Y-144606000D03*
%TD*%
D25*
%TO.C,D2*%
X99308920Y-143479520D03*
X102008920Y-143479520D03*
%TD*%
%TO.C,D3*%
X102024160Y-145562320D03*
X99324160Y-145562320D03*
%TD*%
%TO.C,R31*%
X104333040Y-145587720D03*
X107033040Y-145587720D03*
%TD*%
D18*
%TO.C,R7*%
X94554040Y-163300420D03*
X94554040Y-166000420D03*
%TD*%
M02*
