%TF.GenerationSoftware,KiCad,Pcbnew,5.99.0-unknown-c3175b4~86~ubuntu16.04.1*%
%TF.CreationDate,2019-10-16T11:56:14+02:00*%
%TF.ProjectId,atmegax8_with_bluetooth,61746d65-6761-4783-985f-776974685f62,rev?*%
%TF.SameCoordinates,Original*%
%TF.FileFunction,Copper,L1,Top*%
%TF.FilePolarity,Positive*%
%FSLAX46Y46*%
G04 Gerber Fmt 4.6, Leading zero omitted, Abs format (unit mm)*
G04 Created by KiCad (PCBNEW 5.99.0-unknown-c3175b4~86~ubuntu16.04.1) date 2019-10-16 11:56:14*
%MOMM*%
%LPD*%
G04 APERTURE LIST*
%TA.AperFunction,SMDPad,CuDef*%
%ADD10R,2.700000X3.750000*%
%TD*%
%TA.AperFunction,SMDPad,CuDef*%
%ADD11R,1.778000X2.794000*%
%TD*%
%TA.AperFunction,ComponentPad*%
%ADD12O,2.032000X1.727200*%
%TD*%
%TA.AperFunction,ComponentPad*%
%ADD13R,2.032000X1.727200*%
%TD*%
%TA.AperFunction,SMDPad,CuDef*%
%ADD14R,1.000000X1.000000*%
%TD*%
%TA.AperFunction,SMDPad,CuDef*%
%ADD15R,1.500000X0.800000*%
%TD*%
%TA.AperFunction,ComponentPad*%
%ADD16O,1.700000X1.700000*%
%TD*%
%TA.AperFunction,ComponentPad*%
%ADD17R,1.700000X1.700000*%
%TD*%
%TA.AperFunction,SMDPad,CuDef*%
%ADD18R,2.999740X1.501140*%
%TD*%
%TA.AperFunction,SMDPad,CuDef*%
%ADD19R,1.300000X1.500000*%
%TD*%
%TA.AperFunction,SMDPad,CuDef*%
%ADD20R,1.600000X2.000000*%
%TD*%
%TA.AperFunction,SMDPad,CuDef*%
%ADD21R,0.800100X0.800100*%
%TD*%
%TA.AperFunction,SMDPad,CuDef*%
%ADD22R,1.500000X1.250000*%
%TD*%
%TA.AperFunction,SMDPad,CuDef*%
%ADD23R,1.250000X1.500000*%
%TD*%
%TA.AperFunction,ViaPad*%
%ADD24C,0.600000*%
%TD*%
%TA.AperFunction,Conductor*%
%ADD25C,0.400000*%
%TD*%
%TA.AperFunction,Conductor*%
%ADD26C,0.150000*%
%TD*%
%TA.AperFunction,Conductor*%
%ADD27C,0.254000*%
%TD*%
G04 APERTURE END LIST*
D10*
%TO.P,C11,1*%
%TO.N,+12C*%
X80518000Y-155292500D03*
%TO.P,C11,2*%
%TO.N,GNDA*%
X80518000Y-162842500D03*
%TD*%
%TO.P,C10,1*%
%TO.N,+12V*%
X80518000Y-142973500D03*
%TO.P,C10,2*%
%TO.N,GNDA*%
X80518000Y-150523500D03*
%TD*%
D11*
%TO.P,L1,1*%
%TO.N,+12V*%
X76200000Y-152019000D03*
%TO.P,L1,2*%
%TO.N,+12C*%
X72644000Y-152019000D03*
%TD*%
D12*
%TO.P,P3,4*%
%TO.N,GND*%
X91948000Y-159448500D03*
%TO.P,P3,3*%
%TO.N,/INL*%
X91948000Y-156908500D03*
%TO.P,P3,2*%
%TO.N,/INR*%
X91948000Y-154368500D03*
D13*
%TO.P,P3,1*%
%TO.N,/IN_DETECT*%
X91948000Y-151828500D03*
%TD*%
D14*
%TO.P,J5,1*%
%TO.N,Net-(J5-Pad1)*%
X109918500Y-164909500D03*
%TD*%
%TO.P,J4,1*%
%TO.N,Net-(J4-Pad1)*%
X109918500Y-166052500D03*
%TD*%
%TO.P,J3,1*%
%TO.N,Net-(J3-Pad1)*%
X109918500Y-167195500D03*
%TD*%
%TO.P,J2,1*%
%TO.N,Net-(J2-Pad1)*%
X109918500Y-168338500D03*
%TD*%
%TO.P,J1,1*%
%TO.N,Net-(J1-Pad1)*%
X109918500Y-170497500D03*
%TD*%
D15*
%TO.P,U2,25*%
%TO.N,/BTOUTL*%
X94922440Y-163911200D03*
%TO.P,U2,20*%
%TO.N,/INL*%
X94922440Y-158411200D03*
%TO.P,U2,22*%
%TO.N,/MICP*%
X94922440Y-160611200D03*
%TO.P,U2,30*%
%TO.N,N/C*%
X94922440Y-169411200D03*
%TO.P,U2,28*%
X94922440Y-167211200D03*
%TO.P,U2,24*%
%TO.N,/BTOUTLN*%
X94922440Y-162811200D03*
%TO.P,U2,21*%
%TO.N,/MICN*%
X94922440Y-159511200D03*
%TO.P,U2,31*%
%TO.N,N/C*%
X94922440Y-170511200D03*
%TO.P,U2,18*%
%TO.N,/IN_DETECT*%
X94922440Y-156211200D03*
%TO.P,U2,29*%
%TO.N,+BATT*%
X94922440Y-168311200D03*
%TO.P,U2,19*%
%TO.N,/INR*%
X94922440Y-157311200D03*
%TO.P,U2,27*%
%TO.N,/BTOUTRN*%
X94922440Y-166111200D03*
%TO.P,U2,17*%
%TO.N,GND*%
X94922440Y-155111200D03*
%TO.P,U2,23*%
%TO.N,/MIC_BIAS*%
X94922440Y-161711200D03*
%TO.P,U2,32*%
%TO.N,GND*%
X94922440Y-171611200D03*
%TO.P,U2,26*%
%TO.N,/BTOUTR*%
X94922440Y-165011200D03*
%TO.P,U2,4*%
%TO.N,Net-(J2-Pad1)*%
X108422440Y-168311200D03*
%TO.P,U2,1*%
%TO.N,GND*%
X108422440Y-171611200D03*
%TO.P,U2,2*%
%TO.N,Net-(J1-Pad1)*%
X108422440Y-170511200D03*
%TO.P,U2,3*%
%TO.N,GND*%
X108422440Y-169411200D03*
%TO.P,U2,7*%
%TO.N,Net-(J5-Pad1)*%
X108422440Y-165011200D03*
%TO.P,U2,5*%
%TO.N,Net-(J3-Pad1)*%
X108422440Y-167211200D03*
%TO.P,U2,9*%
%TO.N,N/C*%
X108422440Y-162811200D03*
%TO.P,U2,6*%
%TO.N,Net-(J4-Pad1)*%
X108422440Y-166111200D03*
%TO.P,U2,10*%
%TO.N,TX*%
X108422440Y-161711200D03*
%TO.P,U2,8*%
%TO.N,/BT_RESET*%
X108422440Y-163911200D03*
%TO.P,U2,11*%
%TO.N,RX*%
X108422440Y-160611200D03*
%TO.P,U2,12*%
%TO.N,N/C*%
X108422440Y-159511200D03*
%TO.P,U2,13*%
%TO.N,/LED1*%
X108422440Y-158411200D03*
%TO.P,U2,14*%
%TO.N,/LED2*%
X108422440Y-157311200D03*
%TO.P,U2,15*%
%TO.N,N/C*%
X108422440Y-156211200D03*
%TO.P,U2,16*%
%TO.N,GND*%
X108422440Y-155111200D03*
%TD*%
D16*
%TO.P,P1,12*%
%TO.N,Net-(P1-Pad12)*%
X99608640Y-138714480D03*
%TO.P,P1,11*%
%TO.N,/CDC_ENA_12V*%
X97068640Y-138714480D03*
%TO.P,P1,10*%
%TO.N,/DataOut*%
X94528640Y-138714480D03*
%TO.P,P1,9*%
%TO.N,Net-(P1-Pad9)*%
X91988640Y-138714480D03*
%TO.P,P1,8*%
%TO.N,GND*%
X89448640Y-138714480D03*
%TO.P,P1,7*%
%TO.N,/MIC_IN1*%
X86908640Y-138714480D03*
%TO.P,P1,6*%
%TO.N,/MIC_IN2*%
X84368640Y-138714480D03*
%TO.P,P1,5*%
%TO.N,+12V*%
X81828640Y-138714480D03*
%TO.P,P1,4*%
%TO.N,GNDA*%
X79288640Y-138714480D03*
%TO.P,P1,3*%
%TO.N,/AOUTR*%
X76748640Y-138714480D03*
%TO.P,P1,2*%
%TO.N,GNDA*%
X74208640Y-138714480D03*
D17*
%TO.P,P1,1*%
%TO.N,/AOUTL*%
X71668640Y-138714480D03*
%TD*%
D18*
%TO.P,C13,2*%
%TO.N,GNDA*%
X77055980Y-166814500D03*
%TO.P,C13,1*%
%TO.N,/VGND*%
X73058020Y-166814500D03*
%TD*%
D19*
%TO.P,R16,1*%
%TO.N,/VGND*%
X76098400Y-158197540D03*
%TO.P,R16,2*%
%TO.N,+12C*%
X76098400Y-155497540D03*
%TD*%
%TO.P,R17,1*%
%TO.N,GNDA*%
X76100940Y-163154360D03*
%TO.P,R17,2*%
%TO.N,/VGND*%
X76100940Y-160454360D03*
%TD*%
D20*
%TO.P,C23,1*%
%TO.N,/MICP*%
X86233000Y-145795500D03*
%TO.P,C23,2*%
%TO.N,/MIC_IN2*%
X86233000Y-141795500D03*
%TD*%
%TO.P,C27,1*%
%TO.N,/MICN*%
X88519000Y-145763500D03*
%TO.P,C27,2*%
%TO.N,/MIC_IN1*%
X88519000Y-141763500D03*
%TD*%
D12*
%TO.P,P5,3*%
%TO.N,/CDC_ENA_12V*%
X92000000Y-143120000D03*
%TO.P,P5,2*%
%TO.N,GND*%
X92000000Y-145660000D03*
D13*
%TO.P,P5,1*%
%TO.N,+5V*%
X92000000Y-148200000D03*
%TD*%
D21*
%TO.P,U5,3*%
%TO.N,+5V*%
X101747320Y-151503380D03*
%TO.P,U5,2*%
%TO.N,Net-(R3-Pad1)*%
X100797320Y-149504400D03*
%TO.P,U5,1*%
%TO.N,GND*%
X102697320Y-149504400D03*
%TD*%
D17*
%TO.P,P4,1*%
%TO.N,Net-(IC1-Pad31)*%
X104739440Y-138757660D03*
D16*
%TO.P,P4,2*%
%TO.N,Net-(IC1-Pad30)*%
X107279440Y-138757660D03*
%TD*%
D22*
%TO.P,C28,2*%
%TO.N,GND*%
X87737000Y-148653500D03*
%TO.P,C28,1*%
%TO.N,/MIC_BIAS*%
X85237000Y-148653500D03*
%TD*%
D19*
%TO.P,R14,1*%
%TO.N,Net-(IC1-Pad31)*%
X104792780Y-149180560D03*
%TO.P,R14,2*%
%TO.N,TX*%
X104792780Y-151880560D03*
%TD*%
%TO.P,R1,1*%
%TO.N,Net-(P1-Pad9)*%
X107088940Y-149139920D03*
%TO.P,R1,2*%
%TO.N,/Clock*%
X107088940Y-151839920D03*
%TD*%
%TO.P,R4,1*%
%TO.N,Net-(IC1-Pad12)*%
X98887280Y-151613860D03*
%TO.P,R4,2*%
%TO.N,/DataOut*%
X98887280Y-148913860D03*
%TD*%
D22*
%TO.P,C12,1*%
%TO.N,+12C*%
X76517820Y-148963400D03*
%TO.P,C12,2*%
%TO.N,GNDA*%
X74017820Y-148963400D03*
%TD*%
D19*
%TO.P,R10,1*%
%TO.N,Net-(C8-Pad1)*%
X71628000Y-144068800D03*
%TO.P,R10,2*%
%TO.N,/AOUTL*%
X71628000Y-141368800D03*
%TD*%
%TO.P,R11,1*%
%TO.N,GNDA*%
X76080620Y-144080220D03*
%TO.P,R11,2*%
%TO.N,/AOUTR*%
X76080620Y-141380220D03*
%TD*%
%TO.P,R12,1*%
%TO.N,GNDA*%
X73914000Y-144072600D03*
%TO.P,R12,2*%
%TO.N,/AOUTL*%
X73914000Y-141372600D03*
%TD*%
D23*
%TO.P,C17,1*%
%TO.N,Net-(C17-Pad1)*%
X71882000Y-155476900D03*
%TO.P,C17,2*%
%TO.N,/VGND*%
X71882000Y-157976900D03*
%TD*%
%TO.P,C18,1*%
%TO.N,Net-(C18-Pad1)*%
X71892160Y-163201680D03*
%TO.P,C18,2*%
%TO.N,/VGND*%
X71892160Y-160701680D03*
%TD*%
D19*
%TO.P,R22,1*%
%TO.N,/VGND*%
X73977500Y-158178500D03*
%TO.P,R22,2*%
%TO.N,Net-(C17-Pad1)*%
X73977500Y-155478500D03*
%TD*%
%TO.P,R24,1*%
%TO.N,/VGND*%
X74013060Y-160467060D03*
%TO.P,R24,2*%
%TO.N,Net-(C18-Pad1)*%
X74013060Y-163167060D03*
%TD*%
D22*
%TO.P,C7,1*%
%TO.N,Net-(C7-Pad1)*%
X76502580Y-146428460D03*
%TO.P,C7,2*%
%TO.N,GNDA*%
X74002580Y-146428460D03*
%TD*%
D23*
%TO.P,C8,1*%
%TO.N,Net-(C8-Pad1)*%
X71617840Y-146537360D03*
%TO.P,C8,2*%
%TO.N,GNDA*%
X71617840Y-149037360D03*
%TD*%
%TO.P,C26,1*%
%TO.N,/MICP*%
X88600000Y-160850000D03*
%TO.P,C26,2*%
%TO.N,/MICN*%
X88600000Y-158350000D03*
%TD*%
D24*
%TO.N,Net-(C17-Pad1)*%
X71628000Y-154368500D03*
%TO.N,/SCK*%
X100584000Y-165417500D03*
%TO.N,/ARESET*%
X103187500Y-165481000D03*
%TO.N,/Clock*%
X107200457Y-153472453D03*
%TO.N,/BTOUTLN*%
X85915500Y-160972500D03*
%TO.N,/BTOUTRN*%
X89408000Y-167132000D03*
%TO.N,GNDA*%
X71247000Y-150431500D03*
%TO.N,GND*%
X96097489Y-141138511D03*
%TO.N,+12C*%
X76881490Y-154051000D03*
%TO.N,/MIC_BIAS*%
X85534500Y-149860000D03*
%TO.N,GND*%
X87503000Y-149923500D03*
X100520500Y-144272000D03*
X107141500Y-162496500D03*
%TO.N,Net-(IC1-Pad12)*%
X101754940Y-161759900D03*
%TO.N,Net-(IC1-Pad31)*%
X103692762Y-151996140D03*
%TO.N,+BATT*%
X96205040Y-168384220D03*
%TO.N,GND*%
X93383100Y-171681140D03*
%TO.N,/SCK*%
X97492493Y-163021092D03*
%TO.N,+BATT*%
X92062300Y-167370760D03*
%TO.N,/ARESET*%
X101673660Y-156245560D03*
%TO.N,RX*%
X106420920Y-153408380D03*
%TO.N,TX*%
X104973120Y-153245820D03*
%TO.N,/BTOUTRN*%
X86649560Y-169362120D03*
%TO.N,/BTOUTR*%
X89169240Y-165033960D03*
%TO.N,/BTOUTL*%
X86800000Y-163600000D03*
%TO.N,Net-(R3-Pad1)*%
X100584000Y-148082000D03*
%TO.N,Net-(P1-Pad9)*%
X105265990Y-147453779D03*
%TO.N,/DataOut*%
X97409000Y-146431000D03*
%TO.N,GND*%
X103774658Y-159728943D03*
X104013000Y-157911490D03*
%TO.N,+5V*%
X103110990Y-158686500D03*
X98615500Y-161163000D03*
%TO.N,Net-(C18-Pad1)*%
X73660000Y-161861500D03*
%TO.N,GNDA*%
X71945500Y-165100000D03*
%TO.N,Net-(C18-Pad1)*%
X75120500Y-164449990D03*
%TO.N,Net-(C17-Pad1)*%
X76348989Y-156886511D03*
%TO.N,Net-(C7-Pad1)*%
X77279500Y-143129000D03*
%TO.N,/BT_RESET*%
X97472500Y-164592000D03*
%TO.N,+5V*%
X97091500Y-170624500D03*
%TO.N,Net-(P1-Pad12)*%
X99314000Y-147510500D03*
%TO.N,GND*%
X103187500Y-148463000D03*
X94869000Y-153670000D03*
X108458000Y-154305000D03*
X106743500Y-170688000D03*
%TO.N,/LED2*%
X109347000Y-145669000D03*
%TO.N,/LED1*%
X108521500Y-144272000D03*
%TD*%
D25*
%TO.N,+12V*%
X78501000Y-150573500D02*
X78486000Y-150558500D01*
X78486000Y-150558500D02*
X78486000Y-145390500D01*
X78486000Y-150772000D02*
X78486000Y-150558500D01*
%TO.N,+12C*%
X76517820Y-148963400D02*
X76080600Y-148963400D01*
X76080600Y-148963400D02*
X74739500Y-150304500D01*
X74739500Y-150304500D02*
X74739500Y-152019000D01*
X74358500Y-152019000D02*
X74739500Y-152019000D01*
X74739500Y-152019000D02*
X74739500Y-153987500D01*
X74739500Y-153987500D02*
X74803000Y-154051000D01*
X76098400Y-154347540D02*
X75801860Y-154051000D01*
X74803000Y-154051000D02*
X76881490Y-154051000D01*
X75801860Y-154051000D02*
X74803000Y-154051000D01*
D26*
%TO.N,Net-(C17-Pad1)*%
X71673600Y-154368500D02*
X71628000Y-154368500D01*
X71882000Y-154576900D02*
X71673600Y-154368500D01*
X71882000Y-155476900D02*
X71882000Y-154576900D01*
D25*
%TO.N,+12C*%
X72644000Y-152019000D02*
X73933000Y-152019000D01*
X73933000Y-152019000D02*
X74358500Y-152019000D01*
D26*
%TO.N,/MIC_BIAS*%
X93733640Y-162000000D02*
X87811778Y-162000000D01*
X87811778Y-162000000D02*
X85534500Y-159722722D01*
X85534500Y-150284264D02*
X85534500Y-149860000D01*
%TO.N,/BTOUTLN*%
X86360000Y-160972500D02*
X85915500Y-160972500D01*
%TO.N,/MIC_BIAS*%
X94022440Y-161711200D02*
X93733640Y-162000000D01*
X85534500Y-159722722D02*
X85534500Y-150284264D01*
X94922440Y-161711200D02*
X94022440Y-161711200D01*
%TO.N,/BTOUTLN*%
X94922440Y-162811200D02*
X94480740Y-162369500D01*
X94480740Y-162369500D02*
X87757000Y-162369500D01*
X87757000Y-162369500D02*
X86360000Y-160972500D01*
%TO.N,/SCK*%
X97492493Y-163021092D02*
X97492493Y-163849993D01*
X97492493Y-163849993D02*
X99123500Y-165481000D01*
X100520500Y-165481000D02*
X100584000Y-165417500D01*
X99123500Y-165481000D02*
X100520500Y-165481000D01*
%TO.N,/BT_RESET*%
X103439502Y-166006002D02*
X100899502Y-166006002D01*
X97772499Y-164891999D02*
X97472500Y-164592000D01*
X105534304Y-163911200D02*
X103439502Y-166006002D01*
X100899502Y-166006002D02*
X100853004Y-166052500D01*
X98933000Y-166052500D02*
X97772499Y-164891999D01*
X108422440Y-163911200D02*
X105534304Y-163911200D01*
X100853004Y-166052500D02*
X98933000Y-166052500D01*
%TO.N,/ARESET*%
X103187500Y-162410646D02*
X103187500Y-165056736D01*
X101673660Y-160896806D02*
X103187500Y-162410646D01*
X101673660Y-156245560D02*
X101673660Y-160896806D01*
X103187500Y-165056736D02*
X103187500Y-165481000D01*
D25*
%TO.N,+12V*%
X78486000Y-145390500D02*
X81216500Y-142660000D01*
X77239000Y-152019000D02*
X78486000Y-150772000D01*
X76200000Y-152019000D02*
X77239000Y-152019000D01*
X81216500Y-142660000D02*
X81216500Y-140906500D01*
X81216500Y-140906500D02*
X81534000Y-140589000D01*
X81534000Y-140589000D02*
X81534000Y-139009120D01*
X81534000Y-139009120D02*
X81828640Y-138714480D01*
D26*
%TO.N,TX*%
X108422440Y-161711200D02*
X107926700Y-161711200D01*
X107926700Y-161711200D02*
X106426000Y-160210500D01*
X106426000Y-160210500D02*
X106426000Y-154698700D01*
X106426000Y-154698700D02*
X104973120Y-153245820D01*
%TO.N,RX*%
X108422440Y-160611200D02*
X107842700Y-160611200D01*
X106743500Y-159512000D02*
X106743500Y-153730960D01*
X107842700Y-160611200D02*
X106743500Y-159512000D01*
X106743500Y-153730960D02*
X106420920Y-153408380D01*
%TO.N,/Clock*%
X107088940Y-151839920D02*
X107088940Y-153360936D01*
X107088940Y-153360936D02*
X107200457Y-153472453D01*
%TO.N,/MICN*%
X89471500Y-156019500D02*
X89471500Y-145766000D01*
X88455500Y-157035500D02*
X89471500Y-156019500D01*
X88455500Y-158205500D02*
X88455500Y-157035500D01*
X88600000Y-158350000D02*
X88455500Y-158205500D01*
X89471500Y-145766000D02*
X89469000Y-145763500D01*
X89469000Y-145763500D02*
X88519000Y-145763500D01*
%TO.N,/MICP*%
X89107989Y-147781989D02*
X89107989Y-155811511D01*
X87825000Y-160850000D02*
X88600000Y-160850000D01*
X87249000Y-147447000D02*
X88773000Y-147447000D01*
X86233000Y-146431000D02*
X87249000Y-147447000D01*
X86233000Y-145795500D02*
X86233000Y-146431000D01*
X88773000Y-147447000D02*
X89107989Y-147781989D01*
X89107989Y-155811511D02*
X87312500Y-157607000D01*
X87312500Y-157607000D02*
X87312500Y-160337500D01*
X87312500Y-160337500D02*
X87825000Y-160850000D01*
%TO.N,/BTOUTRN*%
X94092040Y-166111200D02*
X90428800Y-166111200D01*
X90428800Y-166111200D02*
X89707999Y-166832001D01*
X89707999Y-166832001D02*
X89408000Y-167132000D01*
D25*
%TO.N,GNDA*%
X71617840Y-149037360D02*
X71247000Y-149408200D01*
X71247000Y-150304800D02*
X71373700Y-150431500D01*
X71247000Y-149408200D02*
X71247000Y-150304800D01*
X71373700Y-150431500D02*
X71247000Y-150431500D01*
%TO.N,GND*%
X91872671Y-141138511D02*
X95673225Y-141138511D01*
X95673225Y-141138511D02*
X96097489Y-141138511D01*
X89448640Y-138714480D02*
X91872671Y-141138511D01*
%TO.N,+12C*%
X76098400Y-154347540D02*
X76394940Y-154051000D01*
X76394940Y-154051000D02*
X76457226Y-154051000D01*
X76457226Y-154051000D02*
X76881490Y-154051000D01*
D26*
%TO.N,/MIC_BIAS*%
X85237000Y-149562500D02*
X85534500Y-149860000D01*
X85237000Y-148653500D02*
X85237000Y-149562500D01*
D25*
%TO.N,GND*%
X87737000Y-148653500D02*
X87737000Y-149689500D01*
X87737000Y-149689500D02*
X87503000Y-149923500D01*
D26*
%TO.N,/IN_DETECT*%
X93599000Y-153416000D02*
X92011500Y-151828500D01*
X93599000Y-155342762D02*
X93599000Y-153416000D01*
X94467438Y-156211200D02*
X93599000Y-155342762D01*
X94922440Y-156211200D02*
X94467438Y-156211200D01*
X92011500Y-151828500D02*
X91948000Y-151828500D01*
%TO.N,/INR*%
X93408500Y-156252880D02*
X93408500Y-155676600D01*
X94466820Y-157311200D02*
X93408500Y-156252880D01*
X93408500Y-155676600D02*
X92100400Y-154368500D01*
X94922440Y-157311200D02*
X94466820Y-157311200D01*
X92100400Y-154368500D02*
X91948000Y-154368500D01*
%TO.N,/INL*%
X94922440Y-158411200D02*
X93895200Y-158411200D01*
X93895200Y-158411200D02*
X92392500Y-156908500D01*
X92392500Y-156908500D02*
X91948000Y-156908500D01*
%TO.N,/IN_DETECT*%
X92600000Y-151800000D02*
X92400000Y-151800000D01*
D25*
%TO.N,GND*%
X100520500Y-145796000D02*
X100520500Y-144696264D01*
X103187500Y-148463000D02*
X100520500Y-145796000D01*
X100520500Y-144696264D02*
X100520500Y-144272000D01*
%TO.N,+5V*%
X97967800Y-150317200D02*
X100011090Y-150317200D01*
X100011090Y-150317200D02*
X101197270Y-151503380D01*
X101197270Y-151503380D02*
X101747320Y-151503380D01*
X95072200Y-150317200D02*
X97967800Y-150317200D01*
%TO.N,GNDA*%
X78295500Y-137287000D02*
X75247500Y-137287000D01*
X74208640Y-138325860D02*
X74208640Y-138714480D01*
X75247500Y-137287000D02*
X74208640Y-138325860D01*
X79288640Y-138280140D02*
X78295500Y-137287000D01*
X79288640Y-138714480D02*
X79288640Y-138280140D01*
%TO.N,GND*%
X107141500Y-162496500D02*
X105346500Y-162496500D01*
X103774658Y-160153207D02*
X103774658Y-159728943D01*
X105346500Y-162496500D02*
X103774658Y-160924658D01*
X103774658Y-160924658D02*
X103774658Y-160153207D01*
D26*
%TO.N,Net-(J1-Pad1)*%
X109791500Y-170497500D02*
X108436140Y-170497500D01*
X108436140Y-170497500D02*
X108422440Y-170511200D01*
%TO.N,Net-(J2-Pad1)*%
X109791500Y-168338500D02*
X108449740Y-168338500D01*
X108449740Y-168338500D02*
X108422440Y-168311200D01*
%TO.N,Net-(J3-Pad1)*%
X108422440Y-167211200D02*
X109775800Y-167211200D01*
X109775800Y-167211200D02*
X109791500Y-167195500D01*
%TO.N,Net-(J4-Pad1)*%
X109791500Y-166116000D02*
X108427240Y-166116000D01*
X108427240Y-166116000D02*
X108422440Y-166111200D01*
%TO.N,Net-(J5-Pad1)*%
X109791500Y-164973000D02*
X108460640Y-164973000D01*
X108460640Y-164973000D02*
X108422440Y-165011200D01*
D25*
%TO.N,GNDA*%
X73914000Y-144072600D02*
X73914000Y-146339880D01*
D26*
%TO.N,Net-(IC1-Pad12)*%
X98887280Y-151613860D02*
X98887280Y-158892240D01*
X98887280Y-158892240D02*
X101754940Y-161759900D01*
D25*
%TO.N,+BATT*%
X94922440Y-168311200D02*
X96132020Y-168311200D01*
X96132020Y-168311200D02*
X96205040Y-168384220D01*
%TO.N,GND*%
X93383100Y-171681140D02*
X94852500Y-171681140D01*
X94852500Y-171681140D02*
X94922440Y-171611200D01*
%TO.N,+BATT*%
X92362299Y-167670759D02*
X92062300Y-167370760D01*
X94922440Y-168311200D02*
X93002740Y-168311200D01*
X93002740Y-168311200D02*
X92362299Y-167670759D01*
%TO.N,GNDA*%
X76062840Y-143957040D02*
X73903840Y-143957040D01*
%TO.N,GND*%
X94922440Y-155111200D02*
X94467438Y-155111200D01*
X95144587Y-171833347D02*
X94922440Y-171611200D01*
D26*
%TO.N,Net-(IC1-Pad31)*%
X104739440Y-138757660D02*
X104739440Y-149127220D01*
X104739440Y-149127220D02*
X104792780Y-149180560D01*
%TO.N,TX*%
X104973120Y-153245820D02*
X104973120Y-152060900D01*
X104973120Y-152060900D02*
X104792780Y-151880560D01*
%TO.N,/BTOUTRN*%
X86761571Y-169250109D02*
X86649560Y-169362120D01*
D25*
%TO.N,/CDC_ENA_12V*%
X97068640Y-138927840D02*
X97068640Y-138714480D01*
X97068640Y-138714480D02*
X97068640Y-138978640D01*
X97068640Y-138714480D02*
X97414080Y-138714480D01*
%TO.N,GND*%
X89496900Y-138762740D02*
X89448640Y-138714480D01*
D26*
%TO.N,/DataOut*%
X94526100Y-138717020D02*
X94528640Y-138714480D01*
%TO.N,/AOUTL*%
X70987920Y-139395200D02*
X71668640Y-138714480D01*
X74041000Y-141343400D02*
X72029320Y-141343400D01*
%TO.N,Net-(C8-Pad1)*%
X71945180Y-146022060D02*
X71945180Y-143460140D01*
%TO.N,/MIC_IN1*%
X86908640Y-138714480D02*
X86908640Y-138328400D01*
X86908640Y-138714480D02*
X86908640Y-138348720D01*
%TO.N,/BTOUTR*%
X89192000Y-165011200D02*
X89169240Y-165033960D01*
X94922440Y-165011200D02*
X89192000Y-165011200D01*
%TO.N,/BTOUTRN*%
X94092040Y-166111200D02*
X94022440Y-166111200D01*
X94922440Y-166111200D02*
X94092040Y-166111200D01*
%TO.N,/BTOUTL*%
X87111200Y-163911200D02*
X86800000Y-163600000D01*
X94922440Y-163911200D02*
X87111200Y-163911200D01*
%TO.N,/MICN*%
X94467438Y-159511200D02*
X94922440Y-159511200D01*
%TO.N,/MICP*%
X94022440Y-160611200D02*
X94922440Y-160611200D01*
X93433640Y-161200000D02*
X94022440Y-160611200D01*
X90000000Y-161200000D02*
X93433640Y-161200000D01*
X89650000Y-160850000D02*
X90000000Y-161200000D01*
X88600000Y-160850000D02*
X89650000Y-160850000D01*
%TO.N,/MICN*%
X94447441Y-159986199D02*
X94922440Y-159511200D01*
X93992439Y-159986199D02*
X94447441Y-159986199D01*
X93178638Y-160800000D02*
X93992439Y-159986199D01*
X88600000Y-158600000D02*
X90800000Y-160800000D01*
X88600000Y-158350000D02*
X88600000Y-158600000D01*
X90800000Y-160800000D02*
X93178638Y-160800000D01*
%TO.N,/INR*%
X92400000Y-154340000D02*
X92400000Y-154800000D01*
D25*
%TO.N,/CDC_ENA_12V*%
X97068640Y-139217360D02*
X97068640Y-138714480D01*
X92000000Y-143120000D02*
X93166000Y-143120000D01*
%TO.N,+5V*%
X97655240Y-150317200D02*
X97967800Y-150317200D01*
X92000000Y-148200000D02*
X94117200Y-150317200D01*
%TO.N,/CDC_ENA_12V*%
X94644000Y-143120000D02*
X94742000Y-143022000D01*
X92000000Y-143120000D02*
X94644000Y-143120000D01*
D26*
%TO.N,Net-(IC1-Pad31)*%
X103692762Y-150307238D02*
X103692762Y-151996140D01*
X103759000Y-150241000D02*
X103692762Y-150307238D01*
X103759000Y-150214340D02*
X103759000Y-150241000D01*
X104792780Y-149180560D02*
X103759000Y-150214340D01*
%TO.N,Net-(R3-Pad1)*%
X100584000Y-149291080D02*
X100584000Y-148082000D01*
X100797320Y-149504400D02*
X100584000Y-149291080D01*
%TO.N,Net-(P1-Pad9)*%
X106302799Y-147453779D02*
X105265990Y-147453779D01*
X107088940Y-148239920D02*
X106302799Y-147453779D01*
X107088940Y-149139920D02*
X107088940Y-148239920D01*
%TO.N,/DataOut*%
X98087280Y-148913860D02*
X97409000Y-148235580D01*
X97409000Y-148235580D02*
X97409000Y-146855264D01*
X97409000Y-146855264D02*
X97409000Y-146431000D01*
X98887280Y-148913860D02*
X98087280Y-148913860D01*
D25*
%TO.N,GND*%
X92138000Y-145522000D02*
X92000000Y-145660000D01*
%TO.N,/CDC_ENA_12V*%
X97068640Y-142072360D02*
X97068640Y-138714480D01*
X96119000Y-143022000D02*
X97068640Y-142072360D01*
X94742000Y-143022000D02*
X96119000Y-143022000D01*
%TO.N,GND*%
X103774658Y-159728943D02*
X104074657Y-159428944D01*
X104074657Y-159428944D02*
X104074657Y-157973147D01*
X104074657Y-157973147D02*
X104013000Y-157911490D01*
%TO.N,+5V*%
X101747320Y-151503380D02*
X101747320Y-152053430D01*
X103110990Y-153417100D02*
X103110990Y-158262236D01*
X101747320Y-152053430D02*
X103110990Y-153417100D01*
X103110990Y-158262236D02*
X103110990Y-158686500D01*
%TO.N,GNDA*%
X73943860Y-149037360D02*
X74017820Y-148963400D01*
X71617840Y-149037360D02*
X73943860Y-149037360D01*
X74017820Y-146443700D02*
X74002580Y-146428460D01*
X74017820Y-148963400D02*
X74017820Y-146443700D01*
D26*
%TO.N,Net-(C17-Pad1)*%
X73975900Y-155476900D02*
X73977500Y-155478500D01*
X71882000Y-155476900D02*
X73975900Y-155476900D01*
%TO.N,/VGND*%
X73775900Y-157976900D02*
X73977500Y-158178500D01*
X71882000Y-157976900D02*
X73775900Y-157976900D01*
X76079360Y-158178500D02*
X76098400Y-158197540D01*
X73977500Y-158178500D02*
X76079360Y-158178500D01*
X76098400Y-160451820D02*
X76100940Y-160454360D01*
X76098400Y-158197540D02*
X76098400Y-160451820D01*
X74025760Y-160454360D02*
X74013060Y-160467060D01*
X76100940Y-160454360D02*
X74025760Y-160454360D01*
X72126780Y-160467060D02*
X71892160Y-160701680D01*
X74013060Y-160467060D02*
X72126780Y-160467060D01*
%TO.N,Net-(C18-Pad1)*%
X73978440Y-163201680D02*
X74013060Y-163167060D01*
X71892160Y-163201680D02*
X73978440Y-163201680D01*
X73959999Y-162161499D02*
X73660000Y-161861500D01*
X74013060Y-162214560D02*
X73959999Y-162161499D01*
X74013060Y-163167060D02*
X74013060Y-162214560D01*
D25*
%TO.N,GNDA*%
X76039980Y-163215320D02*
X76100940Y-163154360D01*
X76039980Y-163215320D02*
X76039980Y-164371020D01*
X76006960Y-164782500D02*
X76039980Y-164815520D01*
X76039980Y-164815520D02*
X76039980Y-163215320D01*
X76039980Y-166497000D02*
X76039980Y-164815520D01*
X74002580Y-147701000D02*
X74002580Y-146428460D01*
%TO.N,+12V*%
X81915000Y-138800840D02*
X81828640Y-138714480D01*
D26*
%TO.N,/MIC_IN2*%
X86233000Y-140578840D02*
X84368640Y-138714480D01*
X86233000Y-141795500D02*
X86233000Y-140578840D01*
%TO.N,/MIC_IN1*%
X88519000Y-140324840D02*
X88519000Y-141763500D01*
X86908640Y-138714480D02*
X88519000Y-140324840D01*
D25*
%TO.N,+12C*%
X76098400Y-155397540D02*
X76505441Y-154990499D01*
X76098400Y-155397540D02*
X76098400Y-155497540D01*
%TO.N,GNDA*%
X76217300Y-163038000D02*
X76100940Y-163154360D01*
D26*
%TO.N,/AOUTL*%
X71628000Y-138755120D02*
X71668640Y-138714480D01*
X71628000Y-141368800D02*
X71628000Y-138755120D01*
%TO.N,/AOUTR*%
X76748640Y-140712200D02*
X76080620Y-141380220D01*
X76748640Y-138714480D02*
X76748640Y-140712200D01*
D25*
%TO.N,+12C*%
X72644000Y-151511000D02*
X72644000Y-152019000D01*
X76517820Y-148963400D02*
X76114598Y-148963400D01*
X76098400Y-155497540D02*
X76098400Y-155536900D01*
X76098400Y-155497540D02*
X76098400Y-154347540D01*
%TO.N,+12V*%
X76200000Y-152019000D02*
X77089000Y-152019000D01*
D26*
%TO.N,/VGND*%
X73058020Y-166814500D02*
X72994520Y-166878000D01*
X71117160Y-160701680D02*
X71892160Y-160701680D01*
X72994520Y-166878000D02*
X71247000Y-166878000D01*
X71247000Y-166878000D02*
X70612000Y-166243000D01*
X70612000Y-161206840D02*
X71117160Y-160701680D01*
X70612000Y-166243000D02*
X70612000Y-161206840D01*
D25*
%TO.N,GNDA*%
X75674459Y-165115001D02*
X76006960Y-164782500D01*
X75674459Y-165115001D02*
X75722480Y-165066980D01*
X75659458Y-165100000D02*
X71945500Y-165100000D01*
X75674459Y-165115001D02*
X75659458Y-165100000D01*
D26*
%TO.N,Net-(C18-Pad1)*%
X75120500Y-164274500D02*
X75120500Y-164449990D01*
X74013060Y-163167060D02*
X75120500Y-164274500D01*
%TO.N,Net-(C17-Pad1)*%
X75924725Y-156886511D02*
X76348989Y-156886511D01*
X74485511Y-156886511D02*
X75924725Y-156886511D01*
X73977500Y-156378500D02*
X74485511Y-156886511D01*
X73977500Y-155478500D02*
X73977500Y-156378500D01*
D25*
%TO.N,+12C*%
X72644000Y-152400000D02*
X72644000Y-152019000D01*
D26*
%TO.N,Net-(C7-Pad1)*%
X77279500Y-144876540D02*
X77279500Y-143553264D01*
X76502580Y-146428460D02*
X76502580Y-145653460D01*
X76502580Y-145653460D02*
X77279500Y-144876540D01*
X77279500Y-143553264D02*
X77279500Y-143129000D01*
D25*
%TO.N,+5V*%
X96478199Y-166391699D02*
X97091500Y-167005000D01*
X98615500Y-161163000D02*
X98191236Y-161163000D01*
X97091500Y-170200236D02*
X97091500Y-170624500D01*
X96478199Y-162876037D02*
X96478199Y-166391699D01*
X97091500Y-167005000D02*
X97091500Y-170200236D01*
X98191236Y-161163000D02*
X96478199Y-162876037D01*
X94117200Y-150317200D02*
X95072200Y-150317200D01*
D26*
%TO.N,Net-(P1-Pad12)*%
X99608640Y-147215860D02*
X99314000Y-147510500D01*
X99608640Y-138714480D02*
X99608640Y-147215860D01*
D25*
%TO.N,GND*%
X102697320Y-148953180D02*
X103187500Y-148463000D01*
X102697320Y-149504400D02*
X102697320Y-148953180D01*
X94922440Y-155111200D02*
X94922440Y-153723440D01*
X94922440Y-153723440D02*
X94869000Y-153670000D01*
X108458000Y-155075640D02*
X108422440Y-155111200D01*
X108458000Y-154305000D02*
X108458000Y-155075640D01*
X106743500Y-169940140D02*
X106743500Y-170688000D01*
X107272440Y-169411200D02*
X106743500Y-169940140D01*
X108422440Y-169411200D02*
X107272440Y-169411200D01*
X107095200Y-171611200D02*
X108422440Y-171611200D01*
X106743500Y-171259500D02*
X107095200Y-171611200D01*
X106743500Y-170688000D02*
X106743500Y-171259500D01*
X105820300Y-171611200D02*
X106743500Y-170688000D01*
X94922440Y-171611200D02*
X105820300Y-171611200D01*
D26*
%TO.N,/LED2*%
X109647441Y-156986199D02*
X109647441Y-145969441D01*
X109646999Y-145968999D02*
X109347000Y-145669000D01*
X109647441Y-145969441D02*
X109646999Y-145968999D01*
X109322440Y-157311200D02*
X109647441Y-156986199D01*
X108422440Y-157311200D02*
X109322440Y-157311200D01*
%TO.N,/LED1*%
X107522440Y-158411200D02*
X108422440Y-158411200D01*
X108521500Y-153225500D02*
X107188000Y-154559000D01*
X107188000Y-154559000D02*
X107188000Y-158076760D01*
X108521500Y-144272000D02*
X108521500Y-153225500D01*
X107188000Y-158076760D02*
X107522440Y-158411200D01*
D25*
%TO.N,+12C*%
X76944990Y-154114500D02*
X76881490Y-154051000D01*
X79340000Y-154114500D02*
X76944990Y-154114500D01*
X80518000Y-155292500D02*
X79340000Y-154114500D01*
%TO.N,GNDA*%
X78578000Y-164782500D02*
X80518000Y-162842500D01*
X76006960Y-164782500D02*
X78578000Y-164782500D01*
%TD*%
D27*
%TO.N,GNDA*%
G36*
X82805000Y-138152364D02*
G01*
X82725357Y-138023914D01*
X82568185Y-137857709D01*
X82380803Y-137726502D01*
X82167796Y-137634327D01*
X81871647Y-137588480D01*
X81771487Y-137588480D01*
X81601059Y-137605791D01*
X81382775Y-137674198D01*
X81182703Y-137785099D01*
X81009019Y-137933965D01*
X80868815Y-138114714D01*
X80767819Y-138319964D01*
X80742556Y-138416950D01*
X80715184Y-138286497D01*
X80622679Y-138052258D01*
X80492030Y-137836954D01*
X80326971Y-137646741D01*
X80132224Y-137487058D01*
X79913356Y-137362471D01*
X79673809Y-137275520D01*
X79416640Y-137241433D01*
X79416640Y-140214458D01*
X79783348Y-140119280D01*
X80012969Y-140015843D01*
X80221880Y-139875196D01*
X80404106Y-139701361D01*
X80554437Y-139499308D01*
X80668576Y-139274814D01*
X80743258Y-139034299D01*
X80744117Y-139027815D01*
X80811380Y-139210631D01*
X80931923Y-139405046D01*
X81058001Y-139538370D01*
X81058000Y-140391834D01*
X80888728Y-140561107D01*
X80817618Y-140625134D01*
X80803561Y-140668399D01*
X80762189Y-140732107D01*
X80748337Y-140819561D01*
X79155590Y-140819561D01*
X79060310Y-140838514D01*
X78969015Y-140899515D01*
X78908014Y-140990810D01*
X78889061Y-141086090D01*
X78889061Y-144314275D01*
X78158239Y-145045097D01*
X78087118Y-145109134D01*
X78073061Y-145152399D01*
X78031689Y-145216107D01*
X78000034Y-145415968D01*
X78010001Y-145453167D01*
X78010000Y-150534435D01*
X78010000Y-150546045D01*
X78008407Y-150576427D01*
X77367939Y-151216896D01*
X77367939Y-150609590D01*
X77348986Y-150514310D01*
X77287985Y-150423015D01*
X77196690Y-150362014D01*
X77101410Y-150343061D01*
X75374103Y-150343061D01*
X75849826Y-149867339D01*
X77280230Y-149867339D01*
X77375510Y-149848386D01*
X77466805Y-149787385D01*
X77527806Y-149696090D01*
X77546759Y-149600810D01*
X77546759Y-148325990D01*
X77527806Y-148230710D01*
X77466805Y-148139415D01*
X77375510Y-148078414D01*
X77280230Y-148059461D01*
X75755410Y-148059461D01*
X75660130Y-148078414D01*
X75568835Y-148139415D01*
X75507834Y-148230710D01*
X75488881Y-148325990D01*
X75488881Y-148881954D01*
X75279435Y-149091400D01*
X74145820Y-149091400D01*
X74145820Y-150230237D01*
X74269330Y-150230237D01*
X74253534Y-150329968D01*
X74263500Y-150367164D01*
X74263501Y-151543000D01*
X73811939Y-151543000D01*
X73811939Y-150609590D01*
X73792986Y-150514310D01*
X73731985Y-150423015D01*
X73640690Y-150362014D01*
X73545410Y-150343061D01*
X72566911Y-150343061D01*
X72736005Y-150201175D01*
X72825011Y-150047011D01*
X72854005Y-150081565D01*
X73047634Y-150193356D01*
X73256796Y-150230237D01*
X73889820Y-150230237D01*
X73889820Y-147696563D01*
X74145820Y-147696563D01*
X74145820Y-148835400D01*
X75409657Y-148835400D01*
X75409657Y-148321812D01*
X75329025Y-148020889D01*
X75181635Y-147845235D01*
X74988006Y-147733444D01*
X74778844Y-147696563D01*
X74145820Y-147696563D01*
X73889820Y-147696563D01*
X73251232Y-147696563D01*
X72950309Y-147777195D01*
X72774655Y-147924585D01*
X72771153Y-147930650D01*
X72656655Y-147794195D01*
X72463026Y-147682404D01*
X72253864Y-147645523D01*
X71745840Y-147645523D01*
X71745840Y-150343061D01*
X71742590Y-150343061D01*
X71647310Y-150362014D01*
X71556015Y-150423015D01*
X71495014Y-150514310D01*
X71476061Y-150609590D01*
X71476061Y-153428410D01*
X71495014Y-153523690D01*
X71556015Y-153614985D01*
X71647310Y-153675986D01*
X71742590Y-153694939D01*
X73545410Y-153694939D01*
X73640690Y-153675986D01*
X73731985Y-153614985D01*
X73792986Y-153523690D01*
X73811939Y-153428410D01*
X73811939Y-152495000D01*
X74263500Y-152495000D01*
X74263501Y-153975028D01*
X74258492Y-154070595D01*
X74279146Y-154111131D01*
X74294939Y-154185432D01*
X74413879Y-154349140D01*
X74447230Y-154368395D01*
X74457593Y-154378758D01*
X74521345Y-154449561D01*
X73315090Y-154449561D01*
X73219810Y-154468514D01*
X73128515Y-154529515D01*
X73067514Y-154620810D01*
X73048561Y-154716090D01*
X73048561Y-155125900D01*
X72785939Y-155125900D01*
X72785939Y-154714490D01*
X72766986Y-154619210D01*
X72705985Y-154527915D01*
X72614690Y-154466914D01*
X72519410Y-154447961D01*
X72212856Y-154447961D01*
X72209079Y-154441419D01*
X72202527Y-154416965D01*
X72204414Y-154262408D01*
X72127078Y-154061465D01*
X71983086Y-153902384D01*
X71791477Y-153805805D01*
X71577950Y-153784681D01*
X71371131Y-153841842D01*
X71198758Y-153969625D01*
X71083944Y-154150893D01*
X71042083Y-154361341D01*
X71069655Y-154520138D01*
X71058015Y-154527915D01*
X70997014Y-154619210D01*
X70978061Y-154714490D01*
X70978061Y-156239310D01*
X70997014Y-156334590D01*
X71058015Y-156425885D01*
X71149310Y-156486886D01*
X71244590Y-156505839D01*
X72519410Y-156505839D01*
X72614690Y-156486886D01*
X72705985Y-156425885D01*
X72766986Y-156334590D01*
X72785939Y-156239310D01*
X72785939Y-155827900D01*
X73048561Y-155827900D01*
X73048561Y-156240910D01*
X73067514Y-156336190D01*
X73128515Y-156427485D01*
X73219810Y-156488486D01*
X73315090Y-156507439D01*
X73646644Y-156507439D01*
X73650422Y-156513983D01*
X73662804Y-156560191D01*
X73693900Y-156591287D01*
X73693902Y-156591290D01*
X74252172Y-157149561D01*
X73315090Y-157149561D01*
X73219810Y-157168514D01*
X73128515Y-157229515D01*
X73067514Y-157320810D01*
X73048561Y-157416090D01*
X73048561Y-157625900D01*
X72785939Y-157625900D01*
X72785939Y-157214490D01*
X72766986Y-157119210D01*
X72705985Y-157027915D01*
X72614690Y-156966914D01*
X72519410Y-156947961D01*
X71244590Y-156947961D01*
X71149310Y-156966914D01*
X71058015Y-157027915D01*
X70997014Y-157119210D01*
X70978061Y-157214490D01*
X70978061Y-158739310D01*
X70997014Y-158834590D01*
X71058015Y-158925885D01*
X71149310Y-158986886D01*
X71244590Y-159005839D01*
X72519410Y-159005839D01*
X72614690Y-158986886D01*
X72705985Y-158925885D01*
X72766986Y-158834590D01*
X72785939Y-158739310D01*
X72785939Y-158327900D01*
X73048561Y-158327900D01*
X73048561Y-158940910D01*
X73067514Y-159036190D01*
X73128515Y-159127485D01*
X73219810Y-159188486D01*
X73315090Y-159207439D01*
X74639910Y-159207439D01*
X74735190Y-159188486D01*
X74826485Y-159127485D01*
X74887486Y-159036190D01*
X74906439Y-158940910D01*
X74906439Y-158529500D01*
X75169461Y-158529500D01*
X75169461Y-158959950D01*
X75188414Y-159055230D01*
X75249415Y-159146525D01*
X75340710Y-159207526D01*
X75435990Y-159226479D01*
X75747400Y-159226479D01*
X75747401Y-159425421D01*
X75438530Y-159425421D01*
X75343250Y-159444374D01*
X75251955Y-159505375D01*
X75190954Y-159596670D01*
X75172001Y-159691950D01*
X75172001Y-160103360D01*
X74941999Y-160103360D01*
X74941999Y-159704650D01*
X74923046Y-159609370D01*
X74862045Y-159518075D01*
X74770750Y-159457074D01*
X74675470Y-159438121D01*
X73350650Y-159438121D01*
X73255370Y-159457074D01*
X73164075Y-159518075D01*
X73103074Y-159609370D01*
X73084121Y-159704650D01*
X73084121Y-160116060D01*
X72796099Y-160116060D01*
X72796099Y-159939270D01*
X72777146Y-159843990D01*
X72716145Y-159752695D01*
X72624850Y-159691694D01*
X72529570Y-159672741D01*
X71254750Y-159672741D01*
X71159470Y-159691694D01*
X71068175Y-159752695D01*
X71007174Y-159843990D01*
X70988221Y-159939270D01*
X70988221Y-160370824D01*
X70981679Y-160374601D01*
X70935470Y-160386982D01*
X70904372Y-160418080D01*
X70904369Y-160418082D01*
X70328402Y-160994050D01*
X70328400Y-160994053D01*
X70297304Y-161025149D01*
X70284922Y-161071357D01*
X70261001Y-161112791D01*
X70261001Y-161177219D01*
X70261000Y-166288131D01*
X70261001Y-166288135D01*
X70261001Y-166337050D01*
X70284921Y-166378480D01*
X70297302Y-166424688D01*
X70443339Y-166570729D01*
X70443341Y-166570729D01*
X71034209Y-167161598D01*
X71034212Y-167161600D01*
X71065310Y-167192698D01*
X71111519Y-167205079D01*
X71152949Y-167228999D01*
X71196929Y-167228999D01*
X71196932Y-167229000D01*
X71279211Y-167229000D01*
X71279211Y-167577480D01*
X71298164Y-167672760D01*
X71359165Y-167764055D01*
X71450460Y-167825056D01*
X71545740Y-167844009D01*
X74570300Y-167844009D01*
X74665580Y-167825056D01*
X74756875Y-167764055D01*
X74817876Y-167672760D01*
X74836829Y-167577480D01*
X74836829Y-166942500D01*
X74914273Y-166942500D01*
X74914273Y-167581658D01*
X74994905Y-167882582D01*
X75142295Y-168058235D01*
X75335924Y-168170026D01*
X75545086Y-168206907D01*
X76927980Y-168206907D01*
X76927980Y-166942500D01*
X77183980Y-166942500D01*
X77183980Y-168206907D01*
X78572438Y-168206907D01*
X78873362Y-168126275D01*
X79049015Y-167978885D01*
X79160806Y-167785256D01*
X79197687Y-167576094D01*
X79197687Y-166942500D01*
X77183980Y-166942500D01*
X76927980Y-166942500D01*
X74914273Y-166942500D01*
X74836829Y-166942500D01*
X74836829Y-166052906D01*
X74914273Y-166052906D01*
X74914273Y-166686500D01*
X76927980Y-166686500D01*
X76927980Y-165422093D01*
X77183980Y-165422093D01*
X77183980Y-166686500D01*
X79197687Y-166686500D01*
X79197687Y-166047342D01*
X79117055Y-165746419D01*
X78969665Y-165570765D01*
X78776036Y-165458974D01*
X78566874Y-165422093D01*
X77183980Y-165422093D01*
X76927980Y-165422093D01*
X75539522Y-165422093D01*
X75238599Y-165502725D01*
X75062945Y-165650115D01*
X74951154Y-165843744D01*
X74914273Y-166052906D01*
X74836829Y-166052906D01*
X74836829Y-166051520D01*
X74817876Y-165956240D01*
X74756875Y-165864945D01*
X74665580Y-165803944D01*
X74570300Y-165784991D01*
X71545740Y-165784991D01*
X71450460Y-165803944D01*
X71359165Y-165864945D01*
X71298164Y-165956240D01*
X71279211Y-166051520D01*
X71279211Y-166413822D01*
X70963000Y-166097612D01*
X70963000Y-161352228D01*
X70988221Y-161327007D01*
X70988221Y-161464090D01*
X71007174Y-161559370D01*
X71068175Y-161650665D01*
X71159470Y-161711666D01*
X71254750Y-161730619D01*
X72529570Y-161730619D01*
X72624850Y-161711666D01*
X72716145Y-161650665D01*
X72777146Y-161559370D01*
X72796099Y-161464090D01*
X72796099Y-160818060D01*
X73084121Y-160818060D01*
X73084121Y-161229470D01*
X73103074Y-161324750D01*
X73164075Y-161416045D01*
X73232194Y-161461560D01*
X73230758Y-161462625D01*
X73115944Y-161643893D01*
X73074083Y-161854341D01*
X73110790Y-162065750D01*
X73191248Y-162199919D01*
X73164075Y-162218075D01*
X73103074Y-162309370D01*
X73084121Y-162404650D01*
X73084121Y-162850680D01*
X72796099Y-162850680D01*
X72796099Y-162439270D01*
X72777146Y-162343990D01*
X72716145Y-162252695D01*
X72624850Y-162191694D01*
X72529570Y-162172741D01*
X71254750Y-162172741D01*
X71159470Y-162191694D01*
X71068175Y-162252695D01*
X71007174Y-162343990D01*
X70988221Y-162439270D01*
X70988221Y-163964090D01*
X71007174Y-164059370D01*
X71068175Y-164150665D01*
X71159470Y-164211666D01*
X71254750Y-164230619D01*
X72529570Y-164230619D01*
X72624850Y-164211666D01*
X72716145Y-164150665D01*
X72777146Y-164059370D01*
X72796099Y-163964090D01*
X72796099Y-163552680D01*
X73084121Y-163552680D01*
X73084121Y-163929470D01*
X73103074Y-164024750D01*
X73164075Y-164116045D01*
X73255370Y-164177046D01*
X73350650Y-164195999D01*
X74545611Y-164195999D01*
X74578597Y-164228985D01*
X74576444Y-164232383D01*
X74534583Y-164442831D01*
X74571290Y-164654240D01*
X74681642Y-164838258D01*
X74850841Y-164970215D01*
X75056200Y-165032412D01*
X75270182Y-165016511D01*
X75464092Y-164924642D01*
X75611927Y-164769127D01*
X75694151Y-164570133D01*
X75694443Y-164546197D01*
X75972940Y-164546197D01*
X75972940Y-163282360D01*
X76228940Y-163282360D01*
X76228940Y-164546197D01*
X76767528Y-164546197D01*
X77068452Y-164465565D01*
X77244105Y-164318175D01*
X77355896Y-164124546D01*
X77392777Y-163915384D01*
X77392777Y-163282360D01*
X76228940Y-163282360D01*
X75972940Y-163282360D01*
X75972940Y-161762523D01*
X76228940Y-161762523D01*
X76228940Y-163026360D01*
X77392777Y-163026360D01*
X77392777Y-162970500D01*
X78526163Y-162970500D01*
X78526163Y-164734088D01*
X78606795Y-165035012D01*
X78754185Y-165210665D01*
X78947814Y-165322456D01*
X79156976Y-165359337D01*
X80390000Y-165359337D01*
X80390000Y-162970500D01*
X80646000Y-162970500D01*
X80646000Y-165359337D01*
X81884588Y-165359337D01*
X82185512Y-165278705D01*
X82361165Y-165131315D01*
X82472956Y-164937686D01*
X82509837Y-164728524D01*
X82509837Y-162970500D01*
X80646000Y-162970500D01*
X80390000Y-162970500D01*
X78526163Y-162970500D01*
X77392777Y-162970500D01*
X77392777Y-162387772D01*
X77312145Y-162086849D01*
X77164755Y-161911195D01*
X76971126Y-161799404D01*
X76761964Y-161762523D01*
X76228940Y-161762523D01*
X75972940Y-161762523D01*
X75434352Y-161762523D01*
X75133429Y-161843155D01*
X74957775Y-161990545D01*
X74845984Y-162184174D01*
X74842329Y-162204901D01*
X74770750Y-162157074D01*
X74675470Y-162138121D01*
X74364059Y-162138121D01*
X74364059Y-162120511D01*
X74340140Y-162079081D01*
X74327757Y-162032870D01*
X74234168Y-161939280D01*
X74236414Y-161755408D01*
X74159078Y-161554465D01*
X74106158Y-161495999D01*
X74675470Y-161495999D01*
X74770750Y-161477046D01*
X74862045Y-161416045D01*
X74923046Y-161324750D01*
X74941999Y-161229470D01*
X74941999Y-160805360D01*
X75172001Y-160805360D01*
X75172001Y-161216770D01*
X75190954Y-161312050D01*
X75251955Y-161403345D01*
X75343250Y-161464346D01*
X75438530Y-161483299D01*
X76763350Y-161483299D01*
X76858630Y-161464346D01*
X76949925Y-161403345D01*
X77010926Y-161312050D01*
X77029879Y-161216770D01*
X77029879Y-160956476D01*
X78526163Y-160956476D01*
X78526163Y-162714500D01*
X80390000Y-162714500D01*
X80390000Y-160325663D01*
X80646000Y-160325663D01*
X80646000Y-162714500D01*
X82509837Y-162714500D01*
X82509837Y-160950912D01*
X82429205Y-160649989D01*
X82281815Y-160474335D01*
X82088186Y-160362544D01*
X81879024Y-160325663D01*
X80646000Y-160325663D01*
X80390000Y-160325663D01*
X79151412Y-160325663D01*
X78850489Y-160406295D01*
X78674835Y-160553685D01*
X78563044Y-160747314D01*
X78526163Y-160956476D01*
X77029879Y-160956476D01*
X77029879Y-159691950D01*
X77010926Y-159596670D01*
X76949925Y-159505375D01*
X76858630Y-159444374D01*
X76763350Y-159425421D01*
X76449400Y-159425421D01*
X76449400Y-159226479D01*
X76760810Y-159226479D01*
X76856090Y-159207526D01*
X76947385Y-159146525D01*
X77008386Y-159055230D01*
X77027339Y-158959950D01*
X77027339Y-157435130D01*
X77008386Y-157339850D01*
X76947385Y-157248555D01*
X76856090Y-157187554D01*
X76848515Y-157186047D01*
X76922640Y-157006654D01*
X76925403Y-156780419D01*
X76848067Y-156579476D01*
X76794102Y-156519856D01*
X76856090Y-156507526D01*
X76947385Y-156446525D01*
X77008386Y-156355230D01*
X77027339Y-156259950D01*
X77027339Y-154735130D01*
X77008386Y-154639850D01*
X76995250Y-154620190D01*
X77031172Y-154617521D01*
X77088205Y-154590500D01*
X78889061Y-154590500D01*
X78889061Y-157179910D01*
X78908014Y-157275190D01*
X78969015Y-157366485D01*
X79060310Y-157427486D01*
X79155590Y-157446439D01*
X81880410Y-157446439D01*
X81975690Y-157427486D01*
X82066985Y-157366485D01*
X82127986Y-157275190D01*
X82146939Y-157179910D01*
X82146939Y-153405090D01*
X82127986Y-153309810D01*
X82066985Y-153218515D01*
X81975690Y-153157514D01*
X81880410Y-153138561D01*
X79155590Y-153138561D01*
X79060310Y-153157514D01*
X78969015Y-153218515D01*
X78908014Y-153309810D01*
X78889061Y-153405090D01*
X78889061Y-153638500D01*
X77285106Y-153638500D01*
X77272928Y-153625046D01*
X77287985Y-153614985D01*
X77348986Y-153523690D01*
X77367939Y-153428410D01*
X77367939Y-152478227D01*
X77436931Y-152463563D01*
X77600639Y-152344622D01*
X77619897Y-152311266D01*
X78526163Y-151405001D01*
X78526163Y-152415088D01*
X78606795Y-152716012D01*
X78754185Y-152891665D01*
X78947814Y-153003456D01*
X79156976Y-153040337D01*
X80390000Y-153040337D01*
X80390000Y-150651500D01*
X80646000Y-150651500D01*
X80646000Y-153040337D01*
X81884588Y-153040337D01*
X82185512Y-152959705D01*
X82361165Y-152812315D01*
X82472956Y-152618686D01*
X82509837Y-152409524D01*
X82509837Y-150651500D01*
X80646000Y-150651500D01*
X80390000Y-150651500D01*
X80390000Y-148006663D01*
X80646000Y-148006663D01*
X80646000Y-150395500D01*
X82509837Y-150395500D01*
X82509837Y-148631912D01*
X82429205Y-148330989D01*
X82281815Y-148155335D01*
X82088186Y-148043544D01*
X81879024Y-148006663D01*
X80646000Y-148006663D01*
X80390000Y-148006663D01*
X79151412Y-148006663D01*
X78962000Y-148057416D01*
X78962000Y-145587663D01*
X79422224Y-145127439D01*
X81880410Y-145127439D01*
X81975690Y-145108486D01*
X82066985Y-145047485D01*
X82127986Y-144956190D01*
X82146939Y-144860910D01*
X82146939Y-141086090D01*
X82127986Y-140990810D01*
X82066985Y-140899515D01*
X81975690Y-140838514D01*
X81945202Y-140832449D01*
X81946941Y-140827100D01*
X81988311Y-140763393D01*
X82019966Y-140563533D01*
X82010000Y-140526337D01*
X82010000Y-139827864D01*
X82056221Y-139823169D01*
X82274505Y-139754762D01*
X82474577Y-139643861D01*
X82648261Y-139494995D01*
X82788465Y-139314246D01*
X82805000Y-139280643D01*
X82805000Y-172340000D01*
X69722000Y-172340000D01*
X69722000Y-149165360D01*
X70351003Y-149165360D01*
X70351003Y-149803948D01*
X70431635Y-150104872D01*
X70579025Y-150280525D01*
X70772654Y-150392316D01*
X70981816Y-150429197D01*
X71489840Y-150429197D01*
X71489840Y-149165360D01*
X70351003Y-149165360D01*
X69722000Y-149165360D01*
X69722000Y-148276336D01*
X70351003Y-148276336D01*
X70351003Y-148909360D01*
X71489840Y-148909360D01*
X71489840Y-147645523D01*
X70976252Y-147645523D01*
X70675329Y-147726155D01*
X70499675Y-147873545D01*
X70387884Y-148067174D01*
X70351003Y-148276336D01*
X69722000Y-148276336D01*
X69722000Y-143306390D01*
X70699061Y-143306390D01*
X70699061Y-144831210D01*
X70718014Y-144926490D01*
X70779015Y-145017785D01*
X70870310Y-145078786D01*
X70965590Y-145097739D01*
X71594180Y-145097739D01*
X71594180Y-145508421D01*
X70980430Y-145508421D01*
X70885150Y-145527374D01*
X70793855Y-145588375D01*
X70732854Y-145679670D01*
X70713901Y-145774950D01*
X70713901Y-147299770D01*
X70732854Y-147395050D01*
X70793855Y-147486345D01*
X70885150Y-147547346D01*
X70980430Y-147566299D01*
X72255250Y-147566299D01*
X72350530Y-147547346D01*
X72441825Y-147486345D01*
X72502826Y-147395050D01*
X72521779Y-147299770D01*
X72521779Y-146556460D01*
X72610743Y-146556460D01*
X72610743Y-147070048D01*
X72691375Y-147370972D01*
X72838765Y-147546625D01*
X73032394Y-147658416D01*
X73241556Y-147695297D01*
X73874580Y-147695297D01*
X73874580Y-146556460D01*
X74130580Y-146556460D01*
X74130580Y-147695297D01*
X74769168Y-147695297D01*
X75070092Y-147614665D01*
X75245745Y-147467275D01*
X75357536Y-147273646D01*
X75394417Y-147064484D01*
X75394417Y-146556460D01*
X74130580Y-146556460D01*
X73874580Y-146556460D01*
X72610743Y-146556460D01*
X72521779Y-146556460D01*
X72521779Y-145792436D01*
X72610743Y-145792436D01*
X72610743Y-146300460D01*
X75394417Y-146300460D01*
X75394417Y-145791050D01*
X75473641Y-145791050D01*
X75473641Y-147065870D01*
X75492594Y-147161150D01*
X75553595Y-147252445D01*
X75644890Y-147313446D01*
X75740170Y-147332399D01*
X77264990Y-147332399D01*
X77360270Y-147313446D01*
X77451565Y-147252445D01*
X77512566Y-147161150D01*
X77531519Y-147065870D01*
X77531519Y-145791050D01*
X77512566Y-145695770D01*
X77451565Y-145604475D01*
X77360270Y-145543474D01*
X77264990Y-145524521D01*
X77127907Y-145524521D01*
X77557462Y-145094967D01*
X77557466Y-145094962D01*
X77594198Y-145058230D01*
X77606579Y-145012021D01*
X77630499Y-144970591D01*
X77630499Y-144926611D01*
X77630500Y-144926608D01*
X77630500Y-143595859D01*
X77770927Y-143448137D01*
X77853151Y-143249143D01*
X77855914Y-143022908D01*
X77778578Y-142821965D01*
X77634586Y-142662884D01*
X77442977Y-142566305D01*
X77229450Y-142545181D01*
X77022631Y-142602342D01*
X76874875Y-142711875D01*
X76741644Y-142688383D01*
X76208620Y-142688383D01*
X76208620Y-145451033D01*
X76187884Y-145471769D01*
X76175502Y-145517977D01*
X76171724Y-145524521D01*
X75740170Y-145524521D01*
X75644890Y-145543474D01*
X75553595Y-145604475D01*
X75492594Y-145695770D01*
X75473641Y-145791050D01*
X75394417Y-145791050D01*
X75394417Y-145786872D01*
X75313785Y-145485949D01*
X75281730Y-145447748D01*
X75419596Y-145472057D01*
X75952620Y-145472057D01*
X75952620Y-142688383D01*
X75414032Y-142688383D01*
X75113109Y-142769015D01*
X75003964Y-142860598D01*
X74977815Y-142829435D01*
X74784186Y-142717644D01*
X74575024Y-142680763D01*
X74042000Y-142680763D01*
X74042000Y-144200600D01*
X72622163Y-144200600D01*
X72622163Y-144839188D01*
X72702795Y-145140112D01*
X72849060Y-145314424D01*
X72759415Y-145389645D01*
X72647624Y-145583274D01*
X72610743Y-145792436D01*
X72521779Y-145792436D01*
X72521779Y-145774950D01*
X72502826Y-145679670D01*
X72441825Y-145588375D01*
X72350530Y-145527374D01*
X72296180Y-145516563D01*
X72296180Y-145096591D01*
X72385690Y-145078786D01*
X72476985Y-145017785D01*
X72537986Y-144926490D01*
X72556939Y-144831210D01*
X72556939Y-143311576D01*
X72622163Y-143311576D01*
X72622163Y-143944600D01*
X73786000Y-143944600D01*
X73786000Y-142680763D01*
X73247412Y-142680763D01*
X72946489Y-142761395D01*
X72770835Y-142908785D01*
X72659044Y-143102414D01*
X72622163Y-143311576D01*
X72556939Y-143311576D01*
X72556939Y-143306390D01*
X72537986Y-143211110D01*
X72476985Y-143119815D01*
X72385690Y-143058814D01*
X72290410Y-143039861D01*
X70965590Y-143039861D01*
X70870310Y-143058814D01*
X70779015Y-143119815D01*
X70718014Y-143211110D01*
X70699061Y-143306390D01*
X69722000Y-143306390D01*
X69722000Y-137852070D01*
X70539701Y-137852070D01*
X70539701Y-139576890D01*
X70558654Y-139672170D01*
X70619655Y-139763465D01*
X70710950Y-139824466D01*
X70806230Y-139843419D01*
X71277001Y-139843419D01*
X71277000Y-140339861D01*
X70965590Y-140339861D01*
X70870310Y-140358814D01*
X70779015Y-140419815D01*
X70718014Y-140511110D01*
X70699061Y-140606390D01*
X70699061Y-142131210D01*
X70718014Y-142226490D01*
X70779015Y-142317785D01*
X70870310Y-142378786D01*
X70965590Y-142397739D01*
X72290410Y-142397739D01*
X72385690Y-142378786D01*
X72476985Y-142317785D01*
X72537986Y-142226490D01*
X72556939Y-142131210D01*
X72556939Y-141694400D01*
X72985061Y-141694400D01*
X72985061Y-142135010D01*
X73004014Y-142230290D01*
X73065015Y-142321585D01*
X73156310Y-142382586D01*
X73251590Y-142401539D01*
X74576410Y-142401539D01*
X74671690Y-142382586D01*
X74762985Y-142321585D01*
X74823986Y-142230290D01*
X74842939Y-142135010D01*
X74842939Y-140610190D01*
X74823986Y-140514910D01*
X74762985Y-140423615D01*
X74671690Y-140362614D01*
X74576410Y-140343661D01*
X73251590Y-140343661D01*
X73156310Y-140362614D01*
X73065015Y-140423615D01*
X73004014Y-140514910D01*
X72985061Y-140610190D01*
X72985061Y-140992400D01*
X72556939Y-140992400D01*
X72556939Y-140606390D01*
X72537986Y-140511110D01*
X72476985Y-140419815D01*
X72385690Y-140358814D01*
X72290410Y-140339861D01*
X71979000Y-140339861D01*
X71979000Y-139843419D01*
X72531050Y-139843419D01*
X72626330Y-139824466D01*
X72717625Y-139763465D01*
X72778626Y-139672170D01*
X72797579Y-139576890D01*
X72797579Y-139181669D01*
X72874601Y-139376702D01*
X73005250Y-139592006D01*
X73170309Y-139782219D01*
X73365056Y-139941902D01*
X73583924Y-140066489D01*
X73823471Y-140153440D01*
X74080640Y-140187527D01*
X74080640Y-137241433D01*
X74336640Y-137241433D01*
X74336640Y-140214458D01*
X74703348Y-140119280D01*
X74932969Y-140015843D01*
X75141880Y-139875196D01*
X75324106Y-139701361D01*
X75474437Y-139499308D01*
X75588576Y-139274814D01*
X75663258Y-139034299D01*
X75664117Y-139027815D01*
X75731380Y-139210631D01*
X75851923Y-139405046D01*
X76009095Y-139571251D01*
X76196477Y-139702458D01*
X76397640Y-139789508D01*
X76397641Y-140351281D01*
X75418210Y-140351281D01*
X75322930Y-140370234D01*
X75231635Y-140431235D01*
X75170634Y-140522530D01*
X75151681Y-140617810D01*
X75151681Y-142142630D01*
X75170634Y-142237910D01*
X75231635Y-142329205D01*
X75322930Y-142390206D01*
X75418210Y-142409159D01*
X76743030Y-142409159D01*
X76838310Y-142390206D01*
X76929605Y-142329205D01*
X76990606Y-142237910D01*
X77009559Y-142142630D01*
X77009559Y-140947670D01*
X77032238Y-140924991D01*
X77032240Y-140924988D01*
X77063338Y-140893890D01*
X77075719Y-140847681D01*
X77099639Y-140806251D01*
X77099639Y-140762271D01*
X77099640Y-140762268D01*
X77099640Y-139784491D01*
X77194505Y-139754762D01*
X77394577Y-139643861D01*
X77568261Y-139494995D01*
X77708465Y-139314246D01*
X77809461Y-139108996D01*
X77834724Y-139012010D01*
X77862096Y-139142463D01*
X77954601Y-139376702D01*
X78085250Y-139592006D01*
X78250309Y-139782219D01*
X78445056Y-139941902D01*
X78663924Y-140066489D01*
X78903471Y-140153440D01*
X79160640Y-140187527D01*
X79160640Y-137214502D01*
X78793932Y-137309680D01*
X78564311Y-137413117D01*
X78355400Y-137553764D01*
X78173174Y-137727599D01*
X78022843Y-137929652D01*
X77908704Y-138154146D01*
X77834022Y-138394661D01*
X77833163Y-138401145D01*
X77765900Y-138218329D01*
X77645357Y-138023914D01*
X77488185Y-137857709D01*
X77300803Y-137726502D01*
X77087796Y-137634327D01*
X76791647Y-137588480D01*
X76691487Y-137588480D01*
X76521059Y-137605791D01*
X76302775Y-137674198D01*
X76102703Y-137785099D01*
X75929019Y-137933965D01*
X75788815Y-138114714D01*
X75687819Y-138319964D01*
X75662556Y-138416950D01*
X75635184Y-138286497D01*
X75542679Y-138052258D01*
X75412030Y-137836954D01*
X75246971Y-137646741D01*
X75052224Y-137487058D01*
X74833356Y-137362471D01*
X74593809Y-137275520D01*
X74336640Y-137241433D01*
X74080640Y-137241433D01*
X74080640Y-137214502D01*
X73713932Y-137309680D01*
X73484311Y-137413117D01*
X73275400Y-137553764D01*
X73093174Y-137727599D01*
X72942843Y-137929652D01*
X72828704Y-138154146D01*
X72797579Y-138254385D01*
X72797579Y-137852070D01*
X72778626Y-137756790D01*
X72717625Y-137665495D01*
X72626330Y-137604494D01*
X72531050Y-137585541D01*
X70806230Y-137585541D01*
X70710950Y-137604494D01*
X70619655Y-137665495D01*
X70558654Y-137756790D01*
X70539701Y-137852070D01*
X69722000Y-137852070D01*
X69722000Y-137032000D01*
X82805000Y-137032000D01*
X82805000Y-138152364D01*
X82805000Y-138152364D01*
G37*
X82805000Y-138152364D02*
X82725357Y-138023914D01*
X82568185Y-137857709D01*
X82380803Y-137726502D01*
X82167796Y-137634327D01*
X81871647Y-137588480D01*
X81771487Y-137588480D01*
X81601059Y-137605791D01*
X81382775Y-137674198D01*
X81182703Y-137785099D01*
X81009019Y-137933965D01*
X80868815Y-138114714D01*
X80767819Y-138319964D01*
X80742556Y-138416950D01*
X80715184Y-138286497D01*
X80622679Y-138052258D01*
X80492030Y-137836954D01*
X80326971Y-137646741D01*
X80132224Y-137487058D01*
X79913356Y-137362471D01*
X79673809Y-137275520D01*
X79416640Y-137241433D01*
X79416640Y-140214458D01*
X79783348Y-140119280D01*
X80012969Y-140015843D01*
X80221880Y-139875196D01*
X80404106Y-139701361D01*
X80554437Y-139499308D01*
X80668576Y-139274814D01*
X80743258Y-139034299D01*
X80744117Y-139027815D01*
X80811380Y-139210631D01*
X80931923Y-139405046D01*
X81058001Y-139538370D01*
X81058000Y-140391834D01*
X80888728Y-140561107D01*
X80817618Y-140625134D01*
X80803561Y-140668399D01*
X80762189Y-140732107D01*
X80748337Y-140819561D01*
X79155590Y-140819561D01*
X79060310Y-140838514D01*
X78969015Y-140899515D01*
X78908014Y-140990810D01*
X78889061Y-141086090D01*
X78889061Y-144314275D01*
X78158239Y-145045097D01*
X78087118Y-145109134D01*
X78073061Y-145152399D01*
X78031689Y-145216107D01*
X78000034Y-145415968D01*
X78010001Y-145453167D01*
X78010000Y-150534435D01*
X78010000Y-150546045D01*
X78008407Y-150576427D01*
X77367939Y-151216896D01*
X77367939Y-150609590D01*
X77348986Y-150514310D01*
X77287985Y-150423015D01*
X77196690Y-150362014D01*
X77101410Y-150343061D01*
X75374103Y-150343061D01*
X75849826Y-149867339D01*
X77280230Y-149867339D01*
X77375510Y-149848386D01*
X77466805Y-149787385D01*
X77527806Y-149696090D01*
X77546759Y-149600810D01*
X77546759Y-148325990D01*
X77527806Y-148230710D01*
X77466805Y-148139415D01*
X77375510Y-148078414D01*
X77280230Y-148059461D01*
X75755410Y-148059461D01*
X75660130Y-148078414D01*
X75568835Y-148139415D01*
X75507834Y-148230710D01*
X75488881Y-148325990D01*
X75488881Y-148881954D01*
X75279435Y-149091400D01*
X74145820Y-149091400D01*
X74145820Y-150230237D01*
X74269330Y-150230237D01*
X74253534Y-150329968D01*
X74263500Y-150367164D01*
X74263501Y-151543000D01*
X73811939Y-151543000D01*
X73811939Y-150609590D01*
X73792986Y-150514310D01*
X73731985Y-150423015D01*
X73640690Y-150362014D01*
X73545410Y-150343061D01*
X72566911Y-150343061D01*
X72736005Y-150201175D01*
X72825011Y-150047011D01*
X72854005Y-150081565D01*
X73047634Y-150193356D01*
X73256796Y-150230237D01*
X73889820Y-150230237D01*
X73889820Y-147696563D01*
X74145820Y-147696563D01*
X74145820Y-148835400D01*
X75409657Y-148835400D01*
X75409657Y-148321812D01*
X75329025Y-148020889D01*
X75181635Y-147845235D01*
X74988006Y-147733444D01*
X74778844Y-147696563D01*
X74145820Y-147696563D01*
X73889820Y-147696563D01*
X73251232Y-147696563D01*
X72950309Y-147777195D01*
X72774655Y-147924585D01*
X72771153Y-147930650D01*
X72656655Y-147794195D01*
X72463026Y-147682404D01*
X72253864Y-147645523D01*
X71745840Y-147645523D01*
X71745840Y-150343061D01*
X71742590Y-150343061D01*
X71647310Y-150362014D01*
X71556015Y-150423015D01*
X71495014Y-150514310D01*
X71476061Y-150609590D01*
X71476061Y-153428410D01*
X71495014Y-153523690D01*
X71556015Y-153614985D01*
X71647310Y-153675986D01*
X71742590Y-153694939D01*
X73545410Y-153694939D01*
X73640690Y-153675986D01*
X73731985Y-153614985D01*
X73792986Y-153523690D01*
X73811939Y-153428410D01*
X73811939Y-152495000D01*
X74263500Y-152495000D01*
X74263501Y-153975028D01*
X74258492Y-154070595D01*
X74279146Y-154111131D01*
X74294939Y-154185432D01*
X74413879Y-154349140D01*
X74447230Y-154368395D01*
X74457593Y-154378758D01*
X74521345Y-154449561D01*
X73315090Y-154449561D01*
X73219810Y-154468514D01*
X73128515Y-154529515D01*
X73067514Y-154620810D01*
X73048561Y-154716090D01*
X73048561Y-155125900D01*
X72785939Y-155125900D01*
X72785939Y-154714490D01*
X72766986Y-154619210D01*
X72705985Y-154527915D01*
X72614690Y-154466914D01*
X72519410Y-154447961D01*
X72212856Y-154447961D01*
X72209079Y-154441419D01*
X72202527Y-154416965D01*
X72204414Y-154262408D01*
X72127078Y-154061465D01*
X71983086Y-153902384D01*
X71791477Y-153805805D01*
X71577950Y-153784681D01*
X71371131Y-153841842D01*
X71198758Y-153969625D01*
X71083944Y-154150893D01*
X71042083Y-154361341D01*
X71069655Y-154520138D01*
X71058015Y-154527915D01*
X70997014Y-154619210D01*
X70978061Y-154714490D01*
X70978061Y-156239310D01*
X70997014Y-156334590D01*
X71058015Y-156425885D01*
X71149310Y-156486886D01*
X71244590Y-156505839D01*
X72519410Y-156505839D01*
X72614690Y-156486886D01*
X72705985Y-156425885D01*
X72766986Y-156334590D01*
X72785939Y-156239310D01*
X72785939Y-155827900D01*
X73048561Y-155827900D01*
X73048561Y-156240910D01*
X73067514Y-156336190D01*
X73128515Y-156427485D01*
X73219810Y-156488486D01*
X73315090Y-156507439D01*
X73646644Y-156507439D01*
X73650422Y-156513983D01*
X73662804Y-156560191D01*
X73693900Y-156591287D01*
X73693902Y-156591290D01*
X74252172Y-157149561D01*
X73315090Y-157149561D01*
X73219810Y-157168514D01*
X73128515Y-157229515D01*
X73067514Y-157320810D01*
X73048561Y-157416090D01*
X73048561Y-157625900D01*
X72785939Y-157625900D01*
X72785939Y-157214490D01*
X72766986Y-157119210D01*
X72705985Y-157027915D01*
X72614690Y-156966914D01*
X72519410Y-156947961D01*
X71244590Y-156947961D01*
X71149310Y-156966914D01*
X71058015Y-157027915D01*
X70997014Y-157119210D01*
X70978061Y-157214490D01*
X70978061Y-158739310D01*
X70997014Y-158834590D01*
X71058015Y-158925885D01*
X71149310Y-158986886D01*
X71244590Y-159005839D01*
X72519410Y-159005839D01*
X72614690Y-158986886D01*
X72705985Y-158925885D01*
X72766986Y-158834590D01*
X72785939Y-158739310D01*
X72785939Y-158327900D01*
X73048561Y-158327900D01*
X73048561Y-158940910D01*
X73067514Y-159036190D01*
X73128515Y-159127485D01*
X73219810Y-159188486D01*
X73315090Y-159207439D01*
X74639910Y-159207439D01*
X74735190Y-159188486D01*
X74826485Y-159127485D01*
X74887486Y-159036190D01*
X74906439Y-158940910D01*
X74906439Y-158529500D01*
X75169461Y-158529500D01*
X75169461Y-158959950D01*
X75188414Y-159055230D01*
X75249415Y-159146525D01*
X75340710Y-159207526D01*
X75435990Y-159226479D01*
X75747400Y-159226479D01*
X75747401Y-159425421D01*
X75438530Y-159425421D01*
X75343250Y-159444374D01*
X75251955Y-159505375D01*
X75190954Y-159596670D01*
X75172001Y-159691950D01*
X75172001Y-160103360D01*
X74941999Y-160103360D01*
X74941999Y-159704650D01*
X74923046Y-159609370D01*
X74862045Y-159518075D01*
X74770750Y-159457074D01*
X74675470Y-159438121D01*
X73350650Y-159438121D01*
X73255370Y-159457074D01*
X73164075Y-159518075D01*
X73103074Y-159609370D01*
X73084121Y-159704650D01*
X73084121Y-160116060D01*
X72796099Y-160116060D01*
X72796099Y-159939270D01*
X72777146Y-159843990D01*
X72716145Y-159752695D01*
X72624850Y-159691694D01*
X72529570Y-159672741D01*
X71254750Y-159672741D01*
X71159470Y-159691694D01*
X71068175Y-159752695D01*
X71007174Y-159843990D01*
X70988221Y-159939270D01*
X70988221Y-160370824D01*
X70981679Y-160374601D01*
X70935470Y-160386982D01*
X70904372Y-160418080D01*
X70904369Y-160418082D01*
X70328402Y-160994050D01*
X70328400Y-160994053D01*
X70297304Y-161025149D01*
X70284922Y-161071357D01*
X70261001Y-161112791D01*
X70261001Y-161177219D01*
X70261000Y-166288131D01*
X70261001Y-166288135D01*
X70261001Y-166337050D01*
X70284921Y-166378480D01*
X70297302Y-166424688D01*
X70443339Y-166570729D01*
X70443341Y-166570729D01*
X71034209Y-167161598D01*
X71034212Y-167161600D01*
X71065310Y-167192698D01*
X71111519Y-167205079D01*
X71152949Y-167228999D01*
X71196929Y-167228999D01*
X71196932Y-167229000D01*
X71279211Y-167229000D01*
X71279211Y-167577480D01*
X71298164Y-167672760D01*
X71359165Y-167764055D01*
X71450460Y-167825056D01*
X71545740Y-167844009D01*
X74570300Y-167844009D01*
X74665580Y-167825056D01*
X74756875Y-167764055D01*
X74817876Y-167672760D01*
X74836829Y-167577480D01*
X74836829Y-166942500D01*
X74914273Y-166942500D01*
X74914273Y-167581658D01*
X74994905Y-167882582D01*
X75142295Y-168058235D01*
X75335924Y-168170026D01*
X75545086Y-168206907D01*
X76927980Y-168206907D01*
X76927980Y-166942500D01*
X77183980Y-166942500D01*
X77183980Y-168206907D01*
X78572438Y-168206907D01*
X78873362Y-168126275D01*
X79049015Y-167978885D01*
X79160806Y-167785256D01*
X79197687Y-167576094D01*
X79197687Y-166942500D01*
X77183980Y-166942500D01*
X76927980Y-166942500D01*
X74914273Y-166942500D01*
X74836829Y-166942500D01*
X74836829Y-166052906D01*
X74914273Y-166052906D01*
X74914273Y-166686500D01*
X76927980Y-166686500D01*
X76927980Y-165422093D01*
X77183980Y-165422093D01*
X77183980Y-166686500D01*
X79197687Y-166686500D01*
X79197687Y-166047342D01*
X79117055Y-165746419D01*
X78969665Y-165570765D01*
X78776036Y-165458974D01*
X78566874Y-165422093D01*
X77183980Y-165422093D01*
X76927980Y-165422093D01*
X75539522Y-165422093D01*
X75238599Y-165502725D01*
X75062945Y-165650115D01*
X74951154Y-165843744D01*
X74914273Y-166052906D01*
X74836829Y-166052906D01*
X74836829Y-166051520D01*
X74817876Y-165956240D01*
X74756875Y-165864945D01*
X74665580Y-165803944D01*
X74570300Y-165784991D01*
X71545740Y-165784991D01*
X71450460Y-165803944D01*
X71359165Y-165864945D01*
X71298164Y-165956240D01*
X71279211Y-166051520D01*
X71279211Y-166413822D01*
X70963000Y-166097612D01*
X70963000Y-161352228D01*
X70988221Y-161327007D01*
X70988221Y-161464090D01*
X71007174Y-161559370D01*
X71068175Y-161650665D01*
X71159470Y-161711666D01*
X71254750Y-161730619D01*
X72529570Y-161730619D01*
X72624850Y-161711666D01*
X72716145Y-161650665D01*
X72777146Y-161559370D01*
X72796099Y-161464090D01*
X72796099Y-160818060D01*
X73084121Y-160818060D01*
X73084121Y-161229470D01*
X73103074Y-161324750D01*
X73164075Y-161416045D01*
X73232194Y-161461560D01*
X73230758Y-161462625D01*
X73115944Y-161643893D01*
X73074083Y-161854341D01*
X73110790Y-162065750D01*
X73191248Y-162199919D01*
X73164075Y-162218075D01*
X73103074Y-162309370D01*
X73084121Y-162404650D01*
X73084121Y-162850680D01*
X72796099Y-162850680D01*
X72796099Y-162439270D01*
X72777146Y-162343990D01*
X72716145Y-162252695D01*
X72624850Y-162191694D01*
X72529570Y-162172741D01*
X71254750Y-162172741D01*
X71159470Y-162191694D01*
X71068175Y-162252695D01*
X71007174Y-162343990D01*
X70988221Y-162439270D01*
X70988221Y-163964090D01*
X71007174Y-164059370D01*
X71068175Y-164150665D01*
X71159470Y-164211666D01*
X71254750Y-164230619D01*
X72529570Y-164230619D01*
X72624850Y-164211666D01*
X72716145Y-164150665D01*
X72777146Y-164059370D01*
X72796099Y-163964090D01*
X72796099Y-163552680D01*
X73084121Y-163552680D01*
X73084121Y-163929470D01*
X73103074Y-164024750D01*
X73164075Y-164116045D01*
X73255370Y-164177046D01*
X73350650Y-164195999D01*
X74545611Y-164195999D01*
X74578597Y-164228985D01*
X74576444Y-164232383D01*
X74534583Y-164442831D01*
X74571290Y-164654240D01*
X74681642Y-164838258D01*
X74850841Y-164970215D01*
X75056200Y-165032412D01*
X75270182Y-165016511D01*
X75464092Y-164924642D01*
X75611927Y-164769127D01*
X75694151Y-164570133D01*
X75694443Y-164546197D01*
X75972940Y-164546197D01*
X75972940Y-163282360D01*
X76228940Y-163282360D01*
X76228940Y-164546197D01*
X76767528Y-164546197D01*
X77068452Y-164465565D01*
X77244105Y-164318175D01*
X77355896Y-164124546D01*
X77392777Y-163915384D01*
X77392777Y-163282360D01*
X76228940Y-163282360D01*
X75972940Y-163282360D01*
X75972940Y-161762523D01*
X76228940Y-161762523D01*
X76228940Y-163026360D01*
X77392777Y-163026360D01*
X77392777Y-162970500D01*
X78526163Y-162970500D01*
X78526163Y-164734088D01*
X78606795Y-165035012D01*
X78754185Y-165210665D01*
X78947814Y-165322456D01*
X79156976Y-165359337D01*
X80390000Y-165359337D01*
X80390000Y-162970500D01*
X80646000Y-162970500D01*
X80646000Y-165359337D01*
X81884588Y-165359337D01*
X82185512Y-165278705D01*
X82361165Y-165131315D01*
X82472956Y-164937686D01*
X82509837Y-164728524D01*
X82509837Y-162970500D01*
X80646000Y-162970500D01*
X80390000Y-162970500D01*
X78526163Y-162970500D01*
X77392777Y-162970500D01*
X77392777Y-162387772D01*
X77312145Y-162086849D01*
X77164755Y-161911195D01*
X76971126Y-161799404D01*
X76761964Y-161762523D01*
X76228940Y-161762523D01*
X75972940Y-161762523D01*
X75434352Y-161762523D01*
X75133429Y-161843155D01*
X74957775Y-161990545D01*
X74845984Y-162184174D01*
X74842329Y-162204901D01*
X74770750Y-162157074D01*
X74675470Y-162138121D01*
X74364059Y-162138121D01*
X74364059Y-162120511D01*
X74340140Y-162079081D01*
X74327757Y-162032870D01*
X74234168Y-161939280D01*
X74236414Y-161755408D01*
X74159078Y-161554465D01*
X74106158Y-161495999D01*
X74675470Y-161495999D01*
X74770750Y-161477046D01*
X74862045Y-161416045D01*
X74923046Y-161324750D01*
X74941999Y-161229470D01*
X74941999Y-160805360D01*
X75172001Y-160805360D01*
X75172001Y-161216770D01*
X75190954Y-161312050D01*
X75251955Y-161403345D01*
X75343250Y-161464346D01*
X75438530Y-161483299D01*
X76763350Y-161483299D01*
X76858630Y-161464346D01*
X76949925Y-161403345D01*
X77010926Y-161312050D01*
X77029879Y-161216770D01*
X77029879Y-160956476D01*
X78526163Y-160956476D01*
X78526163Y-162714500D01*
X80390000Y-162714500D01*
X80390000Y-160325663D01*
X80646000Y-160325663D01*
X80646000Y-162714500D01*
X82509837Y-162714500D01*
X82509837Y-160950912D01*
X82429205Y-160649989D01*
X82281815Y-160474335D01*
X82088186Y-160362544D01*
X81879024Y-160325663D01*
X80646000Y-160325663D01*
X80390000Y-160325663D01*
X79151412Y-160325663D01*
X78850489Y-160406295D01*
X78674835Y-160553685D01*
X78563044Y-160747314D01*
X78526163Y-160956476D01*
X77029879Y-160956476D01*
X77029879Y-159691950D01*
X77010926Y-159596670D01*
X76949925Y-159505375D01*
X76858630Y-159444374D01*
X76763350Y-159425421D01*
X76449400Y-159425421D01*
X76449400Y-159226479D01*
X76760810Y-159226479D01*
X76856090Y-159207526D01*
X76947385Y-159146525D01*
X77008386Y-159055230D01*
X77027339Y-158959950D01*
X77027339Y-157435130D01*
X77008386Y-157339850D01*
X76947385Y-157248555D01*
X76856090Y-157187554D01*
X76848515Y-157186047D01*
X76922640Y-157006654D01*
X76925403Y-156780419D01*
X76848067Y-156579476D01*
X76794102Y-156519856D01*
X76856090Y-156507526D01*
X76947385Y-156446525D01*
X77008386Y-156355230D01*
X77027339Y-156259950D01*
X77027339Y-154735130D01*
X77008386Y-154639850D01*
X76995250Y-154620190D01*
X77031172Y-154617521D01*
X77088205Y-154590500D01*
X78889061Y-154590500D01*
X78889061Y-157179910D01*
X78908014Y-157275190D01*
X78969015Y-157366485D01*
X79060310Y-157427486D01*
X79155590Y-157446439D01*
X81880410Y-157446439D01*
X81975690Y-157427486D01*
X82066985Y-157366485D01*
X82127986Y-157275190D01*
X82146939Y-157179910D01*
X82146939Y-153405090D01*
X82127986Y-153309810D01*
X82066985Y-153218515D01*
X81975690Y-153157514D01*
X81880410Y-153138561D01*
X79155590Y-153138561D01*
X79060310Y-153157514D01*
X78969015Y-153218515D01*
X78908014Y-153309810D01*
X78889061Y-153405090D01*
X78889061Y-153638500D01*
X77285106Y-153638500D01*
X77272928Y-153625046D01*
X77287985Y-153614985D01*
X77348986Y-153523690D01*
X77367939Y-153428410D01*
X77367939Y-152478227D01*
X77436931Y-152463563D01*
X77600639Y-152344622D01*
X77619897Y-152311266D01*
X78526163Y-151405001D01*
X78526163Y-152415088D01*
X78606795Y-152716012D01*
X78754185Y-152891665D01*
X78947814Y-153003456D01*
X79156976Y-153040337D01*
X80390000Y-153040337D01*
X80390000Y-150651500D01*
X80646000Y-150651500D01*
X80646000Y-153040337D01*
X81884588Y-153040337D01*
X82185512Y-152959705D01*
X82361165Y-152812315D01*
X82472956Y-152618686D01*
X82509837Y-152409524D01*
X82509837Y-150651500D01*
X80646000Y-150651500D01*
X80390000Y-150651500D01*
X80390000Y-148006663D01*
X80646000Y-148006663D01*
X80646000Y-150395500D01*
X82509837Y-150395500D01*
X82509837Y-148631912D01*
X82429205Y-148330989D01*
X82281815Y-148155335D01*
X82088186Y-148043544D01*
X81879024Y-148006663D01*
X80646000Y-148006663D01*
X80390000Y-148006663D01*
X79151412Y-148006663D01*
X78962000Y-148057416D01*
X78962000Y-145587663D01*
X79422224Y-145127439D01*
X81880410Y-145127439D01*
X81975690Y-145108486D01*
X82066985Y-145047485D01*
X82127986Y-144956190D01*
X82146939Y-144860910D01*
X82146939Y-141086090D01*
X82127986Y-140990810D01*
X82066985Y-140899515D01*
X81975690Y-140838514D01*
X81945202Y-140832449D01*
X81946941Y-140827100D01*
X81988311Y-140763393D01*
X82019966Y-140563533D01*
X82010000Y-140526337D01*
X82010000Y-139827864D01*
X82056221Y-139823169D01*
X82274505Y-139754762D01*
X82474577Y-139643861D01*
X82648261Y-139494995D01*
X82788465Y-139314246D01*
X82805000Y-139280643D01*
X82805000Y-172340000D01*
X69722000Y-172340000D01*
X69722000Y-149165360D01*
X70351003Y-149165360D01*
X70351003Y-149803948D01*
X70431635Y-150104872D01*
X70579025Y-150280525D01*
X70772654Y-150392316D01*
X70981816Y-150429197D01*
X71489840Y-150429197D01*
X71489840Y-149165360D01*
X70351003Y-149165360D01*
X69722000Y-149165360D01*
X69722000Y-148276336D01*
X70351003Y-148276336D01*
X70351003Y-148909360D01*
X71489840Y-148909360D01*
X71489840Y-147645523D01*
X70976252Y-147645523D01*
X70675329Y-147726155D01*
X70499675Y-147873545D01*
X70387884Y-148067174D01*
X70351003Y-148276336D01*
X69722000Y-148276336D01*
X69722000Y-143306390D01*
X70699061Y-143306390D01*
X70699061Y-144831210D01*
X70718014Y-144926490D01*
X70779015Y-145017785D01*
X70870310Y-145078786D01*
X70965590Y-145097739D01*
X71594180Y-145097739D01*
X71594180Y-145508421D01*
X70980430Y-145508421D01*
X70885150Y-145527374D01*
X70793855Y-145588375D01*
X70732854Y-145679670D01*
X70713901Y-145774950D01*
X70713901Y-147299770D01*
X70732854Y-147395050D01*
X70793855Y-147486345D01*
X70885150Y-147547346D01*
X70980430Y-147566299D01*
X72255250Y-147566299D01*
X72350530Y-147547346D01*
X72441825Y-147486345D01*
X72502826Y-147395050D01*
X72521779Y-147299770D01*
X72521779Y-146556460D01*
X72610743Y-146556460D01*
X72610743Y-147070048D01*
X72691375Y-147370972D01*
X72838765Y-147546625D01*
X73032394Y-147658416D01*
X73241556Y-147695297D01*
X73874580Y-147695297D01*
X73874580Y-146556460D01*
X74130580Y-146556460D01*
X74130580Y-147695297D01*
X74769168Y-147695297D01*
X75070092Y-147614665D01*
X75245745Y-147467275D01*
X75357536Y-147273646D01*
X75394417Y-147064484D01*
X75394417Y-146556460D01*
X74130580Y-146556460D01*
X73874580Y-146556460D01*
X72610743Y-146556460D01*
X72521779Y-146556460D01*
X72521779Y-145792436D01*
X72610743Y-145792436D01*
X72610743Y-146300460D01*
X75394417Y-146300460D01*
X75394417Y-145791050D01*
X75473641Y-145791050D01*
X75473641Y-147065870D01*
X75492594Y-147161150D01*
X75553595Y-147252445D01*
X75644890Y-147313446D01*
X75740170Y-147332399D01*
X77264990Y-147332399D01*
X77360270Y-147313446D01*
X77451565Y-147252445D01*
X77512566Y-147161150D01*
X77531519Y-147065870D01*
X77531519Y-145791050D01*
X77512566Y-145695770D01*
X77451565Y-145604475D01*
X77360270Y-145543474D01*
X77264990Y-145524521D01*
X77127907Y-145524521D01*
X77557462Y-145094967D01*
X77557466Y-145094962D01*
X77594198Y-145058230D01*
X77606579Y-145012021D01*
X77630499Y-144970591D01*
X77630499Y-144926611D01*
X77630500Y-144926608D01*
X77630500Y-143595859D01*
X77770927Y-143448137D01*
X77853151Y-143249143D01*
X77855914Y-143022908D01*
X77778578Y-142821965D01*
X77634586Y-142662884D01*
X77442977Y-142566305D01*
X77229450Y-142545181D01*
X77022631Y-142602342D01*
X76874875Y-142711875D01*
X76741644Y-142688383D01*
X76208620Y-142688383D01*
X76208620Y-145451033D01*
X76187884Y-145471769D01*
X76175502Y-145517977D01*
X76171724Y-145524521D01*
X75740170Y-145524521D01*
X75644890Y-145543474D01*
X75553595Y-145604475D01*
X75492594Y-145695770D01*
X75473641Y-145791050D01*
X75394417Y-145791050D01*
X75394417Y-145786872D01*
X75313785Y-145485949D01*
X75281730Y-145447748D01*
X75419596Y-145472057D01*
X75952620Y-145472057D01*
X75952620Y-142688383D01*
X75414032Y-142688383D01*
X75113109Y-142769015D01*
X75003964Y-142860598D01*
X74977815Y-142829435D01*
X74784186Y-142717644D01*
X74575024Y-142680763D01*
X74042000Y-142680763D01*
X74042000Y-144200600D01*
X72622163Y-144200600D01*
X72622163Y-144839188D01*
X72702795Y-145140112D01*
X72849060Y-145314424D01*
X72759415Y-145389645D01*
X72647624Y-145583274D01*
X72610743Y-145792436D01*
X72521779Y-145792436D01*
X72521779Y-145774950D01*
X72502826Y-145679670D01*
X72441825Y-145588375D01*
X72350530Y-145527374D01*
X72296180Y-145516563D01*
X72296180Y-145096591D01*
X72385690Y-145078786D01*
X72476985Y-145017785D01*
X72537986Y-144926490D01*
X72556939Y-144831210D01*
X72556939Y-143311576D01*
X72622163Y-143311576D01*
X72622163Y-143944600D01*
X73786000Y-143944600D01*
X73786000Y-142680763D01*
X73247412Y-142680763D01*
X72946489Y-142761395D01*
X72770835Y-142908785D01*
X72659044Y-143102414D01*
X72622163Y-143311576D01*
X72556939Y-143311576D01*
X72556939Y-143306390D01*
X72537986Y-143211110D01*
X72476985Y-143119815D01*
X72385690Y-143058814D01*
X72290410Y-143039861D01*
X70965590Y-143039861D01*
X70870310Y-143058814D01*
X70779015Y-143119815D01*
X70718014Y-143211110D01*
X70699061Y-143306390D01*
X69722000Y-143306390D01*
X69722000Y-137852070D01*
X70539701Y-137852070D01*
X70539701Y-139576890D01*
X70558654Y-139672170D01*
X70619655Y-139763465D01*
X70710950Y-139824466D01*
X70806230Y-139843419D01*
X71277001Y-139843419D01*
X71277000Y-140339861D01*
X70965590Y-140339861D01*
X70870310Y-140358814D01*
X70779015Y-140419815D01*
X70718014Y-140511110D01*
X70699061Y-140606390D01*
X70699061Y-142131210D01*
X70718014Y-142226490D01*
X70779015Y-142317785D01*
X70870310Y-142378786D01*
X70965590Y-142397739D01*
X72290410Y-142397739D01*
X72385690Y-142378786D01*
X72476985Y-142317785D01*
X72537986Y-142226490D01*
X72556939Y-142131210D01*
X72556939Y-141694400D01*
X72985061Y-141694400D01*
X72985061Y-142135010D01*
X73004014Y-142230290D01*
X73065015Y-142321585D01*
X73156310Y-142382586D01*
X73251590Y-142401539D01*
X74576410Y-142401539D01*
X74671690Y-142382586D01*
X74762985Y-142321585D01*
X74823986Y-142230290D01*
X74842939Y-142135010D01*
X74842939Y-140610190D01*
X74823986Y-140514910D01*
X74762985Y-140423615D01*
X74671690Y-140362614D01*
X74576410Y-140343661D01*
X73251590Y-140343661D01*
X73156310Y-140362614D01*
X73065015Y-140423615D01*
X73004014Y-140514910D01*
X72985061Y-140610190D01*
X72985061Y-140992400D01*
X72556939Y-140992400D01*
X72556939Y-140606390D01*
X72537986Y-140511110D01*
X72476985Y-140419815D01*
X72385690Y-140358814D01*
X72290410Y-140339861D01*
X71979000Y-140339861D01*
X71979000Y-139843419D01*
X72531050Y-139843419D01*
X72626330Y-139824466D01*
X72717625Y-139763465D01*
X72778626Y-139672170D01*
X72797579Y-139576890D01*
X72797579Y-139181669D01*
X72874601Y-139376702D01*
X73005250Y-139592006D01*
X73170309Y-139782219D01*
X73365056Y-139941902D01*
X73583924Y-140066489D01*
X73823471Y-140153440D01*
X74080640Y-140187527D01*
X74080640Y-137241433D01*
X74336640Y-137241433D01*
X74336640Y-140214458D01*
X74703348Y-140119280D01*
X74932969Y-140015843D01*
X75141880Y-139875196D01*
X75324106Y-139701361D01*
X75474437Y-139499308D01*
X75588576Y-139274814D01*
X75663258Y-139034299D01*
X75664117Y-139027815D01*
X75731380Y-139210631D01*
X75851923Y-139405046D01*
X76009095Y-139571251D01*
X76196477Y-139702458D01*
X76397640Y-139789508D01*
X76397641Y-140351281D01*
X75418210Y-140351281D01*
X75322930Y-140370234D01*
X75231635Y-140431235D01*
X75170634Y-140522530D01*
X75151681Y-140617810D01*
X75151681Y-142142630D01*
X75170634Y-142237910D01*
X75231635Y-142329205D01*
X75322930Y-142390206D01*
X75418210Y-142409159D01*
X76743030Y-142409159D01*
X76838310Y-142390206D01*
X76929605Y-142329205D01*
X76990606Y-142237910D01*
X77009559Y-142142630D01*
X77009559Y-140947670D01*
X77032238Y-140924991D01*
X77032240Y-140924988D01*
X77063338Y-140893890D01*
X77075719Y-140847681D01*
X77099639Y-140806251D01*
X77099639Y-140762271D01*
X77099640Y-140762268D01*
X77099640Y-139784491D01*
X77194505Y-139754762D01*
X77394577Y-139643861D01*
X77568261Y-139494995D01*
X77708465Y-139314246D01*
X77809461Y-139108996D01*
X77834724Y-139012010D01*
X77862096Y-139142463D01*
X77954601Y-139376702D01*
X78085250Y-139592006D01*
X78250309Y-139782219D01*
X78445056Y-139941902D01*
X78663924Y-140066489D01*
X78903471Y-140153440D01*
X79160640Y-140187527D01*
X79160640Y-137214502D01*
X78793932Y-137309680D01*
X78564311Y-137413117D01*
X78355400Y-137553764D01*
X78173174Y-137727599D01*
X78022843Y-137929652D01*
X77908704Y-138154146D01*
X77834022Y-138394661D01*
X77833163Y-138401145D01*
X77765900Y-138218329D01*
X77645357Y-138023914D01*
X77488185Y-137857709D01*
X77300803Y-137726502D01*
X77087796Y-137634327D01*
X76791647Y-137588480D01*
X76691487Y-137588480D01*
X76521059Y-137605791D01*
X76302775Y-137674198D01*
X76102703Y-137785099D01*
X75929019Y-137933965D01*
X75788815Y-138114714D01*
X75687819Y-138319964D01*
X75662556Y-138416950D01*
X75635184Y-138286497D01*
X75542679Y-138052258D01*
X75412030Y-137836954D01*
X75246971Y-137646741D01*
X75052224Y-137487058D01*
X74833356Y-137362471D01*
X74593809Y-137275520D01*
X74336640Y-137241433D01*
X74080640Y-137241433D01*
X74080640Y-137214502D01*
X73713932Y-137309680D01*
X73484311Y-137413117D01*
X73275400Y-137553764D01*
X73093174Y-137727599D01*
X72942843Y-137929652D01*
X72828704Y-138154146D01*
X72797579Y-138254385D01*
X72797579Y-137852070D01*
X72778626Y-137756790D01*
X72717625Y-137665495D01*
X72626330Y-137604494D01*
X72531050Y-137585541D01*
X70806230Y-137585541D01*
X70710950Y-137604494D01*
X70619655Y-137665495D01*
X70558654Y-137756790D01*
X70539701Y-137852070D01*
X69722000Y-137852070D01*
X69722000Y-137032000D01*
X82805000Y-137032000D01*
X82805000Y-138152364D01*
%TO.N,GND*%
G36*
X110364000Y-164130561D02*
G01*
X109451379Y-164130561D01*
X109451379Y-163498790D01*
X109432426Y-163403510D01*
X109404156Y-163361200D01*
X109432426Y-163318890D01*
X109451379Y-163223610D01*
X109451379Y-162398790D01*
X109432426Y-162303510D01*
X109404156Y-162261200D01*
X109432426Y-162218890D01*
X109451379Y-162123610D01*
X109451379Y-161298790D01*
X109432426Y-161203510D01*
X109404156Y-161161200D01*
X109432426Y-161118890D01*
X109451379Y-161023610D01*
X109451379Y-160198790D01*
X109432426Y-160103510D01*
X109404156Y-160061200D01*
X109432426Y-160018890D01*
X109451379Y-159923610D01*
X109451379Y-159098790D01*
X109432426Y-159003510D01*
X109404156Y-158961200D01*
X109432426Y-158918890D01*
X109451379Y-158823610D01*
X109451379Y-157998790D01*
X109432426Y-157903510D01*
X109404156Y-157861200D01*
X109432426Y-157818890D01*
X109451379Y-157723610D01*
X109451379Y-157642055D01*
X109457919Y-157638280D01*
X109504130Y-157625897D01*
X109650169Y-157479860D01*
X109650169Y-157479859D01*
X109925403Y-157204626D01*
X109925407Y-157204621D01*
X109962139Y-157167889D01*
X109974520Y-157121680D01*
X109998440Y-157080250D01*
X109998440Y-157036270D01*
X109998441Y-157036267D01*
X109998441Y-145924309D01*
X109998440Y-145924305D01*
X109998440Y-145875392D01*
X109974521Y-145833962D01*
X109962138Y-145787750D01*
X109930599Y-145756211D01*
X109930597Y-145756208D01*
X109921168Y-145746780D01*
X109923414Y-145562908D01*
X109846078Y-145361965D01*
X109702086Y-145202884D01*
X109510477Y-145106305D01*
X109296950Y-145085181D01*
X109090131Y-145142342D01*
X108917758Y-145270125D01*
X108872500Y-145341578D01*
X108872500Y-144738859D01*
X109012927Y-144591137D01*
X109095151Y-144392143D01*
X109097914Y-144165908D01*
X109020578Y-143964965D01*
X108876586Y-143805884D01*
X108684977Y-143709305D01*
X108471450Y-143688181D01*
X108264631Y-143745342D01*
X108092258Y-143873125D01*
X107977444Y-144054393D01*
X107935583Y-144264841D01*
X107972290Y-144476250D01*
X108082642Y-144660268D01*
X108170500Y-144728788D01*
X108170501Y-153080111D01*
X107775543Y-153475069D01*
X107776871Y-153366361D01*
X107699535Y-153165418D01*
X107555543Y-153006337D01*
X107439940Y-152948068D01*
X107439940Y-152868859D01*
X107751350Y-152868859D01*
X107846630Y-152849906D01*
X107937925Y-152788905D01*
X107998926Y-152697610D01*
X108017879Y-152602330D01*
X108017879Y-151077510D01*
X107998926Y-150982230D01*
X107937925Y-150890935D01*
X107846630Y-150829934D01*
X107751350Y-150810981D01*
X106426530Y-150810981D01*
X106331250Y-150829934D01*
X106239955Y-150890935D01*
X106178954Y-150982230D01*
X106160001Y-151077510D01*
X106160001Y-152602330D01*
X106178954Y-152697610D01*
X106239955Y-152788905D01*
X106316010Y-152839723D01*
X106164051Y-152881722D01*
X105991678Y-153009505D01*
X105876864Y-153190773D01*
X105835003Y-153401221D01*
X105871710Y-153612630D01*
X105924728Y-153701041D01*
X105547288Y-153323601D01*
X105549534Y-153139728D01*
X105472198Y-152938785D01*
X105445690Y-152909499D01*
X105455190Y-152909499D01*
X105550470Y-152890546D01*
X105641765Y-152829545D01*
X105702766Y-152738250D01*
X105721719Y-152642970D01*
X105721719Y-151118150D01*
X105702766Y-151022870D01*
X105641765Y-150931575D01*
X105550470Y-150870574D01*
X105455190Y-150851621D01*
X104130370Y-150851621D01*
X104043762Y-150868849D01*
X104043762Y-150452626D01*
X104073698Y-150422690D01*
X104083455Y-150386273D01*
X104260229Y-150209499D01*
X105455190Y-150209499D01*
X105550470Y-150190546D01*
X105641765Y-150129545D01*
X105702766Y-150038250D01*
X105721719Y-149942970D01*
X105721719Y-148418150D01*
X105702766Y-148322870D01*
X105641765Y-148231575D01*
X105550470Y-148170574D01*
X105455190Y-148151621D01*
X105090440Y-148151621D01*
X105090440Y-148002507D01*
X105201690Y-148036201D01*
X105415672Y-148020300D01*
X105609582Y-147928431D01*
X105727128Y-147804779D01*
X106157411Y-147804779D01*
X106463612Y-148110981D01*
X106426530Y-148110981D01*
X106331250Y-148129934D01*
X106239955Y-148190935D01*
X106178954Y-148282230D01*
X106160001Y-148377510D01*
X106160001Y-149902330D01*
X106178954Y-149997610D01*
X106239955Y-150088905D01*
X106331250Y-150149906D01*
X106426530Y-150168859D01*
X107751350Y-150168859D01*
X107846630Y-150149906D01*
X107937925Y-150088905D01*
X107998926Y-149997610D01*
X108017879Y-149902330D01*
X108017879Y-148377510D01*
X107998926Y-148282230D01*
X107937925Y-148190935D01*
X107846630Y-148129934D01*
X107751350Y-148110981D01*
X107419796Y-148110981D01*
X107416020Y-148104439D01*
X107403637Y-148058229D01*
X107372541Y-148027133D01*
X107372538Y-148027128D01*
X106530047Y-147184639D01*
X106484490Y-147139082D01*
X106438278Y-147126699D01*
X106396848Y-147102780D01*
X106347935Y-147102780D01*
X106347931Y-147102779D01*
X105725273Y-147102779D01*
X105621076Y-146987663D01*
X105429467Y-146891084D01*
X105215940Y-146869960D01*
X105090440Y-146904646D01*
X105090440Y-139886599D01*
X105601850Y-139886599D01*
X105697130Y-139867646D01*
X105788425Y-139806645D01*
X105849426Y-139715350D01*
X105868379Y-139620070D01*
X105868379Y-138812949D01*
X106148986Y-138812949D01*
X106183193Y-139039128D01*
X106262180Y-139253811D01*
X106382723Y-139448226D01*
X106539895Y-139614431D01*
X106727277Y-139745638D01*
X106940284Y-139837813D01*
X107236433Y-139883660D01*
X107336593Y-139883660D01*
X107507021Y-139866349D01*
X107725305Y-139797942D01*
X107925377Y-139687041D01*
X108099061Y-139538175D01*
X108239265Y-139357426D01*
X108340261Y-139152176D01*
X108397923Y-138930810D01*
X108409894Y-138702371D01*
X108375687Y-138476192D01*
X108296700Y-138261509D01*
X108176157Y-138067094D01*
X108018985Y-137900889D01*
X107831603Y-137769682D01*
X107618596Y-137677507D01*
X107322447Y-137631660D01*
X107222287Y-137631660D01*
X107051859Y-137648971D01*
X106833575Y-137717378D01*
X106633503Y-137828279D01*
X106459819Y-137977145D01*
X106319615Y-138157894D01*
X106218619Y-138363144D01*
X106160957Y-138584510D01*
X106148986Y-138812949D01*
X105868379Y-138812949D01*
X105868379Y-137895250D01*
X105849426Y-137799970D01*
X105788425Y-137708675D01*
X105697130Y-137647674D01*
X105601850Y-137628721D01*
X103877030Y-137628721D01*
X103781750Y-137647674D01*
X103690455Y-137708675D01*
X103629454Y-137799970D01*
X103610501Y-137895250D01*
X103610501Y-139620070D01*
X103629454Y-139715350D01*
X103690455Y-139806645D01*
X103781750Y-139867646D01*
X103877030Y-139886599D01*
X104388440Y-139886599D01*
X104388441Y-148151621D01*
X104130370Y-148151621D01*
X104035090Y-148170574D01*
X103943795Y-148231575D01*
X103882794Y-148322870D01*
X103863841Y-148418150D01*
X103863841Y-149613112D01*
X103739207Y-149737746D01*
X103739207Y-149632400D01*
X102825320Y-149632400D01*
X102825320Y-150546287D01*
X103113958Y-150546287D01*
X103341762Y-150485247D01*
X103341763Y-151539262D01*
X103263520Y-151597265D01*
X103148706Y-151778533D01*
X103106845Y-151988981D01*
X103143552Y-152200390D01*
X103253904Y-152384408D01*
X103423103Y-152516365D01*
X103628462Y-152578562D01*
X103842444Y-152562661D01*
X103863841Y-152552524D01*
X103863841Y-152642970D01*
X103882794Y-152738250D01*
X103943795Y-152829545D01*
X104035090Y-152890546D01*
X104130370Y-152909499D01*
X104504256Y-152909499D01*
X104429064Y-153028213D01*
X104387203Y-153238661D01*
X104423910Y-153450070D01*
X104534262Y-153634088D01*
X104703461Y-153766045D01*
X104908820Y-153828242D01*
X105048755Y-153817843D01*
X106075001Y-154844089D01*
X106075000Y-160255631D01*
X106075001Y-160255635D01*
X106075001Y-160304550D01*
X106098921Y-160345980D01*
X106111302Y-160392188D01*
X106257339Y-160538229D01*
X106257341Y-160538229D01*
X107393501Y-161674391D01*
X107393501Y-162123610D01*
X107412454Y-162218890D01*
X107440724Y-162261200D01*
X107412454Y-162303510D01*
X107393501Y-162398790D01*
X107393501Y-163223610D01*
X107412454Y-163318890D01*
X107440724Y-163361200D01*
X107412454Y-163403510D01*
X107393501Y-163498790D01*
X107393501Y-163560200D01*
X105487036Y-163560200D01*
X105487029Y-163560202D01*
X105440254Y-163560202D01*
X105398826Y-163584120D01*
X105352613Y-163596503D01*
X105321515Y-163627601D01*
X105321512Y-163627603D01*
X103711193Y-165237923D01*
X103686578Y-165173965D01*
X103542586Y-165014884D01*
X103538500Y-165012824D01*
X103538500Y-162365514D01*
X103538499Y-162365510D01*
X103538499Y-162316595D01*
X103514579Y-162275165D01*
X103502198Y-162228956D01*
X103471100Y-162197858D01*
X103471098Y-162197855D01*
X102024660Y-160751419D01*
X102024660Y-156712419D01*
X102165087Y-156564697D01*
X102247311Y-156365703D01*
X102250074Y-156139468D01*
X102172738Y-155938525D01*
X102028746Y-155779444D01*
X101837137Y-155682865D01*
X101623610Y-155661741D01*
X101416791Y-155718902D01*
X101244418Y-155846685D01*
X101129604Y-156027953D01*
X101087743Y-156238401D01*
X101124450Y-156449810D01*
X101234802Y-156633828D01*
X101322660Y-156702348D01*
X101322661Y-160831233D01*
X99238280Y-158746853D01*
X99238280Y-152642799D01*
X99549690Y-152642799D01*
X99644970Y-152623846D01*
X99736265Y-152562845D01*
X99797266Y-152471550D01*
X99816219Y-152376270D01*
X99816219Y-150851450D01*
X99804632Y-150793200D01*
X99813926Y-150793200D01*
X100851876Y-151831152D01*
X100915903Y-151902262D01*
X100959171Y-151916321D01*
X101022876Y-151957691D01*
X101078406Y-151966486D01*
X101087284Y-152011120D01*
X101148285Y-152102415D01*
X101239580Y-152163416D01*
X101284573Y-152172366D01*
X101286966Y-152177062D01*
X101302759Y-152251362D01*
X101421699Y-152415069D01*
X101455050Y-152434324D01*
X102634990Y-153614266D01*
X102634991Y-158217722D01*
X102634990Y-158217725D01*
X102634990Y-158361447D01*
X102566934Y-158468893D01*
X102525073Y-158679341D01*
X102561780Y-158890750D01*
X102672132Y-159074768D01*
X102841331Y-159206725D01*
X103046690Y-159268922D01*
X103260672Y-159253021D01*
X103454582Y-159161152D01*
X103602417Y-159005637D01*
X103684641Y-158806643D01*
X103687404Y-158580408D01*
X103610068Y-158379464D01*
X103586990Y-158353968D01*
X103586990Y-153429553D01*
X103591998Y-153334003D01*
X103571346Y-153293471D01*
X103555552Y-153219168D01*
X103436611Y-153055461D01*
X103403262Y-153036207D01*
X102395667Y-152028613D01*
X102407356Y-152011120D01*
X102426309Y-151915840D01*
X102426309Y-151090920D01*
X102407356Y-150995640D01*
X102346355Y-150904345D01*
X102255060Y-150843344D01*
X102159780Y-150824391D01*
X101334860Y-150824391D01*
X101239580Y-150843344D01*
X101222088Y-150855032D01*
X100550444Y-150183389D01*
X101209780Y-150183389D01*
X101305060Y-150164436D01*
X101396355Y-150103435D01*
X101457356Y-150012140D01*
X101476309Y-149916860D01*
X101476309Y-149632400D01*
X101655433Y-149632400D01*
X101655433Y-149921038D01*
X101736065Y-150221962D01*
X101883455Y-150397615D01*
X102077084Y-150509406D01*
X102286246Y-150546287D01*
X102569320Y-150546287D01*
X102569320Y-149632400D01*
X101655433Y-149632400D01*
X101476309Y-149632400D01*
X101476309Y-149093326D01*
X101655433Y-149093326D01*
X101655433Y-149376400D01*
X102569320Y-149376400D01*
X102569320Y-148462513D01*
X102825320Y-148462513D01*
X102825320Y-149376400D01*
X103739207Y-149376400D01*
X103739207Y-149087762D01*
X103658575Y-148786839D01*
X103511185Y-148611185D01*
X103317556Y-148499394D01*
X103108394Y-148462513D01*
X102825320Y-148462513D01*
X102569320Y-148462513D01*
X102280682Y-148462513D01*
X101979759Y-148543145D01*
X101804105Y-148690535D01*
X101692314Y-148884164D01*
X101655433Y-149093326D01*
X101476309Y-149093326D01*
X101476309Y-149091940D01*
X101457356Y-148996660D01*
X101396355Y-148905365D01*
X101305060Y-148844364D01*
X101209780Y-148825411D01*
X100935000Y-148825411D01*
X100935000Y-148548859D01*
X101075427Y-148401137D01*
X101157651Y-148202143D01*
X101160414Y-147975908D01*
X101083078Y-147774965D01*
X100939086Y-147615884D01*
X100747477Y-147519305D01*
X100533950Y-147498181D01*
X100327131Y-147555342D01*
X100154758Y-147683125D01*
X100039944Y-147864393D01*
X99998083Y-148074841D01*
X100034790Y-148286250D01*
X100145142Y-148470269D01*
X100233001Y-148538789D01*
X100233000Y-148882169D01*
X100198285Y-148905365D01*
X100137284Y-148996660D01*
X100118331Y-149091940D01*
X100118331Y-149852253D01*
X99985622Y-149831234D01*
X99948427Y-149841200D01*
X99750728Y-149841200D01*
X99797266Y-149771550D01*
X99816219Y-149676270D01*
X99816219Y-148151450D01*
X99797266Y-148056170D01*
X99736265Y-147964875D01*
X99699940Y-147940604D01*
X99805427Y-147829637D01*
X99887651Y-147630643D01*
X99890092Y-147430797D01*
X99892238Y-147428651D01*
X99892240Y-147428648D01*
X99923338Y-147397550D01*
X99935719Y-147351341D01*
X99959639Y-147309911D01*
X99959639Y-147265931D01*
X99959640Y-147265928D01*
X99959640Y-139784491D01*
X100054505Y-139754762D01*
X100254577Y-139643861D01*
X100428261Y-139494995D01*
X100568465Y-139314246D01*
X100669461Y-139108996D01*
X100727123Y-138887630D01*
X100739094Y-138659191D01*
X100704887Y-138433012D01*
X100625900Y-138218329D01*
X100505357Y-138023914D01*
X100348185Y-137857709D01*
X100160803Y-137726502D01*
X99947796Y-137634327D01*
X99651647Y-137588480D01*
X99551487Y-137588480D01*
X99381059Y-137605791D01*
X99162775Y-137674198D01*
X98962703Y-137785099D01*
X98789019Y-137933965D01*
X98648815Y-138114714D01*
X98547819Y-138319964D01*
X98490157Y-138541330D01*
X98478186Y-138769769D01*
X98512393Y-138995948D01*
X98591380Y-139210631D01*
X98711923Y-139405046D01*
X98869095Y-139571251D01*
X99056477Y-139702458D01*
X99257640Y-139789508D01*
X99257641Y-146928424D01*
X99057131Y-146983842D01*
X98884758Y-147111625D01*
X98769944Y-147292893D01*
X98728083Y-147503341D01*
X98764790Y-147714750D01*
X98866838Y-147884921D01*
X98224870Y-147884921D01*
X98129590Y-147903874D01*
X98038295Y-147964875D01*
X97977294Y-148056170D01*
X97958341Y-148151450D01*
X97958341Y-148288532D01*
X97760000Y-148090192D01*
X97760000Y-146897859D01*
X97900427Y-146750137D01*
X97982651Y-146551143D01*
X97985414Y-146324908D01*
X97908078Y-146123965D01*
X97764086Y-145964884D01*
X97572477Y-145868305D01*
X97358950Y-145847181D01*
X97152131Y-145904342D01*
X96979758Y-146032125D01*
X96864944Y-146213393D01*
X96823083Y-146423841D01*
X96859790Y-146635250D01*
X96970142Y-146819268D01*
X97058000Y-146887788D01*
X97058000Y-146900395D01*
X97058001Y-146900399D01*
X97058000Y-148280711D01*
X97058001Y-148280715D01*
X97058001Y-148329630D01*
X97081921Y-148371060D01*
X97094302Y-148417268D01*
X97240339Y-148563309D01*
X97240341Y-148563309D01*
X97874489Y-149197458D01*
X97874492Y-149197460D01*
X97905590Y-149228558D01*
X97951799Y-149240939D01*
X97958341Y-149244716D01*
X97958341Y-149676270D01*
X97977294Y-149771550D01*
X98023832Y-149841200D01*
X94314364Y-149841200D01*
X93294939Y-148821775D01*
X93294939Y-147323990D01*
X93275986Y-147228710D01*
X93214985Y-147137415D01*
X93123690Y-147076414D01*
X93028410Y-147057461D01*
X92696515Y-147057461D01*
X92883367Y-146973290D01*
X93094193Y-146831355D01*
X93278090Y-146655926D01*
X93429798Y-146452021D01*
X93544983Y-146225470D01*
X93620350Y-145982750D01*
X93646161Y-145788000D01*
X90344216Y-145788000D01*
X90407982Y-146091906D01*
X90501335Y-146328292D01*
X90633181Y-146545570D01*
X90799753Y-146737525D01*
X90996284Y-146898671D01*
X91217158Y-147024400D01*
X91308240Y-147057461D01*
X90971590Y-147057461D01*
X90876310Y-147076414D01*
X90785015Y-147137415D01*
X90724014Y-147228710D01*
X90705061Y-147323990D01*
X90705061Y-149076010D01*
X90724014Y-149171290D01*
X90785015Y-149262585D01*
X90876310Y-149323586D01*
X90971590Y-149342539D01*
X92469375Y-149342539D01*
X93771797Y-150644962D01*
X93835833Y-150716082D01*
X93879101Y-150730141D01*
X93942807Y-150771511D01*
X94142668Y-150803166D01*
X94179863Y-150793200D01*
X97969928Y-150793200D01*
X97958341Y-150851450D01*
X97958341Y-152376270D01*
X97977294Y-152471550D01*
X98038295Y-152562845D01*
X98129590Y-152623846D01*
X98224870Y-152642799D01*
X98536280Y-152642799D01*
X98536281Y-158831952D01*
X98536281Y-158986289D01*
X98560202Y-159027723D01*
X98572584Y-159073931D01*
X98603680Y-159105027D01*
X98603682Y-159105030D01*
X101182689Y-161684037D01*
X101169023Y-161752741D01*
X101205730Y-161964150D01*
X101316082Y-162148168D01*
X101485281Y-162280125D01*
X101690640Y-162342322D01*
X101904622Y-162326421D01*
X102098532Y-162234552D01*
X102246367Y-162079037D01*
X102279446Y-161998980D01*
X102836500Y-162556034D01*
X102836501Y-165011601D01*
X102836500Y-165011605D01*
X102836500Y-165024123D01*
X102758258Y-165082124D01*
X102643444Y-165263393D01*
X102601583Y-165473841D01*
X102633038Y-165655002D01*
X101109158Y-165655002D01*
X101157651Y-165537643D01*
X101160414Y-165311408D01*
X101083078Y-165110465D01*
X100939086Y-164951384D01*
X100747477Y-164854805D01*
X100533950Y-164833681D01*
X100327131Y-164890842D01*
X100154758Y-165018625D01*
X100084214Y-165130000D01*
X99268888Y-165130000D01*
X97843493Y-163704606D01*
X97843493Y-163487951D01*
X97983920Y-163340229D01*
X98066144Y-163141235D01*
X98068907Y-162915000D01*
X97991571Y-162714057D01*
X97847579Y-162554976D01*
X97655970Y-162458397D01*
X97576832Y-162450568D01*
X98344905Y-161682495D01*
X98345841Y-161683225D01*
X98551200Y-161745422D01*
X98765182Y-161729521D01*
X98959092Y-161637652D01*
X99106927Y-161482137D01*
X99189151Y-161283143D01*
X99191914Y-161056908D01*
X99114578Y-160855965D01*
X98970586Y-160696884D01*
X98778977Y-160600305D01*
X98565450Y-160579181D01*
X98358632Y-160636342D01*
X98290296Y-160687000D01*
X98203670Y-160687000D01*
X98108140Y-160681993D01*
X98067610Y-160702644D01*
X97993304Y-160718438D01*
X97829597Y-160837378D01*
X97810340Y-160870732D01*
X96150432Y-162530640D01*
X96079317Y-162594671D01*
X96065258Y-162637939D01*
X96023888Y-162701645D01*
X95992233Y-162901505D01*
X96002199Y-162938701D01*
X96002200Y-166379226D01*
X95997191Y-166474794D01*
X96017845Y-166515330D01*
X96033638Y-166589631D01*
X96152577Y-166753337D01*
X96185928Y-166772593D01*
X96615500Y-167202166D01*
X96615500Y-167979281D01*
X96560126Y-167918104D01*
X96368517Y-167821525D01*
X96154990Y-167800401D01*
X96029079Y-167835200D01*
X95938730Y-167835200D01*
X95932426Y-167803510D01*
X95904156Y-167761200D01*
X95932426Y-167718890D01*
X95951379Y-167623610D01*
X95951379Y-166798790D01*
X95932426Y-166703510D01*
X95904156Y-166661200D01*
X95932426Y-166618890D01*
X95951379Y-166523610D01*
X95951379Y-165698790D01*
X95932426Y-165603510D01*
X95904156Y-165561200D01*
X95932426Y-165518890D01*
X95951379Y-165423610D01*
X95951379Y-164598790D01*
X95932426Y-164503510D01*
X95904156Y-164461200D01*
X95932426Y-164418890D01*
X95951379Y-164323610D01*
X95951379Y-163498790D01*
X95932426Y-163403510D01*
X95904156Y-163361200D01*
X95932426Y-163318890D01*
X95951379Y-163223610D01*
X95951379Y-162398790D01*
X95932426Y-162303510D01*
X95904156Y-162261200D01*
X95932426Y-162218890D01*
X95951379Y-162123610D01*
X95951379Y-161298790D01*
X95932426Y-161203510D01*
X95904156Y-161161200D01*
X95932426Y-161118890D01*
X95951379Y-161023610D01*
X95951379Y-160198790D01*
X95932426Y-160103510D01*
X95904156Y-160061200D01*
X95932426Y-160018890D01*
X95951379Y-159923610D01*
X95951379Y-159098790D01*
X95932426Y-159003510D01*
X95904156Y-158961200D01*
X95932426Y-158918890D01*
X95951379Y-158823610D01*
X95951379Y-157998790D01*
X95932426Y-157903510D01*
X95904156Y-157861200D01*
X95932426Y-157818890D01*
X95951379Y-157723610D01*
X95951379Y-156898790D01*
X95932426Y-156803510D01*
X95904156Y-156761200D01*
X95932426Y-156718890D01*
X95951379Y-156623610D01*
X95951379Y-156082741D01*
X95989952Y-156072405D01*
X96165605Y-155925015D01*
X96277396Y-155731386D01*
X96314277Y-155522224D01*
X96314277Y-155239200D01*
X94794440Y-155239200D01*
X94794440Y-154069363D01*
X95050440Y-154069363D01*
X95050440Y-154983200D01*
X96314277Y-154983200D01*
X96314277Y-154694612D01*
X96233645Y-154393689D01*
X96086255Y-154218035D01*
X95892626Y-154106244D01*
X95683464Y-154069363D01*
X95050440Y-154069363D01*
X94794440Y-154069363D01*
X94155852Y-154069363D01*
X93950000Y-154124521D01*
X93950000Y-153370868D01*
X93949999Y-153370864D01*
X93949999Y-153321949D01*
X93926079Y-153280519D01*
X93913698Y-153234310D01*
X93882600Y-153203212D01*
X93882598Y-153203209D01*
X93242939Y-152563551D01*
X93242939Y-150952490D01*
X93223986Y-150857210D01*
X93162985Y-150765915D01*
X93071690Y-150704914D01*
X92976410Y-150685961D01*
X90919590Y-150685961D01*
X90824310Y-150704914D01*
X90733015Y-150765915D01*
X90672014Y-150857210D01*
X90653061Y-150952490D01*
X90653061Y-152704510D01*
X90672014Y-152799790D01*
X90733015Y-152891085D01*
X90824310Y-152952086D01*
X90919590Y-152971039D01*
X92657651Y-152971039D01*
X93248001Y-153561389D01*
X93248000Y-155019712D01*
X93115500Y-154887212D01*
X93156033Y-154812247D01*
X93222119Y-154598756D01*
X93245480Y-154376494D01*
X93225225Y-154153928D01*
X93162125Y-153939535D01*
X93058586Y-153741481D01*
X92918548Y-153567310D01*
X92747348Y-153423656D01*
X92551506Y-153315991D01*
X92338058Y-153248281D01*
X92153661Y-153228900D01*
X91739423Y-153228900D01*
X91573181Y-153245200D01*
X91359233Y-153309795D01*
X91161906Y-153414715D01*
X90988717Y-153555965D01*
X90846262Y-153728164D01*
X90739967Y-153924753D01*
X90673881Y-154138244D01*
X90650520Y-154360506D01*
X90670775Y-154583072D01*
X90733875Y-154797465D01*
X90837414Y-154995519D01*
X90977452Y-155169690D01*
X91148652Y-155313344D01*
X91344494Y-155421009D01*
X91557942Y-155488719D01*
X91742339Y-155508100D01*
X92156577Y-155508100D01*
X92322819Y-155491800D01*
X92536767Y-155427205D01*
X92618995Y-155383483D01*
X93057501Y-155821990D01*
X93057500Y-156280130D01*
X92918548Y-156107310D01*
X92747348Y-155963656D01*
X92551506Y-155855991D01*
X92338058Y-155788281D01*
X92153661Y-155768900D01*
X91739423Y-155768900D01*
X91573181Y-155785200D01*
X91359233Y-155849795D01*
X91161906Y-155954715D01*
X90988717Y-156095965D01*
X90846262Y-156268164D01*
X90739967Y-156464753D01*
X90673881Y-156678244D01*
X90650520Y-156900506D01*
X90670775Y-157123072D01*
X90733875Y-157337465D01*
X90837414Y-157535519D01*
X90977452Y-157709690D01*
X91148652Y-157853344D01*
X91344494Y-157961009D01*
X91443879Y-157992536D01*
X91296358Y-158030825D01*
X91064633Y-158135210D01*
X90853807Y-158277145D01*
X90669910Y-158452574D01*
X90518202Y-158656479D01*
X90403017Y-158883030D01*
X90327650Y-159125750D01*
X90301839Y-159320500D01*
X93603784Y-159320500D01*
X93540018Y-159016594D01*
X93446665Y-158780208D01*
X93314819Y-158562930D01*
X93148247Y-158370975D01*
X92951716Y-158209829D01*
X92730842Y-158084100D01*
X92489125Y-157996361D01*
X92455124Y-157991855D01*
X92536767Y-157967205D01*
X92734094Y-157862285D01*
X92797877Y-157810265D01*
X93682409Y-158694798D01*
X93682412Y-158694800D01*
X93713510Y-158725898D01*
X93759719Y-158738279D01*
X93801149Y-158762199D01*
X93845129Y-158762199D01*
X93845132Y-158762200D01*
X93893501Y-158762200D01*
X93893501Y-158823610D01*
X93912454Y-158918890D01*
X93940724Y-158961200D01*
X93912454Y-159003510D01*
X93893501Y-159098790D01*
X93893501Y-159638023D01*
X93856961Y-159659119D01*
X93810748Y-159671502D01*
X93779650Y-159702600D01*
X93779647Y-159702602D01*
X93504108Y-159978141D01*
X93568350Y-159771250D01*
X93594161Y-159576500D01*
X90292216Y-159576500D01*
X90350456Y-159854068D01*
X89503939Y-159007552D01*
X89503939Y-157587590D01*
X89484986Y-157492310D01*
X89423985Y-157401015D01*
X89332690Y-157340014D01*
X89237410Y-157321061D01*
X88806500Y-157321061D01*
X88806500Y-157180888D01*
X89749462Y-156237927D01*
X89749466Y-156237922D01*
X89786198Y-156201190D01*
X89798579Y-156154981D01*
X89822499Y-156113551D01*
X89822499Y-156064636D01*
X89822500Y-156064632D01*
X89822500Y-145800380D01*
X89832382Y-145763500D01*
X89822500Y-145726620D01*
X89822500Y-145720868D01*
X89822499Y-145720864D01*
X89822499Y-145671951D01*
X89798580Y-145630521D01*
X89786197Y-145584310D01*
X89733888Y-145532000D01*
X90353839Y-145532000D01*
X93655784Y-145532000D01*
X93592018Y-145228094D01*
X93498665Y-144991708D01*
X93366819Y-144774430D01*
X93200247Y-144582475D01*
X93003716Y-144421329D01*
X92782842Y-144295600D01*
X92541125Y-144207861D01*
X92507124Y-144203355D01*
X92588767Y-144178705D01*
X92786094Y-144073785D01*
X92959283Y-143932535D01*
X93101738Y-143760336D01*
X93190594Y-143596000D01*
X94631545Y-143596000D01*
X94727097Y-143601009D01*
X94767629Y-143580356D01*
X94841931Y-143564563D01*
X94933547Y-143498000D01*
X96106545Y-143498000D01*
X96202097Y-143503009D01*
X96242629Y-143482356D01*
X96316931Y-143466563D01*
X96480639Y-143347622D01*
X96499896Y-143314268D01*
X97396422Y-142417743D01*
X97467521Y-142353728D01*
X97481581Y-142310460D01*
X97522951Y-142246753D01*
X97554606Y-142046893D01*
X97544640Y-142009697D01*
X97544640Y-139738058D01*
X97714577Y-139643861D01*
X97888261Y-139494995D01*
X98028465Y-139314246D01*
X98129461Y-139108996D01*
X98187123Y-138887630D01*
X98199094Y-138659191D01*
X98164887Y-138433012D01*
X98085900Y-138218329D01*
X97965357Y-138023914D01*
X97808185Y-137857709D01*
X97620803Y-137726502D01*
X97407796Y-137634327D01*
X97111647Y-137588480D01*
X97011487Y-137588480D01*
X96841059Y-137605791D01*
X96622775Y-137674198D01*
X96422703Y-137785099D01*
X96249019Y-137933965D01*
X96108815Y-138114714D01*
X96007819Y-138319964D01*
X95950157Y-138541330D01*
X95938186Y-138769769D01*
X95972393Y-138995948D01*
X96051380Y-139210631D01*
X96171923Y-139405046D01*
X96329095Y-139571251D01*
X96516477Y-139702458D01*
X96592641Y-139735417D01*
X96592640Y-141875194D01*
X95921835Y-142546000D01*
X94754453Y-142546000D01*
X94658903Y-142540992D01*
X94618371Y-142561644D01*
X94544068Y-142577438D01*
X94452453Y-142644000D01*
X93189536Y-142644000D01*
X93110586Y-142492981D01*
X92970548Y-142318810D01*
X92799348Y-142175156D01*
X92603506Y-142067491D01*
X92390058Y-141999781D01*
X92205661Y-141980400D01*
X91791423Y-141980400D01*
X91625181Y-141996700D01*
X91411233Y-142061295D01*
X91213906Y-142166215D01*
X91040717Y-142307465D01*
X90898262Y-142479664D01*
X90791967Y-142676253D01*
X90725881Y-142889744D01*
X90702520Y-143112006D01*
X90722775Y-143334572D01*
X90785875Y-143548965D01*
X90889414Y-143747019D01*
X91029452Y-143921190D01*
X91200652Y-144064844D01*
X91396494Y-144172509D01*
X91495879Y-144204036D01*
X91348358Y-144242325D01*
X91116633Y-144346710D01*
X90905807Y-144488645D01*
X90721910Y-144664074D01*
X90570202Y-144867979D01*
X90455017Y-145094530D01*
X90379650Y-145337250D01*
X90353839Y-145532000D01*
X89733888Y-145532000D01*
X89640160Y-145438271D01*
X89611385Y-145438271D01*
X89604479Y-145436420D01*
X89597939Y-145432645D01*
X89597939Y-144751090D01*
X89578986Y-144655810D01*
X89517985Y-144564515D01*
X89426690Y-144503514D01*
X89331410Y-144484561D01*
X87706590Y-144484561D01*
X87611310Y-144503514D01*
X87520015Y-144564515D01*
X87459014Y-144655810D01*
X87440061Y-144751090D01*
X87440061Y-146775910D01*
X87459014Y-146871190D01*
X87520015Y-146962485D01*
X87611310Y-147023486D01*
X87706590Y-147042439D01*
X89120501Y-147042439D01*
X89120501Y-147298113D01*
X88954691Y-147132303D01*
X88908479Y-147119920D01*
X88867049Y-147096001D01*
X88818136Y-147096001D01*
X88818132Y-147096000D01*
X87394388Y-147096000D01*
X87256373Y-146957985D01*
X87292986Y-146903190D01*
X87311939Y-146807910D01*
X87311939Y-144783090D01*
X87292986Y-144687810D01*
X87231985Y-144596515D01*
X87140690Y-144535514D01*
X87045410Y-144516561D01*
X85420590Y-144516561D01*
X85325310Y-144535514D01*
X85234015Y-144596515D01*
X85173014Y-144687810D01*
X85154061Y-144783090D01*
X85154061Y-146807910D01*
X85173014Y-146903190D01*
X85234015Y-146994485D01*
X85325310Y-147055486D01*
X85420590Y-147074439D01*
X86380051Y-147074439D01*
X86751052Y-147445440D01*
X86669489Y-147467295D01*
X86493835Y-147614685D01*
X86382044Y-147808314D01*
X86345163Y-148017476D01*
X86345163Y-148525500D01*
X87865000Y-148525500D01*
X87865000Y-149920337D01*
X88503588Y-149920337D01*
X88756989Y-149852439D01*
X88756990Y-155666122D01*
X87028902Y-157394210D01*
X87028900Y-157394213D01*
X86997802Y-157425311D01*
X86985421Y-157471520D01*
X86961501Y-157512950D01*
X86961501Y-157561865D01*
X86961500Y-157561869D01*
X86961501Y-160277212D01*
X86961501Y-160431549D01*
X86985422Y-160472983D01*
X86997804Y-160519191D01*
X87028900Y-160550287D01*
X87028902Y-160550290D01*
X87612208Y-161133597D01*
X87612211Y-161133599D01*
X87643309Y-161164697D01*
X87689522Y-161177080D01*
X87696061Y-161180855D01*
X87696061Y-161387895D01*
X85885500Y-159577335D01*
X85885500Y-150326859D01*
X86025927Y-150179137D01*
X86108151Y-149980143D01*
X86110914Y-149753908D01*
X86033578Y-149552965D01*
X86031796Y-149550997D01*
X86094690Y-149538486D01*
X86185985Y-149477485D01*
X86246986Y-149386190D01*
X86265939Y-149290910D01*
X86265939Y-148781500D01*
X86345163Y-148781500D01*
X86345163Y-149295088D01*
X86425795Y-149596012D01*
X86573185Y-149771665D01*
X86766814Y-149883456D01*
X86975976Y-149920337D01*
X87609000Y-149920337D01*
X87609000Y-148781500D01*
X86345163Y-148781500D01*
X86265939Y-148781500D01*
X86265939Y-148016090D01*
X86246986Y-147920810D01*
X86185985Y-147829515D01*
X86094690Y-147768514D01*
X85999410Y-147749561D01*
X84474590Y-147749561D01*
X84379310Y-147768514D01*
X84288015Y-147829515D01*
X84227014Y-147920810D01*
X84208061Y-148016090D01*
X84208061Y-149290910D01*
X84227014Y-149386190D01*
X84288015Y-149477485D01*
X84379310Y-149538486D01*
X84474590Y-149557439D01*
X84886001Y-149557439D01*
X84886001Y-149656549D01*
X84909922Y-149697983D01*
X84922304Y-149744191D01*
X84953400Y-149775287D01*
X84953402Y-149775290D01*
X84962249Y-149784137D01*
X84948583Y-149852841D01*
X84985290Y-150064250D01*
X85095642Y-150248268D01*
X85183500Y-150316788D01*
X85183500Y-150329395D01*
X85183501Y-150329399D01*
X85183500Y-159767853D01*
X85183501Y-159767857D01*
X85183501Y-159816772D01*
X85207421Y-159858202D01*
X85219802Y-159904410D01*
X85365839Y-160050451D01*
X85365842Y-160050451D01*
X85739016Y-160423625D01*
X85658631Y-160445842D01*
X85486258Y-160573625D01*
X85371444Y-160754893D01*
X85329583Y-160965341D01*
X85366290Y-161176750D01*
X85476642Y-161360768D01*
X85645841Y-161492725D01*
X85851200Y-161554922D01*
X86065182Y-161539021D01*
X86259091Y-161447152D01*
X86297676Y-161406563D01*
X87544208Y-162653097D01*
X87544211Y-162653099D01*
X87575310Y-162684198D01*
X87621519Y-162696579D01*
X87662949Y-162720499D01*
X87711864Y-162720499D01*
X87711868Y-162720500D01*
X93893501Y-162720500D01*
X93893501Y-163223610D01*
X93912454Y-163318890D01*
X93940724Y-163361200D01*
X93912454Y-163403510D01*
X93893501Y-163498790D01*
X93893501Y-163560200D01*
X87375604Y-163560200D01*
X87376414Y-163493908D01*
X87299078Y-163292965D01*
X87155086Y-163133884D01*
X86963477Y-163037305D01*
X86749950Y-163016181D01*
X86543131Y-163073342D01*
X86370758Y-163201125D01*
X86255944Y-163382393D01*
X86214083Y-163592841D01*
X86250790Y-163804250D01*
X86361142Y-163988268D01*
X86530341Y-164120225D01*
X86735700Y-164182422D01*
X86875633Y-164172023D01*
X86894918Y-164191308D01*
X86894925Y-164191312D01*
X86929509Y-164225897D01*
X86975719Y-164238280D01*
X87017150Y-164262199D01*
X87066064Y-164262199D01*
X87066068Y-164262200D01*
X93893501Y-164262200D01*
X93893501Y-164323610D01*
X93912454Y-164418890D01*
X93940724Y-164461200D01*
X93912454Y-164503510D01*
X93893501Y-164598790D01*
X93893501Y-164660200D01*
X89607922Y-164660200D01*
X89524325Y-164567844D01*
X89332717Y-164471265D01*
X89119190Y-164450141D01*
X88912371Y-164507302D01*
X88739998Y-164635085D01*
X88625184Y-164816353D01*
X88583323Y-165026801D01*
X88620030Y-165238210D01*
X88730382Y-165422228D01*
X88899581Y-165554185D01*
X89104940Y-165616382D01*
X89318922Y-165600481D01*
X89512832Y-165508612D01*
X89652014Y-165362200D01*
X93893501Y-165362200D01*
X93893501Y-165423610D01*
X93912454Y-165518890D01*
X93940724Y-165561200D01*
X93912454Y-165603510D01*
X93893501Y-165698790D01*
X93893501Y-165760200D01*
X90383668Y-165760200D01*
X90383664Y-165760201D01*
X90334749Y-165760201D01*
X90293319Y-165784121D01*
X90247110Y-165796502D01*
X90216012Y-165827600D01*
X90216009Y-165827602D01*
X89495210Y-166548402D01*
X89495208Y-166548403D01*
X89483054Y-166560558D01*
X89357950Y-166548181D01*
X89151131Y-166605342D01*
X88978758Y-166733125D01*
X88863944Y-166914393D01*
X88822083Y-167124841D01*
X88858790Y-167336250D01*
X88969142Y-167520268D01*
X89138341Y-167652225D01*
X89343700Y-167714422D01*
X89557682Y-167698521D01*
X89751592Y-167606652D01*
X89899427Y-167451137D01*
X89981651Y-167252143D01*
X89984092Y-167052297D01*
X89991597Y-167044792D01*
X89991598Y-167044790D01*
X90574189Y-166462200D01*
X93893501Y-166462200D01*
X93893501Y-166523610D01*
X93912454Y-166618890D01*
X93940724Y-166661200D01*
X93912454Y-166703510D01*
X93893501Y-166798790D01*
X93893501Y-167623610D01*
X93912454Y-167718890D01*
X93940724Y-167761200D01*
X93912454Y-167803510D01*
X93906150Y-167835200D01*
X93199906Y-167835200D01*
X92730359Y-167365654D01*
X92730357Y-167365650D01*
X92638602Y-167273897D01*
X92638715Y-167264669D01*
X92561378Y-167063725D01*
X92417386Y-166904644D01*
X92225777Y-166808065D01*
X92012250Y-166786941D01*
X91805431Y-166844102D01*
X91633058Y-166971885D01*
X91518244Y-167153153D01*
X91476383Y-167363601D01*
X91513090Y-167575010D01*
X91623442Y-167759028D01*
X91792641Y-167890985D01*
X91960068Y-167941693D01*
X92060550Y-168042175D01*
X92060553Y-168042177D01*
X92657337Y-168638962D01*
X92721373Y-168710082D01*
X92764640Y-168724140D01*
X92828345Y-168765511D01*
X93028208Y-168797166D01*
X93065403Y-168787200D01*
X93906150Y-168787200D01*
X93912454Y-168818890D01*
X93940724Y-168861200D01*
X93912454Y-168903510D01*
X93893501Y-168998790D01*
X93893501Y-169823610D01*
X93912454Y-169918890D01*
X93940724Y-169961200D01*
X93912454Y-170003510D01*
X93893501Y-170098790D01*
X93893501Y-170639660D01*
X93854929Y-170649995D01*
X93679275Y-170797385D01*
X93567484Y-170991014D01*
X93530603Y-171200176D01*
X93530603Y-171483200D01*
X96314277Y-171483200D01*
X96314277Y-171194612D01*
X96233645Y-170893689D01*
X96086255Y-170718035D01*
X95951379Y-170640165D01*
X95951379Y-170098790D01*
X95932426Y-170003510D01*
X95904156Y-169961200D01*
X95932426Y-169918890D01*
X95951379Y-169823610D01*
X95951379Y-168998790D01*
X95932426Y-168903510D01*
X95930515Y-168900650D01*
X95935381Y-168904445D01*
X96140740Y-168966642D01*
X96354722Y-168950741D01*
X96548632Y-168858872D01*
X96615501Y-168788530D01*
X96615501Y-170155722D01*
X96615500Y-170155725D01*
X96615500Y-170299447D01*
X96547444Y-170406893D01*
X96505583Y-170617341D01*
X96542290Y-170828750D01*
X96652642Y-171012768D01*
X96821841Y-171144725D01*
X97027200Y-171206922D01*
X97241182Y-171191021D01*
X97435092Y-171099152D01*
X97582927Y-170943637D01*
X97665151Y-170744643D01*
X97667914Y-170518408D01*
X97590578Y-170317464D01*
X97567500Y-170291968D01*
X97567500Y-167017454D01*
X97572508Y-166921904D01*
X97551856Y-166881372D01*
X97536062Y-166807068D01*
X97417121Y-166643361D01*
X97383774Y-166624108D01*
X96954199Y-166194534D01*
X96954199Y-164847792D01*
X97033642Y-164980268D01*
X97202841Y-165112225D01*
X97408200Y-165174422D01*
X97548135Y-165164023D01*
X97559708Y-165175597D01*
X97559712Y-165175599D01*
X98720209Y-166336098D01*
X98720212Y-166336100D01*
X98751310Y-166367198D01*
X98797519Y-166379579D01*
X98838949Y-166403499D01*
X98887864Y-166403499D01*
X98887868Y-166403500D01*
X100898136Y-166403500D01*
X100898140Y-166403499D01*
X100947053Y-166403499D01*
X100988483Y-166379580D01*
X101034695Y-166367197D01*
X101044890Y-166357002D01*
X103484634Y-166357002D01*
X103484638Y-166357001D01*
X103533551Y-166357001D01*
X103574981Y-166333082D01*
X103621192Y-166320699D01*
X103767231Y-166174662D01*
X103767231Y-166174660D01*
X105679692Y-164262200D01*
X107393501Y-164262200D01*
X107393501Y-164323610D01*
X107412454Y-164418890D01*
X107440724Y-164461200D01*
X107412454Y-164503510D01*
X107393501Y-164598790D01*
X107393501Y-165423610D01*
X107412454Y-165518890D01*
X107440724Y-165561200D01*
X107412454Y-165603510D01*
X107393501Y-165698790D01*
X107393501Y-166523610D01*
X107412454Y-166618890D01*
X107440724Y-166661200D01*
X107412454Y-166703510D01*
X107393501Y-166798790D01*
X107393501Y-167623610D01*
X107412454Y-167718890D01*
X107440724Y-167761200D01*
X107412454Y-167803510D01*
X107393501Y-167898790D01*
X107393501Y-168439660D01*
X107354929Y-168449995D01*
X107179275Y-168597385D01*
X107067484Y-168791014D01*
X107030603Y-169000176D01*
X107030603Y-169283200D01*
X109814277Y-169283200D01*
X109814277Y-169117439D01*
X110364000Y-169117439D01*
X110364000Y-169718561D01*
X109814277Y-169718561D01*
X109814277Y-169539200D01*
X107030603Y-169539200D01*
X107030603Y-169827788D01*
X107111235Y-170128712D01*
X107258625Y-170304365D01*
X107393501Y-170382235D01*
X107393501Y-170639660D01*
X107354929Y-170649995D01*
X107179275Y-170797385D01*
X107067484Y-170991014D01*
X107030603Y-171200176D01*
X107030603Y-171483200D01*
X109814277Y-171483200D01*
X109814277Y-171276439D01*
X110364000Y-171276439D01*
X110364000Y-172340000D01*
X109714688Y-172340000D01*
X109777396Y-172231386D01*
X109814277Y-172022224D01*
X109814277Y-171739200D01*
X107030603Y-171739200D01*
X107030603Y-172027788D01*
X107111235Y-172328712D01*
X107120707Y-172340000D01*
X96214688Y-172340000D01*
X96277396Y-172231386D01*
X96314277Y-172022224D01*
X96314277Y-171739200D01*
X93530603Y-171739200D01*
X93530603Y-172027788D01*
X93611235Y-172328712D01*
X93620707Y-172340000D01*
X83438000Y-172340000D01*
X83438000Y-169354961D01*
X86063643Y-169354961D01*
X86100350Y-169566370D01*
X86210702Y-169750388D01*
X86379901Y-169882345D01*
X86585260Y-169944542D01*
X86799242Y-169928641D01*
X86993152Y-169836772D01*
X87140987Y-169681257D01*
X87223211Y-169482263D01*
X87225974Y-169256028D01*
X87148638Y-169055085D01*
X87004646Y-168896004D01*
X86813037Y-168799425D01*
X86599510Y-168778301D01*
X86392691Y-168835462D01*
X86220318Y-168963245D01*
X86105504Y-169144513D01*
X86063643Y-169354961D01*
X83438000Y-169354961D01*
X83438000Y-139350334D01*
X83471923Y-139405046D01*
X83629095Y-139571251D01*
X83816477Y-139702458D01*
X84029484Y-139794633D01*
X84325633Y-139840480D01*
X84425793Y-139840480D01*
X84596221Y-139823169D01*
X84814505Y-139754762D01*
X84877575Y-139719802D01*
X85674333Y-140516561D01*
X85420590Y-140516561D01*
X85325310Y-140535514D01*
X85234015Y-140596515D01*
X85173014Y-140687810D01*
X85154061Y-140783090D01*
X85154061Y-142807910D01*
X85173014Y-142903190D01*
X85234015Y-142994485D01*
X85325310Y-143055486D01*
X85420590Y-143074439D01*
X87045410Y-143074439D01*
X87140690Y-143055486D01*
X87231985Y-142994485D01*
X87292986Y-142903190D01*
X87311939Y-142807910D01*
X87311939Y-140783090D01*
X87292986Y-140687810D01*
X87231985Y-140596515D01*
X87140690Y-140535514D01*
X87045410Y-140516561D01*
X86583999Y-140516561D01*
X86583999Y-140484789D01*
X86560079Y-140443359D01*
X86547698Y-140397150D01*
X86516600Y-140366052D01*
X86516598Y-140366049D01*
X85373424Y-139222877D01*
X85429461Y-139108996D01*
X85487123Y-138887630D01*
X85493299Y-138769769D01*
X85778186Y-138769769D01*
X85812393Y-138995948D01*
X85891380Y-139210631D01*
X86011923Y-139405046D01*
X86169095Y-139571251D01*
X86356477Y-139702458D01*
X86569484Y-139794633D01*
X86865633Y-139840480D01*
X86965793Y-139840480D01*
X87136221Y-139823169D01*
X87354505Y-139754762D01*
X87417574Y-139719802D01*
X88168000Y-140470229D01*
X88168000Y-140484561D01*
X87706590Y-140484561D01*
X87611310Y-140503514D01*
X87520015Y-140564515D01*
X87459014Y-140655810D01*
X87440061Y-140751090D01*
X87440061Y-142775910D01*
X87459014Y-142871190D01*
X87520015Y-142962485D01*
X87611310Y-143023486D01*
X87706590Y-143042439D01*
X89331410Y-143042439D01*
X89426690Y-143023486D01*
X89517985Y-142962485D01*
X89578986Y-142871190D01*
X89597939Y-142775910D01*
X89597939Y-140751090D01*
X89578986Y-140655810D01*
X89517985Y-140564515D01*
X89426690Y-140503514D01*
X89331410Y-140484561D01*
X88870000Y-140484561D01*
X88870000Y-140279708D01*
X88869999Y-140279704D01*
X88869999Y-140230789D01*
X88860571Y-140214458D01*
X89576640Y-140214458D01*
X89943348Y-140119280D01*
X90172969Y-140015843D01*
X90381880Y-139875196D01*
X90564106Y-139701361D01*
X90714437Y-139499308D01*
X90828576Y-139274814D01*
X90903258Y-139034299D01*
X90904117Y-139027815D01*
X90971380Y-139210631D01*
X91091923Y-139405046D01*
X91249095Y-139571251D01*
X91436477Y-139702458D01*
X91649484Y-139794633D01*
X91945633Y-139840480D01*
X92045793Y-139840480D01*
X92216221Y-139823169D01*
X92434505Y-139754762D01*
X92634577Y-139643861D01*
X92808261Y-139494995D01*
X92948465Y-139314246D01*
X93049461Y-139108996D01*
X93107123Y-138887630D01*
X93113299Y-138769769D01*
X93398186Y-138769769D01*
X93432393Y-138995948D01*
X93511380Y-139210631D01*
X93631923Y-139405046D01*
X93789095Y-139571251D01*
X93976477Y-139702458D01*
X94189484Y-139794633D01*
X94485633Y-139840480D01*
X94585793Y-139840480D01*
X94756221Y-139823169D01*
X94974505Y-139754762D01*
X95174577Y-139643861D01*
X95348261Y-139494995D01*
X95488465Y-139314246D01*
X95589461Y-139108996D01*
X95647123Y-138887630D01*
X95659094Y-138659191D01*
X95624887Y-138433012D01*
X95545900Y-138218329D01*
X95425357Y-138023914D01*
X95268185Y-137857709D01*
X95080803Y-137726502D01*
X94867796Y-137634327D01*
X94571647Y-137588480D01*
X94471487Y-137588480D01*
X94301059Y-137605791D01*
X94082775Y-137674198D01*
X93882703Y-137785099D01*
X93709019Y-137933965D01*
X93568815Y-138114714D01*
X93467819Y-138319964D01*
X93410157Y-138541330D01*
X93398186Y-138769769D01*
X93113299Y-138769769D01*
X93119094Y-138659191D01*
X93084887Y-138433012D01*
X93005900Y-138218329D01*
X92885357Y-138023914D01*
X92728185Y-137857709D01*
X92540803Y-137726502D01*
X92327796Y-137634327D01*
X92031647Y-137588480D01*
X91931487Y-137588480D01*
X91761059Y-137605791D01*
X91542775Y-137674198D01*
X91342703Y-137785099D01*
X91169019Y-137933965D01*
X91028815Y-138114714D01*
X90927819Y-138319964D01*
X90902556Y-138416950D01*
X90875184Y-138286497D01*
X90782679Y-138052258D01*
X90652030Y-137836954D01*
X90486971Y-137646741D01*
X90292224Y-137487058D01*
X90073356Y-137362471D01*
X89833809Y-137275520D01*
X89576640Y-137241433D01*
X89576640Y-140214458D01*
X88860571Y-140214458D01*
X88846079Y-140189359D01*
X88833698Y-140143150D01*
X88802600Y-140112052D01*
X88802598Y-140112049D01*
X88668652Y-139978103D01*
X88823924Y-140066489D01*
X89063471Y-140153440D01*
X89320640Y-140187527D01*
X89320640Y-137214502D01*
X88953932Y-137309680D01*
X88724311Y-137413117D01*
X88515400Y-137553764D01*
X88333174Y-137727599D01*
X88182843Y-137929652D01*
X88068704Y-138154146D01*
X87994022Y-138394661D01*
X87993163Y-138401145D01*
X87925900Y-138218329D01*
X87805357Y-138023914D01*
X87648185Y-137857709D01*
X87460803Y-137726502D01*
X87247796Y-137634327D01*
X86951647Y-137588480D01*
X86851487Y-137588480D01*
X86681059Y-137605791D01*
X86462775Y-137674198D01*
X86262703Y-137785099D01*
X86089019Y-137933965D01*
X85948815Y-138114714D01*
X85847819Y-138319964D01*
X85790157Y-138541330D01*
X85778186Y-138769769D01*
X85493299Y-138769769D01*
X85499094Y-138659191D01*
X85464887Y-138433012D01*
X85385900Y-138218329D01*
X85265357Y-138023914D01*
X85108185Y-137857709D01*
X84920803Y-137726502D01*
X84707796Y-137634327D01*
X84411647Y-137588480D01*
X84311487Y-137588480D01*
X84141059Y-137605791D01*
X83922775Y-137674198D01*
X83722703Y-137785099D01*
X83549019Y-137933965D01*
X83438000Y-138077089D01*
X83438000Y-137032000D01*
X110364000Y-137032000D01*
X110364000Y-164130561D01*
X110364000Y-164130561D01*
G37*
X110364000Y-164130561D02*
X109451379Y-164130561D01*
X109451379Y-163498790D01*
X109432426Y-163403510D01*
X109404156Y-163361200D01*
X109432426Y-163318890D01*
X109451379Y-163223610D01*
X109451379Y-162398790D01*
X109432426Y-162303510D01*
X109404156Y-162261200D01*
X109432426Y-162218890D01*
X109451379Y-162123610D01*
X109451379Y-161298790D01*
X109432426Y-161203510D01*
X109404156Y-161161200D01*
X109432426Y-161118890D01*
X109451379Y-161023610D01*
X109451379Y-160198790D01*
X109432426Y-160103510D01*
X109404156Y-160061200D01*
X109432426Y-160018890D01*
X109451379Y-159923610D01*
X109451379Y-159098790D01*
X109432426Y-159003510D01*
X109404156Y-158961200D01*
X109432426Y-158918890D01*
X109451379Y-158823610D01*
X109451379Y-157998790D01*
X109432426Y-157903510D01*
X109404156Y-157861200D01*
X109432426Y-157818890D01*
X109451379Y-157723610D01*
X109451379Y-157642055D01*
X109457919Y-157638280D01*
X109504130Y-157625897D01*
X109650169Y-157479860D01*
X109650169Y-157479859D01*
X109925403Y-157204626D01*
X109925407Y-157204621D01*
X109962139Y-157167889D01*
X109974520Y-157121680D01*
X109998440Y-157080250D01*
X109998440Y-157036270D01*
X109998441Y-157036267D01*
X109998441Y-145924309D01*
X109998440Y-145924305D01*
X109998440Y-145875392D01*
X109974521Y-145833962D01*
X109962138Y-145787750D01*
X109930599Y-145756211D01*
X109930597Y-145756208D01*
X109921168Y-145746780D01*
X109923414Y-145562908D01*
X109846078Y-145361965D01*
X109702086Y-145202884D01*
X109510477Y-145106305D01*
X109296950Y-145085181D01*
X109090131Y-145142342D01*
X108917758Y-145270125D01*
X108872500Y-145341578D01*
X108872500Y-144738859D01*
X109012927Y-144591137D01*
X109095151Y-144392143D01*
X109097914Y-144165908D01*
X109020578Y-143964965D01*
X108876586Y-143805884D01*
X108684977Y-143709305D01*
X108471450Y-143688181D01*
X108264631Y-143745342D01*
X108092258Y-143873125D01*
X107977444Y-144054393D01*
X107935583Y-144264841D01*
X107972290Y-144476250D01*
X108082642Y-144660268D01*
X108170500Y-144728788D01*
X108170501Y-153080111D01*
X107775543Y-153475069D01*
X107776871Y-153366361D01*
X107699535Y-153165418D01*
X107555543Y-153006337D01*
X107439940Y-152948068D01*
X107439940Y-152868859D01*
X107751350Y-152868859D01*
X107846630Y-152849906D01*
X107937925Y-152788905D01*
X107998926Y-152697610D01*
X108017879Y-152602330D01*
X108017879Y-151077510D01*
X107998926Y-150982230D01*
X107937925Y-150890935D01*
X107846630Y-150829934D01*
X107751350Y-150810981D01*
X106426530Y-150810981D01*
X106331250Y-150829934D01*
X106239955Y-150890935D01*
X106178954Y-150982230D01*
X106160001Y-151077510D01*
X106160001Y-152602330D01*
X106178954Y-152697610D01*
X106239955Y-152788905D01*
X106316010Y-152839723D01*
X106164051Y-152881722D01*
X105991678Y-153009505D01*
X105876864Y-153190773D01*
X105835003Y-153401221D01*
X105871710Y-153612630D01*
X105924728Y-153701041D01*
X105547288Y-153323601D01*
X105549534Y-153139728D01*
X105472198Y-152938785D01*
X105445690Y-152909499D01*
X105455190Y-152909499D01*
X105550470Y-152890546D01*
X105641765Y-152829545D01*
X105702766Y-152738250D01*
X105721719Y-152642970D01*
X105721719Y-151118150D01*
X105702766Y-151022870D01*
X105641765Y-150931575D01*
X105550470Y-150870574D01*
X105455190Y-150851621D01*
X104130370Y-150851621D01*
X104043762Y-150868849D01*
X104043762Y-150452626D01*
X104073698Y-150422690D01*
X104083455Y-150386273D01*
X104260229Y-150209499D01*
X105455190Y-150209499D01*
X105550470Y-150190546D01*
X105641765Y-150129545D01*
X105702766Y-150038250D01*
X105721719Y-149942970D01*
X105721719Y-148418150D01*
X105702766Y-148322870D01*
X105641765Y-148231575D01*
X105550470Y-148170574D01*
X105455190Y-148151621D01*
X105090440Y-148151621D01*
X105090440Y-148002507D01*
X105201690Y-148036201D01*
X105415672Y-148020300D01*
X105609582Y-147928431D01*
X105727128Y-147804779D01*
X106157411Y-147804779D01*
X106463612Y-148110981D01*
X106426530Y-148110981D01*
X106331250Y-148129934D01*
X106239955Y-148190935D01*
X106178954Y-148282230D01*
X106160001Y-148377510D01*
X106160001Y-149902330D01*
X106178954Y-149997610D01*
X106239955Y-150088905D01*
X106331250Y-150149906D01*
X106426530Y-150168859D01*
X107751350Y-150168859D01*
X107846630Y-150149906D01*
X107937925Y-150088905D01*
X107998926Y-149997610D01*
X108017879Y-149902330D01*
X108017879Y-148377510D01*
X107998926Y-148282230D01*
X107937925Y-148190935D01*
X107846630Y-148129934D01*
X107751350Y-148110981D01*
X107419796Y-148110981D01*
X107416020Y-148104439D01*
X107403637Y-148058229D01*
X107372541Y-148027133D01*
X107372538Y-148027128D01*
X106530047Y-147184639D01*
X106484490Y-147139082D01*
X106438278Y-147126699D01*
X106396848Y-147102780D01*
X106347935Y-147102780D01*
X106347931Y-147102779D01*
X105725273Y-147102779D01*
X105621076Y-146987663D01*
X105429467Y-146891084D01*
X105215940Y-146869960D01*
X105090440Y-146904646D01*
X105090440Y-139886599D01*
X105601850Y-139886599D01*
X105697130Y-139867646D01*
X105788425Y-139806645D01*
X105849426Y-139715350D01*
X105868379Y-139620070D01*
X105868379Y-138812949D01*
X106148986Y-138812949D01*
X106183193Y-139039128D01*
X106262180Y-139253811D01*
X106382723Y-139448226D01*
X106539895Y-139614431D01*
X106727277Y-139745638D01*
X106940284Y-139837813D01*
X107236433Y-139883660D01*
X107336593Y-139883660D01*
X107507021Y-139866349D01*
X107725305Y-139797942D01*
X107925377Y-139687041D01*
X108099061Y-139538175D01*
X108239265Y-139357426D01*
X108340261Y-139152176D01*
X108397923Y-138930810D01*
X108409894Y-138702371D01*
X108375687Y-138476192D01*
X108296700Y-138261509D01*
X108176157Y-138067094D01*
X108018985Y-137900889D01*
X107831603Y-137769682D01*
X107618596Y-137677507D01*
X107322447Y-137631660D01*
X107222287Y-137631660D01*
X107051859Y-137648971D01*
X106833575Y-137717378D01*
X106633503Y-137828279D01*
X106459819Y-137977145D01*
X106319615Y-138157894D01*
X106218619Y-138363144D01*
X106160957Y-138584510D01*
X106148986Y-138812949D01*
X105868379Y-138812949D01*
X105868379Y-137895250D01*
X105849426Y-137799970D01*
X105788425Y-137708675D01*
X105697130Y-137647674D01*
X105601850Y-137628721D01*
X103877030Y-137628721D01*
X103781750Y-137647674D01*
X103690455Y-137708675D01*
X103629454Y-137799970D01*
X103610501Y-137895250D01*
X103610501Y-139620070D01*
X103629454Y-139715350D01*
X103690455Y-139806645D01*
X103781750Y-139867646D01*
X103877030Y-139886599D01*
X104388440Y-139886599D01*
X104388441Y-148151621D01*
X104130370Y-148151621D01*
X104035090Y-148170574D01*
X103943795Y-148231575D01*
X103882794Y-148322870D01*
X103863841Y-148418150D01*
X103863841Y-149613112D01*
X103739207Y-149737746D01*
X103739207Y-149632400D01*
X102825320Y-149632400D01*
X102825320Y-150546287D01*
X103113958Y-150546287D01*
X103341762Y-150485247D01*
X103341763Y-151539262D01*
X103263520Y-151597265D01*
X103148706Y-151778533D01*
X103106845Y-151988981D01*
X103143552Y-152200390D01*
X103253904Y-152384408D01*
X103423103Y-152516365D01*
X103628462Y-152578562D01*
X103842444Y-152562661D01*
X103863841Y-152552524D01*
X103863841Y-152642970D01*
X103882794Y-152738250D01*
X103943795Y-152829545D01*
X104035090Y-152890546D01*
X104130370Y-152909499D01*
X104504256Y-152909499D01*
X104429064Y-153028213D01*
X104387203Y-153238661D01*
X104423910Y-153450070D01*
X104534262Y-153634088D01*
X104703461Y-153766045D01*
X104908820Y-153828242D01*
X105048755Y-153817843D01*
X106075001Y-154844089D01*
X106075000Y-160255631D01*
X106075001Y-160255635D01*
X106075001Y-160304550D01*
X106098921Y-160345980D01*
X106111302Y-160392188D01*
X106257339Y-160538229D01*
X106257341Y-160538229D01*
X107393501Y-161674391D01*
X107393501Y-162123610D01*
X107412454Y-162218890D01*
X107440724Y-162261200D01*
X107412454Y-162303510D01*
X107393501Y-162398790D01*
X107393501Y-163223610D01*
X107412454Y-163318890D01*
X107440724Y-163361200D01*
X107412454Y-163403510D01*
X107393501Y-163498790D01*
X107393501Y-163560200D01*
X105487036Y-163560200D01*
X105487029Y-163560202D01*
X105440254Y-163560202D01*
X105398826Y-163584120D01*
X105352613Y-163596503D01*
X105321515Y-163627601D01*
X105321512Y-163627603D01*
X103711193Y-165237923D01*
X103686578Y-165173965D01*
X103542586Y-165014884D01*
X103538500Y-165012824D01*
X103538500Y-162365514D01*
X103538499Y-162365510D01*
X103538499Y-162316595D01*
X103514579Y-162275165D01*
X103502198Y-162228956D01*
X103471100Y-162197858D01*
X103471098Y-162197855D01*
X102024660Y-160751419D01*
X102024660Y-156712419D01*
X102165087Y-156564697D01*
X102247311Y-156365703D01*
X102250074Y-156139468D01*
X102172738Y-155938525D01*
X102028746Y-155779444D01*
X101837137Y-155682865D01*
X101623610Y-155661741D01*
X101416791Y-155718902D01*
X101244418Y-155846685D01*
X101129604Y-156027953D01*
X101087743Y-156238401D01*
X101124450Y-156449810D01*
X101234802Y-156633828D01*
X101322660Y-156702348D01*
X101322661Y-160831233D01*
X99238280Y-158746853D01*
X99238280Y-152642799D01*
X99549690Y-152642799D01*
X99644970Y-152623846D01*
X99736265Y-152562845D01*
X99797266Y-152471550D01*
X99816219Y-152376270D01*
X99816219Y-150851450D01*
X99804632Y-150793200D01*
X99813926Y-150793200D01*
X100851876Y-151831152D01*
X100915903Y-151902262D01*
X100959171Y-151916321D01*
X101022876Y-151957691D01*
X101078406Y-151966486D01*
X101087284Y-152011120D01*
X101148285Y-152102415D01*
X101239580Y-152163416D01*
X101284573Y-152172366D01*
X101286966Y-152177062D01*
X101302759Y-152251362D01*
X101421699Y-152415069D01*
X101455050Y-152434324D01*
X102634990Y-153614266D01*
X102634991Y-158217722D01*
X102634990Y-158217725D01*
X102634990Y-158361447D01*
X102566934Y-158468893D01*
X102525073Y-158679341D01*
X102561780Y-158890750D01*
X102672132Y-159074768D01*
X102841331Y-159206725D01*
X103046690Y-159268922D01*
X103260672Y-159253021D01*
X103454582Y-159161152D01*
X103602417Y-159005637D01*
X103684641Y-158806643D01*
X103687404Y-158580408D01*
X103610068Y-158379464D01*
X103586990Y-158353968D01*
X103586990Y-153429553D01*
X103591998Y-153334003D01*
X103571346Y-153293471D01*
X103555552Y-153219168D01*
X103436611Y-153055461D01*
X103403262Y-153036207D01*
X102395667Y-152028613D01*
X102407356Y-152011120D01*
X102426309Y-151915840D01*
X102426309Y-151090920D01*
X102407356Y-150995640D01*
X102346355Y-150904345D01*
X102255060Y-150843344D01*
X102159780Y-150824391D01*
X101334860Y-150824391D01*
X101239580Y-150843344D01*
X101222088Y-150855032D01*
X100550444Y-150183389D01*
X101209780Y-150183389D01*
X101305060Y-150164436D01*
X101396355Y-150103435D01*
X101457356Y-150012140D01*
X101476309Y-149916860D01*
X101476309Y-149632400D01*
X101655433Y-149632400D01*
X101655433Y-149921038D01*
X101736065Y-150221962D01*
X101883455Y-150397615D01*
X102077084Y-150509406D01*
X102286246Y-150546287D01*
X102569320Y-150546287D01*
X102569320Y-149632400D01*
X101655433Y-149632400D01*
X101476309Y-149632400D01*
X101476309Y-149093326D01*
X101655433Y-149093326D01*
X101655433Y-149376400D01*
X102569320Y-149376400D01*
X102569320Y-148462513D01*
X102825320Y-148462513D01*
X102825320Y-149376400D01*
X103739207Y-149376400D01*
X103739207Y-149087762D01*
X103658575Y-148786839D01*
X103511185Y-148611185D01*
X103317556Y-148499394D01*
X103108394Y-148462513D01*
X102825320Y-148462513D01*
X102569320Y-148462513D01*
X102280682Y-148462513D01*
X101979759Y-148543145D01*
X101804105Y-148690535D01*
X101692314Y-148884164D01*
X101655433Y-149093326D01*
X101476309Y-149093326D01*
X101476309Y-149091940D01*
X101457356Y-148996660D01*
X101396355Y-148905365D01*
X101305060Y-148844364D01*
X101209780Y-148825411D01*
X100935000Y-148825411D01*
X100935000Y-148548859D01*
X101075427Y-148401137D01*
X101157651Y-148202143D01*
X101160414Y-147975908D01*
X101083078Y-147774965D01*
X100939086Y-147615884D01*
X100747477Y-147519305D01*
X100533950Y-147498181D01*
X100327131Y-147555342D01*
X100154758Y-147683125D01*
X100039944Y-147864393D01*
X99998083Y-148074841D01*
X100034790Y-148286250D01*
X100145142Y-148470269D01*
X100233001Y-148538789D01*
X100233000Y-148882169D01*
X100198285Y-148905365D01*
X100137284Y-148996660D01*
X100118331Y-149091940D01*
X100118331Y-149852253D01*
X99985622Y-149831234D01*
X99948427Y-149841200D01*
X99750728Y-149841200D01*
X99797266Y-149771550D01*
X99816219Y-149676270D01*
X99816219Y-148151450D01*
X99797266Y-148056170D01*
X99736265Y-147964875D01*
X99699940Y-147940604D01*
X99805427Y-147829637D01*
X99887651Y-147630643D01*
X99890092Y-147430797D01*
X99892238Y-147428651D01*
X99892240Y-147428648D01*
X99923338Y-147397550D01*
X99935719Y-147351341D01*
X99959639Y-147309911D01*
X99959639Y-147265931D01*
X99959640Y-147265928D01*
X99959640Y-139784491D01*
X100054505Y-139754762D01*
X100254577Y-139643861D01*
X100428261Y-139494995D01*
X100568465Y-139314246D01*
X100669461Y-139108996D01*
X100727123Y-138887630D01*
X100739094Y-138659191D01*
X100704887Y-138433012D01*
X100625900Y-138218329D01*
X100505357Y-138023914D01*
X100348185Y-137857709D01*
X100160803Y-137726502D01*
X99947796Y-137634327D01*
X99651647Y-137588480D01*
X99551487Y-137588480D01*
X99381059Y-137605791D01*
X99162775Y-137674198D01*
X98962703Y-137785099D01*
X98789019Y-137933965D01*
X98648815Y-138114714D01*
X98547819Y-138319964D01*
X98490157Y-138541330D01*
X98478186Y-138769769D01*
X98512393Y-138995948D01*
X98591380Y-139210631D01*
X98711923Y-139405046D01*
X98869095Y-139571251D01*
X99056477Y-139702458D01*
X99257640Y-139789508D01*
X99257641Y-146928424D01*
X99057131Y-146983842D01*
X98884758Y-147111625D01*
X98769944Y-147292893D01*
X98728083Y-147503341D01*
X98764790Y-147714750D01*
X98866838Y-147884921D01*
X98224870Y-147884921D01*
X98129590Y-147903874D01*
X98038295Y-147964875D01*
X97977294Y-148056170D01*
X97958341Y-148151450D01*
X97958341Y-148288532D01*
X97760000Y-148090192D01*
X97760000Y-146897859D01*
X97900427Y-146750137D01*
X97982651Y-146551143D01*
X97985414Y-146324908D01*
X97908078Y-146123965D01*
X97764086Y-145964884D01*
X97572477Y-145868305D01*
X97358950Y-145847181D01*
X97152131Y-145904342D01*
X96979758Y-146032125D01*
X96864944Y-146213393D01*
X96823083Y-146423841D01*
X96859790Y-146635250D01*
X96970142Y-146819268D01*
X97058000Y-146887788D01*
X97058000Y-146900395D01*
X97058001Y-146900399D01*
X97058000Y-148280711D01*
X97058001Y-148280715D01*
X97058001Y-148329630D01*
X97081921Y-148371060D01*
X97094302Y-148417268D01*
X97240339Y-148563309D01*
X97240341Y-148563309D01*
X97874489Y-149197458D01*
X97874492Y-149197460D01*
X97905590Y-149228558D01*
X97951799Y-149240939D01*
X97958341Y-149244716D01*
X97958341Y-149676270D01*
X97977294Y-149771550D01*
X98023832Y-149841200D01*
X94314364Y-149841200D01*
X93294939Y-148821775D01*
X93294939Y-147323990D01*
X93275986Y-147228710D01*
X93214985Y-147137415D01*
X93123690Y-147076414D01*
X93028410Y-147057461D01*
X92696515Y-147057461D01*
X92883367Y-146973290D01*
X93094193Y-146831355D01*
X93278090Y-146655926D01*
X93429798Y-146452021D01*
X93544983Y-146225470D01*
X93620350Y-145982750D01*
X93646161Y-145788000D01*
X90344216Y-145788000D01*
X90407982Y-146091906D01*
X90501335Y-146328292D01*
X90633181Y-146545570D01*
X90799753Y-146737525D01*
X90996284Y-146898671D01*
X91217158Y-147024400D01*
X91308240Y-147057461D01*
X90971590Y-147057461D01*
X90876310Y-147076414D01*
X90785015Y-147137415D01*
X90724014Y-147228710D01*
X90705061Y-147323990D01*
X90705061Y-149076010D01*
X90724014Y-149171290D01*
X90785015Y-149262585D01*
X90876310Y-149323586D01*
X90971590Y-149342539D01*
X92469375Y-149342539D01*
X93771797Y-150644962D01*
X93835833Y-150716082D01*
X93879101Y-150730141D01*
X93942807Y-150771511D01*
X94142668Y-150803166D01*
X94179863Y-150793200D01*
X97969928Y-150793200D01*
X97958341Y-150851450D01*
X97958341Y-152376270D01*
X97977294Y-152471550D01*
X98038295Y-152562845D01*
X98129590Y-152623846D01*
X98224870Y-152642799D01*
X98536280Y-152642799D01*
X98536281Y-158831952D01*
X98536281Y-158986289D01*
X98560202Y-159027723D01*
X98572584Y-159073931D01*
X98603680Y-159105027D01*
X98603682Y-159105030D01*
X101182689Y-161684037D01*
X101169023Y-161752741D01*
X101205730Y-161964150D01*
X101316082Y-162148168D01*
X101485281Y-162280125D01*
X101690640Y-162342322D01*
X101904622Y-162326421D01*
X102098532Y-162234552D01*
X102246367Y-162079037D01*
X102279446Y-161998980D01*
X102836500Y-162556034D01*
X102836501Y-165011601D01*
X102836500Y-165011605D01*
X102836500Y-165024123D01*
X102758258Y-165082124D01*
X102643444Y-165263393D01*
X102601583Y-165473841D01*
X102633038Y-165655002D01*
X101109158Y-165655002D01*
X101157651Y-165537643D01*
X101160414Y-165311408D01*
X101083078Y-165110465D01*
X100939086Y-164951384D01*
X100747477Y-164854805D01*
X100533950Y-164833681D01*
X100327131Y-164890842D01*
X100154758Y-165018625D01*
X100084214Y-165130000D01*
X99268888Y-165130000D01*
X97843493Y-163704606D01*
X97843493Y-163487951D01*
X97983920Y-163340229D01*
X98066144Y-163141235D01*
X98068907Y-162915000D01*
X97991571Y-162714057D01*
X97847579Y-162554976D01*
X97655970Y-162458397D01*
X97576832Y-162450568D01*
X98344905Y-161682495D01*
X98345841Y-161683225D01*
X98551200Y-161745422D01*
X98765182Y-161729521D01*
X98959092Y-161637652D01*
X99106927Y-161482137D01*
X99189151Y-161283143D01*
X99191914Y-161056908D01*
X99114578Y-160855965D01*
X98970586Y-160696884D01*
X98778977Y-160600305D01*
X98565450Y-160579181D01*
X98358632Y-160636342D01*
X98290296Y-160687000D01*
X98203670Y-160687000D01*
X98108140Y-160681993D01*
X98067610Y-160702644D01*
X97993304Y-160718438D01*
X97829597Y-160837378D01*
X97810340Y-160870732D01*
X96150432Y-162530640D01*
X96079317Y-162594671D01*
X96065258Y-162637939D01*
X96023888Y-162701645D01*
X95992233Y-162901505D01*
X96002199Y-162938701D01*
X96002200Y-166379226D01*
X95997191Y-166474794D01*
X96017845Y-166515330D01*
X96033638Y-166589631D01*
X96152577Y-166753337D01*
X96185928Y-166772593D01*
X96615500Y-167202166D01*
X96615500Y-167979281D01*
X96560126Y-167918104D01*
X96368517Y-167821525D01*
X96154990Y-167800401D01*
X96029079Y-167835200D01*
X95938730Y-167835200D01*
X95932426Y-167803510D01*
X95904156Y-167761200D01*
X95932426Y-167718890D01*
X95951379Y-167623610D01*
X95951379Y-166798790D01*
X95932426Y-166703510D01*
X95904156Y-166661200D01*
X95932426Y-166618890D01*
X95951379Y-166523610D01*
X95951379Y-165698790D01*
X95932426Y-165603510D01*
X95904156Y-165561200D01*
X95932426Y-165518890D01*
X95951379Y-165423610D01*
X95951379Y-164598790D01*
X95932426Y-164503510D01*
X95904156Y-164461200D01*
X95932426Y-164418890D01*
X95951379Y-164323610D01*
X95951379Y-163498790D01*
X95932426Y-163403510D01*
X95904156Y-163361200D01*
X95932426Y-163318890D01*
X95951379Y-163223610D01*
X95951379Y-162398790D01*
X95932426Y-162303510D01*
X95904156Y-162261200D01*
X95932426Y-162218890D01*
X95951379Y-162123610D01*
X95951379Y-161298790D01*
X95932426Y-161203510D01*
X95904156Y-161161200D01*
X95932426Y-161118890D01*
X95951379Y-161023610D01*
X95951379Y-160198790D01*
X95932426Y-160103510D01*
X95904156Y-160061200D01*
X95932426Y-160018890D01*
X95951379Y-159923610D01*
X95951379Y-159098790D01*
X95932426Y-159003510D01*
X95904156Y-158961200D01*
X95932426Y-158918890D01*
X95951379Y-158823610D01*
X95951379Y-157998790D01*
X95932426Y-157903510D01*
X95904156Y-157861200D01*
X95932426Y-157818890D01*
X95951379Y-157723610D01*
X95951379Y-156898790D01*
X95932426Y-156803510D01*
X95904156Y-156761200D01*
X95932426Y-156718890D01*
X95951379Y-156623610D01*
X95951379Y-156082741D01*
X95989952Y-156072405D01*
X96165605Y-155925015D01*
X96277396Y-155731386D01*
X96314277Y-155522224D01*
X96314277Y-155239200D01*
X94794440Y-155239200D01*
X94794440Y-154069363D01*
X95050440Y-154069363D01*
X95050440Y-154983200D01*
X96314277Y-154983200D01*
X96314277Y-154694612D01*
X96233645Y-154393689D01*
X96086255Y-154218035D01*
X95892626Y-154106244D01*
X95683464Y-154069363D01*
X95050440Y-154069363D01*
X94794440Y-154069363D01*
X94155852Y-154069363D01*
X93950000Y-154124521D01*
X93950000Y-153370868D01*
X93949999Y-153370864D01*
X93949999Y-153321949D01*
X93926079Y-153280519D01*
X93913698Y-153234310D01*
X93882600Y-153203212D01*
X93882598Y-153203209D01*
X93242939Y-152563551D01*
X93242939Y-150952490D01*
X93223986Y-150857210D01*
X93162985Y-150765915D01*
X93071690Y-150704914D01*
X92976410Y-150685961D01*
X90919590Y-150685961D01*
X90824310Y-150704914D01*
X90733015Y-150765915D01*
X90672014Y-150857210D01*
X90653061Y-150952490D01*
X90653061Y-152704510D01*
X90672014Y-152799790D01*
X90733015Y-152891085D01*
X90824310Y-152952086D01*
X90919590Y-152971039D01*
X92657651Y-152971039D01*
X93248001Y-153561389D01*
X93248000Y-155019712D01*
X93115500Y-154887212D01*
X93156033Y-154812247D01*
X93222119Y-154598756D01*
X93245480Y-154376494D01*
X93225225Y-154153928D01*
X93162125Y-153939535D01*
X93058586Y-153741481D01*
X92918548Y-153567310D01*
X92747348Y-153423656D01*
X92551506Y-153315991D01*
X92338058Y-153248281D01*
X92153661Y-153228900D01*
X91739423Y-153228900D01*
X91573181Y-153245200D01*
X91359233Y-153309795D01*
X91161906Y-153414715D01*
X90988717Y-153555965D01*
X90846262Y-153728164D01*
X90739967Y-153924753D01*
X90673881Y-154138244D01*
X90650520Y-154360506D01*
X90670775Y-154583072D01*
X90733875Y-154797465D01*
X90837414Y-154995519D01*
X90977452Y-155169690D01*
X91148652Y-155313344D01*
X91344494Y-155421009D01*
X91557942Y-155488719D01*
X91742339Y-155508100D01*
X92156577Y-155508100D01*
X92322819Y-155491800D01*
X92536767Y-155427205D01*
X92618995Y-155383483D01*
X93057501Y-155821990D01*
X93057500Y-156280130D01*
X92918548Y-156107310D01*
X92747348Y-155963656D01*
X92551506Y-155855991D01*
X92338058Y-155788281D01*
X92153661Y-155768900D01*
X91739423Y-155768900D01*
X91573181Y-155785200D01*
X91359233Y-155849795D01*
X91161906Y-155954715D01*
X90988717Y-156095965D01*
X90846262Y-156268164D01*
X90739967Y-156464753D01*
X90673881Y-156678244D01*
X90650520Y-156900506D01*
X90670775Y-157123072D01*
X90733875Y-157337465D01*
X90837414Y-157535519D01*
X90977452Y-157709690D01*
X91148652Y-157853344D01*
X91344494Y-157961009D01*
X91443879Y-157992536D01*
X91296358Y-158030825D01*
X91064633Y-158135210D01*
X90853807Y-158277145D01*
X90669910Y-158452574D01*
X90518202Y-158656479D01*
X90403017Y-158883030D01*
X90327650Y-159125750D01*
X90301839Y-159320500D01*
X93603784Y-159320500D01*
X93540018Y-159016594D01*
X93446665Y-158780208D01*
X93314819Y-158562930D01*
X93148247Y-158370975D01*
X92951716Y-158209829D01*
X92730842Y-158084100D01*
X92489125Y-157996361D01*
X92455124Y-157991855D01*
X92536767Y-157967205D01*
X92734094Y-157862285D01*
X92797877Y-157810265D01*
X93682409Y-158694798D01*
X93682412Y-158694800D01*
X93713510Y-158725898D01*
X93759719Y-158738279D01*
X93801149Y-158762199D01*
X93845129Y-158762199D01*
X93845132Y-158762200D01*
X93893501Y-158762200D01*
X93893501Y-158823610D01*
X93912454Y-158918890D01*
X93940724Y-158961200D01*
X93912454Y-159003510D01*
X93893501Y-159098790D01*
X93893501Y-159638023D01*
X93856961Y-159659119D01*
X93810748Y-159671502D01*
X93779650Y-159702600D01*
X93779647Y-159702602D01*
X93504108Y-159978141D01*
X93568350Y-159771250D01*
X93594161Y-159576500D01*
X90292216Y-159576500D01*
X90350456Y-159854068D01*
X89503939Y-159007552D01*
X89503939Y-157587590D01*
X89484986Y-157492310D01*
X89423985Y-157401015D01*
X89332690Y-157340014D01*
X89237410Y-157321061D01*
X88806500Y-157321061D01*
X88806500Y-157180888D01*
X89749462Y-156237927D01*
X89749466Y-156237922D01*
X89786198Y-156201190D01*
X89798579Y-156154981D01*
X89822499Y-156113551D01*
X89822499Y-156064636D01*
X89822500Y-156064632D01*
X89822500Y-145800380D01*
X89832382Y-145763500D01*
X89822500Y-145726620D01*
X89822500Y-145720868D01*
X89822499Y-145720864D01*
X89822499Y-145671951D01*
X89798580Y-145630521D01*
X89786197Y-145584310D01*
X89733888Y-145532000D01*
X90353839Y-145532000D01*
X93655784Y-145532000D01*
X93592018Y-145228094D01*
X93498665Y-144991708D01*
X93366819Y-144774430D01*
X93200247Y-144582475D01*
X93003716Y-144421329D01*
X92782842Y-144295600D01*
X92541125Y-144207861D01*
X92507124Y-144203355D01*
X92588767Y-144178705D01*
X92786094Y-144073785D01*
X92959283Y-143932535D01*
X93101738Y-143760336D01*
X93190594Y-143596000D01*
X94631545Y-143596000D01*
X94727097Y-143601009D01*
X94767629Y-143580356D01*
X94841931Y-143564563D01*
X94933547Y-143498000D01*
X96106545Y-143498000D01*
X96202097Y-143503009D01*
X96242629Y-143482356D01*
X96316931Y-143466563D01*
X96480639Y-143347622D01*
X96499896Y-143314268D01*
X97396422Y-142417743D01*
X97467521Y-142353728D01*
X97481581Y-142310460D01*
X97522951Y-142246753D01*
X97554606Y-142046893D01*
X97544640Y-142009697D01*
X97544640Y-139738058D01*
X97714577Y-139643861D01*
X97888261Y-139494995D01*
X98028465Y-139314246D01*
X98129461Y-139108996D01*
X98187123Y-138887630D01*
X98199094Y-138659191D01*
X98164887Y-138433012D01*
X98085900Y-138218329D01*
X97965357Y-138023914D01*
X97808185Y-137857709D01*
X97620803Y-137726502D01*
X97407796Y-137634327D01*
X97111647Y-137588480D01*
X97011487Y-137588480D01*
X96841059Y-137605791D01*
X96622775Y-137674198D01*
X96422703Y-137785099D01*
X96249019Y-137933965D01*
X96108815Y-138114714D01*
X96007819Y-138319964D01*
X95950157Y-138541330D01*
X95938186Y-138769769D01*
X95972393Y-138995948D01*
X96051380Y-139210631D01*
X96171923Y-139405046D01*
X96329095Y-139571251D01*
X96516477Y-139702458D01*
X96592641Y-139735417D01*
X96592640Y-141875194D01*
X95921835Y-142546000D01*
X94754453Y-142546000D01*
X94658903Y-142540992D01*
X94618371Y-142561644D01*
X94544068Y-142577438D01*
X94452453Y-142644000D01*
X93189536Y-142644000D01*
X93110586Y-142492981D01*
X92970548Y-142318810D01*
X92799348Y-142175156D01*
X92603506Y-142067491D01*
X92390058Y-141999781D01*
X92205661Y-141980400D01*
X91791423Y-141980400D01*
X91625181Y-141996700D01*
X91411233Y-142061295D01*
X91213906Y-142166215D01*
X91040717Y-142307465D01*
X90898262Y-142479664D01*
X90791967Y-142676253D01*
X90725881Y-142889744D01*
X90702520Y-143112006D01*
X90722775Y-143334572D01*
X90785875Y-143548965D01*
X90889414Y-143747019D01*
X91029452Y-143921190D01*
X91200652Y-144064844D01*
X91396494Y-144172509D01*
X91495879Y-144204036D01*
X91348358Y-144242325D01*
X91116633Y-144346710D01*
X90905807Y-144488645D01*
X90721910Y-144664074D01*
X90570202Y-144867979D01*
X90455017Y-145094530D01*
X90379650Y-145337250D01*
X90353839Y-145532000D01*
X89733888Y-145532000D01*
X89640160Y-145438271D01*
X89611385Y-145438271D01*
X89604479Y-145436420D01*
X89597939Y-145432645D01*
X89597939Y-144751090D01*
X89578986Y-144655810D01*
X89517985Y-144564515D01*
X89426690Y-144503514D01*
X89331410Y-144484561D01*
X87706590Y-144484561D01*
X87611310Y-144503514D01*
X87520015Y-144564515D01*
X87459014Y-144655810D01*
X87440061Y-144751090D01*
X87440061Y-146775910D01*
X87459014Y-146871190D01*
X87520015Y-146962485D01*
X87611310Y-147023486D01*
X87706590Y-147042439D01*
X89120501Y-147042439D01*
X89120501Y-147298113D01*
X88954691Y-147132303D01*
X88908479Y-147119920D01*
X88867049Y-147096001D01*
X88818136Y-147096001D01*
X88818132Y-147096000D01*
X87394388Y-147096000D01*
X87256373Y-146957985D01*
X87292986Y-146903190D01*
X87311939Y-146807910D01*
X87311939Y-144783090D01*
X87292986Y-144687810D01*
X87231985Y-144596515D01*
X87140690Y-144535514D01*
X87045410Y-144516561D01*
X85420590Y-144516561D01*
X85325310Y-144535514D01*
X85234015Y-144596515D01*
X85173014Y-144687810D01*
X85154061Y-144783090D01*
X85154061Y-146807910D01*
X85173014Y-146903190D01*
X85234015Y-146994485D01*
X85325310Y-147055486D01*
X85420590Y-147074439D01*
X86380051Y-147074439D01*
X86751052Y-147445440D01*
X86669489Y-147467295D01*
X86493835Y-147614685D01*
X86382044Y-147808314D01*
X86345163Y-148017476D01*
X86345163Y-148525500D01*
X87865000Y-148525500D01*
X87865000Y-149920337D01*
X88503588Y-149920337D01*
X88756989Y-149852439D01*
X88756990Y-155666122D01*
X87028902Y-157394210D01*
X87028900Y-157394213D01*
X86997802Y-157425311D01*
X86985421Y-157471520D01*
X86961501Y-157512950D01*
X86961501Y-157561865D01*
X86961500Y-157561869D01*
X86961501Y-160277212D01*
X86961501Y-160431549D01*
X86985422Y-160472983D01*
X86997804Y-160519191D01*
X87028900Y-160550287D01*
X87028902Y-160550290D01*
X87612208Y-161133597D01*
X87612211Y-161133599D01*
X87643309Y-161164697D01*
X87689522Y-161177080D01*
X87696061Y-161180855D01*
X87696061Y-161387895D01*
X85885500Y-159577335D01*
X85885500Y-150326859D01*
X86025927Y-150179137D01*
X86108151Y-149980143D01*
X86110914Y-149753908D01*
X86033578Y-149552965D01*
X86031796Y-149550997D01*
X86094690Y-149538486D01*
X86185985Y-149477485D01*
X86246986Y-149386190D01*
X86265939Y-149290910D01*
X86265939Y-148781500D01*
X86345163Y-148781500D01*
X86345163Y-149295088D01*
X86425795Y-149596012D01*
X86573185Y-149771665D01*
X86766814Y-149883456D01*
X86975976Y-149920337D01*
X87609000Y-149920337D01*
X87609000Y-148781500D01*
X86345163Y-148781500D01*
X86265939Y-148781500D01*
X86265939Y-148016090D01*
X86246986Y-147920810D01*
X86185985Y-147829515D01*
X86094690Y-147768514D01*
X85999410Y-147749561D01*
X84474590Y-147749561D01*
X84379310Y-147768514D01*
X84288015Y-147829515D01*
X84227014Y-147920810D01*
X84208061Y-148016090D01*
X84208061Y-149290910D01*
X84227014Y-149386190D01*
X84288015Y-149477485D01*
X84379310Y-149538486D01*
X84474590Y-149557439D01*
X84886001Y-149557439D01*
X84886001Y-149656549D01*
X84909922Y-149697983D01*
X84922304Y-149744191D01*
X84953400Y-149775287D01*
X84953402Y-149775290D01*
X84962249Y-149784137D01*
X84948583Y-149852841D01*
X84985290Y-150064250D01*
X85095642Y-150248268D01*
X85183500Y-150316788D01*
X85183500Y-150329395D01*
X85183501Y-150329399D01*
X85183500Y-159767853D01*
X85183501Y-159767857D01*
X85183501Y-159816772D01*
X85207421Y-159858202D01*
X85219802Y-159904410D01*
X85365839Y-160050451D01*
X85365842Y-160050451D01*
X85739016Y-160423625D01*
X85658631Y-160445842D01*
X85486258Y-160573625D01*
X85371444Y-160754893D01*
X85329583Y-160965341D01*
X85366290Y-161176750D01*
X85476642Y-161360768D01*
X85645841Y-161492725D01*
X85851200Y-161554922D01*
X86065182Y-161539021D01*
X86259091Y-161447152D01*
X86297676Y-161406563D01*
X87544208Y-162653097D01*
X87544211Y-162653099D01*
X87575310Y-162684198D01*
X87621519Y-162696579D01*
X87662949Y-162720499D01*
X87711864Y-162720499D01*
X87711868Y-162720500D01*
X93893501Y-162720500D01*
X93893501Y-163223610D01*
X93912454Y-163318890D01*
X93940724Y-163361200D01*
X93912454Y-163403510D01*
X93893501Y-163498790D01*
X93893501Y-163560200D01*
X87375604Y-163560200D01*
X87376414Y-163493908D01*
X87299078Y-163292965D01*
X87155086Y-163133884D01*
X86963477Y-163037305D01*
X86749950Y-163016181D01*
X86543131Y-163073342D01*
X86370758Y-163201125D01*
X86255944Y-163382393D01*
X86214083Y-163592841D01*
X86250790Y-163804250D01*
X86361142Y-163988268D01*
X86530341Y-164120225D01*
X86735700Y-164182422D01*
X86875633Y-164172023D01*
X86894918Y-164191308D01*
X86894925Y-164191312D01*
X86929509Y-164225897D01*
X86975719Y-164238280D01*
X87017150Y-164262199D01*
X87066064Y-164262199D01*
X87066068Y-164262200D01*
X93893501Y-164262200D01*
X93893501Y-164323610D01*
X93912454Y-164418890D01*
X93940724Y-164461200D01*
X93912454Y-164503510D01*
X93893501Y-164598790D01*
X93893501Y-164660200D01*
X89607922Y-164660200D01*
X89524325Y-164567844D01*
X89332717Y-164471265D01*
X89119190Y-164450141D01*
X88912371Y-164507302D01*
X88739998Y-164635085D01*
X88625184Y-164816353D01*
X88583323Y-165026801D01*
X88620030Y-165238210D01*
X88730382Y-165422228D01*
X88899581Y-165554185D01*
X89104940Y-165616382D01*
X89318922Y-165600481D01*
X89512832Y-165508612D01*
X89652014Y-165362200D01*
X93893501Y-165362200D01*
X93893501Y-165423610D01*
X93912454Y-165518890D01*
X93940724Y-165561200D01*
X93912454Y-165603510D01*
X93893501Y-165698790D01*
X93893501Y-165760200D01*
X90383668Y-165760200D01*
X90383664Y-165760201D01*
X90334749Y-165760201D01*
X90293319Y-165784121D01*
X90247110Y-165796502D01*
X90216012Y-165827600D01*
X90216009Y-165827602D01*
X89495210Y-166548402D01*
X89495208Y-166548403D01*
X89483054Y-166560558D01*
X89357950Y-166548181D01*
X89151131Y-166605342D01*
X88978758Y-166733125D01*
X88863944Y-166914393D01*
X88822083Y-167124841D01*
X88858790Y-167336250D01*
X88969142Y-167520268D01*
X89138341Y-167652225D01*
X89343700Y-167714422D01*
X89557682Y-167698521D01*
X89751592Y-167606652D01*
X89899427Y-167451137D01*
X89981651Y-167252143D01*
X89984092Y-167052297D01*
X89991597Y-167044792D01*
X89991598Y-167044790D01*
X90574189Y-166462200D01*
X93893501Y-166462200D01*
X93893501Y-166523610D01*
X93912454Y-166618890D01*
X93940724Y-166661200D01*
X93912454Y-166703510D01*
X93893501Y-166798790D01*
X93893501Y-167623610D01*
X93912454Y-167718890D01*
X93940724Y-167761200D01*
X93912454Y-167803510D01*
X93906150Y-167835200D01*
X93199906Y-167835200D01*
X92730359Y-167365654D01*
X92730357Y-167365650D01*
X92638602Y-167273897D01*
X92638715Y-167264669D01*
X92561378Y-167063725D01*
X92417386Y-166904644D01*
X92225777Y-166808065D01*
X92012250Y-166786941D01*
X91805431Y-166844102D01*
X91633058Y-166971885D01*
X91518244Y-167153153D01*
X91476383Y-167363601D01*
X91513090Y-167575010D01*
X91623442Y-167759028D01*
X91792641Y-167890985D01*
X91960068Y-167941693D01*
X92060550Y-168042175D01*
X92060553Y-168042177D01*
X92657337Y-168638962D01*
X92721373Y-168710082D01*
X92764640Y-168724140D01*
X92828345Y-168765511D01*
X93028208Y-168797166D01*
X93065403Y-168787200D01*
X93906150Y-168787200D01*
X93912454Y-168818890D01*
X93940724Y-168861200D01*
X93912454Y-168903510D01*
X93893501Y-168998790D01*
X93893501Y-169823610D01*
X93912454Y-169918890D01*
X93940724Y-169961200D01*
X93912454Y-170003510D01*
X93893501Y-170098790D01*
X93893501Y-170639660D01*
X93854929Y-170649995D01*
X93679275Y-170797385D01*
X93567484Y-170991014D01*
X93530603Y-171200176D01*
X93530603Y-171483200D01*
X96314277Y-171483200D01*
X96314277Y-171194612D01*
X96233645Y-170893689D01*
X96086255Y-170718035D01*
X95951379Y-170640165D01*
X95951379Y-170098790D01*
X95932426Y-170003510D01*
X95904156Y-169961200D01*
X95932426Y-169918890D01*
X95951379Y-169823610D01*
X95951379Y-168998790D01*
X95932426Y-168903510D01*
X95930515Y-168900650D01*
X95935381Y-168904445D01*
X96140740Y-168966642D01*
X96354722Y-168950741D01*
X96548632Y-168858872D01*
X96615501Y-168788530D01*
X96615501Y-170155722D01*
X96615500Y-170155725D01*
X96615500Y-170299447D01*
X96547444Y-170406893D01*
X96505583Y-170617341D01*
X96542290Y-170828750D01*
X96652642Y-171012768D01*
X96821841Y-171144725D01*
X97027200Y-171206922D01*
X97241182Y-171191021D01*
X97435092Y-171099152D01*
X97582927Y-170943637D01*
X97665151Y-170744643D01*
X97667914Y-170518408D01*
X97590578Y-170317464D01*
X97567500Y-170291968D01*
X97567500Y-167017454D01*
X97572508Y-166921904D01*
X97551856Y-166881372D01*
X97536062Y-166807068D01*
X97417121Y-166643361D01*
X97383774Y-166624108D01*
X96954199Y-166194534D01*
X96954199Y-164847792D01*
X97033642Y-164980268D01*
X97202841Y-165112225D01*
X97408200Y-165174422D01*
X97548135Y-165164023D01*
X97559708Y-165175597D01*
X97559712Y-165175599D01*
X98720209Y-166336098D01*
X98720212Y-166336100D01*
X98751310Y-166367198D01*
X98797519Y-166379579D01*
X98838949Y-166403499D01*
X98887864Y-166403499D01*
X98887868Y-166403500D01*
X100898136Y-166403500D01*
X100898140Y-166403499D01*
X100947053Y-166403499D01*
X100988483Y-166379580D01*
X101034695Y-166367197D01*
X101044890Y-166357002D01*
X103484634Y-166357002D01*
X103484638Y-166357001D01*
X103533551Y-166357001D01*
X103574981Y-166333082D01*
X103621192Y-166320699D01*
X103767231Y-166174662D01*
X103767231Y-166174660D01*
X105679692Y-164262200D01*
X107393501Y-164262200D01*
X107393501Y-164323610D01*
X107412454Y-164418890D01*
X107440724Y-164461200D01*
X107412454Y-164503510D01*
X107393501Y-164598790D01*
X107393501Y-165423610D01*
X107412454Y-165518890D01*
X107440724Y-165561200D01*
X107412454Y-165603510D01*
X107393501Y-165698790D01*
X107393501Y-166523610D01*
X107412454Y-166618890D01*
X107440724Y-166661200D01*
X107412454Y-166703510D01*
X107393501Y-166798790D01*
X107393501Y-167623610D01*
X107412454Y-167718890D01*
X107440724Y-167761200D01*
X107412454Y-167803510D01*
X107393501Y-167898790D01*
X107393501Y-168439660D01*
X107354929Y-168449995D01*
X107179275Y-168597385D01*
X107067484Y-168791014D01*
X107030603Y-169000176D01*
X107030603Y-169283200D01*
X109814277Y-169283200D01*
X109814277Y-169117439D01*
X110364000Y-169117439D01*
X110364000Y-169718561D01*
X109814277Y-169718561D01*
X109814277Y-169539200D01*
X107030603Y-169539200D01*
X107030603Y-169827788D01*
X107111235Y-170128712D01*
X107258625Y-170304365D01*
X107393501Y-170382235D01*
X107393501Y-170639660D01*
X107354929Y-170649995D01*
X107179275Y-170797385D01*
X107067484Y-170991014D01*
X107030603Y-171200176D01*
X107030603Y-171483200D01*
X109814277Y-171483200D01*
X109814277Y-171276439D01*
X110364000Y-171276439D01*
X110364000Y-172340000D01*
X109714688Y-172340000D01*
X109777396Y-172231386D01*
X109814277Y-172022224D01*
X109814277Y-171739200D01*
X107030603Y-171739200D01*
X107030603Y-172027788D01*
X107111235Y-172328712D01*
X107120707Y-172340000D01*
X96214688Y-172340000D01*
X96277396Y-172231386D01*
X96314277Y-172022224D01*
X96314277Y-171739200D01*
X93530603Y-171739200D01*
X93530603Y-172027788D01*
X93611235Y-172328712D01*
X93620707Y-172340000D01*
X83438000Y-172340000D01*
X83438000Y-169354961D01*
X86063643Y-169354961D01*
X86100350Y-169566370D01*
X86210702Y-169750388D01*
X86379901Y-169882345D01*
X86585260Y-169944542D01*
X86799242Y-169928641D01*
X86993152Y-169836772D01*
X87140987Y-169681257D01*
X87223211Y-169482263D01*
X87225974Y-169256028D01*
X87148638Y-169055085D01*
X87004646Y-168896004D01*
X86813037Y-168799425D01*
X86599510Y-168778301D01*
X86392691Y-168835462D01*
X86220318Y-168963245D01*
X86105504Y-169144513D01*
X86063643Y-169354961D01*
X83438000Y-169354961D01*
X83438000Y-139350334D01*
X83471923Y-139405046D01*
X83629095Y-139571251D01*
X83816477Y-139702458D01*
X84029484Y-139794633D01*
X84325633Y-139840480D01*
X84425793Y-139840480D01*
X84596221Y-139823169D01*
X84814505Y-139754762D01*
X84877575Y-139719802D01*
X85674333Y-140516561D01*
X85420590Y-140516561D01*
X85325310Y-140535514D01*
X85234015Y-140596515D01*
X85173014Y-140687810D01*
X85154061Y-140783090D01*
X85154061Y-142807910D01*
X85173014Y-142903190D01*
X85234015Y-142994485D01*
X85325310Y-143055486D01*
X85420590Y-143074439D01*
X87045410Y-143074439D01*
X87140690Y-143055486D01*
X87231985Y-142994485D01*
X87292986Y-142903190D01*
X87311939Y-142807910D01*
X87311939Y-140783090D01*
X87292986Y-140687810D01*
X87231985Y-140596515D01*
X87140690Y-140535514D01*
X87045410Y-140516561D01*
X86583999Y-140516561D01*
X86583999Y-140484789D01*
X86560079Y-140443359D01*
X86547698Y-140397150D01*
X86516600Y-140366052D01*
X86516598Y-140366049D01*
X85373424Y-139222877D01*
X85429461Y-139108996D01*
X85487123Y-138887630D01*
X85493299Y-138769769D01*
X85778186Y-138769769D01*
X85812393Y-138995948D01*
X85891380Y-139210631D01*
X86011923Y-139405046D01*
X86169095Y-139571251D01*
X86356477Y-139702458D01*
X86569484Y-139794633D01*
X86865633Y-139840480D01*
X86965793Y-139840480D01*
X87136221Y-139823169D01*
X87354505Y-139754762D01*
X87417574Y-139719802D01*
X88168000Y-140470229D01*
X88168000Y-140484561D01*
X87706590Y-140484561D01*
X87611310Y-140503514D01*
X87520015Y-140564515D01*
X87459014Y-140655810D01*
X87440061Y-140751090D01*
X87440061Y-142775910D01*
X87459014Y-142871190D01*
X87520015Y-142962485D01*
X87611310Y-143023486D01*
X87706590Y-143042439D01*
X89331410Y-143042439D01*
X89426690Y-143023486D01*
X89517985Y-142962485D01*
X89578986Y-142871190D01*
X89597939Y-142775910D01*
X89597939Y-140751090D01*
X89578986Y-140655810D01*
X89517985Y-140564515D01*
X89426690Y-140503514D01*
X89331410Y-140484561D01*
X88870000Y-140484561D01*
X88870000Y-140279708D01*
X88869999Y-140279704D01*
X88869999Y-140230789D01*
X88860571Y-140214458D01*
X89576640Y-140214458D01*
X89943348Y-140119280D01*
X90172969Y-140015843D01*
X90381880Y-139875196D01*
X90564106Y-139701361D01*
X90714437Y-139499308D01*
X90828576Y-139274814D01*
X90903258Y-139034299D01*
X90904117Y-139027815D01*
X90971380Y-139210631D01*
X91091923Y-139405046D01*
X91249095Y-139571251D01*
X91436477Y-139702458D01*
X91649484Y-139794633D01*
X91945633Y-139840480D01*
X92045793Y-139840480D01*
X92216221Y-139823169D01*
X92434505Y-139754762D01*
X92634577Y-139643861D01*
X92808261Y-139494995D01*
X92948465Y-139314246D01*
X93049461Y-139108996D01*
X93107123Y-138887630D01*
X93113299Y-138769769D01*
X93398186Y-138769769D01*
X93432393Y-138995948D01*
X93511380Y-139210631D01*
X93631923Y-139405046D01*
X93789095Y-139571251D01*
X93976477Y-139702458D01*
X94189484Y-139794633D01*
X94485633Y-139840480D01*
X94585793Y-139840480D01*
X94756221Y-139823169D01*
X94974505Y-139754762D01*
X95174577Y-139643861D01*
X95348261Y-139494995D01*
X95488465Y-139314246D01*
X95589461Y-139108996D01*
X95647123Y-138887630D01*
X95659094Y-138659191D01*
X95624887Y-138433012D01*
X95545900Y-138218329D01*
X95425357Y-138023914D01*
X95268185Y-137857709D01*
X95080803Y-137726502D01*
X94867796Y-137634327D01*
X94571647Y-137588480D01*
X94471487Y-137588480D01*
X94301059Y-137605791D01*
X94082775Y-137674198D01*
X93882703Y-137785099D01*
X93709019Y-137933965D01*
X93568815Y-138114714D01*
X93467819Y-138319964D01*
X93410157Y-138541330D01*
X93398186Y-138769769D01*
X93113299Y-138769769D01*
X93119094Y-138659191D01*
X93084887Y-138433012D01*
X93005900Y-138218329D01*
X92885357Y-138023914D01*
X92728185Y-137857709D01*
X92540803Y-137726502D01*
X92327796Y-137634327D01*
X92031647Y-137588480D01*
X91931487Y-137588480D01*
X91761059Y-137605791D01*
X91542775Y-137674198D01*
X91342703Y-137785099D01*
X91169019Y-137933965D01*
X91028815Y-138114714D01*
X90927819Y-138319964D01*
X90902556Y-138416950D01*
X90875184Y-138286497D01*
X90782679Y-138052258D01*
X90652030Y-137836954D01*
X90486971Y-137646741D01*
X90292224Y-137487058D01*
X90073356Y-137362471D01*
X89833809Y-137275520D01*
X89576640Y-137241433D01*
X89576640Y-140214458D01*
X88860571Y-140214458D01*
X88846079Y-140189359D01*
X88833698Y-140143150D01*
X88802600Y-140112052D01*
X88802598Y-140112049D01*
X88668652Y-139978103D01*
X88823924Y-140066489D01*
X89063471Y-140153440D01*
X89320640Y-140187527D01*
X89320640Y-137214502D01*
X88953932Y-137309680D01*
X88724311Y-137413117D01*
X88515400Y-137553764D01*
X88333174Y-137727599D01*
X88182843Y-137929652D01*
X88068704Y-138154146D01*
X87994022Y-138394661D01*
X87993163Y-138401145D01*
X87925900Y-138218329D01*
X87805357Y-138023914D01*
X87648185Y-137857709D01*
X87460803Y-137726502D01*
X87247796Y-137634327D01*
X86951647Y-137588480D01*
X86851487Y-137588480D01*
X86681059Y-137605791D01*
X86462775Y-137674198D01*
X86262703Y-137785099D01*
X86089019Y-137933965D01*
X85948815Y-138114714D01*
X85847819Y-138319964D01*
X85790157Y-138541330D01*
X85778186Y-138769769D01*
X85493299Y-138769769D01*
X85499094Y-138659191D01*
X85464887Y-138433012D01*
X85385900Y-138218329D01*
X85265357Y-138023914D01*
X85108185Y-137857709D01*
X84920803Y-137726502D01*
X84707796Y-137634327D01*
X84411647Y-137588480D01*
X84311487Y-137588480D01*
X84141059Y-137605791D01*
X83922775Y-137674198D01*
X83722703Y-137785099D01*
X83549019Y-137933965D01*
X83438000Y-138077089D01*
X83438000Y-137032000D01*
X110364000Y-137032000D01*
X110364000Y-164130561D01*
G36*
X108908142Y-146057268D02*
G01*
X109077341Y-146189225D01*
X109282700Y-146251421D01*
X109296442Y-146250400D01*
X109296441Y-154089284D01*
X109183464Y-154069363D01*
X108550440Y-154069363D01*
X108550440Y-155239200D01*
X108294440Y-155239200D01*
X108294440Y-154069363D01*
X108174025Y-154069363D01*
X108805098Y-153438291D01*
X108805100Y-153438288D01*
X108836198Y-153407190D01*
X108848579Y-153360981D01*
X108872499Y-153319551D01*
X108872499Y-153275571D01*
X108872500Y-153275568D01*
X108872500Y-145997833D01*
X108908142Y-146057268D01*
X108908142Y-146057268D01*
G37*
X108908142Y-146057268D02*
X109077341Y-146189225D01*
X109282700Y-146251421D01*
X109296442Y-146250400D01*
X109296441Y-154089284D01*
X109183464Y-154069363D01*
X108550440Y-154069363D01*
X108550440Y-155239200D01*
X108294440Y-155239200D01*
X108294440Y-154069363D01*
X108174025Y-154069363D01*
X108805098Y-153438291D01*
X108805100Y-153438288D01*
X108836198Y-153407190D01*
X108848579Y-153360981D01*
X108872499Y-153319551D01*
X108872499Y-153275571D01*
X108872500Y-153275568D01*
X108872500Y-145997833D01*
X108908142Y-146057268D01*
%TD*%
M02*
