%TF.GenerationSoftware,KiCad,Pcbnew,5.99.0-unknown-c3175b4~86~ubuntu16.04.1*%
%TF.CreationDate,2019-10-16T11:56:15+02:00*%
%TF.ProjectId,atmegax8_with_bluetooth,61746d65-6761-4783-985f-776974685f62,rev?*%
%TF.SameCoordinates,Original*%
%TF.FileFunction,Soldermask,Bot*%
%TF.FilePolarity,Negative*%
%FSLAX46Y46*%
G04 Gerber Fmt 4.6, Leading zero omitted, Abs format (unit mm)*
G04 Created by KiCad (PCBNEW 5.99.0-unknown-c3175b4~86~ubuntu16.04.1) date 2019-10-16 11:56:15*
%MOMM*%
%LPD*%
G04 APERTURE LIST*
%ADD10O,2.540000X2.235200*%
%ADD11R,2.540000X2.235200*%
%ADD12R,1.758000X2.008000*%
%ADD13R,1.800000X0.750000*%
%ADD14R,0.750000X1.800000*%
%ADD15R,1.500000X0.800000*%
%ADD16O,2.208000X2.208000*%
%ADD17R,2.208000X2.208000*%
%ADD18R,1.016000X1.651000*%
%ADD19R,2.108200X4.107180*%
%ADD20R,2.656840X2.009140*%
%ADD21R,2.008000X1.758000*%
%ADD22R,1.808000X2.008000*%
%ADD23R,1.308100X1.308100*%
%ADD24R,2.208000X1.808000*%
%ADD25R,2.235200X2.235200*%
%ADD26O,2.235200X2.235200*%
%ADD27R,3.507740X2.108200*%
%ADD28R,3.508000X2.108000*%
%ADD29R,2.008000X1.808000*%
G04 APERTURE END LIST*
D10*
%TO.C,P3*%
X91948000Y-159448500D03*
X91948000Y-156908500D03*
X91948000Y-154368500D03*
D11*
X91948000Y-151828500D03*
%TD*%
D12*
%TO.C,C24*%
X94805500Y-150221000D03*
X94805500Y-147721000D03*
%TD*%
D13*
%TO.C,IC1*%
X105585840Y-156324800D03*
X105585840Y-157124800D03*
X105585840Y-157924800D03*
X105585840Y-158724800D03*
X105585840Y-159524800D03*
X105585840Y-160324800D03*
X105585840Y-161124800D03*
X105585840Y-161924800D03*
D14*
X104135840Y-163374800D03*
X103335840Y-163374800D03*
X102535840Y-163374800D03*
X101735840Y-163374800D03*
X100935840Y-163374800D03*
X100135840Y-163374800D03*
X99335840Y-163374800D03*
X98535840Y-163374800D03*
D13*
X97085840Y-161924800D03*
X97085840Y-161124800D03*
X97085840Y-160324800D03*
X97085840Y-159524800D03*
X97085840Y-158724800D03*
X97085840Y-157924800D03*
X97085840Y-157124800D03*
X97085840Y-156324800D03*
D14*
X98535840Y-154874800D03*
X99335840Y-154874800D03*
X100135840Y-154874800D03*
X100935840Y-154874800D03*
X101735840Y-154874800D03*
X102535840Y-154874800D03*
X103335840Y-154874800D03*
X104135840Y-154874800D03*
%TD*%
D15*
%TO.C,Y1*%
X108452920Y-161607460D03*
X108452920Y-160657460D03*
X108452920Y-162557460D03*
%TD*%
D16*
%TO.C,P1*%
X99608640Y-138714480D03*
X97068640Y-138714480D03*
X94528640Y-138714480D03*
X91988640Y-138714480D03*
X89448640Y-138714480D03*
X86908640Y-138714480D03*
X84368640Y-138714480D03*
X81828640Y-138714480D03*
X79288640Y-138714480D03*
X76748640Y-138714480D03*
X74208640Y-138714480D03*
D17*
X71668640Y-138714480D03*
%TD*%
D18*
%TO.C,U3*%
X76200000Y-154345640D03*
X74930000Y-154345640D03*
X73660000Y-154345640D03*
X72390000Y-154345640D03*
X72390000Y-160695640D03*
X73660000Y-160695640D03*
X74930000Y-160695640D03*
X76200000Y-160695640D03*
%TD*%
D19*
%TO.C,C14*%
X73660000Y-164269420D03*
X73660000Y-169771060D03*
%TD*%
D20*
%TO.C,C22*%
X85598000Y-147066000D03*
X88600280Y-147066000D03*
%TD*%
D21*
%TO.C,C15*%
X78658400Y-154686000D03*
X81158400Y-154686000D03*
%TD*%
D22*
%TO.C,R25*%
X88419440Y-144595840D03*
X88419440Y-141895840D03*
%TD*%
D12*
%TO.C,C4*%
X108013500Y-158666500D03*
X108013500Y-156166500D03*
%TD*%
D10*
%TO.C,P5*%
X92000000Y-143120000D03*
X92000000Y-145660000D03*
D11*
X92000000Y-148200000D03*
%TD*%
D23*
%TO.C,U4*%
X95971360Y-169636440D03*
X93972380Y-168686440D03*
X93972380Y-170586440D03*
%TD*%
D17*
%TO.C,P4*%
X104739440Y-138757660D03*
D16*
X107279440Y-138757660D03*
%TD*%
D12*
%TO.C,C1*%
X94869000Y-159936500D03*
X94869000Y-157436500D03*
%TD*%
%TO.C,C5*%
X91998800Y-168676000D03*
X91998800Y-171176000D03*
%TD*%
D22*
%TO.C,R3*%
X101716840Y-149160240D03*
X101716840Y-151860240D03*
%TD*%
D24*
%TO.C,D1*%
X92146120Y-166331840D03*
X92146120Y-162831840D03*
%TD*%
D25*
%TO.C,P2*%
X98425000Y-168148000D03*
D26*
X98425000Y-170688000D03*
X100965000Y-168148000D03*
X100965000Y-170688000D03*
X103505000Y-168148000D03*
X103505000Y-170688000D03*
%TD*%
D27*
%TO.C,C20*%
X88788240Y-157226000D03*
X84388960Y-157226000D03*
%TD*%
D28*
%TO.C,C19*%
X88433000Y-151384000D03*
X84033000Y-151384000D03*
%TD*%
D27*
%TO.C,C21*%
X84388960Y-169418000D03*
X88788240Y-169418000D03*
%TD*%
D22*
%TO.C,R2*%
X99288600Y-149160240D03*
X99288600Y-151860240D03*
%TD*%
D29*
%TO.C,R23*%
X81440000Y-168402000D03*
X78740000Y-168402000D03*
%TD*%
D12*
%TO.C,C3*%
X94869000Y-143022000D03*
X94869000Y-145522000D03*
%TD*%
D22*
%TO.C,R5*%
X106301540Y-168319440D03*
X106301540Y-165619440D03*
%TD*%
%TO.C,R6*%
X108452920Y-164719000D03*
X108452920Y-167419000D03*
%TD*%
D27*
%TO.C,C6*%
X88813640Y-163322000D03*
X84414360Y-163322000D03*
%TD*%
D19*
%TO.C,C9*%
X73400920Y-149064980D03*
X73400920Y-143563340D03*
%TD*%
D29*
%TO.C,R8*%
X78740000Y-161544000D03*
X81440000Y-161544000D03*
%TD*%
D22*
%TO.C,R9*%
X78232000Y-144415500D03*
X78232000Y-141715500D03*
%TD*%
%TO.C,R13*%
X107127040Y-149127220D03*
X107127040Y-151827220D03*
%TD*%
D29*
%TO.C,R15*%
X81309200Y-156972000D03*
X78609200Y-156972000D03*
%TD*%
D21*
%TO.C,C16*%
X78740000Y-166116000D03*
X81240000Y-166116000D03*
%TD*%
D29*
%TO.C,R18*%
X81440000Y-163830000D03*
X78740000Y-163830000D03*
%TD*%
D22*
%TO.C,R19*%
X104792780Y-151909760D03*
X104792780Y-149209760D03*
%TD*%
D29*
%TO.C,R20*%
X80280500Y-152400000D03*
X77580500Y-152400000D03*
%TD*%
%TO.C,R21*%
X78634600Y-159258000D03*
X81334600Y-159258000D03*
%TD*%
%TO.C,R26*%
X107012720Y-143479520D03*
X104312720Y-143479520D03*
%TD*%
D22*
%TO.C,R27*%
X86423500Y-141906000D03*
X86423500Y-144606000D03*
%TD*%
D29*
%TO.C,D2*%
X99308920Y-143479520D03*
X102008920Y-143479520D03*
%TD*%
%TO.C,D3*%
X102024160Y-145562320D03*
X99324160Y-145562320D03*
%TD*%
%TO.C,R31*%
X104333040Y-145587720D03*
X107033040Y-145587720D03*
%TD*%
D22*
%TO.C,R7*%
X94554040Y-163300420D03*
X94554040Y-166000420D03*
%TD*%
M02*
