%TF.GenerationSoftware,KiCad,Pcbnew,5.99.0-unknown-c3175b4~86~ubuntu16.04.1*%
%TF.CreationDate,2019-10-16T11:56:15+02:00*%
%TF.ProjectId,atmegax8_with_bluetooth,61746d65-6761-4783-985f-776974685f62,rev?*%
%TF.SameCoordinates,Original*%
%TF.FileFunction,Paste,Top*%
%TF.FilePolarity,Positive*%
%FSLAX46Y46*%
G04 Gerber Fmt 4.6, Leading zero omitted, Abs format (unit mm)*
G04 Created by KiCad (PCBNEW 5.99.0-unknown-c3175b4~86~ubuntu16.04.1) date 2019-10-16 11:56:15*
%MOMM*%
%LPD*%
G04 APERTURE LIST*
%ADD10R,2.700000X3.750000*%
%ADD11R,1.778000X2.794000*%
%ADD12R,1.000000X1.000000*%
%ADD13R,1.500000X0.800000*%
%ADD14R,2.999740X1.501140*%
%ADD15R,1.300000X1.500000*%
%ADD16R,1.600000X2.000000*%
%ADD17R,0.800100X0.800100*%
%ADD18R,1.500000X1.250000*%
%ADD19R,1.250000X1.500000*%
G04 APERTURE END LIST*
D10*
%TO.C,C11*%
X80518000Y-155292500D03*
X80518000Y-162842500D03*
%TD*%
%TO.C,C10*%
X80518000Y-142973500D03*
X80518000Y-150523500D03*
%TD*%
D11*
%TO.C,L1*%
X76200000Y-152019000D03*
X72644000Y-152019000D03*
%TD*%
D12*
%TO.C,J5*%
X109918500Y-164909500D03*
%TD*%
%TO.C,J4*%
X109918500Y-166052500D03*
%TD*%
%TO.C,J3*%
X109918500Y-167195500D03*
%TD*%
%TO.C,J2*%
X109918500Y-168338500D03*
%TD*%
%TO.C,J1*%
X109918500Y-170497500D03*
%TD*%
D13*
%TO.C,U2*%
X94922440Y-163911200D03*
X94922440Y-158411200D03*
X94922440Y-160611200D03*
X94922440Y-169411200D03*
X94922440Y-167211200D03*
X94922440Y-162811200D03*
X94922440Y-159511200D03*
X94922440Y-170511200D03*
X94922440Y-156211200D03*
X94922440Y-168311200D03*
X94922440Y-157311200D03*
X94922440Y-166111200D03*
X94922440Y-155111200D03*
X94922440Y-161711200D03*
X94922440Y-171611200D03*
X94922440Y-165011200D03*
X108422440Y-168311200D03*
X108422440Y-171611200D03*
X108422440Y-170511200D03*
X108422440Y-169411200D03*
X108422440Y-165011200D03*
X108422440Y-167211200D03*
X108422440Y-162811200D03*
X108422440Y-166111200D03*
X108422440Y-161711200D03*
X108422440Y-163911200D03*
X108422440Y-160611200D03*
X108422440Y-159511200D03*
X108422440Y-158411200D03*
X108422440Y-157311200D03*
X108422440Y-156211200D03*
X108422440Y-155111200D03*
%TD*%
D14*
%TO.C,C13*%
X77055980Y-166814500D03*
X73058020Y-166814500D03*
%TD*%
D15*
%TO.C,R16*%
X76098400Y-158197540D03*
X76098400Y-155497540D03*
%TD*%
%TO.C,R17*%
X76100940Y-163154360D03*
X76100940Y-160454360D03*
%TD*%
D16*
%TO.C,C23*%
X86233000Y-145795500D03*
X86233000Y-141795500D03*
%TD*%
%TO.C,C27*%
X88519000Y-145763500D03*
X88519000Y-141763500D03*
%TD*%
D17*
%TO.C,U5*%
X101747320Y-151503380D03*
X100797320Y-149504400D03*
X102697320Y-149504400D03*
%TD*%
D18*
%TO.C,C28*%
X87737000Y-148653500D03*
X85237000Y-148653500D03*
%TD*%
D15*
%TO.C,R14*%
X104792780Y-149180560D03*
X104792780Y-151880560D03*
%TD*%
%TO.C,R1*%
X107088940Y-149139920D03*
X107088940Y-151839920D03*
%TD*%
%TO.C,R4*%
X98887280Y-151613860D03*
X98887280Y-148913860D03*
%TD*%
D18*
%TO.C,C12*%
X76517820Y-148963400D03*
X74017820Y-148963400D03*
%TD*%
D15*
%TO.C,R10*%
X71628000Y-144068800D03*
X71628000Y-141368800D03*
%TD*%
%TO.C,R11*%
X76080620Y-144080220D03*
X76080620Y-141380220D03*
%TD*%
%TO.C,R12*%
X73914000Y-144072600D03*
X73914000Y-141372600D03*
%TD*%
D19*
%TO.C,C17*%
X71882000Y-155476900D03*
X71882000Y-157976900D03*
%TD*%
%TO.C,C18*%
X71892160Y-163201680D03*
X71892160Y-160701680D03*
%TD*%
D15*
%TO.C,R22*%
X73977500Y-158178500D03*
X73977500Y-155478500D03*
%TD*%
%TO.C,R24*%
X74013060Y-160467060D03*
X74013060Y-163167060D03*
%TD*%
D18*
%TO.C,C7*%
X76502580Y-146428460D03*
X74002580Y-146428460D03*
%TD*%
D19*
%TO.C,C8*%
X71617840Y-146537360D03*
X71617840Y-149037360D03*
%TD*%
%TO.C,C26*%
X88600000Y-160850000D03*
X88600000Y-158350000D03*
%TD*%
M02*
