%TF.GenerationSoftware,KiCad,Pcbnew,5.99.0-unknown-c3175b4~86~ubuntu16.04.1*%
%TF.CreationDate,2019-10-16T11:56:15+02:00*%
%TF.ProjectId,atmegax8_with_bluetooth,61746d65-6761-4783-985f-776974685f62,rev?*%
%TF.SameCoordinates,Original*%
%TF.FileFunction,Legend,Top*%
%TF.FilePolarity,Positive*%
%FSLAX46Y46*%
G04 Gerber Fmt 4.6, Leading zero omitted, Abs format (unit mm)*
G04 Created by KiCad (PCBNEW 5.99.0-unknown-c3175b4~86~ubuntu16.04.1) date 2019-10-16 11:56:15*
%MOMM*%
%LPD*%
G04 APERTURE LIST*
%ADD10C,0.100000*%
%ADD11C,0.200000*%
%ADD12C,0.120000*%
%ADD13C,0.150000*%
G04 APERTURE END LIST*
D10*
X70802500Y-140081000D02*
X73787000Y-140335000D01*
X71120000Y-153733500D02*
X74041000Y-154305000D01*
D11*
X97617642Y-169055142D02*
X97835357Y-169127714D01*
X97907928Y-169200285D01*
X97980500Y-169345428D01*
X97980500Y-169563142D01*
X97907928Y-169708285D01*
X97835357Y-169780857D01*
X97690214Y-169853428D01*
X97109642Y-169853428D01*
X97109642Y-168329428D01*
X97617642Y-168329428D01*
X97762785Y-168402000D01*
X97835357Y-168474571D01*
X97907928Y-168619714D01*
X97907928Y-168764857D01*
X97835357Y-168910000D01*
X97762785Y-168982571D01*
X97617642Y-169055142D01*
X97109642Y-169055142D01*
X98633642Y-169853428D02*
X98633642Y-168329428D01*
X99504500Y-169853428D02*
X98851357Y-168982571D01*
X99504500Y-168329428D02*
X98633642Y-169200285D01*
X100375357Y-168982571D02*
X100230214Y-168910000D01*
X100157642Y-168837428D01*
X100085071Y-168692285D01*
X100085071Y-168619714D01*
X100157642Y-168474571D01*
X100230214Y-168402000D01*
X100375357Y-168329428D01*
X100665642Y-168329428D01*
X100810785Y-168402000D01*
X100883357Y-168474571D01*
X100955928Y-168619714D01*
X100955928Y-168692285D01*
X100883357Y-168837428D01*
X100810785Y-168910000D01*
X100665642Y-168982571D01*
X100375357Y-168982571D01*
X100230214Y-169055142D01*
X100157642Y-169127714D01*
X100085071Y-169272857D01*
X100085071Y-169563142D01*
X100157642Y-169708285D01*
X100230214Y-169780857D01*
X100375357Y-169853428D01*
X100665642Y-169853428D01*
X100810785Y-169780857D01*
X100883357Y-169708285D01*
X100955928Y-169563142D01*
X100955928Y-169272857D01*
X100883357Y-169127714D01*
X100810785Y-169055142D01*
X100665642Y-168982571D01*
X101899357Y-168329428D02*
X102044500Y-168329428D01*
X102189642Y-168402000D01*
X102262214Y-168474571D01*
X102334785Y-168619714D01*
X102407357Y-168910000D01*
X102407357Y-169272857D01*
X102334785Y-169563142D01*
X102262214Y-169708285D01*
X102189642Y-169780857D01*
X102044500Y-169853428D01*
X101899357Y-169853428D01*
X101754214Y-169780857D01*
X101681642Y-169708285D01*
X101609071Y-169563142D01*
X101536500Y-169272857D01*
X101536500Y-168910000D01*
X101609071Y-168619714D01*
X101681642Y-168474571D01*
X101754214Y-168402000D01*
X101899357Y-168329428D01*
X103350785Y-168329428D02*
X103495928Y-168329428D01*
X103641071Y-168402000D01*
X103713642Y-168474571D01*
X103786214Y-168619714D01*
X103858785Y-168910000D01*
X103858785Y-169272857D01*
X103786214Y-169563142D01*
X103713642Y-169708285D01*
X103641071Y-169780857D01*
X103495928Y-169853428D01*
X103350785Y-169853428D01*
X103205642Y-169780857D01*
X103133071Y-169708285D01*
X103060500Y-169563142D01*
X102987928Y-169272857D01*
X102987928Y-168910000D01*
X103060500Y-168619714D01*
X103133071Y-168474571D01*
X103205642Y-168402000D01*
X103350785Y-168329428D01*
X104802214Y-168329428D02*
X104947357Y-168329428D01*
X105092500Y-168402000D01*
X105165071Y-168474571D01*
X105237642Y-168619714D01*
X105310214Y-168910000D01*
X105310214Y-169272857D01*
X105237642Y-169563142D01*
X105165071Y-169708285D01*
X105092500Y-169780857D01*
X104947357Y-169853428D01*
X104802214Y-169853428D01*
X104657071Y-169780857D01*
X104584500Y-169708285D01*
X104511928Y-169563142D01*
X104439357Y-169272857D01*
X104439357Y-168910000D01*
X104511928Y-168619714D01*
X104584500Y-168474571D01*
X104657071Y-168402000D01*
X104802214Y-168329428D01*
X106689071Y-169853428D02*
X105963357Y-169853428D01*
X105963357Y-168329428D01*
D12*
%TO.C,C11*%
X82918000Y-153117500D02*
X82918000Y-162717500D01*
X78118000Y-153117500D02*
X78118000Y-162717500D01*
X82918000Y-153117500D02*
X78118000Y-153117500D01*
%TO.C,C10*%
X82918000Y-140798500D02*
X82918000Y-150398500D01*
X78118000Y-140798500D02*
X78118000Y-150398500D01*
X82918000Y-140798500D02*
X78118000Y-140798500D01*
D13*
%TO.C,L1*%
X77216000Y-150495000D02*
X75184000Y-150495000D01*
X77016000Y-153543000D02*
X77016000Y-150495000D01*
X75184000Y-153543000D02*
X77216000Y-153543000D01*
X71628000Y-153543000D02*
X73533000Y-153543000D01*
X71628000Y-150495000D02*
X71628000Y-153543000D01*
X73533000Y-150495000D02*
X71628000Y-150495000D01*
X77216000Y-153543000D02*
X77216000Y-150495000D01*
%TO.C,P3*%
X90678000Y-153098500D02*
X90678000Y-160718500D01*
X93218000Y-153098500D02*
X93218000Y-160718500D01*
X93498000Y-150278500D02*
X93498000Y-151828500D01*
X90678000Y-160718500D02*
X93218000Y-160718500D01*
X93218000Y-153098500D02*
X90678000Y-153098500D01*
X90398000Y-151828500D02*
X90398000Y-150278500D01*
X90398000Y-150278500D02*
X93498000Y-150278500D01*
%TO.C,U2*%
X94922440Y-153111200D02*
X94922440Y-154411200D01*
X108422440Y-153111200D02*
X94922440Y-153111200D01*
X108422440Y-154411200D02*
X108422440Y-153111200D01*
%TO.C,C13*%
X71061580Y-165615620D02*
X71061580Y-168013380D01*
X69857620Y-165016180D02*
X71056500Y-165016180D01*
X70457060Y-164515800D02*
X70457060Y-165615620D01*
X77657960Y-165615620D02*
X72456040Y-165615620D01*
X72456040Y-168013380D02*
X77657960Y-168013380D01*
%TO.C,R16*%
X75223400Y-157447540D02*
X75223400Y-156247540D01*
X76973400Y-156247540D02*
X76973400Y-157447540D01*
%TO.C,R17*%
X75225940Y-162404360D02*
X75225940Y-161204360D01*
X76975940Y-161204360D02*
X76975940Y-162404360D01*
D12*
%TO.C,C23*%
X87253000Y-144795500D02*
X87253000Y-142795500D01*
X85213000Y-142795500D02*
X85213000Y-144795500D01*
%TO.C,C27*%
X89539000Y-144763500D02*
X89539000Y-142763500D01*
X87499000Y-142763500D02*
X87499000Y-144763500D01*
D13*
%TO.C,P5*%
X93270000Y-146930000D02*
X93270000Y-141850000D01*
X93270000Y-141850000D02*
X90730000Y-141850000D01*
X90730000Y-141850000D02*
X90730000Y-146930000D01*
X90450000Y-149750000D02*
X90450000Y-148200000D01*
X90730000Y-146930000D02*
X93270000Y-146930000D01*
X93550000Y-148200000D02*
X93550000Y-149750000D01*
X93550000Y-149750000D02*
X90450000Y-149750000D01*
%TO.C,U5*%
X100448160Y-151155400D02*
X100496420Y-151155400D01*
X103247140Y-150454360D02*
X103247140Y-151155400D01*
X103247140Y-151155400D02*
X102998220Y-151155400D01*
X100448160Y-151155400D02*
X100247500Y-151155400D01*
X100247500Y-151155400D02*
X100247500Y-150454360D01*
D12*
%TO.C,P4*%
X108609440Y-140087660D02*
X108609440Y-137427660D01*
X106009440Y-140087660D02*
X108609440Y-140087660D01*
X106009440Y-137427660D02*
X108609440Y-137427660D01*
X106009440Y-140087660D02*
X106009440Y-137427660D01*
X104739440Y-140087660D02*
X103409440Y-140087660D01*
X103409440Y-140087660D02*
X103409440Y-138757660D01*
%TO.C,C28*%
X86987000Y-147803500D02*
X85987000Y-147803500D01*
X85987000Y-149503500D02*
X86987000Y-149503500D01*
D13*
%TO.C,R14*%
X105667780Y-149930560D02*
X105667780Y-151130560D01*
X103917780Y-151130560D02*
X103917780Y-149930560D01*
%TO.C,R1*%
X107963940Y-149889920D02*
X107963940Y-151089920D01*
X106213940Y-151089920D02*
X106213940Y-149889920D01*
%TO.C,R4*%
X98012280Y-150863860D02*
X98012280Y-149663860D01*
X99762280Y-149663860D02*
X99762280Y-150863860D01*
%TO.C,C12*%
X75767820Y-148113400D02*
X74767820Y-148113400D01*
X74767820Y-149813400D02*
X75767820Y-149813400D01*
%TO.C,R10*%
X70753000Y-143318800D02*
X70753000Y-142118800D01*
X72503000Y-142118800D02*
X72503000Y-143318800D01*
%TO.C,R11*%
X75205620Y-143330220D02*
X75205620Y-142130220D01*
X76955620Y-142130220D02*
X76955620Y-143330220D01*
%TO.C,R12*%
X73039000Y-143322600D02*
X73039000Y-142122600D01*
X74789000Y-142122600D02*
X74789000Y-143322600D01*
%TO.C,C17*%
X71032000Y-156226900D02*
X71032000Y-157226900D01*
X72732000Y-157226900D02*
X72732000Y-156226900D01*
%TO.C,C18*%
X72742160Y-162451680D02*
X72742160Y-161451680D01*
X71042160Y-161451680D02*
X71042160Y-162451680D01*
%TO.C,R22*%
X73102500Y-157428500D02*
X73102500Y-156228500D01*
X74852500Y-156228500D02*
X74852500Y-157428500D01*
%TO.C,R24*%
X74888060Y-161217060D02*
X74888060Y-162417060D01*
X73138060Y-162417060D02*
X73138060Y-161217060D01*
%TO.C,C7*%
X75752580Y-145578460D02*
X74752580Y-145578460D01*
X74752580Y-147278460D02*
X75752580Y-147278460D01*
%TO.C,C8*%
X70767840Y-147287360D02*
X70767840Y-148287360D01*
X72467840Y-148287360D02*
X72467840Y-147287360D01*
D12*
%TO.C,C26*%
X89450000Y-160100000D02*
X89450000Y-159100000D01*
X87750000Y-159100000D02*
X87750000Y-160100000D01*
%TO.C,C11*%
D13*
X80938642Y-159519857D02*
X80986261Y-159567476D01*
X81033880Y-159710333D01*
X81033880Y-159805571D01*
X80986261Y-159948428D01*
X80891023Y-160043666D01*
X80795785Y-160091285D01*
X80605309Y-160138904D01*
X80462452Y-160138904D01*
X80271976Y-160091285D01*
X80176738Y-160043666D01*
X80081500Y-159948428D01*
X80033880Y-159805571D01*
X80033880Y-159710333D01*
X80081500Y-159567476D01*
X80129119Y-159519857D01*
X81033880Y-158567476D02*
X81033880Y-159138904D01*
X81033880Y-158853190D02*
X80033880Y-158853190D01*
X80176738Y-158948428D01*
X80271976Y-159043666D01*
X80319595Y-159138904D01*
X81033880Y-157615095D02*
X81033880Y-158186523D01*
X81033880Y-157900809D02*
X80033880Y-157900809D01*
X80176738Y-157996047D01*
X80271976Y-158091285D01*
X80319595Y-158186523D01*
%TO.C,C10*%
X81065642Y-147264357D02*
X81113261Y-147311976D01*
X81160880Y-147454833D01*
X81160880Y-147550071D01*
X81113261Y-147692928D01*
X81018023Y-147788166D01*
X80922785Y-147835785D01*
X80732309Y-147883404D01*
X80589452Y-147883404D01*
X80398976Y-147835785D01*
X80303738Y-147788166D01*
X80208500Y-147692928D01*
X80160880Y-147550071D01*
X80160880Y-147454833D01*
X80208500Y-147311976D01*
X80256119Y-147264357D01*
X81160880Y-146311976D02*
X81160880Y-146883404D01*
X81160880Y-146597690D02*
X80160880Y-146597690D01*
X80303738Y-146692928D01*
X80398976Y-146788166D01*
X80446595Y-146883404D01*
X80160880Y-145692928D02*
X80160880Y-145597690D01*
X80208500Y-145502452D01*
X80256119Y-145454833D01*
X80351357Y-145407214D01*
X80541833Y-145359595D01*
X80779928Y-145359595D01*
X80970404Y-145407214D01*
X81065642Y-145454833D01*
X81113261Y-145502452D01*
X81160880Y-145597690D01*
X81160880Y-145692928D01*
X81113261Y-145788166D01*
X81065642Y-145835785D01*
X80970404Y-145883404D01*
X80779928Y-145931023D01*
X80541833Y-145931023D01*
X80351357Y-145883404D01*
X80256119Y-145835785D01*
X80208500Y-145788166D01*
X80160880Y-145692928D01*
%TO.C,L1*%
X74859140Y-152063746D02*
X74859140Y-152539937D01*
X73859140Y-152539937D01*
X74859140Y-151206603D02*
X74859140Y-151778032D01*
X74859140Y-151492318D02*
X73859140Y-151492318D01*
X74001998Y-151587556D01*
X74097236Y-151682794D01*
X74144855Y-151778032D01*
%TO.C,P3*%
X91209904Y-147180880D02*
X91209904Y-146180880D01*
X91590857Y-146180880D01*
X91686095Y-146228500D01*
X91733714Y-146276119D01*
X91781333Y-146371357D01*
X91781333Y-146514214D01*
X91733714Y-146609452D01*
X91686095Y-146657071D01*
X91590857Y-146704690D01*
X91209904Y-146704690D01*
X92114666Y-146180880D02*
X92733714Y-146180880D01*
X92400380Y-146561833D01*
X92543238Y-146561833D01*
X92638476Y-146609452D01*
X92686095Y-146657071D01*
X92733714Y-146752309D01*
X92733714Y-146990404D01*
X92686095Y-147085642D01*
X92638476Y-147133261D01*
X92543238Y-147180880D01*
X92257523Y-147180880D01*
X92162285Y-147133261D01*
X92114666Y-147085642D01*
%TO.C,C13*%
X74287142Y-169076642D02*
X74239523Y-169124261D01*
X74096666Y-169171880D01*
X74001428Y-169171880D01*
X73858571Y-169124261D01*
X73763333Y-169029023D01*
X73715714Y-168933785D01*
X73668095Y-168743309D01*
X73668095Y-168600452D01*
X73715714Y-168409976D01*
X73763333Y-168314738D01*
X73858571Y-168219500D01*
X74001428Y-168171880D01*
X74096666Y-168171880D01*
X74239523Y-168219500D01*
X74287142Y-168267119D01*
X75239523Y-169171880D02*
X74668095Y-169171880D01*
X74953809Y-169171880D02*
X74953809Y-168171880D01*
X74858571Y-168314738D01*
X74763333Y-168409976D01*
X74668095Y-168457595D01*
X75572857Y-168171880D02*
X76191904Y-168171880D01*
X75858571Y-168552833D01*
X76001428Y-168552833D01*
X76096666Y-168600452D01*
X76144285Y-168648071D01*
X76191904Y-168743309D01*
X76191904Y-168981404D01*
X76144285Y-169076642D01*
X76096666Y-169124261D01*
X76001428Y-169171880D01*
X75715714Y-169171880D01*
X75620476Y-169124261D01*
X75572857Y-169076642D01*
X70076107Y-165085068D02*
X70838012Y-165085068D01*
X70457060Y-165466020D02*
X70457060Y-164704116D01*
%TO.C,R16*%
X78049380Y-159456357D02*
X77573190Y-159789690D01*
X78049380Y-160027785D02*
X77049380Y-160027785D01*
X77049380Y-159646833D01*
X77097000Y-159551595D01*
X77144619Y-159503976D01*
X77239857Y-159456357D01*
X77382714Y-159456357D01*
X77477952Y-159503976D01*
X77525571Y-159551595D01*
X77573190Y-159646833D01*
X77573190Y-160027785D01*
X78049380Y-158503976D02*
X78049380Y-159075404D01*
X78049380Y-158789690D02*
X77049380Y-158789690D01*
X77192238Y-158884928D01*
X77287476Y-158980166D01*
X77335095Y-159075404D01*
X77049380Y-157646833D02*
X77049380Y-157837309D01*
X77097000Y-157932547D01*
X77144619Y-157980166D01*
X77287476Y-158075404D01*
X77477952Y-158123023D01*
X77858904Y-158123023D01*
X77954142Y-158075404D01*
X78001761Y-158027785D01*
X78049380Y-157932547D01*
X78049380Y-157742071D01*
X78001761Y-157646833D01*
X77954142Y-157599214D01*
X77858904Y-157551595D01*
X77620809Y-157551595D01*
X77525571Y-157599214D01*
X77477952Y-157646833D01*
X77430333Y-157742071D01*
X77430333Y-157932547D01*
X77477952Y-158027785D01*
X77525571Y-158075404D01*
X77620809Y-158123023D01*
%TO.C,R17*%
X76636642Y-165488880D02*
X76303309Y-165012690D01*
X76065214Y-165488880D02*
X76065214Y-164488880D01*
X76446166Y-164488880D01*
X76541404Y-164536500D01*
X76589023Y-164584119D01*
X76636642Y-164679357D01*
X76636642Y-164822214D01*
X76589023Y-164917452D01*
X76541404Y-164965071D01*
X76446166Y-165012690D01*
X76065214Y-165012690D01*
X77589023Y-165488880D02*
X77017595Y-165488880D01*
X77303309Y-165488880D02*
X77303309Y-164488880D01*
X77208071Y-164631738D01*
X77112833Y-164726976D01*
X77017595Y-164774595D01*
X77922357Y-164488880D02*
X78589023Y-164488880D01*
X78160452Y-165488880D01*
%TO.C,C23*%
X84875642Y-144406857D02*
X84923261Y-144454476D01*
X84970880Y-144597333D01*
X84970880Y-144692571D01*
X84923261Y-144835428D01*
X84828023Y-144930666D01*
X84732785Y-144978285D01*
X84542309Y-145025904D01*
X84399452Y-145025904D01*
X84208976Y-144978285D01*
X84113738Y-144930666D01*
X84018500Y-144835428D01*
X83970880Y-144692571D01*
X83970880Y-144597333D01*
X84018500Y-144454476D01*
X84066119Y-144406857D01*
X84066119Y-144025904D02*
X84018500Y-143978285D01*
X83970880Y-143883047D01*
X83970880Y-143644952D01*
X84018500Y-143549714D01*
X84066119Y-143502095D01*
X84161357Y-143454476D01*
X84256595Y-143454476D01*
X84399452Y-143502095D01*
X84970880Y-144073523D01*
X84970880Y-143454476D01*
X83970880Y-143121142D02*
X83970880Y-142502095D01*
X84351833Y-142835428D01*
X84351833Y-142692571D01*
X84399452Y-142597333D01*
X84447071Y-142549714D01*
X84542309Y-142502095D01*
X84780404Y-142502095D01*
X84875642Y-142549714D01*
X84923261Y-142597333D01*
X84970880Y-142692571D01*
X84970880Y-142978285D01*
X84923261Y-143073523D01*
X84875642Y-143121142D01*
%TO.C,C27*%
X90654142Y-142120857D02*
X90701761Y-142168476D01*
X90749380Y-142311333D01*
X90749380Y-142406571D01*
X90701761Y-142549428D01*
X90606523Y-142644666D01*
X90511285Y-142692285D01*
X90320809Y-142739904D01*
X90177952Y-142739904D01*
X89987476Y-142692285D01*
X89892238Y-142644666D01*
X89797000Y-142549428D01*
X89749380Y-142406571D01*
X89749380Y-142311333D01*
X89797000Y-142168476D01*
X89844619Y-142120857D01*
X89844619Y-141739904D02*
X89797000Y-141692285D01*
X89749380Y-141597047D01*
X89749380Y-141358952D01*
X89797000Y-141263714D01*
X89844619Y-141216095D01*
X89939857Y-141168476D01*
X90035095Y-141168476D01*
X90177952Y-141216095D01*
X90749380Y-141787523D01*
X90749380Y-141168476D01*
X89749380Y-140835142D02*
X89749380Y-140168476D01*
X90749380Y-140597047D01*
%TO.C,P5*%
X93733880Y-141581095D02*
X92733880Y-141581095D01*
X92733880Y-141200142D01*
X92781500Y-141104904D01*
X92829119Y-141057285D01*
X92924357Y-141009666D01*
X93067214Y-141009666D01*
X93162452Y-141057285D01*
X93210071Y-141104904D01*
X93257690Y-141200142D01*
X93257690Y-141581095D01*
X92733880Y-140104904D02*
X92733880Y-140581095D01*
X93210071Y-140628714D01*
X93162452Y-140581095D01*
X93114833Y-140485857D01*
X93114833Y-140247761D01*
X93162452Y-140152523D01*
X93210071Y-140104904D01*
X93305309Y-140057285D01*
X93543404Y-140057285D01*
X93638642Y-140104904D01*
X93686261Y-140152523D01*
X93733880Y-140247761D01*
X93733880Y-140485857D01*
X93686261Y-140581095D01*
X93638642Y-140628714D01*
%TO.C,U5*%
X100965095Y-146899380D02*
X100965095Y-147708904D01*
X101012714Y-147804142D01*
X101060333Y-147851761D01*
X101155571Y-147899380D01*
X101346047Y-147899380D01*
X101441285Y-147851761D01*
X101488904Y-147804142D01*
X101536523Y-147708904D01*
X101536523Y-146899380D01*
X102488904Y-146899380D02*
X102012714Y-146899380D01*
X101965095Y-147375571D01*
X102012714Y-147327952D01*
X102107952Y-147280333D01*
X102346047Y-147280333D01*
X102441285Y-147327952D01*
X102488904Y-147375571D01*
X102536523Y-147470809D01*
X102536523Y-147708904D01*
X102488904Y-147804142D01*
X102441285Y-147851761D01*
X102346047Y-147899380D01*
X102107952Y-147899380D01*
X102012714Y-147851761D01*
X101965095Y-147804142D01*
%TO.C,P4*%
X102861820Y-139495755D02*
X101861820Y-139495755D01*
X101861820Y-139114802D01*
X101909440Y-139019564D01*
X101957059Y-138971945D01*
X102052297Y-138924326D01*
X102195154Y-138924326D01*
X102290392Y-138971945D01*
X102338011Y-139019564D01*
X102385630Y-139114802D01*
X102385630Y-139495755D01*
X102195154Y-138067183D02*
X102861820Y-138067183D01*
X101814201Y-138305279D02*
X102528487Y-138543374D01*
X102528487Y-137924326D01*
%TO.C,C28*%
X86395642Y-150915642D02*
X86348023Y-150963261D01*
X86205166Y-151010880D01*
X86109928Y-151010880D01*
X85967071Y-150963261D01*
X85871833Y-150868023D01*
X85824214Y-150772785D01*
X85776595Y-150582309D01*
X85776595Y-150439452D01*
X85824214Y-150248976D01*
X85871833Y-150153738D01*
X85967071Y-150058500D01*
X86109928Y-150010880D01*
X86205166Y-150010880D01*
X86348023Y-150058500D01*
X86395642Y-150106119D01*
X86776595Y-150106119D02*
X86824214Y-150058500D01*
X86919452Y-150010880D01*
X87157547Y-150010880D01*
X87252785Y-150058500D01*
X87300404Y-150106119D01*
X87348023Y-150201357D01*
X87348023Y-150296595D01*
X87300404Y-150439452D01*
X86728976Y-151010880D01*
X87348023Y-151010880D01*
X87919452Y-150439452D02*
X87824214Y-150391833D01*
X87776595Y-150344214D01*
X87728976Y-150248976D01*
X87728976Y-150201357D01*
X87776595Y-150106119D01*
X87824214Y-150058500D01*
X87919452Y-150010880D01*
X88109928Y-150010880D01*
X88205166Y-150058500D01*
X88252785Y-150106119D01*
X88300404Y-150201357D01*
X88300404Y-150248976D01*
X88252785Y-150344214D01*
X88205166Y-150391833D01*
X88109928Y-150439452D01*
X87919452Y-150439452D01*
X87824214Y-150487071D01*
X87776595Y-150534690D01*
X87728976Y-150629928D01*
X87728976Y-150820404D01*
X87776595Y-150915642D01*
X87824214Y-150963261D01*
X87919452Y-151010880D01*
X88109928Y-151010880D01*
X88205166Y-150963261D01*
X88252785Y-150915642D01*
X88300404Y-150820404D01*
X88300404Y-150629928D01*
X88252785Y-150534690D01*
X88205166Y-150487071D01*
X88109928Y-150439452D01*
%TO.C,R14*%
X104909880Y-147327857D02*
X104433690Y-147661190D01*
X104909880Y-147899285D02*
X103909880Y-147899285D01*
X103909880Y-147518333D01*
X103957500Y-147423095D01*
X104005119Y-147375476D01*
X104100357Y-147327857D01*
X104243214Y-147327857D01*
X104338452Y-147375476D01*
X104386071Y-147423095D01*
X104433690Y-147518333D01*
X104433690Y-147899285D01*
X104909880Y-146375476D02*
X104909880Y-146946904D01*
X104909880Y-146661190D02*
X103909880Y-146661190D01*
X104052738Y-146756428D01*
X104147976Y-146851666D01*
X104195595Y-146946904D01*
X104243214Y-145518333D02*
X104909880Y-145518333D01*
X103862261Y-145756428D02*
X104576547Y-145994523D01*
X104576547Y-145375476D01*
%TO.C,R1*%
X107957880Y-147232666D02*
X107481690Y-147566000D01*
X107957880Y-147804095D02*
X106957880Y-147804095D01*
X106957880Y-147423142D01*
X107005500Y-147327904D01*
X107053119Y-147280285D01*
X107148357Y-147232666D01*
X107291214Y-147232666D01*
X107386452Y-147280285D01*
X107434071Y-147327904D01*
X107481690Y-147423142D01*
X107481690Y-147804095D01*
X107957880Y-146280285D02*
X107957880Y-146851714D01*
X107957880Y-146566000D02*
X106957880Y-146566000D01*
X107100738Y-146661238D01*
X107195976Y-146756476D01*
X107243595Y-146851714D01*
%TO.C,R4*%
X98766333Y-147391380D02*
X98433000Y-146915190D01*
X98194904Y-147391380D02*
X98194904Y-146391380D01*
X98575857Y-146391380D01*
X98671095Y-146439000D01*
X98718714Y-146486619D01*
X98766333Y-146581857D01*
X98766333Y-146724714D01*
X98718714Y-146819952D01*
X98671095Y-146867571D01*
X98575857Y-146915190D01*
X98194904Y-146915190D01*
X99623476Y-146724714D02*
X99623476Y-147391380D01*
X99385380Y-146343761D02*
X99147285Y-147058047D01*
X99766333Y-147058047D01*
%TO.C,C12*%
X78589142Y-149804357D02*
X78636761Y-149851976D01*
X78684380Y-149994833D01*
X78684380Y-150090071D01*
X78636761Y-150232928D01*
X78541523Y-150328166D01*
X78446285Y-150375785D01*
X78255809Y-150423404D01*
X78112952Y-150423404D01*
X77922476Y-150375785D01*
X77827238Y-150328166D01*
X77732000Y-150232928D01*
X77684380Y-150090071D01*
X77684380Y-149994833D01*
X77732000Y-149851976D01*
X77779619Y-149804357D01*
X78684380Y-148851976D02*
X78684380Y-149423404D01*
X78684380Y-149137690D02*
X77684380Y-149137690D01*
X77827238Y-149232928D01*
X77922476Y-149328166D01*
X77970095Y-149423404D01*
X77779619Y-148471023D02*
X77732000Y-148423404D01*
X77684380Y-148328166D01*
X77684380Y-148090071D01*
X77732000Y-147994833D01*
X77779619Y-147947214D01*
X77874857Y-147899595D01*
X77970095Y-147899595D01*
X78112952Y-147947214D01*
X78684380Y-148518642D01*
X78684380Y-147899595D01*
%TO.C,R10*%
X70619880Y-145232357D02*
X70143690Y-145565690D01*
X70619880Y-145803785D02*
X69619880Y-145803785D01*
X69619880Y-145422833D01*
X69667500Y-145327595D01*
X69715119Y-145279976D01*
X69810357Y-145232357D01*
X69953214Y-145232357D01*
X70048452Y-145279976D01*
X70096071Y-145327595D01*
X70143690Y-145422833D01*
X70143690Y-145803785D01*
X70619880Y-144279976D02*
X70619880Y-144851404D01*
X70619880Y-144565690D02*
X69619880Y-144565690D01*
X69762738Y-144660928D01*
X69857976Y-144756166D01*
X69905595Y-144851404D01*
X69619880Y-143660928D02*
X69619880Y-143565690D01*
X69667500Y-143470452D01*
X69715119Y-143422833D01*
X69810357Y-143375214D01*
X70000833Y-143327595D01*
X70238928Y-143327595D01*
X70429404Y-143375214D01*
X70524642Y-143422833D01*
X70572261Y-143470452D01*
X70619880Y-143565690D01*
X70619880Y-143660928D01*
X70572261Y-143756166D01*
X70524642Y-143803785D01*
X70429404Y-143851404D01*
X70238928Y-143899023D01*
X70000833Y-143899023D01*
X69810357Y-143851404D01*
X69715119Y-143803785D01*
X69667500Y-143756166D01*
X69619880Y-143660928D01*
%TO.C,R11*%
X77985880Y-142374857D02*
X77509690Y-142708190D01*
X77985880Y-142946285D02*
X76985880Y-142946285D01*
X76985880Y-142565333D01*
X77033500Y-142470095D01*
X77081119Y-142422476D01*
X77176357Y-142374857D01*
X77319214Y-142374857D01*
X77414452Y-142422476D01*
X77462071Y-142470095D01*
X77509690Y-142565333D01*
X77509690Y-142946285D01*
X77985880Y-141422476D02*
X77985880Y-141993904D01*
X77985880Y-141708190D02*
X76985880Y-141708190D01*
X77128738Y-141803428D01*
X77223976Y-141898666D01*
X77271595Y-141993904D01*
X77985880Y-140470095D02*
X77985880Y-141041523D01*
X77985880Y-140755809D02*
X76985880Y-140755809D01*
X77128738Y-140851047D01*
X77223976Y-140946285D01*
X77271595Y-141041523D01*
%TO.C,R12*%
X70683380Y-141739857D02*
X70207190Y-142073190D01*
X70683380Y-142311285D02*
X69683380Y-142311285D01*
X69683380Y-141930333D01*
X69731000Y-141835095D01*
X69778619Y-141787476D01*
X69873857Y-141739857D01*
X70016714Y-141739857D01*
X70111952Y-141787476D01*
X70159571Y-141835095D01*
X70207190Y-141930333D01*
X70207190Y-142311285D01*
X70683380Y-140787476D02*
X70683380Y-141358904D01*
X70683380Y-141073190D02*
X69683380Y-141073190D01*
X69826238Y-141168428D01*
X69921476Y-141263666D01*
X69969095Y-141358904D01*
X69778619Y-140406523D02*
X69731000Y-140358904D01*
X69683380Y-140263666D01*
X69683380Y-140025571D01*
X69731000Y-139930333D01*
X69778619Y-139882714D01*
X69873857Y-139835095D01*
X69969095Y-139835095D01*
X70111952Y-139882714D01*
X70683380Y-140454142D01*
X70683380Y-139835095D01*
%TO.C,C17*%
X69810357Y-157091142D02*
X69762738Y-157043523D01*
X69715119Y-156900666D01*
X69715119Y-156805428D01*
X69762738Y-156662571D01*
X69857976Y-156567333D01*
X69953214Y-156519714D01*
X70143690Y-156472095D01*
X70286547Y-156472095D01*
X70477023Y-156519714D01*
X70572261Y-156567333D01*
X70667500Y-156662571D01*
X70715119Y-156805428D01*
X70715119Y-156900666D01*
X70667500Y-157043523D01*
X70619880Y-157091142D01*
X69715119Y-158043523D02*
X69715119Y-157472095D01*
X69715119Y-157757809D02*
X70715119Y-157757809D01*
X70572261Y-157662571D01*
X70477023Y-157567333D01*
X70429404Y-157472095D01*
X70715119Y-158376857D02*
X70715119Y-159043523D01*
X69715119Y-158614952D01*
%TO.C,C18*%
X70715142Y-162186857D02*
X70762761Y-162234476D01*
X70810380Y-162377333D01*
X70810380Y-162472571D01*
X70762761Y-162615428D01*
X70667523Y-162710666D01*
X70572285Y-162758285D01*
X70381809Y-162805904D01*
X70238952Y-162805904D01*
X70048476Y-162758285D01*
X69953238Y-162710666D01*
X69858000Y-162615428D01*
X69810380Y-162472571D01*
X69810380Y-162377333D01*
X69858000Y-162234476D01*
X69905619Y-162186857D01*
X70810380Y-161234476D02*
X70810380Y-161805904D01*
X70810380Y-161520190D02*
X69810380Y-161520190D01*
X69953238Y-161615428D01*
X70048476Y-161710666D01*
X70096095Y-161805904D01*
X70238952Y-160663047D02*
X70191333Y-160758285D01*
X70143714Y-160805904D01*
X70048476Y-160853523D01*
X70000857Y-160853523D01*
X69905619Y-160805904D01*
X69858000Y-160758285D01*
X69810380Y-160663047D01*
X69810380Y-160472571D01*
X69858000Y-160377333D01*
X69905619Y-160329714D01*
X70000857Y-160282095D01*
X70048476Y-160282095D01*
X70143714Y-160329714D01*
X70191333Y-160377333D01*
X70238952Y-160472571D01*
X70238952Y-160663047D01*
X70286571Y-160758285D01*
X70334190Y-160805904D01*
X70429428Y-160853523D01*
X70619904Y-160853523D01*
X70715142Y-160805904D01*
X70762761Y-160758285D01*
X70810380Y-160663047D01*
X70810380Y-160472571D01*
X70762761Y-160377333D01*
X70715142Y-160329714D01*
X70619904Y-160282095D01*
X70429428Y-160282095D01*
X70334190Y-160329714D01*
X70286571Y-160377333D01*
X70238952Y-160472571D01*
%TO.C,R22*%
X70937380Y-154312857D02*
X70461190Y-154646190D01*
X70937380Y-154884285D02*
X69937380Y-154884285D01*
X69937380Y-154503333D01*
X69985000Y-154408095D01*
X70032619Y-154360476D01*
X70127857Y-154312857D01*
X70270714Y-154312857D01*
X70365952Y-154360476D01*
X70413571Y-154408095D01*
X70461190Y-154503333D01*
X70461190Y-154884285D01*
X70032619Y-153931904D02*
X69985000Y-153884285D01*
X69937380Y-153789047D01*
X69937380Y-153550952D01*
X69985000Y-153455714D01*
X70032619Y-153408095D01*
X70127857Y-153360476D01*
X70223095Y-153360476D01*
X70365952Y-153408095D01*
X70937380Y-153979523D01*
X70937380Y-153360476D01*
X70032619Y-152979523D02*
X69985000Y-152931904D01*
X69937380Y-152836666D01*
X69937380Y-152598571D01*
X69985000Y-152503333D01*
X70032619Y-152455714D01*
X70127857Y-152408095D01*
X70223095Y-152408095D01*
X70365952Y-152455714D01*
X70937380Y-153027142D01*
X70937380Y-152408095D01*
%TO.C,R24*%
X73017142Y-165361880D02*
X72683809Y-164885690D01*
X72445714Y-165361880D02*
X72445714Y-164361880D01*
X72826666Y-164361880D01*
X72921904Y-164409500D01*
X72969523Y-164457119D01*
X73017142Y-164552357D01*
X73017142Y-164695214D01*
X72969523Y-164790452D01*
X72921904Y-164838071D01*
X72826666Y-164885690D01*
X72445714Y-164885690D01*
X73398095Y-164457119D02*
X73445714Y-164409500D01*
X73540952Y-164361880D01*
X73779047Y-164361880D01*
X73874285Y-164409500D01*
X73921904Y-164457119D01*
X73969523Y-164552357D01*
X73969523Y-164647595D01*
X73921904Y-164790452D01*
X73350476Y-165361880D01*
X73969523Y-165361880D01*
X74826666Y-164695214D02*
X74826666Y-165361880D01*
X74588571Y-164314261D02*
X74350476Y-165028547D01*
X74969523Y-165028547D01*
%TO.C,C7*%
X78525642Y-146597666D02*
X78573261Y-146645285D01*
X78620880Y-146788142D01*
X78620880Y-146883380D01*
X78573261Y-147026238D01*
X78478023Y-147121476D01*
X78382785Y-147169095D01*
X78192309Y-147216714D01*
X78049452Y-147216714D01*
X77858976Y-147169095D01*
X77763738Y-147121476D01*
X77668500Y-147026238D01*
X77620880Y-146883380D01*
X77620880Y-146788142D01*
X77668500Y-146645285D01*
X77716119Y-146597666D01*
X77620880Y-146264333D02*
X77620880Y-145597666D01*
X78620880Y-146026238D01*
%TO.C,C8*%
X70588142Y-147931166D02*
X70635761Y-147978785D01*
X70683380Y-148121642D01*
X70683380Y-148216880D01*
X70635761Y-148359738D01*
X70540523Y-148454976D01*
X70445285Y-148502595D01*
X70254809Y-148550214D01*
X70111952Y-148550214D01*
X69921476Y-148502595D01*
X69826238Y-148454976D01*
X69731000Y-148359738D01*
X69683380Y-148216880D01*
X69683380Y-148121642D01*
X69731000Y-147978785D01*
X69778619Y-147931166D01*
X70111952Y-147359738D02*
X70064333Y-147454976D01*
X70016714Y-147502595D01*
X69921476Y-147550214D01*
X69873857Y-147550214D01*
X69778619Y-147502595D01*
X69731000Y-147454976D01*
X69683380Y-147359738D01*
X69683380Y-147169261D01*
X69731000Y-147074023D01*
X69778619Y-147026404D01*
X69873857Y-146978785D01*
X69921476Y-146978785D01*
X70016714Y-147026404D01*
X70064333Y-147074023D01*
X70111952Y-147169261D01*
X70111952Y-147359738D01*
X70159571Y-147454976D01*
X70207190Y-147502595D01*
X70302428Y-147550214D01*
X70492904Y-147550214D01*
X70588142Y-147502595D01*
X70635761Y-147454976D01*
X70683380Y-147359738D01*
X70683380Y-147169261D01*
X70635761Y-147074023D01*
X70588142Y-147026404D01*
X70492904Y-146978785D01*
X70302428Y-146978785D01*
X70207190Y-147026404D01*
X70159571Y-147074023D01*
X70111952Y-147169261D01*
%TO.C,C26*%
X87357142Y-160242857D02*
X87404761Y-160290476D01*
X87452380Y-160433333D01*
X87452380Y-160528571D01*
X87404761Y-160671428D01*
X87309523Y-160766666D01*
X87214285Y-160814285D01*
X87023809Y-160861904D01*
X86880952Y-160861904D01*
X86690476Y-160814285D01*
X86595238Y-160766666D01*
X86500000Y-160671428D01*
X86452380Y-160528571D01*
X86452380Y-160433333D01*
X86500000Y-160290476D01*
X86547619Y-160242857D01*
X86547619Y-159861904D02*
X86500000Y-159814285D01*
X86452380Y-159719047D01*
X86452380Y-159480952D01*
X86500000Y-159385714D01*
X86547619Y-159338095D01*
X86642857Y-159290476D01*
X86738095Y-159290476D01*
X86880952Y-159338095D01*
X87452380Y-159909523D01*
X87452380Y-159290476D01*
X86452380Y-158433333D02*
X86452380Y-158623809D01*
X86500000Y-158719047D01*
X86547619Y-158766666D01*
X86690476Y-158861904D01*
X86880952Y-158909523D01*
X87261904Y-158909523D01*
X87357142Y-158861904D01*
X87404761Y-158814285D01*
X87452380Y-158719047D01*
X87452380Y-158528571D01*
X87404761Y-158433333D01*
X87357142Y-158385714D01*
X87261904Y-158338095D01*
X87023809Y-158338095D01*
X86928571Y-158385714D01*
X86880952Y-158433333D01*
X86833333Y-158528571D01*
X86833333Y-158719047D01*
X86880952Y-158814285D01*
X86928571Y-158861904D01*
X87023809Y-158909523D01*
%TD*%
M02*
