M48
; DRILL file {KiCad 5.99.0-unknown-c3175b4~86~ubuntu16.04.1} date St 16. október 2019, 11:56:16 CEST
; FORMAT={-:-/ absolute / metric / decimal}
; #@! TF.CreationDate,2019-10-16T11:56:16+02:00
; #@! TF.GenerationSoftware,Kicad,Pcbnew,5.99.0-unknown-c3175b4~86~ubuntu16.04.1
FMAT,2
METRIC
T1C0.400
T2C1.000
T3C1.016
%
G90
G05
T1
X71.247Y-150.431
X71.628Y-154.368
X71.945Y-165.1
X73.66Y-161.862
X75.12Y-164.45
X76.349Y-156.887
X76.881Y-154.051
X77.279Y-143.129
X85.534Y-149.86
X85.915Y-160.972
X86.65Y-169.362
X86.8Y-163.6
X87.503Y-149.923
X89.169Y-165.034
X89.408Y-167.132
X92.062Y-167.371
X93.383Y-171.681
X94.869Y-153.67
X96.097Y-141.139
X96.205Y-168.384
X97.091Y-170.624
X97.409Y-146.431
X97.472Y-164.592
X97.492Y-163.021
X98.615Y-161.163
X99.314Y-147.511
X100.52Y-144.272
X100.584Y-148.082
X100.584Y-165.417
X101.674Y-156.246
X101.755Y-161.76
X103.111Y-158.686
X103.188Y-148.463
X103.188Y-165.481
X103.693Y-151.996
X103.775Y-159.729
X104.013Y-157.911
X104.973Y-153.246
X105.266Y-147.454
X106.421Y-153.408
X106.743Y-170.688
X107.141Y-162.496
X107.2Y-153.472
X108.458Y-154.305
X108.521Y-144.272
X109.347Y-145.669
T2
X71.669Y-138.714
X74.209Y-138.714
X76.749Y-138.714
X79.289Y-138.714
X81.829Y-138.714
X84.369Y-138.714
X86.909Y-138.714
X89.449Y-138.714
X91.989Y-138.714
X94.529Y-138.714
X97.069Y-138.714
X99.609Y-138.714
X104.739Y-138.758
X107.279Y-138.758
T3
X91.948Y-151.828
X91.948Y-154.368
X91.948Y-156.909
X91.948Y-159.448
X92.0Y-143.12
X92.0Y-145.66
X92.0Y-148.2
T0
M30
