<?xml version="1.0" standalone="no"?>
 <!DOCTYPE svg PUBLIC "-//W3C//DTD SVG 1.1//EN" 
 "http://www.w3.org/Graphics/SVG/1.1/DTD/svg11.dtd"> 
<svg xmlns="http://www.w3.org/2000/svg" version="1.1" 
    width="4.26466cm" height="3.90906cm" viewBox="0 0 16790 15390 ">
<title>SVG Picture created as atmegax8_with_bluetooth-F_SilkS.svg date 2020/01/22 14:37:50 </title>
  <desc>Picture generated by PCBNEW </desc>
<g style="fill:#000000; fill-opacity:1;stroke:#000000; stroke-opacity:1;
stroke-linecap:round; stroke-linejoin:round; "
 transform="translate(0 0) scale(1 1)">
</g>
<g style="fill:#000000; fill-opacity:0.0; 
stroke:#000000; stroke-width:-0.000393701; stroke-opacity:1; 
stroke-linecap:round; stroke-linejoin:round;">
</g>
<g style="fill:#000000; fill-opacity:0.0; 
stroke:#000000; stroke-width:39.3701; stroke-opacity:1; 
stroke-linecap:round; stroke-linejoin:round;">
<path d="M804 1907
L1979 2007
" />
<path d="M929 7282
L2079 7507
" />
</g>
<g style="fill:#000000; fill-opacity:0.0; 
stroke:#000000; stroke-width:78.7402; stroke-opacity:1; 
stroke-linecap:round; stroke-linejoin:round;">
<text x="13004" y="13658"
textLength="4048.2" font-size="800" lengthAdjust="spacingAndGlyphs"
text-anchor="middle" opacity="0">BK8000L</text>
<g class="stroked-text"><desc>BK8000L</desc>
<path d="M11361 13315
L11446 13343
L11475 13372
L11504 13429
L11504 13515
L11475 13572
L11446 13600
L11389 13629
L11161 13629
L11161 13029
L11361 13029
L11418 13057
L11446 13086
L11475 13143
L11475 13200
L11446 13257
L11418 13286
L11361 13315
L11161 13315
" />
<path d="M11761 13629
L11761 13029
" />
<path d="M12104 13629
L11846 13286
" />
<path d="M12104 13029
L11761 13372
" />
<path d="M12446 13286
L12389 13257
L12361 13229
L12332 13172
L12332 13143
L12361 13086
L12389 13057
L12446 13029
L12561 13029
L12618 13057
L12646 13086
L12675 13143
L12675 13172
L12646 13229
L12618 13257
L12561 13286
L12446 13286
L12389 13315
L12361 13343
L12332 13400
L12332 13515
L12361 13572
L12389 13600
L12446 13629
L12561 13629
L12618 13600
L12646 13572
L12675 13515
L12675 13400
L12646 13343
L12618 13315
L12561 13286
" />
<path d="M13046 13029
L13104 13029
L13161 13057
L13189 13086
L13218 13143
L13246 13257
L13246 13400
L13218 13515
L13189 13572
L13161 13600
L13104 13629
L13046 13629
L12989 13600
L12961 13572
L12932 13515
L12904 13400
L12904 13257
L12932 13143
L12961 13086
L12989 13057
L13046 13029
" />
<path d="M13618 13029
L13675 13029
L13732 13057
L13761 13086
L13789 13143
L13818 13257
L13818 13400
L13789 13515
L13761 13572
L13732 13600
L13675 13629
L13618 13629
L13561 13600
L13532 13572
L13504 13515
L13475 13400
L13475 13257
L13504 13143
L13532 13086
L13561 13057
L13618 13029
" />
<path d="M14189 13029
L14246 13029
L14304 13057
L14332 13086
L14361 13143
L14389 13257
L14389 13400
L14361 13515
L14332 13572
L14304 13600
L14246 13629
L14189 13629
L14132 13600
L14104 13572
L14075 13515
L14046 13400
L14046 13257
L14075 13143
L14104 13086
L14132 13057
L14189 13029
" />
<path d="M14932 13629
L14646 13629
L14646 13029
" />
</g></g>
<g style="fill:#000000; fill-opacity:0.0; 
stroke:#000000; stroke-width:47.2441; stroke-opacity:1; 
stroke-linecap:round; stroke-linejoin:round;">
<path d="M5573 7040
L3684 7040
" />
<path d="M3684 7040
L3684 10819
" />
<path d="M5573 7040
L5573 10819
" />
<path d="M5573 2190
L3684 2190
" />
<path d="M3684 2190
L3684 5969
" />
<path d="M5573 2190
L5573 5969
" />
</g>
<g style="fill:#000000; fill-opacity:0.0; 
stroke:#000000; stroke-width:59.0551; stroke-opacity:1; 
stroke-linecap:round; stroke-linejoin:round;">
<path d="M3329 7207
L3329 6007
" />
<path d="M1879 6007
L1129 6007
" />
<path d="M1129 6007
L1129 7207
" />
<path d="M1129 7207
L1879 7207
" />
<path d="M2529 7207
L3329 7207
" />
<path d="M3250 7207
L3250 6007
" />
<path d="M3329 6007
L2529 6007
" />
<path d="M8518 5922
L9739 5922
" />
<path d="M8518 6532
L8518 5922
" />
<path d="M9629 7032
L8629 7032
" />
<path d="M8629 10032
L9629 10032
" />
<path d="M9739 5922
L9739 6532
" />
<path d="M9629 7032
L9629 10032
" />
<path d="M8629 7032
L8629 10032
" />
<path d="M15615 7549
L15615 7037
" />
<path d="M15615 7037
L10300 7037
" />
<path d="M10300 7037
L10300 7549
" />
<path d="M1455 12904
L3503 12904
" />
<path d="M3503 11960
L1455 11960
" />
<path d="M668 11527
L668 11960
" />
<path d="M432 11724
L904 11724
" />
<path d="M906 11960
L906 12904
" />
<path d="M3233 8272
L3233 8745
" />
<path d="M2544 8745
L2544 8272
" />
<path d="M3234 10224
L3234 10696
" />
<path d="M2545 10696
L2545 10224
" />
</g>
<g style="fill:#000000; fill-opacity:0.0; 
stroke:#000000; stroke-width:47.2441; stroke-opacity:1; 
stroke-linecap:round; stroke-linejoin:round;">
<path d="M6477 2976
L6477 3764
" />
<path d="M7280 3764
L7280 2976
" />
<path d="M7377 2964
L7377 3751
" />
<path d="M8180 3751
L8180 2964
" />
</g>
<g style="fill:#000000; fill-opacity:0.0; 
stroke:#000000; stroke-width:59.0551; stroke-opacity:1; 
stroke-linecap:round; stroke-linejoin:round;">
<path d="M9759 5714
L8539 5714
" />
<path d="M9759 5104
L9759 5714
" />
<path d="M8649 4604
L9649 4604
" />
<path d="M8539 5714
L8539 5104
" />
<path d="M8649 2604
L8649 4604
" />
<path d="M9649 2604
L8649 2604
" />
<path d="M9649 4604
L9649 2604
" />
<path d="M12396 6267
L12396 5991
" />
<path d="M12475 6267
L12396 6267
" />
<path d="M13577 6267
L13479 6267
" />
<path d="M13577 5991
L13577 6267
" />
<path d="M12475 6267
L12494 6267
" />
</g>
<g style="fill:#000000; fill-opacity:0.0; 
stroke:#000000; stroke-width:47.2441; stroke-opacity:1; 
stroke-linecap:round; stroke-linejoin:round;">
<path d="M13641 1910
L13641 1386
" />
<path d="M14165 1910
L13641 1910
" />
<path d="M14665 1910
L14665 863
" />
<path d="M14665 863
L15688 863
" />
<path d="M14665 1910
L15688 1910
" />
<path d="M15688 1910
L15688 863
" />
<path d="M6782 5617
L7175 5617
" />
<path d="M7175 4948
L6782 4948
" />
</g>
<g style="fill:#000000; fill-opacity:0.0; 
stroke:#000000; stroke-width:59.0551; stroke-opacity:1; 
stroke-linecap:round; stroke-linejoin:round;">
<path d="M13841 6258
L13841 5785
" />
<path d="M14530 5785
L14530 6258
" />
<path d="M14745 6242
L14745 5769
" />
<path d="M15434 5769
L15434 6242
" />
<path d="M12205 5680
L12205 6153
" />
<path d="M11516 6153
L11516 5680
" />
<path d="M2365 5739
L2758 5739
" />
<path d="M2758 5070
L2365 5070
" />
<path d="M1473 2710
L1473 3182
" />
<path d="M784 3182
L784 2710
" />
<path d="M3226 2714
L3226 3187
" />
<path d="M2537 3187
L2537 2714
" />
<path d="M2373 2711
L2373 3184
" />
<path d="M1684 3184
L1684 2711
" />
<path d="M1563 8658
L1563 8264
" />
<path d="M894 8264
L894 8658
" />
<path d="M898 10321
L898 10715
" />
<path d="M1567 10715
L1567 10321
" />
<path d="M2398 8265
L2398 8737
" />
<path d="M1709 8737
L1709 8265
" />
<path d="M1723 10701
L1723 10229
" />
<path d="M2412 10229
L2412 10701
" />
<path d="M2359 4741
L2752 4741
" />
<path d="M2752 4072
L2359 4072
" />
<path d="M1459 5138
L1459 4745
" />
<path d="M790 4745
L790 5138
" />
</g>
<g style="fill:#000000; fill-opacity:0.0; 
stroke:#000000; stroke-width:47.2441; stroke-opacity:1; 
stroke-linecap:round; stroke-linejoin:round;">
<path d="M7476 9395
L7476 9789
" />
<path d="M8145 9789
L8145 9395
" />
</g>
<g style="fill:#000000; fill-opacity:0.0; 
stroke:#000000; stroke-width:59.0551; stroke-opacity:1; 
stroke-linecap:round; stroke-linejoin:round;">
<g transform="rotate(-90 4654 9307.99)">
<text x="4654" y="9504.84"
textLength="1245.97" font-size="524.934" lengthAdjust="spacingAndGlyphs"
text-anchor="middle" opacity="0">C11</text>
</g>
<g class="stroked-text"><desc>C11</desc>
<path d="M4794 9561
L4813 9579
L4832 9636
L4832 9673
L4813 9729
L4775 9767
L4738 9786
L4663 9804
L4607 9804
L4532 9786
L4494 9767
L4457 9729
L4438 9673
L4438 9636
L4457 9579
L4475 9561
" />
<path d="M4832 9186
L4832 9411
" />
<path d="M4832 9298
L4438 9298
L4494 9336
L4532 9373
L4550 9411
" />
<path d="M4832 8811
L4832 9036
" />
<path d="M4832 8923
L4438 8923
L4494 8961
L4532 8998
L4550 9036
" />
</g><g transform="rotate(-90 4704 4482.99)">
<text x="4704" y="4679.84"
textLength="1220.38" font-size="524.934" lengthAdjust="spacingAndGlyphs"
text-anchor="middle" opacity="0">C10</text>
</g>
<g class="stroked-text"><desc>C10</desc>
<path d="M4844 4736
L4863 4754
L4882 4811
L4882 4848
L4863 4904
L4825 4942
L4788 4961
L4713 4979
L4657 4979
L4582 4961
L4544 4942
L4507 4904
L4488 4848
L4488 4811
L4507 4754
L4525 4736
" />
<path d="M4882 4361
L4882 4586
" />
<path d="M4882 4473
L4488 4473
L4544 4511
L4582 4548
L4600 4586
" />
<path d="M4488 4117
L4488 4079
L4507 4042
L4525 4023
L4563 4004
L4638 3986
L4732 3986
L4807 4004
L4844 4023
L4863 4042
L4882 4079
L4882 4117
L4863 4154
L4844 4173
L4807 4192
L4732 4211
L4638 4211
L4563 4192
L4525 4173
L4507 4154
L4488 4117
" />
</g><g transform="rotate(-90 2223 6559.99)">
<text x="2223" y="6756.84"
textLength="770.435" font-size="524.934" lengthAdjust="spacingAndGlyphs"
text-anchor="middle" opacity="0">L1</text>
</g>
<g class="stroked-text"><desc>L1</desc>
<path d="M2401 6625
L2401 6813
L2007 6813
" />
<path d="M2401 6288
L2401 6513
" />
<path d="M2401 6400
L2007 6400
L2063 6438
L2101 6475
L2119 6513
" />
</g><text x="9129" y="4721.96"
textLength="845.426" font-size="524.934" lengthAdjust="spacingAndGlyphs"
text-anchor="middle" opacity="0">P3</text>
<g class="stroked-text"><desc>P3</desc>
<path d="M8838 4703
L8838 4309
L8988 4309
L9025 4328
L9044 4347
L9063 4384
L9063 4440
L9044 4478
L9025 4496
L8988 4515
L8838 4515
" />
<path d="M9194 4309
L9438 4309
L9307 4459
L9363 4459
L9400 4478
L9419 4496
L9438 4534
L9438 4628
L9419 4665
L9400 4684
L9363 4703
L9250 4703
L9213 4684
L9194 4665
" />
</g><text x="2429" y="13379.8"
textLength="1220.38" font-size="524.934" lengthAdjust="spacingAndGlyphs"
text-anchor="middle" opacity="0">C13</text>
<g class="stroked-text"><desc>C13</desc>
<path d="M2175 13323
L2157 13342
L2100 13361
L2063 13361
L2007 13342
L1969 13304
L1950 13267
L1932 13192
L1932 13136
L1950 13061
L1969 13023
L2007 12986
L2063 12967
L2100 12967
L2157 12986
L2175 13004
" />
<path d="M2550 13361
L2325 13361
" />
<path d="M2438 13361
L2438 12967
L2400 13023
L2363 13061
L2325 13079
" />
<path d="M2682 12967
L2925 12967
L2794 13117
L2850 13117
L2888 13136
L2907 13154
L2925 13192
L2925 13286
L2907 13323
L2888 13342
L2850 13361
L2738 13361
L2700 13342
L2682 13323
" />
</g><text x="668" y="11920.8"
textLength="564.211" font-size="524.934" lengthAdjust="spacingAndGlyphs"
text-anchor="middle" opacity="0">+</text>
<g class="stroked-text"><desc>+</desc>
<path d="M518 11752
L817 11752
" />
<path d="M668 11902
L668 11602
" />
</g><g transform="rotate(-90 3479 9282.99)">
<text x="3479" y="9479.84"
textLength="1220.38" font-size="524.934" lengthAdjust="spacingAndGlyphs"
text-anchor="middle" opacity="0">R16</text>
</g>
<g class="stroked-text"><desc>R16</desc>
<path d="M3657 9536
L3469 9667
" />
<path d="M3657 9761
L3263 9761
L3263 9611
L3282 9573
L3300 9554
L3338 9536
L3394 9536
L3432 9554
L3450 9573
L3469 9611
L3469 9761
" />
<path d="M3657 9161
L3657 9386
" />
<path d="M3657 9273
L3263 9273
L3319 9311
L3357 9348
L3375 9386
" />
<path d="M3263 8823
L3263 8898
L3282 8936
L3300 8954
L3357 8992
L3432 9011
L3582 9011
L3619 8992
L3638 8973
L3657 8936
L3657 8861
L3638 8823
L3619 8804
L3582 8786
L3488 8786
L3450 8804
L3432 8823
L3413 8861
L3413 8936
L3432 8973
L3450 8992
L3488 9011
" />
</g><text x="3354" y="11929.8"
textLength="1220.38" font-size="524.934" lengthAdjust="spacingAndGlyphs"
text-anchor="middle" opacity="0">R17</text>
<g class="stroked-text"><desc>R17</desc>
<path d="M3100 11911
L2969 11723
" />
<path d="M2875 11911
L2875 11517
L3025 11517
L3063 11536
L3082 11554
L3100 11592
L3100 11648
L3082 11686
L3063 11704
L3025 11723
L2875 11723
" />
<path d="M3475 11911
L3250 11911
" />
<path d="M3363 11911
L3363 11517
L3325 11573
L3288 11611
L3250 11629
" />
<path d="M3607 11517
L3869 11517
L3700 11911
" />
</g><g transform="rotate(-90 6204 3357.99)">
<text x="6204" y="3554.84"
textLength="1220.38" font-size="524.934" lengthAdjust="spacingAndGlyphs"
text-anchor="middle" opacity="0">C23</text>
</g>
<g class="stroked-text"><desc>C23</desc>
<path d="M6344 3611
L6363 3629
L6382 3686
L6382 3723
L6363 3779
L6325 3817
L6288 3836
L6213 3854
L6157 3854
L6082 3836
L6044 3817
L6007 3779
L5988 3723
L5988 3686
L6007 3629
L6025 3611
" />
<path d="M6025 3461
L6007 3442
L5988 3404
L5988 3311
L6007 3273
L6025 3254
L6063 3236
L6100 3236
L6157 3254
L6382 3479
L6382 3236
" />
<path d="M5988 3104
L5988 2861
L6138 2992
L6138 2936
L6157 2898
L6175 2879
L6213 2861
L6307 2861
L6344 2879
L6363 2898
L6382 2936
L6382 3048
L6363 3086
L6344 3104
" />
</g><g transform="rotate(-90 8479 2457.99)">
<text x="8479" y="2654.84"
textLength="1220.38" font-size="524.934" lengthAdjust="spacingAndGlyphs"
text-anchor="middle" opacity="0">C27</text>
</g>
<g class="stroked-text"><desc>C27</desc>
<path d="M8619 2711
L8638 2729
L8657 2786
L8657 2823
L8638 2879
L8600 2917
L8563 2936
L8488 2954
L8432 2954
L8357 2936
L8319 2917
L8282 2879
L8263 2823
L8263 2786
L8282 2729
L8300 2711
" />
<path d="M8300 2561
L8282 2542
L8263 2504
L8263 2411
L8282 2373
L8300 2354
L8338 2336
L8375 2336
L8432 2354
L8657 2579
L8657 2336
" />
<path d="M8263 2204
L8263 1942
L8657 2111
" />
</g><g transform="rotate(-90 9654 2207.99)">
<text x="9654" y="2404.84"
textLength="845.426" font-size="524.934" lengthAdjust="spacingAndGlyphs"
text-anchor="middle" opacity="0">P5</text>
</g>
<g class="stroked-text"><desc>P5</desc>
<path d="M9832 2498
L9438 2498
L9438 2348
L9457 2311
L9475 2292
L9513 2273
L9569 2273
L9607 2292
L9625 2311
L9644 2348
L9644 2498
" />
<path d="M9438 1917
L9438 2104
L9625 2123
L9607 2104
L9588 2067
L9588 1973
L9607 1936
L9625 1917
L9663 1898
L9757 1898
L9794 1917
L9813 1936
L9832 1973
L9832 2067
L9813 2104
L9794 2123
" />
</g><text x="12979" y="5004.84"
textLength="864.173" font-size="524.934" lengthAdjust="spacingAndGlyphs"
text-anchor="middle" opacity="0">U5</text>
<g class="stroked-text"><desc>U5</desc>
<path d="M12679 4592
L12679 4911
L12697 4948
L12716 4967
L12754 4986
L12829 4986
L12866 4967
L12885 4948
L12904 4911
L12904 4592
" />
<path d="M13278 4592
L13091 4592
L13072 4779
L13091 4761
L13128 4742
L13222 4742
L13260 4761
L13278 4779
L13297 4817
L13297 4911
L13278 4948
L13260 4967
L13222 4986
L13128 4986
L13091 4967
L13072 4948
" />
</g><g transform="rotate(-90 13247.7 1386.99)">
<text x="13247.7" y="1583.84"
textLength="845.426" font-size="524.934" lengthAdjust="spacingAndGlyphs"
text-anchor="middle" opacity="0">P4</text>
</g>
<g class="stroked-text"><desc>P4</desc>
<path d="M13425 1677
L13032 1677
L13032 1527
L13050 1490
L13069 1471
L13107 1452
L13163 1452
L13200 1471
L13219 1490
L13238 1527
L13238 1677
" />
<path d="M13163 1115
L13425 1115
" />
<path d="M13013 1208
L13294 1302
L13294 1058
" />
</g><text x="7196.13" y="6229.84"
textLength="1220.38" font-size="524.934" lengthAdjust="spacingAndGlyphs"
text-anchor="middle" opacity="0">C28</text>
<g class="stroked-text"><desc>C28</desc>
<path d="M6943 6173
L6924 6192
L6868 6211
L6830 6211
L6774 6192
L6736 6154
L6718 6117
L6699 6042
L6699 5986
L6718 5911
L6736 5873
L6774 5836
L6830 5817
L6868 5817
L6924 5836
L6943 5854
" />
<path d="M7093 5854
L7111 5836
L7149 5817
L7242 5817
L7280 5836
L7299 5854
L7317 5892
L7317 5929
L7299 5986
L7074 6211
L7317 6211
" />
<path d="M7542 5986
L7505 5967
L7486 5948
L7467 5911
L7467 5892
L7486 5854
L7505 5836
L7542 5817
L7617 5817
L7655 5836
L7674 5854
L7692 5892
L7692 5911
L7674 5948
L7655 5967
L7617 5986
L7542 5986
L7505 6004
L7486 6023
L7467 6061
L7467 6136
L7486 6173
L7505 6192
L7542 6211
L7617 6211
L7655 6192
L7674 6173
L7692 6136
L7692 6061
L7674 6023
L7655 6004
L7617 5986
" />
</g><g transform="rotate(-90 14054 4507.99)">
<text x="14054" y="4704.84"
textLength="1220.38" font-size="524.934" lengthAdjust="spacingAndGlyphs"
text-anchor="middle" opacity="0">R14</text>
</g>
<g class="stroked-text"><desc>R14</desc>
<path d="M14232 4761
L14044 4892
" />
<path d="M14232 4986
L13838 4986
L13838 4836
L13857 4798
L13875 4779
L13913 4761
L13969 4761
L14007 4779
L14025 4798
L14044 4836
L14044 4986
" />
<path d="M14232 4386
L14232 4611
" />
<path d="M14232 4498
L13838 4498
L13894 4536
L13932 4573
L13950 4611
" />
<path d="M13969 4048
L14232 4048
" />
<path d="M13819 4142
L14100 4236
L14100 3992
" />
</g><g transform="rotate(-90 15254 4657.99)">
<text x="15254" y="4854.84"
textLength="845.426" font-size="524.934" lengthAdjust="spacingAndGlyphs"
text-anchor="middle" opacity="0">R1</text>
</g>
<g class="stroked-text"><desc>R1</desc>
<path d="M15432 4723
L15244 4854
" />
<path d="M15432 4948
L15038 4948
L15038 4798
L15057 4761
L15075 4742
L15113 4723
L15169 4723
L15207 4742
L15225 4761
L15244 4798
L15244 4948
" />
<path d="M15432 4348
L15432 4573
" />
<path d="M15432 4461
L15038 4461
L15094 4498
L15132 4536
L15150 4573
" />
</g><text x="11879" y="4804.84"
textLength="845.426" font-size="524.934" lengthAdjust="spacingAndGlyphs"
text-anchor="middle" opacity="0">R4</text>
<g class="stroked-text"><desc>R4</desc>
<path d="M11813 4786
L11682 4598
" />
<path d="M11588 4786
L11588 4392
L11738 4392
L11775 4411
L11794 4429
L11813 4467
L11813 4523
L11794 4561
L11775 4579
L11738 4598
L11588 4598
" />
<path d="M12150 4523
L12150 4786
" />
<path d="M12057 4373
L11963 4654
L12207 4654
" />
</g><g transform="rotate(-90 3729 5482.99)">
<text x="3729" y="5679.84"
textLength="1220.38" font-size="524.934" lengthAdjust="spacingAndGlyphs"
text-anchor="middle" opacity="0">C12</text>
</g>
<g class="stroked-text"><desc>C12</desc>
<path d="M3869 5736
L3888 5754
L3907 5811
L3907 5848
L3888 5904
L3850 5942
L3813 5961
L3738 5979
L3682 5979
L3607 5961
L3569 5942
L3532 5904
L3513 5848
L3513 5811
L3532 5754
L3550 5736
" />
<path d="M3907 5361
L3907 5586
" />
<path d="M3907 5473
L3513 5473
L3569 5511
L3607 5548
L3625 5586
" />
<path d="M3550 5211
L3532 5192
L3513 5154
L3513 5061
L3532 5023
L3550 5004
L3588 4986
L3625 4986
L3682 5004
L3907 5229
L3907 4986
" />
</g><g transform="rotate(-90 554 3682.99)">
<text x="554" y="3879.84"
textLength="1220.38" font-size="524.934" lengthAdjust="spacingAndGlyphs"
text-anchor="middle" opacity="0">R10</text>
</g>
<g class="stroked-text"><desc>R10</desc>
<path d="M732 3936
L544 4067
" />
<path d="M732 4161
L338 4161
L338 4011
L357 3973
L375 3954
L413 3936
L469 3936
L507 3954
L525 3973
L544 4011
L544 4161
" />
<path d="M732 3561
L732 3786
" />
<path d="M732 3673
L338 3673
L394 3711
L432 3748
L450 3786
" />
<path d="M338 3317
L338 3279
L357 3242
L375 3223
L413 3204
L488 3186
L582 3186
L657 3204
L694 3223
L713 3242
L732 3279
L732 3317
L713 3354
L694 3373
L657 3392
L582 3411
L488 3411
L413 3392
L375 3373
L357 3354
L338 3317
" />
</g><g transform="rotate(-90 3454 2557.99)">
<text x="3454" y="2754.84"
textLength="1220.38" font-size="524.934" lengthAdjust="spacingAndGlyphs"
text-anchor="middle" opacity="0">R11</text>
</g>
<g class="stroked-text"><desc>R11</desc>
<path d="M3632 2811
L3444 2942
" />
<path d="M3632 3036
L3238 3036
L3238 2886
L3257 2848
L3275 2829
L3313 2811
L3369 2811
L3407 2829
L3425 2848
L3444 2886
L3444 3036
" />
<path d="M3632 2436
L3632 2661
" />
<path d="M3632 2548
L3238 2548
L3294 2586
L3332 2623
L3350 2661
" />
<path d="M3632 2061
L3632 2286
" />
<path d="M3632 2173
L3238 2173
L3294 2211
L3332 2248
L3350 2286
" />
</g><g transform="rotate(-90 579 2307.99)">
<text x="579" y="2504.84"
textLength="1220.38" font-size="524.934" lengthAdjust="spacingAndGlyphs"
text-anchor="middle" opacity="0">R12</text>
</g>
<g class="stroked-text"><desc>R12</desc>
<path d="M757 2561
L569 2692
" />
<path d="M757 2786
L363 2786
L363 2636
L382 2598
L400 2579
L438 2561
L494 2561
L532 2579
L550 2598
L569 2636
L569 2786
" />
<path d="M757 2186
L757 2411
" />
<path d="M757 2298
L363 2298
L419 2336
L457 2373
L475 2411
" />
<path d="M400 2036
L382 2017
L363 1979
L363 1886
L382 1848
L400 1829
L438 1811
L475 1811
L532 1829
L757 2054
L757 1811
" />
</g><g transform="rotate(90 554 8857.99)">
<text x="554" y="9054.84"
textLength="1220.38" font-size="524.934" lengthAdjust="spacingAndGlyphs"
text-anchor="middle" opacity="0">C17</text>
</g>
<g class="stroked-text"><desc>C17</desc>
<path d="M413 8604
L394 8586
L375 8529
L375 8492
L394 8436
L432 8398
L469 8379
L544 8361
L600 8361
L675 8379
L713 8398
L750 8436
L769 8492
L769 8529
L750 8586
L732 8604
" />
<path d="M375 8979
L375 8754
" />
<path d="M375 8867
L769 8867
L713 8829
L675 8792
L657 8754
" />
<path d="M769 9111
L769 9373
L375 9204
" />
</g><g transform="rotate(-90 629 10358)">
<text x="629" y="10554.8"
textLength="1220.38" font-size="524.934" lengthAdjust="spacingAndGlyphs"
text-anchor="middle" opacity="0">C18</text>
</g>
<g class="stroked-text"><desc>C18</desc>
<path d="M769 10611
L788 10629
L807 10686
L807 10723
L788 10779
L750 10817
L713 10836
L638 10854
L582 10854
L507 10836
L469 10817
L432 10779
L413 10723
L413 10686
L432 10629
L450 10611
" />
<path d="M807 10236
L807 10461
" />
<path d="M807 10348
L413 10348
L469 10386
L507 10423
L525 10461
" />
<path d="M582 10011
L563 10048
L544 10067
L507 10086
L488 10086
L450 10067
L432 10048
L413 10011
L413 9936
L432 9898
L450 9879
L488 9861
L507 9861
L544 9879
L563 9898
L582 9936
L582 10011
L600 10048
L619 10067
L657 10086
L732 10086
L769 10067
L788 10048
L807 10011
L807 9936
L788 9898
L769 9879
L732 9861
L657 9861
L619 9879
L600 9898
L582 9936
" />
</g><g transform="rotate(-90 679 7257.99)">
<text x="679" y="7454.84"
textLength="1220.38" font-size="524.934" lengthAdjust="spacingAndGlyphs"
text-anchor="middle" opacity="0">R22</text>
</g>
<g class="stroked-text"><desc>R22</desc>
<path d="M857 7511
L669 7642
" />
<path d="M857 7736
L463 7736
L463 7586
L482 7548
L500 7529
L538 7511
L594 7511
L632 7529
L650 7548
L669 7586
L669 7736
" />
<path d="M500 7361
L482 7342
L463 7304
L463 7211
L482 7173
L500 7154
L538 7136
L575 7136
L632 7154
L857 7379
L857 7136
" />
<path d="M500 6986
L482 6967
L463 6929
L463 6836
L482 6798
L500 6779
L538 6761
L575 6761
L632 6779
L857 7004
L857 6761
" />
</g><text x="1929" y="11879.8"
textLength="1220.38" font-size="524.934" lengthAdjust="spacingAndGlyphs"
text-anchor="middle" opacity="0">R24</text>
<g class="stroked-text"><desc>R24</desc>
<path d="M1675 11861
L1544 11673
" />
<path d="M1450 11861
L1450 11467
L1600 11467
L1638 11486
L1657 11504
L1675 11542
L1675 11598
L1657 11636
L1638 11654
L1600 11673
L1450 11673
" />
<path d="M1825 11504
L1844 11486
L1882 11467
L1975 11467
L2013 11486
L2032 11504
L2050 11542
L2050 11579
L2032 11636
L1807 11861
L2050 11861
" />
<path d="M2388 11598
L2388 11861
" />
<path d="M2294 11448
L2200 11729
L2444 11729
" />
</g><g transform="rotate(-90 3704 4407.99)">
<text x="3704" y="4604.84"
textLength="845.426" font-size="524.934" lengthAdjust="spacingAndGlyphs"
text-anchor="middle" opacity="0">C7</text>
</g>
<g class="stroked-text"><desc>C7</desc>
<path d="M3844 4473
L3863 4492
L3882 4548
L3882 4586
L3863 4642
L3825 4679
L3788 4698
L3713 4717
L3657 4717
L3582 4698
L3544 4679
L3507 4642
L3488 4586
L3488 4548
L3507 4492
L3525 4473
" />
<path d="M3488 4342
L3488 4079
L3882 4248
" />
</g><g transform="rotate(-90 579 4932.99)">
<text x="579" y="5129.84"
textLength="845.426" font-size="524.934" lengthAdjust="spacingAndGlyphs"
text-anchor="middle" opacity="0">C8</text>
</g>
<g class="stroked-text"><desc>C8</desc>
<path d="M719 4998
L738 5017
L757 5073
L757 5111
L738 5167
L700 5204
L663 5223
L588 5242
L532 5242
L457 5223
L419 5204
L382 5167
L363 5111
L363 5073
L382 5017
L400 4998
" />
<path d="M532 4773
L513 4811
L494 4829
L457 4848
L438 4848
L400 4829
L382 4811
L363 4773
L363 4698
L382 4661
L400 4642
L438 4623
L457 4623
L494 4642
L513 4661
L532 4698
L532 4773
L550 4811
L569 4829
L607 4848
L682 4848
L719 4829
L738 4811
L757 4773
L757 4698
L738 4661
L719 4642
L682 4623
L607 4623
L569 4642
L550 4661
L532 4698
" />
</g><g transform="rotate(-90 7180.97 9592.63)">
<text x="7180.97" y="9789.48"
textLength="1220.38" font-size="524.934" lengthAdjust="spacingAndGlyphs"
text-anchor="middle" opacity="0">C26</text>
</g>
<g class="stroked-text"><desc>C26</desc>
<path d="M7321 9845
L7340 9864
L7359 9920
L7359 9958
L7340 10014
L7302 10051
L7265 10070
L7190 10089
L7134 10089
L7059 10070
L7021 10051
L6984 10014
L6965 9958
L6965 9920
L6984 9864
L7002 9845
" />
<path d="M7002 9695
L6984 9676
L6965 9639
L6965 9545
L6984 9508
L7002 9489
L7040 9470
L7077 9470
L7134 9489
L7359 9714
L7359 9470
" />
<path d="M6965 9133
L6965 9208
L6984 9245
L7002 9264
L7059 9302
L7134 9320
L7284 9320
L7321 9302
L7340 9283
L7359 9245
L7359 9170
L7340 9133
L7321 9114
L7284 9095
L7190 9095
L7152 9114
L7134 9133
L7115 9170
L7115 9245
L7134 9283
L7152 9302
L7190 9320
" />
</g><g >
</g>
</g>
<g style="fill:#000000; fill-opacity:0.0; 
stroke:#000000; stroke-width:59.0551; stroke-opacity:1; 
stroke-linecap:round; stroke-linejoin:round;">
</g>
<g style="fill:#000000; fill-opacity:0.0; 
stroke:#000000; stroke-width:150; stroke-opacity:1; 
stroke-linecap:round; stroke-linejoin:round;">
<path d="M16529 14757
L16529 557
" />
<path d="M229 14757
L16529 14757
" />
<path d="M229 557
L229 14757
" />
<path d="M16529 557
L229 557
" />
<g >
</g>
<g >
</g>
<g >
</g>
<g >
</g>
<g >
</g>
<g >
</g>
<g >
</g>
<g >
</g>
<g >
</g>
<g >
</g>
<g >
</g>
<g >
</g>
<g >
</g>
<g >
</g>
<g >
</g>
<g >
</g>
<g >
</g>
<g >
</g>
<g >
</g>
<g >
</g>
<g >
</g>
<g >
</g>
<g >
</g>
<g >
</g>
<g >
</g>
<g >
</g>
<g >
</g>
<g >
</g>
<g >
</g>
<g >
</g>
<g >
</g>
<g >
</g>
<g >
</g>
<g >
</g>
<g >
</g>
<g >
</g>
<g >
</g>
<g >
</g>
<g >
</g>
<g >
</g>
<g >
</g>
<g >
</g>
<g >
</g>
<g >
</g>
<g >
</g>
<g >
</g>
<g >
</g>
<g >
</g>
<g >
</g>
<g >
</g>
<g >
</g>
<g >
</g>
<g >
</g>
<g >
</g>
<g >
</g>
<g >
</g>
<g >
</g>
<g >
</g>
<g >
</g>
<g >
</g>
<g >
</g>
<g >
</g>
<g >
</g>
<g >
</g>
<g >
</g>
<g >
</g>
<g >
</g>
<g >
</g>
<g >
</g>
<g >
</g>
<g >
</g>
<g >
</g>
<g >
</g>
<g >
</g>
<g >
</g>
</g> 
</svg>
