<?xml version="1.0" standalone="no"?>
 <!DOCTYPE svg PUBLIC "-//W3C//DTD SVG 1.1//EN" 
 "http://www.w3.org/Graphics/SVG/1.1/DTD/svg11.dtd"> 
<svg xmlns="http://www.w3.org/2000/svg" version="1.1" 
    width="4.26466cm" height="3.90906cm" viewBox="0 0 16790 15390 ">
<title>SVG Picture created as atmegax8_with_bluetooth-B_SilkS.svg date 2020/01/22 14:37:50 </title>
  <desc>Picture generated by PCBNEW </desc>
<g style="fill:#000000; fill-opacity:1;stroke:#000000; stroke-opacity:1;
stroke-linecap:round; stroke-linejoin:round; "
 transform="translate(0 0) scale(1 1)">
</g>
<g style="fill:#000000; fill-opacity:0.0; 
stroke:#000000; stroke-width:-0.000393701; stroke-opacity:1; 
stroke-linecap:round; stroke-linejoin:round;">
</g>
<g style="fill:#000000; fill-opacity:0.0; 
stroke:#000000; stroke-width:59.0551; stroke-opacity:1; 
stroke-linecap:round; stroke-linejoin:round;">
<text x="11679" y="12265.5"
textLength="-1063.09" font-size="-419.947" lengthAdjust="spacingAndGlyphs"
text-anchor="middle" opacity="0">MISO</text>
<g class="stroked-text"><desc>MISO</desc>
<path d="M12173 12250
L12173 11935
L12068 12160
L11963 11935
L11963 12250
" />
<path d="M11813 12250
L11813 11935
" />
<path d="M11679 12235
L11634 12250
L11559 12250
L11529 12235
L11514 12220
L11499 12190
L11499 12160
L11514 12130
L11529 12115
L11559 12100
L11619 12085
L11649 12070
L11664 12055
L11679 12025
L11679 11995
L11664 11965
L11649 11950
L11619 11935
L11544 11935
L11499 11950
" />
<path d="M11304 11935
L11244 11935
L11214 11950
L11184 11980
L11169 12040
L11169 12145
L11184 12205
L11214 12235
L11244 12250
L11304 12250
L11334 12235
L11364 12205
L11379 12145
L11379 12040
L11364 11980
L11334 11950
L11304 11935
" />
</g></g>
<g style="fill:#000000; fill-opacity:0.0; 
stroke:#000000; stroke-width:47.2441; stroke-opacity:1; 
stroke-linecap:round; stroke-linejoin:round;">
<path d="M9919 5604
L9919 5211
" />
<path d="M10588 5211
L10588 5604
" />
</g>
<g style="fill:#000000; fill-opacity:0.0; 
stroke:#000000; stroke-width:59.0551; stroke-opacity:1; 
stroke-linecap:round; stroke-linejoin:round;">
<path d="M14252 7978
L14252 8106
" />
<path d="M11397 7978
L11397 8106
" />
<path d="M11397 10832
L11397 10704
" />
<path d="M14252 10832
L14252 10704
" />
<path d="M14252 7978
L14124 7978
" />
<path d="M14252 10832
L14124 10832
" />
<path d="M11397 10832
L11525 10832
" />
<path d="M11397 7978
L11525 7978
" />
<path d="M14252 8106
L14813 8106
" />
<path d="M15922 11052
L15331 11052
" />
<path d="M15922 9713
L15922 11052
" />
<path d="M15331 9713
L15922 9713
" />
<path d="M15331 11052
L15331 9713
" />
</g>
<g style="fill:#000000; fill-opacity:0.0; 
stroke:#000000; stroke-width:47.2441; stroke-opacity:1; 
stroke-linecap:round; stroke-linejoin:round;">
<path d="M12668 846
L12668 1893
" />
<path d="M1645 846
L12668 846
" />
<path d="M1645 1893
L12668 1893
" />
<path d="M1645 846
L1645 1893
" />
<path d="M1145 846
L621 846
" />
<path d="M621 846
L621 1369
" />
</g>
<g style="fill:#000000; fill-opacity:0.0; 
stroke:#000000; stroke-width:59.0551; stroke-opacity:1; 
stroke-linecap:round; stroke-linejoin:round;">
<path d="M3179 7873
L1179 7873
" />
<path d="M1179 7873
L1179 9673
" />
<path d="M1179 9673
L3179 9673
" />
<path d="M3179 9673
L3179 7873
" />
<path d="M3179 8473
L2979 8473
" />
<path d="M2979 8473
L2979 8973
" />
<path d="M2979 8973
L3179 8973
" />
<path d="M2229 13663
L1629 13663
" />
<path d="M1479 13613
L2379 13613
" />
<path d="M2479 13563
L1379 13563
" />
<path d="M1279 13513
L2579 13513
" />
<path d="M2629 13463
L1229 13463
" />
<path d="M3229 13813
L629 13813
" />
<path d="M629 13813
L629 11513
" />
<path d="M629 11513
L929 11213
" />
<path d="M929 11213
L2929 11213
" />
<path d="M2929 11213
L3229 11513
" />
<path d="M3229 11513
L3229 13813
" />
<path d="M1929 11663
L1929 11963
" />
<path d="M2079 11813
L1779 11813
" />
<circle cx="1929" cy="12514" r="1200" /> 
<path d="M6001 5129
L6001 4185
" />
<path d="M5567 5365
L6039 5365
" />
<path d="M5803 5562
L5803 5129
" />
<path d="M8244 5129
L6196 5129
" />
<path d="M6196 4185
L8244 4185
" />
<path d="M4585 7992
L4192 7992
" />
<path d="M4192 7323
L4585 7323
" />
</g>
<g style="fill:#000000; fill-opacity:0.0; 
stroke:#000000; stroke-width:47.2441; stroke-opacity:1; 
stroke-linecap:round; stroke-linejoin:round;">
<path d="M7393 2917
L7393 3390
" />
<path d="M8086 3390
L8086 2917
" />
</g>
<g style="fill:#000000; fill-opacity:0.0; 
stroke:#000000; stroke-width:59.0551; stroke-opacity:1; 
stroke-linecap:round; stroke-linejoin:round;">
<path d="M15788 8536
L15788 8929
" />
<path d="M15119 8929
L15119 8536
" />
<path d="M10576 12953
L10300 12953
" />
<path d="M10576 13032
L10576 12953
" />
<path d="M10576 14134
L10576 14036
" />
<path d="M10300 14134
L10576 14134
" />
<path d="M10576 13032
L10576 13051
" />
</g>
<g style="fill:#000000; fill-opacity:0.0; 
stroke:#000000; stroke-width:47.2441; stroke-opacity:1; 
stroke-linecap:round; stroke-linejoin:round;">
<path d="M9944 9429
L9944 9036
" />
<path d="M10613 9036
L10613 9429
" />
<path d="M9483 13461
L9483 13854
" />
<path d="M8814 13854
L8814 13461
" />
<path d="M12628 5777
L12628 6250
" />
<path d="M13321 6250
L13321 5777
" />
<path d="M8813 12557
L8813 10865
" />
<path d="M9600 12557
L8813 12557
" />
<path d="M9600 10865
L9600 12557
" />
</g>
<g style="fill:#000000; fill-opacity:0.0; 
stroke:#000000; stroke-width:59.0551; stroke-opacity:1; 
stroke-linecap:round; stroke-linejoin:round;">
<path d="M12179 12457
L14179 12457
" />
<path d="M11068 12347
L11068 12957
" />
<path d="M11179 13457
L12179 13457
" />
<path d="M12179 13457
L12179 12457
" />
<path d="M14179 12457
L14179 14457
" />
<path d="M14179 14457
L12179 14457
" />
<path d="M11068 12347
L11679 12347
" />
<path d="M11179 14457
L11179 13457
" />
<path d="M12179 14457
L11179 14457
" />
<path d="M6119 8907
L6119 8357
" />
<path d="M6169 9007
L6169 8307
" />
<path d="M6219 9157
L6219 8157
" />
<path d="M6269 8107
L6269 9207
" />
<path d="M6319 9257
L6319 8057
" />
<path d="M6369 8007
L6369 9307
" />
<path d="M6419 9357
L6419 7957
" />
<path d="M5969 9707
L7769 9707
" />
<path d="M7769 9707
L8069 9407
" />
<path d="M8069 9407
L8069 7907
" />
<path d="M8069 7907
L7769 7607
" />
<path d="M7769 7607
L5969 7607
" />
<path d="M5969 7607
L5969 9707
" />
<path d="M7869 8657
L7569 8657
" />
<path d="M7719 8807
L7719 8507
" />
<circle cx="7019" cy="8657.99" r="950" /> 
</g>
<g style="fill:#000000; fill-opacity:0.0; 
stroke:#000000; stroke-width:47.2441; stroke-opacity:1; 
stroke-linecap:round; stroke-linejoin:round;">
<path d="M6127 5306
L7930 5306
" />
<path d="M5827 5606
L6127 5306
" />
<path d="M6127 7409
L5827 7109
" />
<path d="M7930 7409
L6127 7409
" />
<path d="M5827 7109
L5827 6798
" />
<path d="M5827 5606
L5827 5917
" />
<path d="M7930 7409
L7930 6798
" />
<path d="M7930 5306
L7930 5917
" />
</g>
<g style="fill:#000000; fill-opacity:0.0; 
stroke:#000000; stroke-width:59.0551; stroke-opacity:1; 
stroke-linecap:round; stroke-linejoin:round;">
<path d="M7919 13207
L7919 13757
" />
<path d="M7869 13107
L7869 13807
" />
<path d="M7819 12957
L7819 13957
" />
<path d="M7769 14007
L7769 12907
" />
<path d="M7719 12857
L7719 14057
" />
<path d="M7669 14107
L7669 12807
" />
<path d="M7619 12757
L7619 14157
" />
<path d="M8069 12407
L6269 12407
" />
<path d="M6269 12407
L5969 12707
" />
<path d="M5969 12707
L5969 14207
" />
<path d="M5969 14207
L6269 14507
" />
<path d="M6269 14507
L8069 14507
" />
<path d="M8069 14507
L8069 12407
" />
<path d="M6169 13457
L6469 13457
" />
<path d="M6319 13307
L6319 13607
" />
<circle cx="7019" cy="13458" r="950" /> 
<path d="M12363 6250
L12363 5777
" />
<path d="M11674 5777
L11674 6250
" />
<path d="M4224 13402
L4696 13402
" />
<path d="M4696 12713
L4224 12713
" />
<path d="M9944 3754
L9944 3361
" />
<path d="M10613 3361
L10613 3754
" />
<path d="M14435 12257
L14435 12730
" />
<path d="M15124 12730
L15124 12257
" />
<path d="M15971 12375
L15971 11903
" />
<path d="M15282 11903
L15282 12375
" />
<path d="M6129 11307
L6129 10757
" />
<path d="M6179 11407
L6179 10707
" />
<path d="M6229 11557
L6229 10557
" />
<path d="M6279 10507
L6279 11607
" />
<path d="M6329 11657
L6329 10457
" />
<path d="M6379 10407
L6379 11707
" />
<path d="M6429 11757
L6429 10357
" />
<path d="M5979 12107
L7779 12107
" />
<path d="M7779 12107
L8079 11807
" />
<path d="M8079 11807
L8079 10307
" />
<path d="M8079 10307
L7779 10007
" />
<path d="M7779 10007
L5979 10007
" />
<path d="M5979 10007
L5979 12107
" />
<path d="M7879 11057
L7579 11057
" />
<path d="M7729 11207
L7729 10907
" />
<circle cx="7029" cy="11058" r="950" /> 
<path d="M1527 3211
L2127 3211
" />
<path d="M2277 3261
L1377 3261
" />
<path d="M1277 3311
L2377 3311
" />
<path d="M2477 3361
L1177 3361
" />
<path d="M1127 3411
L2527 3411
" />
<path d="M527 3061
L3127 3061
" />
<path d="M3127 3061
L3127 5361
" />
<path d="M3127 5361
L2827 5661
" />
<path d="M2827 5661
L827 5661
" />
<path d="M827 5661
L527 5361
" />
<path d="M527 5361
L527 3061
" />
<path d="M1827 5211
L1827 4911
" />
<path d="M1677 5061
L1977 5061
" />
<circle cx="1827" cy="4361.99" r="1200" /> 
<path d="M4696 10013
L4224 10013
" />
<path d="M4224 10702
L4696 10702
" />
<path d="M3384 2846
L3384 3319
" />
<path d="M4073 3319
L4073 2846
" />
<path d="M15449 6237
L15449 5764
" />
<path d="M14760 5764
L14760 6237
" />
<path d="M4172 8902
L4645 8902
" />
<path d="M4645 8213
L4172 8213
" />
<path d="M4617 12492
L4224 12492
" />
<path d="M4224 11823
L4617 11823
" />
<path d="M4224 11602
L4696 11602
" />
<path d="M4696 10913
L4224 10913
" />
<path d="M13841 5797
L13841 6269
" />
<path d="M14530 6269
L14530 5797
" />
<path d="M3767 7102
L4240 7102
" />
<path d="M4240 6413
L3767 6413
" />
<path d="M4655 9113
L4182 9113
" />
<path d="M4182 9802
L4655 9802
" />
<path d="M14292 3590
L14764 3590
" />
<path d="M14764 2901
L14292 2901
" />
<path d="M7298 3394
L7298 2921
" />
<path d="M6609 2921
L6609 3394
" />
</g>
<g style="fill:#000000; fill-opacity:0.0; 
stroke:#000000; stroke-width:47.2441; stroke-opacity:1; 
stroke-linecap:round; stroke-linejoin:round;">
<path d="M12952 2950
L11692 2950
" />
<path d="M11692 3541
L12952 3541
" />
<path d="M11692 3541
L11692 2950
" />
<path d="M11698 4361
L11698 3770
" />
<path d="M11698 4361
L12958 4361
" />
<path d="M12958 3770
L11698 3770
" />
<path d="M14772 3729
L14300 3729
" />
<path d="M14300 4422
L14772 4422
" />
<path d="M10501 11817
L10501 11344
" />
<path d="M9808 11344
L9808 11817
" />
</g>
<g style="fill:#000000; fill-opacity:0.0; 
stroke:#000000; stroke-width:59.0551; stroke-opacity:1; 
stroke-linecap:round; stroke-linejoin:round;">
<text x="10404" y="6829.84"
textLength="-1066.84" font-size="-524.934" lengthAdjust="spacingAndGlyphs"
text-anchor="middle" opacity="0">C24</text>
<g class="stroked-text"><desc>C24</desc>
<path d="M10657 6773
L10675 6792
L10732 6811
L10769 6811
L10825 6792
L10863 6754
L10882 6717
L10900 6642
L10900 6586
L10882 6511
L10863 6473
L10825 6436
L10769 6417
L10732 6417
L10675 6436
L10657 6454
" />
<path d="M10507 6454
L10488 6436
L10450 6417
L10357 6417
L10319 6436
L10300 6454
L10282 6492
L10282 6529
L10300 6586
L10525 6811
L10282 6811
" />
<path d="M9944 6548
L9944 6811
" />
<path d="M10038 6398
L10132 6679
L9888 6679
" />
</g><text x="12005" y="8612.39"
textLength="-879.359" font-size="-524.934" lengthAdjust="spacingAndGlyphs"
text-anchor="middle" opacity="0">IC1</text>
<g class="stroked-text"><desc>IC1</desc>
<path d="M12389 8593
L12389 8199
" />
<path d="M11976 8556
L11995 8574
L12051 8593
L12089 8593
L12145 8574
L12183 8537
L12201 8499
L12220 8424
L12220 8368
L12201 8293
L12183 8256
L12145 8218
L12089 8199
L12051 8199
L11995 8218
L11976 8237
" />
<path d="M11601 8593
L11826 8593
" />
<path d="M11714 8593
L11714 8199
L11751 8256
L11789 8293
L11826 8312
" />
</g><g transform="rotate(-90 15048.3 11058)">
<text x="15048.3" y="11215.5"
textLength="-493.157" font-size="-419.947" lengthAdjust="spacingAndGlyphs"
text-anchor="middle" opacity="0">Y1</text>
</g>
<g class="stroked-text"><desc>Y1</desc>
<path d="M15040 10908
L15190 10908
" />
<path d="M14875 10803
L15040 10908
L14875 11012
" />
<path d="M15190 11282
L15190 11102
" />
<path d="M15190 11192
L14875 11192
L14920 11162
L14950 11132
L14965 11102
" />
</g><text x="1839" y="8864.84"
textLength="-710.63" font-size="-524.934" lengthAdjust="spacingAndGlyphs"
text-anchor="middle" opacity="0">U3</text>
<g class="stroked-text"><desc>U3</desc>
<path d="M2138 8452
L2138 8771
L2120 8808
L2101 8827
L2063 8846
L1988 8846
L1951 8827
L1932 8808
L1913 8771
L1913 8452
" />
<path d="M1764 8452
L1520 8452
L1651 8602
L1595 8602
L1557 8621
L1539 8639
L1520 8677
L1520 8771
L1539 8808
L1557 8827
L1595 8846
L1707 8846
L1745 8827
L1764 8808
" />
</g><text x="1929" y="12754.8"
textLength="-1066.84" font-size="-524.934" lengthAdjust="spacingAndGlyphs"
text-anchor="middle" opacity="0">C14</text>
<g class="stroked-text"><desc>C14</desc>
<path d="M2182 12698
L2200 12717
L2257 12736
L2294 12736
L2350 12717
L2388 12679
L2407 12642
L2425 12567
L2425 12511
L2407 12436
L2388 12398
L2350 12361
L2294 12342
L2257 12342
L2200 12361
L2182 12379
" />
<path d="M1807 12736
L2032 12736
" />
<path d="M1919 12736
L1919 12342
L1957 12398
L1994 12436
L2032 12454
" />
<path d="M1469 12473
L1469 12736
" />
<path d="M1563 12323
L1657 12604
L1413 12604
" />
</g><g transform="rotate(-90 5679 4382.99)">
<text x="5679" y="4579.84"
textLength="-1066.84" font-size="-524.934" lengthAdjust="spacingAndGlyphs"
text-anchor="middle" opacity="0">C22</text>
</g>
<g class="stroked-text"><desc>C22</desc>
<path d="M5819 4129
L5838 4111
L5857 4054
L5857 4017
L5838 3961
L5800 3923
L5763 3904
L5688 3886
L5632 3886
L5557 3904
L5519 3923
L5482 3961
L5463 4017
L5463 4054
L5482 4111
L5500 4129
" />
<path d="M5500 4279
L5482 4298
L5463 4336
L5463 4429
L5482 4467
L5500 4486
L5538 4504
L5575 4504
L5632 4486
L5857 4261
L5857 4504
" />
<path d="M5500 4654
L5482 4673
L5463 4711
L5463 4804
L5482 4842
L5500 4861
L5538 4879
L5575 4879
L5632 4861
L5857 4636
L5857 4879
" />
</g><text x="5803" y="5563.84"
textLength="-410.667" font-size="-524.934" lengthAdjust="spacingAndGlyphs"
text-anchor="middle" opacity="0">+</text>
<g class="stroked-text"><desc>+</desc>
<path d="M5952 5395
L5653 5395
" />
<path d="M5803 5545
L5803 5245
" />
</g><g transform="rotate(-90 5129 6807.99)">
<text x="5129" y="7004.84"
textLength="-1066.84" font-size="-524.934" lengthAdjust="spacingAndGlyphs"
text-anchor="middle" opacity="0">C15</text>
</g>
<g class="stroked-text"><desc>C15</desc>
<path d="M5269 6554
L5288 6536
L5307 6479
L5307 6442
L5288 6386
L5250 6348
L5213 6329
L5138 6311
L5082 6311
L5007 6329
L4969 6348
L4932 6386
L4913 6442
L4913 6479
L4932 6536
L4950 6554
" />
<path d="M5307 6929
L5307 6704
" />
<path d="M5307 6817
L4913 6817
L4969 6779
L5007 6742
L5025 6704
" />
<path d="M4913 7286
L4913 7098
L5100 7079
L5082 7098
L5063 7136
L5063 7229
L5082 7267
L5100 7286
L5138 7304
L5232 7304
L5269 7286
L5288 7267
L5307 7229
L5307 7136
L5288 7098
L5269 7079
" />
</g><text x="8704" y="2454.84"
textLength="-1066.84" font-size="-524.934" lengthAdjust="spacingAndGlyphs"
text-anchor="middle" opacity="0">R25</text>
<g class="stroked-text"><desc>R25</desc>
<path d="M8957 2436
L9088 2248
" />
<path d="M9182 2436
L9182 2042
L9032 2042
L8994 2061
L8975 2079
L8957 2117
L8957 2173
L8975 2211
L8994 2229
L9032 2248
L9182 2248
" />
<path d="M8807 2079
L8788 2061
L8750 2042
L8657 2042
L8619 2061
L8600 2079
L8582 2117
L8582 2154
L8600 2211
L8825 2436
L8582 2436
" />
<path d="M8225 2042
L8413 2042
L8432 2229
L8413 2211
L8375 2192
L8282 2192
L8244 2211
L8225 2229
L8207 2267
L8207 2361
L8225 2398
L8244 2417
L8282 2436
L8375 2436
L8413 2417
L8432 2398
" />
</g><g transform="rotate(-90 16154 8582.99)">
<text x="16154" y="8779.84"
textLength="-691.882" font-size="-524.934" lengthAdjust="spacingAndGlyphs"
text-anchor="middle" opacity="0">C4</text>
</g>
<g class="stroked-text"><desc>C4</desc>
<path d="M16294 8517
L16313 8498
L16332 8442
L16332 8404
L16313 8348
L16275 8311
L16238 8292
L16163 8273
L16107 8273
L16032 8292
L15994 8311
L15957 8348
L15938 8404
L15938 8442
L15957 8498
L15975 8517
" />
<path d="M16069 8854
L16332 8854
" />
<path d="M15919 8761
L16200 8667
L16200 8911
" />
</g><text x="10654" y="14629.8"
textLength="-710.63" font-size="-524.934" lengthAdjust="spacingAndGlyphs"
text-anchor="middle" opacity="0">U4</text>
<g class="stroked-text"><desc>U4</desc>
<path d="M10953 14217
L10953 14536
L10935 14573
L10916 14592
L10878 14611
L10803 14611
L10766 14592
L10747 14573
L10728 14536
L10728 14217
" />
<path d="M10372 14348
L10372 14611
" />
<path d="M10466 14198
L10560 14479
L10316 14479
" />
</g><g transform="rotate(-90 10968 9232.99)">
<text x="10968" y="9429.84"
textLength="-691.882" font-size="-524.934" lengthAdjust="spacingAndGlyphs"
text-anchor="middle" opacity="0">C1</text>
</g>
<g class="stroked-text"><desc>C1</desc>
<path d="M11108 9167
L11127 9148
L11146 9092
L11146 9054
L11127 8998
L11089 8961
L11052 8942
L10977 8923
L10921 8923
L10846 8942
L10808 8961
L10771 8998
L10752 9054
L10752 9092
L10771 9148
L10789 9167
" />
<path d="M11146 9542
L11146 9317
" />
<path d="M11146 9429
L10752 9429
L10808 9392
L10846 9354
L10864 9317
" />
</g><g transform="rotate(-90 8529 14258)">
<text x="8529" y="14454.8"
textLength="-691.882" font-size="-524.934" lengthAdjust="spacingAndGlyphs"
text-anchor="middle" opacity="0">C5</text>
</g>
<g class="stroked-text"><desc>C5</desc>
<path d="M8669 14192
L8688 14173
L8707 14117
L8707 14079
L8688 14023
L8650 13986
L8613 13967
L8538 13948
L8482 13948
L8407 13967
L8369 13986
L8332 14023
L8313 14079
L8313 14117
L8332 14173
L8350 14192
" />
<path d="M8313 14548
L8313 14361
L8500 14342
L8482 14361
L8463 14398
L8463 14492
L8482 14529
L8500 14548
L8538 14567
L8632 14567
L8669 14548
L8688 14529
L8707 14492
L8707 14398
L8688 14361
L8669 14342
" />
</g><text x="13004" y="5004.84"
textLength="-691.882" font-size="-524.934" lengthAdjust="spacingAndGlyphs"
text-anchor="middle" opacity="0">R3</text>
<g class="stroked-text"><desc>R3</desc>
<path d="M13069 4986
L13200 4798
" />
<path d="M13294 4986
L13294 4592
L13144 4592
L13107 4611
L13088 4629
L13069 4667
L13069 4723
L13088 4761
L13107 4779
L13144 4798
L13294 4798
" />
<path d="M12938 4592
L12694 4592
L12825 4742
L12769 4742
L12732 4761
L12713 4779
L12694 4817
L12694 4911
L12713 4948
L12732 4967
L12769 4986
L12882 4986
L12919 4967
L12938 4948
" />
</g><text x="9204" y="11779.8"
textLength="-691.882" font-size="-524.934" lengthAdjust="spacingAndGlyphs"
text-anchor="middle" opacity="0">D1</text>
<g class="stroked-text"><desc>D1</desc>
<path d="M9494 11761
L9494 11367
L9400 11367
L9344 11386
L9307 11423
L9288 11461
L9269 11536
L9269 11592
L9288 11667
L9307 11704
L9344 11742
L9400 11761
L9494 11761
" />
<path d="M8894 11761
L9119 11761
" />
<path d="M9007 11761
L9007 11367
L9044 11423
L9082 11461
L9119 11479
" />
</g><g transform="rotate(90 10779 12533)">
<text x="10779" y="12729.8"
textLength="-691.882" font-size="-524.934" lengthAdjust="spacingAndGlyphs"
text-anchor="middle" opacity="0">P2</text>
</g>
<g class="stroked-text"><desc>P2</desc>
<path d="M10600 12823
L10994 12823
L10994 12673
L10975 12636
L10957 12617
L10919 12598
L10863 12598
L10825 12617
L10807 12636
L10788 12673
L10788 12823
" />
<path d="M10957 12448
L10975 12429
L10994 12392
L10994 12298
L10975 12261
L10957 12242
L10919 12223
L10882 12223
L10825 12242
L10600 12467
L10600 12223
" />
</g><text x="7059" y="9492.84"
textLength="-1066.84" font-size="-524.934" lengthAdjust="spacingAndGlyphs"
text-anchor="middle" opacity="0">C20</text>
<g class="stroked-text"><desc>C20</desc>
<path d="M7312 9436
L7330 9455
L7387 9474
L7424 9474
L7480 9455
L7518 9417
L7537 9380
L7555 9305
L7555 9249
L7537 9174
L7518 9136
L7480 9099
L7424 9080
L7387 9080
L7330 9099
L7312 9117
" />
<path d="M7162 9117
L7143 9099
L7105 9080
L7012 9080
L6974 9099
L6955 9117
L6937 9155
L6937 9192
L6955 9249
L7180 9474
L6937 9474
" />
<path d="M6693 9080
L6655 9080
L6618 9099
L6599 9117
L6580 9155
L6562 9230
L6562 9324
L6580 9399
L6599 9436
L6618 9455
L6655 9474
L6693 9474
L6730 9455
L6749 9436
L6768 9399
L6787 9324
L6787 9230
L6768 9155
L6749 9117
L6730 9099
L6693 9080
" />
</g><text x="7349.14" y="5797.84"
textLength="-1066.84" font-size="-524.934" lengthAdjust="spacingAndGlyphs"
text-anchor="middle" opacity="0">C19</text>
<g class="stroked-text"><desc>C19</desc>
<path d="M7602 5741
L7620 5760
L7677 5779
L7714 5779
L7770 5760
L7808 5722
L7827 5685
L7845 5610
L7845 5554
L7827 5479
L7808 5441
L7770 5404
L7714 5385
L7677 5385
L7620 5404
L7602 5422
" />
<path d="M7227 5779
L7452 5779
" />
<path d="M7339 5779
L7339 5385
L7377 5441
L7414 5479
L7452 5497
" />
<path d="M7039 5779
L6964 5779
L6927 5760
L6908 5741
L6871 5685
L6852 5610
L6852 5460
L6871 5422
L6889 5404
L6927 5385
L7002 5385
L7039 5404
L7058 5422
L7077 5460
L7077 5554
L7058 5591
L7039 5610
L7002 5629
L6927 5629
L6889 5610
L6871 5591
L6852 5554
" />
</g><text x="5548.29" y="5629.64"
textLength="-410.667" font-size="-524.934" lengthAdjust="spacingAndGlyphs"
text-anchor="middle" opacity="0">+</text>
<g class="stroked-text"><desc>+</desc>
<path d="M5698 5460
L5398 5460
" />
<path d="M5548 5610
L5548 5310
" />
</g><text x="7179" y="14304.8"
textLength="-1066.84" font-size="-524.934" lengthAdjust="spacingAndGlyphs"
text-anchor="middle" opacity="0">C21</text>
<g class="stroked-text"><desc>C21</desc>
<path d="M7432 14248
L7450 14267
L7507 14286
L7544 14286
L7600 14267
L7638 14229
L7657 14192
L7675 14117
L7675 14061
L7657 13986
L7638 13948
L7600 13911
L7544 13892
L7507 13892
L7450 13911
L7432 13929
" />
<path d="M7282 13929
L7263 13911
L7225 13892
L7132 13892
L7094 13911
L7075 13929
L7057 13967
L7057 14004
L7075 14061
L7300 14286
L7057 14286
" />
<path d="M6682 14286
L6907 14286
" />
<path d="M6794 14286
L6794 13892
L6832 13948
L6869 13986
L6907 14004
" />
</g><g transform="rotate(-90 11399 5443.99)">
<text x="11399" y="5640.84"
textLength="-691.882" font-size="-524.934" lengthAdjust="spacingAndGlyphs"
text-anchor="middle" opacity="0">R2</text>
</g>
<g class="stroked-text"><desc>R2</desc>
<path d="M11577 5378
L11389 5247
" />
<path d="M11577 5153
L11183 5153
L11183 5303
L11202 5340
L11220 5359
L11258 5378
L11314 5378
L11352 5359
L11370 5340
L11389 5303
L11389 5153
" />
<path d="M11220 5528
L11202 5547
L11183 5584
L11183 5678
L11202 5715
L11220 5734
L11258 5753
L11295 5753
L11352 5734
L11577 5509
L11577 5753
" />
</g><text x="4448.5" y="13894.8"
textLength="-1066.84" font-size="-524.934" lengthAdjust="spacingAndGlyphs"
text-anchor="middle" opacity="0">R23</text>
<g class="stroked-text"><desc>R23</desc>
<path d="M4701 13876
L4832 13688
" />
<path d="M4926 13876
L4926 13482
L4776 13482
L4739 13501
L4720 13519
L4701 13557
L4701 13613
L4720 13651
L4739 13669
L4776 13688
L4926 13688
" />
<path d="M4551 13519
L4532 13501
L4495 13482
L4401 13482
L4364 13501
L4345 13519
L4326 13557
L4326 13594
L4345 13651
L4570 13876
L4326 13876
" />
<path d="M4195 13482
L3951 13482
L4082 13632
L4026 13632
L3989 13651
L3970 13669
L3951 13707
L3951 13801
L3970 13838
L3989 13857
L4026 13876
L4139 13876
L4176 13857
L4195 13838
" />
</g><text x="10254" y="2579.84"
textLength="-691.882" font-size="-524.934" lengthAdjust="spacingAndGlyphs"
text-anchor="middle" opacity="0">C3</text>
<g class="stroked-text"><desc>C3</desc>
<path d="M10319 2523
L10338 2542
L10394 2561
L10432 2561
L10488 2542
L10525 2504
L10544 2467
L10563 2392
L10563 2336
L10544 2261
L10525 2223
L10488 2186
L10432 2167
L10394 2167
L10338 2186
L10319 2204
" />
<path d="M10188 2167
L9944 2167
L10075 2317
L10019 2317
L9982 2336
L9963 2354
L9944 2392
L9944 2486
L9963 2523
L9982 2542
L10019 2561
L10132 2561
L10169 2542
L10188 2523
" />
</g><text x="14841" y="13899.8"
textLength="-691.882" font-size="-524.934" lengthAdjust="spacingAndGlyphs"
text-anchor="middle" opacity="0">R5</text>
<g class="stroked-text"><desc>R5</desc>
<path d="M14906 13881
L15037 13693
" />
<path d="M15131 13881
L15131 13487
L14981 13487
L14944 13506
L14925 13524
L14906 13562
L14906 13618
L14925 13656
L14944 13674
L14981 13693
L15131 13693
" />
<path d="M14550 13487
L14737 13487
L14756 13674
L14737 13656
L14700 13637
L14606 13637
L14569 13656
L14550 13674
L14531 13712
L14531 13806
L14550 13843
L14569 13862
L14606 13881
L14700 13881
L14737 13862
L14756 13843
" />
</g><text x="15707" y="13578.8"
textLength="-691.882" font-size="-524.934" lengthAdjust="spacingAndGlyphs"
text-anchor="middle" opacity="0">R6</text>
<g class="stroked-text"><desc>R6</desc>
<path d="M15772 13560
L15903 13372
" />
<path d="M15997 13560
L15997 13166
L15847 13166
L15810 13185
L15791 13203
L15772 13241
L15772 13297
L15791 13335
L15810 13353
L15847 13372
L15997 13372
" />
<path d="M15435 13166
L15510 13166
L15547 13185
L15566 13203
L15603 13260
L15622 13335
L15622 13485
L15603 13522
L15585 13541
L15547 13560
L15472 13560
L15435 13541
L15416 13522
L15397 13485
L15397 13391
L15416 13353
L15435 13335
L15472 13316
L15547 13316
L15585 13335
L15603 13353
L15622 13391
" />
</g><text x="7054" y="11929.8"
textLength="-691.882" font-size="-524.934" lengthAdjust="spacingAndGlyphs"
text-anchor="middle" opacity="0">C6</text>
<g class="stroked-text"><desc>C6</desc>
<path d="M7119 11873
L7138 11892
L7194 11911
L7232 11911
L7288 11892
L7325 11854
L7344 11817
L7363 11742
L7363 11686
L7344 11611
L7325 11573
L7288 11536
L7232 11517
L7194 11517
L7138 11536
L7119 11554
" />
<path d="M6782 11517
L6857 11517
L6894 11536
L6913 11554
L6950 11611
L6969 11686
L6969 11836
L6950 11873
L6932 11892
L6894 11911
L6819 11911
L6782 11892
L6763 11873
L6744 11836
L6744 11742
L6763 11704
L6782 11686
L6819 11667
L6894 11667
L6932 11686
L6950 11704
L6969 11742
" />
</g><text x="1804" y="4571.84"
textLength="-691.882" font-size="-524.934" lengthAdjust="spacingAndGlyphs"
text-anchor="middle" opacity="0">C9</text>
<g class="stroked-text"><desc>C9</desc>
<path d="M1869 4515
L1888 4534
L1944 4553
L1982 4553
L2038 4534
L2075 4496
L2094 4459
L2113 4384
L2113 4328
L2094 4253
L2075 4215
L2038 4178
L1982 4159
L1944 4159
L1888 4178
L1869 4196
" />
<path d="M1682 4553
L1607 4553
L1569 4534
L1550 4515
L1513 4459
L1494 4384
L1494 4234
L1513 4196
L1532 4178
L1569 4159
L1644 4159
L1682 4178
L1700 4196
L1719 4234
L1719 4328
L1700 4365
L1682 4384
L1644 4403
L1569 4403
L1532 4384
L1513 4365
L1494 4328
" />
</g><text x="3179" y="10804.8"
textLength="-691.882" font-size="-524.934" lengthAdjust="spacingAndGlyphs"
text-anchor="middle" opacity="0">R8</text>
<g class="stroked-text"><desc>R8</desc>
<path d="M3244 10786
L3375 10598
" />
<path d="M3469 10786
L3469 10392
L3319 10392
L3282 10411
L3263 10429
L3244 10467
L3244 10523
L3263 10561
L3282 10579
L3319 10598
L3469 10598
" />
<path d="M3019 10561
L3057 10542
L3075 10523
L3094 10486
L3094 10467
L3075 10429
L3057 10411
L3019 10392
L2944 10392
L2907 10411
L2888 10429
L2869 10467
L2869 10486
L2888 10523
L2907 10542
L2944 10561
L3019 10561
L3057 10579
L3075 10598
L3094 10636
L3094 10711
L3075 10748
L3057 10767
L3019 10786
L2944 10786
L2907 10767
L2888 10748
L2869 10711
L2869 10636
L2888 10598
L2907 10579
L2944 10561
" />
</g><g transform="rotate(-90 4404 3007.99)">
<text x="4404" y="3204.84"
textLength="-691.882" font-size="-524.934" lengthAdjust="spacingAndGlyphs"
text-anchor="middle" opacity="0">R9</text>
</g>
<g class="stroked-text"><desc>R9</desc>
<path d="M4582 2942
L4394 2811
" />
<path d="M4582 2717
L4188 2717
L4188 2867
L4207 2904
L4225 2923
L4263 2942
L4319 2942
L4357 2923
L4375 2904
L4394 2867
L4394 2717
" />
<path d="M4582 3129
L4582 3204
L4563 3242
L4544 3261
L4488 3298
L4413 3317
L4263 3317
L4225 3298
L4207 3279
L4188 3242
L4188 3167
L4207 3129
L4225 3111
L4263 3092
L4357 3092
L4394 3111
L4413 3129
L4432 3167
L4432 3242
L4413 3279
L4394 3298
L4357 3317
" />
</g><text x="15429" y="4979.84"
textLength="-1066.84" font-size="-524.934" lengthAdjust="spacingAndGlyphs"
text-anchor="middle" opacity="0">R13</text>
<g class="stroked-text"><desc>R13</desc>
<path d="M15682 4961
L15813 4773
" />
<path d="M15907 4961
L15907 4567
L15757 4567
L15719 4586
L15700 4604
L15682 4642
L15682 4698
L15700 4736
L15719 4754
L15757 4773
L15907 4773
" />
<path d="M15307 4961
L15532 4961
" />
<path d="M15419 4961
L15419 4567
L15457 4623
L15494 4661
L15532 4679
" />
<path d="M15175 4567
L14932 4567
L15063 4717
L15007 4717
L14969 4736
L14950 4754
L14932 4792
L14932 4886
L14950 4923
L14969 4942
L15007 4961
L15119 4961
L15157 4942
L15175 4923
" />
</g><g transform="rotate(-90 5529 7682.99)">
<text x="5529" y="7879.84"
textLength="-1066.84" font-size="-524.934" lengthAdjust="spacingAndGlyphs"
text-anchor="middle" opacity="0">R15</text>
</g>
<g class="stroked-text"><desc>R15</desc>
<path d="M5707 7429
L5519 7298
" />
<path d="M5707 7204
L5313 7204
L5313 7354
L5332 7392
L5350 7411
L5388 7429
L5444 7429
L5482 7411
L5500 7392
L5519 7354
L5519 7204
" />
<path d="M5707 7804
L5707 7579
" />
<path d="M5707 7692
L5313 7692
L5369 7654
L5407 7617
L5425 7579
" />
<path d="M5313 8161
L5313 7973
L5500 7954
L5482 7973
L5463 8011
L5463 8104
L5482 8142
L5500 8161
L5538 8179
L5632 8179
L5669 8161
L5688 8142
L5707 8104
L5707 8011
L5688 7973
L5669 7954
" />
</g><g transform="rotate(-90 5679 12158)">
<text x="5679" y="12354.8"
textLength="-1066.84" font-size="-524.934" lengthAdjust="spacingAndGlyphs"
text-anchor="middle" opacity="0">C16</text>
</g>
<g class="stroked-text"><desc>C16</desc>
<path d="M5819 11904
L5838 11886
L5857 11829
L5857 11792
L5838 11736
L5800 11698
L5763 11679
L5688 11661
L5632 11661
L5557 11679
L5519 11698
L5482 11736
L5463 11792
L5463 11829
L5482 11886
L5500 11904
" />
<path d="M5857 12279
L5857 12054
" />
<path d="M5857 12167
L5463 12167
L5519 12129
L5557 12092
L5575 12054
" />
<path d="M5463 12617
L5463 12542
L5482 12504
L5500 12486
L5557 12448
L5632 12429
L5782 12429
L5819 12448
L5838 12467
L5857 12504
L5857 12579
L5838 12617
L5819 12636
L5782 12654
L5688 12654
L5650 12636
L5632 12617
L5613 12579
L5613 12504
L5632 12467
L5650 12448
L5688 12429
" />
</g><text x="2979" y="11379.8"
textLength="-1066.84" font-size="-524.934" lengthAdjust="spacingAndGlyphs"
text-anchor="middle" opacity="0">R18</text>
<g class="stroked-text"><desc>R18</desc>
<path d="M3232 11361
L3363 11173
" />
<path d="M3457 11361
L3457 10967
L3307 10967
L3269 10986
L3250 11004
L3232 11042
L3232 11098
L3250 11136
L3269 11154
L3307 11173
L3457 11173
" />
<path d="M2857 11361
L3082 11361
" />
<path d="M2969 11361
L2969 10967
L3007 11023
L3044 11061
L3082 11079
" />
<path d="M2632 11136
L2669 11117
L2688 11098
L2707 11061
L2707 11042
L2688 11004
L2669 10986
L2632 10967
L2557 10967
L2519 10986
L2500 11004
L2482 11042
L2482 11061
L2500 11098
L2519 11117
L2557 11136
L2632 11136
L2669 11154
L2688 11173
L2707 11211
L2707 11286
L2688 11323
L2669 11342
L2632 11361
L2557 11361
L2519 11342
L2500 11323
L2482 11286
L2482 11211
L2500 11173
L2519 11154
L2557 11136
" />
</g><text x="14179" y="4979.84"
textLength="-1066.84" font-size="-524.934" lengthAdjust="spacingAndGlyphs"
text-anchor="middle" opacity="0">R19</text>
<g class="stroked-text"><desc>R19</desc>
<path d="M14432 4961
L14563 4773
" />
<path d="M14657 4961
L14657 4567
L14507 4567
L14469 4586
L14450 4604
L14432 4642
L14432 4698
L14450 4736
L14469 4754
L14507 4773
L14657 4773
" />
<path d="M14057 4961
L14282 4961
" />
<path d="M14169 4961
L14169 4567
L14207 4623
L14244 4661
L14282 4679
" />
<path d="M13869 4961
L13794 4961
L13757 4942
L13738 4923
L13700 4867
L13682 4792
L13682 4642
L13700 4604
L13719 4586
L13757 4567
L13832 4567
L13869 4586
L13888 4604
L13907 4642
L13907 4736
L13888 4773
L13869 4792
L13832 4811
L13757 4811
L13719 4792
L13700 4773
L13682 4736
" />
</g><g transform="rotate(-90 2854 6632.99)">
<text x="2854" y="6829.84"
textLength="-1066.84" font-size="-524.934" lengthAdjust="spacingAndGlyphs"
text-anchor="middle" opacity="0">R20</text>
</g>
<g class="stroked-text"><desc>R20</desc>
<path d="M3032 6379
L2844 6248
" />
<path d="M3032 6154
L2638 6154
L2638 6304
L2657 6342
L2675 6361
L2713 6379
L2769 6379
L2807 6361
L2825 6342
L2844 6304
L2844 6154
" />
<path d="M2675 6529
L2657 6548
L2638 6586
L2638 6679
L2657 6717
L2675 6736
L2713 6754
L2750 6754
L2807 6736
L3032 6511
L3032 6754
" />
<path d="M2638 6998
L2638 7036
L2657 7073
L2675 7092
L2713 7111
L2788 7129
L2882 7129
L2957 7111
L2994 7092
L3013 7073
L3032 7036
L3032 6998
L3013 6961
L2994 6942
L2957 6923
L2882 6904
L2788 6904
L2713 6923
L2675 6942
L2657 6961
L2638 6998
" />
</g><text x="5829" y="9929.84"
textLength="-1066.84" font-size="-524.934" lengthAdjust="spacingAndGlyphs"
text-anchor="middle" opacity="0">R21</text>
<g class="stroked-text"><desc>R21</desc>
<path d="M6082 9911
L6213 9723
" />
<path d="M6307 9911
L6307 9517
L6157 9517
L6119 9536
L6100 9554
L6082 9592
L6082 9648
L6100 9686
L6119 9704
L6157 9723
L6307 9723
" />
<path d="M5932 9554
L5913 9536
L5875 9517
L5782 9517
L5744 9536
L5725 9554
L5707 9592
L5707 9629
L5725 9686
L5950 9911
L5707 9911
" />
<path d="M5332 9911
L5557 9911
" />
<path d="M5444 9911
L5444 9517
L5482 9573
L5519 9611
L5557 9629
" />
</g><text x="14629" y="2729.84"
textLength="-1066.84" font-size="-524.934" lengthAdjust="spacingAndGlyphs"
text-anchor="middle" opacity="0">R26</text>
<g class="stroked-text"><desc>R26</desc>
<path d="M14882 2711
L15013 2523
" />
<path d="M15107 2711
L15107 2317
L14957 2317
L14919 2336
L14900 2354
L14882 2392
L14882 2448
L14900 2486
L14919 2504
L14957 2523
L15107 2523
" />
<path d="M14732 2354
L14713 2336
L14675 2317
L14582 2317
L14544 2336
L14525 2354
L14507 2392
L14507 2429
L14525 2486
L14750 2711
L14507 2711
" />
<path d="M14169 2317
L14244 2317
L14282 2336
L14300 2354
L14338 2411
L14357 2486
L14357 2636
L14338 2673
L14319 2692
L14282 2711
L14207 2711
L14169 2692
L14150 2673
L14132 2636
L14132 2542
L14150 2504
L14169 2486
L14207 2467
L14282 2467
L14319 2486
L14338 2504
L14357 2542
" />
</g><text x="5979" y="2729.84"
textLength="-1066.84" font-size="-524.934" lengthAdjust="spacingAndGlyphs"
text-anchor="middle" opacity="0">R27</text>
<g class="stroked-text"><desc>R27</desc>
<path d="M6232 2711
L6363 2523
" />
<path d="M6457 2711
L6457 2317
L6307 2317
L6269 2336
L6250 2354
L6232 2392
L6232 2448
L6250 2486
L6269 2504
L6307 2523
L6457 2523
" />
<path d="M6082 2354
L6063 2336
L6025 2317
L5932 2317
L5894 2336
L5875 2354
L5857 2392
L5857 2429
L5875 2486
L6100 2711
L5857 2711
" />
<path d="M5725 2317
L5463 2317
L5632 2711
" />
</g><text x="11229" y="3504.84"
textLength="-691.882" font-size="-524.934" lengthAdjust="spacingAndGlyphs"
text-anchor="middle" opacity="0">D2</text>
<g class="stroked-text"><desc>D2</desc>
<path d="M11519 3486
L11519 3092
L11425 3092
L11369 3111
L11332 3148
L11313 3186
L11294 3261
L11294 3317
L11313 3392
L11332 3429
L11369 3467
L11425 3486
L11519 3486
" />
<path d="M11144 3129
L11125 3111
L11088 3092
L10994 3092
L10957 3111
L10938 3129
L10919 3167
L10919 3204
L10938 3261
L11163 3486
L10919 3486
" />
</g><text x="11279" y="4279.84"
textLength="-691.882" font-size="-524.934" lengthAdjust="spacingAndGlyphs"
text-anchor="middle" opacity="0">D3</text>
<g class="stroked-text"><desc>D3</desc>
<path d="M11569 4261
L11569 3867
L11475 3867
L11419 3886
L11382 3923
L11363 3961
L11344 4036
L11344 4092
L11363 4167
L11382 4204
L11419 4242
L11475 4261
L11569 4261
" />
<path d="M11213 3867
L10969 3867
L11100 4017
L11044 4017
L11007 4036
L10988 4054
L10969 4092
L10969 4186
L10988 4223
L11007 4242
L11044 4261
L11157 4261
L11194 4242
L11213 4223
" />
</g><g transform="rotate(-90 16029 4057.99)">
<text x="16029" y="4254.84"
textLength="-1066.84" font-size="-524.934" lengthAdjust="spacingAndGlyphs"
text-anchor="middle" opacity="0">R31</text>
</g>
<g class="stroked-text"><desc>R31</desc>
<path d="M16207 3804
L16019 3673
" />
<path d="M16207 3579
L15813 3579
L15813 3729
L15832 3767
L15850 3786
L15888 3804
L15944 3804
L15982 3786
L16000 3767
L16019 3729
L16019 3579
" />
<path d="M15813 3936
L15813 4179
L15963 4048
L15963 4104
L15982 4142
L16000 4161
L16038 4179
L16132 4179
L16169 4161
L16188 4142
L16207 4104
L16207 3992
L16188 3954
L16169 3936
" />
<path d="M16207 4554
L16207 4329
" />
<path d="M16207 4442
L15813 4442
L15869 4404
L15907 4367
L15925 4329
" />
</g><g transform="rotate(-90 10824.3 11581)">
<text x="10824.3" y="11777.8"
textLength="-691.882" font-size="-524.934" lengthAdjust="spacingAndGlyphs"
text-anchor="middle" opacity="0">R7</text>
</g>
<g class="stroked-text"><desc>R7</desc>
<path d="M11002 11515
L10814 11384
" />
<path d="M11002 11290
L10608 11290
L10608 11440
L10627 11477
L10646 11496
L10683 11515
L10739 11515
L10777 11496
L10796 11477
L10814 11440
L10814 11290
" />
<path d="M10608 11646
L10608 11909
L11002 11740
" />
</g><g >
</g>
</g>
<g style="fill:#000000; fill-opacity:0.0; 
stroke:#000000; stroke-width:59.0551; stroke-opacity:1; 
stroke-linecap:round; stroke-linejoin:round;">
</g>
<g style="fill:#000000; fill-opacity:0.0; 
stroke:#000000; stroke-width:150; stroke-opacity:1; 
stroke-linecap:round; stroke-linejoin:round;">
<path d="M16529 14757
L16529 557
" />
<path d="M229 14757
L16529 14757
" />
<path d="M229 557
L229 14757
" />
<path d="M16529 557
L229 557
" />
<g >
</g>
<g >
</g>
<g >
</g>
<g >
</g>
<g >
</g>
<g >
</g>
<g >
</g>
<g >
</g>
<g >
</g>
<g >
</g>
<g >
</g>
<g >
</g>
<g >
</g>
<g >
</g>
<g >
</g>
<g >
</g>
<g >
</g>
<g >
</g>
<g >
</g>
<g >
</g>
<g >
</g>
<g >
</g>
<g >
</g>
<g >
</g>
<g >
</g>
<g >
</g>
<g >
</g>
<g >
</g>
<g >
</g>
<g >
</g>
<g >
</g>
<g >
</g>
<g >
</g>
<g >
</g>
<g >
</g>
<g >
</g>
<g >
</g>
<g >
</g>
<g >
</g>
<g >
</g>
<g >
</g>
<g >
</g>
<g >
</g>
<g >
</g>
<g >
</g>
<g >
</g>
<g >
</g>
<g >
</g>
<g >
</g>
<g >
</g>
<g >
</g>
<g >
</g>
<g >
</g>
<g >
</g>
<g >
</g>
<g >
</g>
<g >
</g>
<g >
</g>
<g >
</g>
<g >
</g>
<g >
</g>
<g >
</g>
<g >
</g>
<g >
</g>
<g >
</g>
<g >
</g>
<g >
</g>
<g >
</g>
<g >
</g>
<g >
</g>
<g >
</g>
<g >
</g>
<g >
</g>
<g >
</g>
<g >
</g>
</g> 
</svg>
