%TF.GenerationSoftware,KiCad,Pcbnew,5.0.0-rc2-dev-unknown-b813eac~63~ubuntu16.04.1*%
%TF.CreationDate,2018-04-08T19:45:01+02:00*%
%TF.ProjectId,atmegax8_with_BM20,61746D65676178385F776974685F424D,rev?*%
%TF.SameCoordinates,Original*%
%TF.FileFunction,Soldermask,Bot*%
%TF.FilePolarity,Negative*%
%FSLAX46Y46*%
G04 Gerber Fmt 4.6, Leading zero omitted, Abs format (unit mm)*
G04 Created by KiCad (PCBNEW 5.0.0-rc2-dev-unknown-b813eac~63~ubuntu16.04.1) date Sun Apr  8 19:45:01 2018*
%MOMM*%
%LPD*%
G01*
G04 APERTURE LIST*
%ADD10R,2.207260X3.807460*%
%ADD11R,3.507740X2.108200*%
%ADD12R,3.508000X2.108000*%
%ADD13R,2.008000X1.808000*%
%ADD14R,1.758000X2.008000*%
%ADD15R,2.108200X4.107180*%
%ADD16R,4.107180X2.108200*%
%ADD17R,1.016000X1.651000*%
%ADD18R,2.008000X1.758000*%
%ADD19R,1.808000X2.008000*%
%ADD20R,2.108000X2.508000*%
%ADD21R,2.235200X2.540000*%
%ADD22O,2.235200X2.540000*%
%ADD23R,2.008000X1.308000*%
%ADD24R,2.540000X2.235200*%
%ADD25O,2.540000X2.235200*%
G04 APERTURE END LIST*
D10*
%TO.C,D1*%
X33121600Y-10741660D03*
X33121600Y-16243300D03*
%TD*%
D11*
%TO.C,C21*%
X20126960Y-37683440D03*
X24526240Y-37683440D03*
%TD*%
D12*
%TO.C,C19*%
X24498300Y-20485100D03*
X20098300Y-20485100D03*
%TD*%
D13*
%TO.C,R23*%
X17001480Y-35280600D03*
X14301480Y-35280600D03*
%TD*%
D14*
%TO.C,C5*%
X30861000Y-13416600D03*
X30861000Y-10916600D03*
%TD*%
D11*
%TO.C,C6*%
X24582120Y-31871920D03*
X20182840Y-31871920D03*
%TD*%
D15*
%TO.C,C9*%
X9138920Y-17746980D03*
X9138920Y-12245340D03*
%TD*%
D16*
%TO.C,C10*%
X22222460Y-12486640D03*
X27724100Y-12486640D03*
%TD*%
D13*
%TO.C,R8*%
X14321800Y-28676600D03*
X17021800Y-28676600D03*
%TD*%
%TO.C,R15*%
X17047200Y-24638000D03*
X14347200Y-24638000D03*
%TD*%
D17*
%TO.C,U3*%
X11938000Y-23027640D03*
X10668000Y-23027640D03*
X9398000Y-23027640D03*
X8128000Y-23027640D03*
X8128000Y-29377640D03*
X9398000Y-29377640D03*
X10668000Y-29377640D03*
X11938000Y-29377640D03*
%TD*%
D15*
%TO.C,C14*%
X9865360Y-32951420D03*
X9865360Y-38453060D03*
%TD*%
D18*
%TO.C,C15*%
X14396400Y-22809200D03*
X16896400Y-22809200D03*
%TD*%
%TO.C,C16*%
X14345600Y-32964120D03*
X16845600Y-32964120D03*
%TD*%
D11*
%TO.C,C20*%
X24526240Y-26116280D03*
X20126960Y-26116280D03*
%TD*%
D13*
%TO.C,R18*%
X17001480Y-30728920D03*
X14301480Y-30728920D03*
%TD*%
%TO.C,R20*%
X15675600Y-19278600D03*
X12975600Y-19278600D03*
%TD*%
%TO.C,R21*%
X14372600Y-26644600D03*
X17072600Y-26644600D03*
%TD*%
D19*
%TO.C,R26*%
X37795200Y-17448520D03*
X37795200Y-14748520D03*
%TD*%
D20*
%TO.C,C22*%
X18846800Y-16249400D03*
X18846800Y-12249400D03*
%TD*%
D14*
%TO.C,C23*%
X13675360Y-14976160D03*
X13675360Y-12476160D03*
%TD*%
D13*
%TO.C,R27*%
X13727440Y-9926320D03*
X16427440Y-9926320D03*
%TD*%
D21*
%TO.C,P1*%
X7406640Y-7396480D03*
D22*
X9946640Y-7396480D03*
X12486640Y-7396480D03*
X15026640Y-7396480D03*
X17566640Y-7396480D03*
X20106640Y-7396480D03*
X22646640Y-7396480D03*
X25186640Y-7396480D03*
X27726640Y-7396480D03*
X30266640Y-7396480D03*
X32806640Y-7396480D03*
%TD*%
D14*
%TO.C,C26*%
X15824200Y-12516800D03*
X15824200Y-15016800D03*
%TD*%
D18*
%TO.C,C28*%
X23348000Y-16256000D03*
X20848000Y-16256000D03*
%TD*%
D19*
%TO.C,D2*%
X37795200Y-9744720D03*
X37795200Y-12444720D03*
%TD*%
%TO.C,D3*%
X35712400Y-12459960D03*
X35712400Y-9759960D03*
%TD*%
%TO.C,R31*%
X35687000Y-14768840D03*
X35687000Y-17468840D03*
%TD*%
D23*
%TO.C,U2*%
X43218000Y-31628000D03*
X43218000Y-26128000D03*
X43218000Y-28328000D03*
X43218000Y-37128000D03*
X43218000Y-34928000D03*
X43218000Y-30528000D03*
X43218000Y-27228000D03*
X43218000Y-38228000D03*
X43218000Y-23928000D03*
X43218000Y-36028000D03*
X43218000Y-25028000D03*
X43218000Y-33828000D03*
X43218000Y-22828000D03*
X43218000Y-29428000D03*
X43218000Y-39328000D03*
X43218000Y-32728000D03*
X29718000Y-36028000D03*
X29718000Y-39328000D03*
X29718000Y-38228000D03*
X29718000Y-37128000D03*
X29718000Y-32728000D03*
X29718000Y-34928000D03*
X29718000Y-30528000D03*
X29718000Y-33828000D03*
X29718000Y-29428000D03*
X29718000Y-31628000D03*
X29718000Y-28328000D03*
X29718000Y-27228000D03*
X29718000Y-26128000D03*
X29718000Y-25028000D03*
X29718000Y-23928000D03*
X29718000Y-22828000D03*
%TD*%
D24*
%TO.C,P3*%
X43352720Y-16144240D03*
D25*
X43352720Y-13604240D03*
X43352720Y-11064240D03*
X43352720Y-8524240D03*
%TD*%
M02*
