%TF.GenerationSoftware,KiCad,Pcbnew,5.0.0-rc2-dev-unknown-b813eac~63~ubuntu16.04.1*%
%TF.CreationDate,2018-04-08T19:45:01+02:00*%
%TF.ProjectId,atmegax8_with_BM20,61746D65676178385F776974685F424D,rev?*%
%TF.SameCoordinates,Original*%
%TF.FileFunction,Soldermask,Top*%
%TF.FilePolarity,Negative*%
%FSLAX46Y46*%
G04 Gerber Fmt 4.6, Leading zero omitted, Abs format (unit mm)*
G04 Created by KiCad (PCBNEW 5.0.0-rc2-dev-unknown-b813eac~63~ubuntu16.04.1) date Sun Apr  8 19:45:01 2018*
%MOMM*%
%LPD*%
G01*
G04 APERTURE LIST*
%ADD10R,2.108000X1.058000*%
%ADD11R,1.058000X2.108000*%
%ADD12R,2.008000X1.808000*%
%ADD13R,1.808000X1.108000*%
%ADD14R,1.808000X2.008000*%
%ADD15R,4.165600X2.540000*%
%ADD16R,1.524000X2.540000*%
%ADD17R,2.008000X1.758000*%
%ADD18R,1.758000X2.008000*%
%ADD19R,2.235200X2.235200*%
%ADD20O,2.235200X2.235200*%
%ADD21R,4.508500X3.208020*%
%ADD22R,3.507740X2.009140*%
%ADD23R,3.302000X2.286000*%
%ADD24R,2.009140X3.507740*%
%ADD25R,1.308100X1.308100*%
%ADD26R,2.235200X2.540000*%
%ADD27O,2.235200X2.540000*%
%ADD28R,2.540000X2.235200*%
%ADD29O,2.540000X2.235200*%
G04 APERTURE END LIST*
D10*
%TO.C,IC1*%
X27550800Y-24886000D03*
X27550800Y-25686000D03*
X27550800Y-26486000D03*
X27550800Y-27286000D03*
X27550800Y-28086000D03*
X27550800Y-28886000D03*
X27550800Y-29686000D03*
X27550800Y-30486000D03*
D11*
X29000800Y-31936000D03*
X29800800Y-31936000D03*
X30600800Y-31936000D03*
X31400800Y-31936000D03*
X32200800Y-31936000D03*
X33000800Y-31936000D03*
X33800800Y-31936000D03*
X34600800Y-31936000D03*
D10*
X36050800Y-30486000D03*
X36050800Y-29686000D03*
X36050800Y-28886000D03*
X36050800Y-28086000D03*
X36050800Y-27286000D03*
X36050800Y-26486000D03*
X36050800Y-25686000D03*
X36050800Y-24886000D03*
D11*
X34600800Y-23436000D03*
X33800800Y-23436000D03*
X33000800Y-23436000D03*
X32200800Y-23436000D03*
X31400800Y-23436000D03*
X30600800Y-23436000D03*
X29800800Y-23436000D03*
X29000800Y-23436000D03*
%TD*%
D12*
%TO.C,R14*%
X32016700Y-15443200D03*
X34716700Y-15443200D03*
%TD*%
D13*
%TO.C,Y1*%
X22834600Y-33949600D03*
X22834600Y-32999600D03*
X22834600Y-34899600D03*
%TD*%
D14*
%TO.C,R2*%
X36576000Y-19401800D03*
X36576000Y-22101800D03*
%TD*%
D15*
%TO.C,U1*%
X20434300Y-19456400D03*
D16*
X20434300Y-12852400D03*
X18148300Y-12852400D03*
X22720300Y-12852400D03*
%TD*%
D17*
%TO.C,C3*%
X20111400Y-10071100D03*
X22611400Y-10071100D03*
%TD*%
D18*
%TO.C,C4*%
X22453600Y-28407680D03*
X22453600Y-25907680D03*
%TD*%
D19*
%TO.C,P2*%
X37764720Y-33848040D03*
D20*
X40304720Y-33848040D03*
X37764720Y-36388040D03*
X40304720Y-36388040D03*
X37764720Y-38928040D03*
X40304720Y-38928040D03*
%TD*%
D14*
%TO.C,R1*%
X25186640Y-10237480D03*
X25186640Y-12937480D03*
%TD*%
D12*
%TO.C,R30*%
X24832320Y-20835620D03*
X27532320Y-20835620D03*
%TD*%
D14*
%TO.C,R4*%
X27731720Y-12952720D03*
X27731720Y-10252720D03*
%TD*%
%TO.C,R5*%
X27343100Y-35144700D03*
X27343100Y-32444700D03*
%TD*%
%TO.C,R6*%
X25133300Y-32444700D03*
X25133300Y-35144700D03*
%TD*%
%TO.C,R3*%
X38912800Y-28622000D03*
X38912800Y-31322000D03*
%TD*%
D21*
%TO.C,C11*%
X8826500Y-38130480D03*
X16603980Y-38130480D03*
%TD*%
D18*
%TO.C,C12*%
X12435840Y-24708800D03*
X12435840Y-27208800D03*
%TD*%
D22*
%TO.C,C13*%
X11590020Y-33769300D03*
X15587980Y-33769300D03*
%TD*%
D14*
%TO.C,R9*%
X12928600Y-13567400D03*
X12928600Y-10867400D03*
%TD*%
%TO.C,R10*%
X6725920Y-13618200D03*
X6725920Y-10918200D03*
%TD*%
%TO.C,R11*%
X10947400Y-13567400D03*
X10947400Y-10867400D03*
%TD*%
%TO.C,R12*%
X8763000Y-13592800D03*
X8763000Y-10892800D03*
%TD*%
D12*
%TO.C,R13*%
X32047200Y-17589500D03*
X34747200Y-17589500D03*
%TD*%
D14*
%TO.C,R16*%
X15006320Y-25454600D03*
X15006320Y-22754600D03*
%TD*%
%TO.C,R17*%
X15034260Y-30511740D03*
X15034260Y-27811740D03*
%TD*%
D23*
%TO.C,L1*%
X18470880Y-22514560D03*
X18470880Y-26070560D03*
%TD*%
D18*
%TO.C,C17*%
X8155940Y-21996080D03*
X8155940Y-24496080D03*
%TD*%
%TO.C,C18*%
X10287000Y-29545600D03*
X10287000Y-27045600D03*
%TD*%
D14*
%TO.C,R19*%
X34632900Y-12970500D03*
X34632900Y-10270500D03*
%TD*%
%TO.C,R22*%
X10251440Y-24697680D03*
X10251440Y-21997680D03*
%TD*%
%TO.C,R24*%
X8133080Y-27001480D03*
X8133080Y-29701480D03*
%TD*%
D12*
%TO.C,R25*%
X16123900Y-20408900D03*
X13423900Y-20408900D03*
%TD*%
D17*
%TO.C,C7*%
X14127800Y-16205200D03*
X11627800Y-16205200D03*
%TD*%
%TO.C,C8*%
X6827200Y-16281400D03*
X9327200Y-16281400D03*
%TD*%
D22*
%TO.C,C24*%
X33942020Y-36530280D03*
X29944060Y-36530280D03*
%TD*%
D24*
%TO.C,C25*%
X41630600Y-25356820D03*
X41630600Y-29354780D03*
%TD*%
D25*
%TO.C,Q1*%
X29055060Y-16756420D03*
X29055060Y-14856420D03*
X27056080Y-15806420D03*
%TD*%
D14*
%TO.C,R28*%
X30289500Y-12995900D03*
X30289500Y-10295900D03*
%TD*%
%TO.C,R29*%
X32567880Y-13003520D03*
X32567880Y-10303520D03*
%TD*%
D26*
%TO.C,P1*%
X7406640Y-7396480D03*
D27*
X9946640Y-7396480D03*
X12486640Y-7396480D03*
X15026640Y-7396480D03*
X17566640Y-7396480D03*
X20106640Y-7396480D03*
X22646640Y-7396480D03*
X25186640Y-7396480D03*
X27726640Y-7396480D03*
X30266640Y-7396480D03*
X32806640Y-7396480D03*
%TD*%
D18*
%TO.C,C27*%
X14935200Y-10840400D03*
X14935200Y-13340400D03*
%TD*%
D12*
%TO.C,R7*%
X32459920Y-34269680D03*
X29759920Y-34269680D03*
%TD*%
D28*
%TO.C,P3*%
X43352720Y-16144240D03*
D29*
X43352720Y-13604240D03*
X43352720Y-11064240D03*
X43352720Y-8524240D03*
%TD*%
M02*
