%TF.GenerationSoftware,KiCad,Pcbnew,5.0.0-rc2-dev-unknown-b813eac~63~ubuntu16.04.1*%
%TF.CreationDate,2018-04-08T19:45:01+02:00*%
%TF.ProjectId,atmegax8_with_BM20,61746D65676178385F776974685F424D,rev?*%
%TF.SameCoordinates,Original*%
%TF.FileFunction,Legend,Top*%
%TF.FilePolarity,Positive*%
%FSLAX46Y46*%
G04 Gerber Fmt 4.6, Leading zero omitted, Abs format (unit mm)*
G04 Created by KiCad (PCBNEW 5.0.0-rc2-dev-unknown-b813eac~63~ubuntu16.04.1) date Sun Apr  8 19:45:01 2018*
%MOMM*%
%LPD*%
G01*
G04 APERTURE LIST*
%ADD10C,0.150000*%
%ADD11C,0.203200*%
%ADD12C,0.120000*%
G04 APERTURE END LIST*
D10*
%TO.C,IC1*%
X28175800Y-24061000D02*
X28175800Y-24386000D01*
X35425800Y-24061000D02*
X35425800Y-24386000D01*
X35425800Y-31311000D02*
X35425800Y-30986000D01*
X28175800Y-31311000D02*
X28175800Y-30986000D01*
X28175800Y-24061000D02*
X28500800Y-24061000D01*
X28175800Y-31311000D02*
X28500800Y-31311000D01*
X35425800Y-31311000D02*
X35100800Y-31311000D01*
X35425800Y-24061000D02*
X35100800Y-24061000D01*
X28175800Y-24386000D02*
X26750800Y-24386000D01*
%TO.C,R14*%
X33966700Y-16318200D02*
X32766700Y-16318200D01*
X32766700Y-14568200D02*
X33966700Y-14568200D01*
%TO.C,Y1*%
X22084600Y-35649600D02*
X23584600Y-35649600D01*
X22084600Y-32249600D02*
X22084600Y-35649600D01*
X23584600Y-32249600D02*
X22084600Y-32249600D01*
X23584600Y-35649600D02*
X23584600Y-32249600D01*
%TO.C,R2*%
X35701000Y-21351800D02*
X35701000Y-20151800D01*
X37451000Y-20151800D02*
X37451000Y-21351800D01*
D11*
%TO.C,U1*%
X23990300Y-14630400D02*
X23990300Y-11582400D01*
X23990300Y-11582400D02*
X16878300Y-11582400D01*
X16878300Y-11582400D02*
X16878300Y-14630400D01*
X23990300Y-17678400D02*
X23990300Y-18440400D01*
X23990300Y-18440400D02*
X22466300Y-20726400D01*
X22466300Y-20726400D02*
X18402300Y-20726400D01*
X18402300Y-20726400D02*
X16878300Y-18440400D01*
X16878300Y-18440400D02*
X16878300Y-17678400D01*
D10*
%TO.C,C3*%
X21861400Y-9221100D02*
X20861400Y-9221100D01*
X20861400Y-10921100D02*
X21861400Y-10921100D01*
%TO.C,C4*%
X21603600Y-26657680D02*
X21603600Y-27657680D01*
X23303600Y-27657680D02*
X23303600Y-26657680D01*
%TO.C,P2*%
X36494720Y-35118040D02*
X36494720Y-40198040D01*
X36214720Y-32298040D02*
X37764720Y-32298040D01*
X39034720Y-32578040D02*
X39034720Y-35118040D01*
X39034720Y-35118040D02*
X36494720Y-35118040D01*
X36494720Y-40198040D02*
X41574720Y-40198040D01*
X41574720Y-40198040D02*
X41574720Y-35118040D01*
X36214720Y-32298040D02*
X36214720Y-33848040D01*
X41574720Y-32578040D02*
X39034720Y-32578040D01*
X41574720Y-35118040D02*
X41574720Y-32578040D01*
%TO.C,R1*%
X24311640Y-12187480D02*
X24311640Y-10987480D01*
X26061640Y-10987480D02*
X26061640Y-12187480D01*
%TO.C,R30*%
X26782320Y-21710620D02*
X25582320Y-21710620D01*
X25582320Y-19960620D02*
X26782320Y-19960620D01*
%TO.C,R4*%
X28606720Y-11002720D02*
X28606720Y-12202720D01*
X26856720Y-12202720D02*
X26856720Y-11002720D01*
%TO.C,R5*%
X28218100Y-33194700D02*
X28218100Y-34394700D01*
X26468100Y-34394700D02*
X26468100Y-33194700D01*
%TO.C,R6*%
X24258300Y-34394700D02*
X24258300Y-33194700D01*
X26008300Y-33194700D02*
X26008300Y-34394700D01*
%TO.C,R3*%
X38037800Y-30572000D02*
X38037800Y-29372000D01*
X39787800Y-29372000D02*
X39787800Y-30572000D01*
%TO.C,C11*%
X19118580Y-40330120D02*
X19118580Y-35930840D01*
X17216120Y-35930840D02*
X8214360Y-35930840D01*
X8214360Y-40330120D02*
X17216120Y-40330120D01*
X19573240Y-41333420D02*
X19573240Y-40233600D01*
X20172680Y-40833040D02*
X18973800Y-40833040D01*
%TO.C,C12*%
X13285840Y-26458800D02*
X13285840Y-25458800D01*
X11585840Y-25458800D02*
X11585840Y-26458800D01*
%TO.C,C13*%
X16189960Y-32570420D02*
X10988040Y-32570420D01*
X10988040Y-34968180D02*
X16189960Y-34968180D01*
X18188940Y-36068000D02*
X18188940Y-34968180D01*
X18788380Y-35567620D02*
X17589500Y-35567620D01*
X17584420Y-34968180D02*
X17584420Y-32570420D01*
%TO.C,R9*%
X13803600Y-11617400D02*
X13803600Y-12817400D01*
X12053600Y-12817400D02*
X12053600Y-11617400D01*
%TO.C,R10*%
X7600920Y-11668200D02*
X7600920Y-12868200D01*
X5850920Y-12868200D02*
X5850920Y-11668200D01*
%TO.C,R11*%
X11822400Y-11617400D02*
X11822400Y-12817400D01*
X10072400Y-12817400D02*
X10072400Y-11617400D01*
%TO.C,R12*%
X9638000Y-11642800D02*
X9638000Y-12842800D01*
X7888000Y-12842800D02*
X7888000Y-11642800D01*
%TO.C,R13*%
X33997200Y-18464500D02*
X32797200Y-18464500D01*
X32797200Y-16714500D02*
X33997200Y-16714500D01*
%TO.C,R16*%
X15881320Y-23504600D02*
X15881320Y-24704600D01*
X14131320Y-24704600D02*
X14131320Y-23504600D01*
%TO.C,R17*%
X15909260Y-28561740D02*
X15909260Y-29761740D01*
X14159260Y-29761740D02*
X14159260Y-28561740D01*
%TO.C,L1*%
X19994880Y-21498560D02*
X16946880Y-21498560D01*
X16946880Y-25181560D02*
X16946880Y-27086560D01*
X16946880Y-27086560D02*
X19994880Y-27086560D01*
X19994880Y-27086560D02*
X19994880Y-25181560D01*
X19994880Y-23530560D02*
X19994880Y-21498560D01*
X19994880Y-21698560D02*
X16946880Y-21698560D01*
X16946880Y-21498560D02*
X16946880Y-23530560D01*
%TO.C,C17*%
X9005940Y-23746080D02*
X9005940Y-22746080D01*
X7305940Y-22746080D02*
X7305940Y-23746080D01*
%TO.C,C18*%
X9437000Y-27795600D02*
X9437000Y-28795600D01*
X11137000Y-28795600D02*
X11137000Y-27795600D01*
%TO.C,R19*%
X35507900Y-11020500D02*
X35507900Y-12220500D01*
X33757900Y-12220500D02*
X33757900Y-11020500D01*
%TO.C,R22*%
X11126440Y-22747680D02*
X11126440Y-23947680D01*
X9376440Y-23947680D02*
X9376440Y-22747680D01*
%TO.C,R24*%
X7258080Y-28951480D02*
X7258080Y-27751480D01*
X9008080Y-27751480D02*
X9008080Y-28951480D01*
%TO.C,R25*%
X14173900Y-19533900D02*
X15373900Y-19533900D01*
X15373900Y-21283900D02*
X14173900Y-21283900D01*
%TO.C,C7*%
X12377800Y-17055200D02*
X13377800Y-17055200D01*
X13377800Y-15355200D02*
X12377800Y-15355200D01*
%TO.C,C8*%
X8577200Y-15431400D02*
X7577200Y-15431400D01*
X7577200Y-17131400D02*
X8577200Y-17131400D01*
%TO.C,C24*%
X29342080Y-37729160D02*
X34544000Y-37729160D01*
X34544000Y-35331400D02*
X29342080Y-35331400D01*
X27343100Y-34231580D02*
X27343100Y-35331400D01*
X26743660Y-34731960D02*
X27942540Y-34731960D01*
X27947620Y-35331400D02*
X27947620Y-37729160D01*
%TO.C,C25*%
X42829480Y-29956760D02*
X42829480Y-24754840D01*
X40431720Y-24754840D02*
X40431720Y-29956760D01*
X39331900Y-31955740D02*
X40431720Y-31955740D01*
X39832280Y-32555180D02*
X39832280Y-31356300D01*
X40431720Y-31351220D02*
X42829480Y-31351220D01*
%TO.C,Q1*%
X27404060Y-14507260D02*
X27404060Y-14555520D01*
X28105100Y-17306240D02*
X27404060Y-17306240D01*
X27404060Y-17306240D02*
X27404060Y-17057320D01*
X27404060Y-14507260D02*
X27404060Y-14306600D01*
X27404060Y-14306600D02*
X28105100Y-14306600D01*
%TO.C,R28*%
X31164500Y-11045900D02*
X31164500Y-12245900D01*
X29414500Y-12245900D02*
X29414500Y-11045900D01*
%TO.C,R29*%
X33442880Y-11053520D02*
X33442880Y-12253520D01*
X31692880Y-12253520D02*
X31692880Y-11053520D01*
D12*
%TO.C,C27*%
X15785200Y-12590400D02*
X15785200Y-11590400D01*
X14085200Y-11590400D02*
X14085200Y-12590400D01*
%TO.C,R7*%
X30509920Y-33389680D02*
X31709920Y-33389680D01*
X31709920Y-35149680D02*
X30509920Y-35149680D01*
D10*
%TO.C,P3*%
X44622720Y-14874240D02*
X44622720Y-7254240D01*
X42082720Y-14874240D02*
X42082720Y-7254240D01*
X41802720Y-17694240D02*
X41802720Y-16144240D01*
X44622720Y-7254240D02*
X42082720Y-7254240D01*
X42082720Y-14874240D02*
X44622720Y-14874240D01*
X44902720Y-16144240D02*
X44902720Y-17694240D01*
X44902720Y-17694240D02*
X41802720Y-17694240D01*
%TO.C,IC1*%
X32907409Y-25623780D02*
X32907409Y-24623780D01*
X33955028Y-25528542D02*
X33907409Y-25576161D01*
X33764552Y-25623780D01*
X33669314Y-25623780D01*
X33526457Y-25576161D01*
X33431219Y-25480923D01*
X33383600Y-25385685D01*
X33335980Y-25195209D01*
X33335980Y-25052352D01*
X33383600Y-24861876D01*
X33431219Y-24766638D01*
X33526457Y-24671400D01*
X33669314Y-24623780D01*
X33764552Y-24623780D01*
X33907409Y-24671400D01*
X33955028Y-24719019D01*
X34907409Y-25623780D02*
X34335980Y-25623780D01*
X34621695Y-25623780D02*
X34621695Y-24623780D01*
X34526457Y-24766638D01*
X34431219Y-24861876D01*
X34335980Y-24909495D01*
%TO.C,R14*%
X33587442Y-14447780D02*
X33254109Y-13971590D01*
X33016014Y-14447780D02*
X33016014Y-13447780D01*
X33396966Y-13447780D01*
X33492204Y-13495400D01*
X33539823Y-13543019D01*
X33587442Y-13638257D01*
X33587442Y-13781114D01*
X33539823Y-13876352D01*
X33492204Y-13923971D01*
X33396966Y-13971590D01*
X33016014Y-13971590D01*
X34539823Y-14447780D02*
X33968395Y-14447780D01*
X34254109Y-14447780D02*
X34254109Y-13447780D01*
X34158871Y-13590638D01*
X34063633Y-13685876D01*
X33968395Y-13733495D01*
X35396966Y-13781114D02*
X35396966Y-14447780D01*
X35158871Y-13400161D02*
X34920776Y-14114447D01*
X35539823Y-14114447D01*
%TO.C,Y1*%
X24285552Y-34410552D02*
X24666504Y-34410552D01*
X23866504Y-34677219D02*
X24285552Y-34410552D01*
X23866504Y-34143885D01*
X24666504Y-33458171D02*
X24666504Y-33915314D01*
X24666504Y-33686742D02*
X23866504Y-33686742D01*
X23980790Y-33762933D01*
X24056980Y-33839123D01*
X24095076Y-33915314D01*
%TO.C,R2*%
X38603180Y-19470666D02*
X38126990Y-19804000D01*
X38603180Y-20042095D02*
X37603180Y-20042095D01*
X37603180Y-19661142D01*
X37650800Y-19565904D01*
X37698419Y-19518285D01*
X37793657Y-19470666D01*
X37936514Y-19470666D01*
X38031752Y-19518285D01*
X38079371Y-19565904D01*
X38126990Y-19661142D01*
X38126990Y-20042095D01*
X37698419Y-19089714D02*
X37650800Y-19042095D01*
X37603180Y-18946857D01*
X37603180Y-18708761D01*
X37650800Y-18613523D01*
X37698419Y-18565904D01*
X37793657Y-18518285D01*
X37888895Y-18518285D01*
X38031752Y-18565904D01*
X38603180Y-19137333D01*
X38603180Y-18518285D01*
%TO.C,U1*%
D11*
X19660204Y-16360019D02*
X19660204Y-17182495D01*
X19708585Y-17279257D01*
X19756966Y-17327638D01*
X19853728Y-17376019D01*
X20047252Y-17376019D01*
X20144014Y-17327638D01*
X20192395Y-17279257D01*
X20240776Y-17182495D01*
X20240776Y-16360019D01*
X21256776Y-17376019D02*
X20676204Y-17376019D01*
X20966490Y-17376019D02*
X20966490Y-16360019D01*
X20869728Y-16505161D01*
X20772966Y-16601923D01*
X20676204Y-16650304D01*
X18232966Y-14836019D02*
X18910300Y-14836019D01*
X18474871Y-15852019D01*
X19442490Y-15271447D02*
X19345728Y-15223066D01*
X19297347Y-15174685D01*
X19248966Y-15077923D01*
X19248966Y-15029542D01*
X19297347Y-14932780D01*
X19345728Y-14884400D01*
X19442490Y-14836019D01*
X19636014Y-14836019D01*
X19732776Y-14884400D01*
X19781157Y-14932780D01*
X19829538Y-15029542D01*
X19829538Y-15077923D01*
X19781157Y-15174685D01*
X19732776Y-15223066D01*
X19636014Y-15271447D01*
X19442490Y-15271447D01*
X19345728Y-15319828D01*
X19297347Y-15368209D01*
X19248966Y-15464971D01*
X19248966Y-15658495D01*
X19297347Y-15755257D01*
X19345728Y-15803638D01*
X19442490Y-15852019D01*
X19636014Y-15852019D01*
X19732776Y-15803638D01*
X19781157Y-15755257D01*
X19829538Y-15658495D01*
X19829538Y-15464971D01*
X19781157Y-15368209D01*
X19732776Y-15319828D01*
X19636014Y-15271447D01*
X20748776Y-15852019D02*
X20264966Y-15852019D01*
X20264966Y-14836019D01*
X21280966Y-14836019D02*
X21377728Y-14836019D01*
X21474490Y-14884400D01*
X21522871Y-14932780D01*
X21571252Y-15029542D01*
X21619633Y-15223066D01*
X21619633Y-15464971D01*
X21571252Y-15658495D01*
X21522871Y-15755257D01*
X21474490Y-15803638D01*
X21377728Y-15852019D01*
X21280966Y-15852019D01*
X21184204Y-15803638D01*
X21135823Y-15755257D01*
X21087442Y-15658495D01*
X21039061Y-15464971D01*
X21039061Y-15223066D01*
X21087442Y-15029542D01*
X21135823Y-14932780D01*
X21184204Y-14884400D01*
X21280966Y-14836019D01*
X22538871Y-14836019D02*
X22055061Y-14836019D01*
X22006680Y-15319828D01*
X22055061Y-15271447D01*
X22151823Y-15223066D01*
X22393728Y-15223066D01*
X22490490Y-15271447D01*
X22538871Y-15319828D01*
X22587252Y-15416590D01*
X22587252Y-15658495D01*
X22538871Y-15755257D01*
X22490490Y-15803638D01*
X22393728Y-15852019D01*
X22151823Y-15852019D01*
X22055061Y-15803638D01*
X22006680Y-15755257D01*
%TO.C,C3*%
D10*
X18899142Y-10199666D02*
X18946761Y-10247285D01*
X18994380Y-10390142D01*
X18994380Y-10485380D01*
X18946761Y-10628238D01*
X18851523Y-10723476D01*
X18756285Y-10771095D01*
X18565809Y-10818714D01*
X18422952Y-10818714D01*
X18232476Y-10771095D01*
X18137238Y-10723476D01*
X18042000Y-10628238D01*
X17994380Y-10485380D01*
X17994380Y-10390142D01*
X18042000Y-10247285D01*
X18089619Y-10199666D01*
X17994380Y-9866333D02*
X17994380Y-9247285D01*
X18375333Y-9580619D01*
X18375333Y-9437761D01*
X18422952Y-9342523D01*
X18470571Y-9294904D01*
X18565809Y-9247285D01*
X18803904Y-9247285D01*
X18899142Y-9294904D01*
X18946761Y-9342523D01*
X18994380Y-9437761D01*
X18994380Y-9723476D01*
X18946761Y-9818714D01*
X18899142Y-9866333D01*
%TO.C,C4*%
X24410942Y-26150866D02*
X24458561Y-26198485D01*
X24506180Y-26341342D01*
X24506180Y-26436580D01*
X24458561Y-26579438D01*
X24363323Y-26674676D01*
X24268085Y-26722295D01*
X24077609Y-26769914D01*
X23934752Y-26769914D01*
X23744276Y-26722295D01*
X23649038Y-26674676D01*
X23553800Y-26579438D01*
X23506180Y-26436580D01*
X23506180Y-26341342D01*
X23553800Y-26198485D01*
X23601419Y-26150866D01*
X23839514Y-25293723D02*
X24506180Y-25293723D01*
X23458561Y-25531819D02*
X24172847Y-25769914D01*
X24172847Y-25150866D01*
%TO.C,P2*%
X37026624Y-29200420D02*
X37026624Y-28200420D01*
X37407577Y-28200420D01*
X37502815Y-28248040D01*
X37550434Y-28295659D01*
X37598053Y-28390897D01*
X37598053Y-28533754D01*
X37550434Y-28628992D01*
X37502815Y-28676611D01*
X37407577Y-28724230D01*
X37026624Y-28724230D01*
X37979005Y-28295659D02*
X38026624Y-28248040D01*
X38121862Y-28200420D01*
X38359958Y-28200420D01*
X38455196Y-28248040D01*
X38502815Y-28295659D01*
X38550434Y-28390897D01*
X38550434Y-28486135D01*
X38502815Y-28628992D01*
X37931386Y-29200420D01*
X38550434Y-29200420D01*
%TO.C,R1*%
X24293533Y-14955780D02*
X23960200Y-14479590D01*
X23722104Y-14955780D02*
X23722104Y-13955780D01*
X24103057Y-13955780D01*
X24198295Y-14003400D01*
X24245914Y-14051019D01*
X24293533Y-14146257D01*
X24293533Y-14289114D01*
X24245914Y-14384352D01*
X24198295Y-14431971D01*
X24103057Y-14479590D01*
X23722104Y-14479590D01*
X25245914Y-14955780D02*
X24674485Y-14955780D01*
X24960200Y-14955780D02*
X24960200Y-13955780D01*
X24864961Y-14098638D01*
X24769723Y-14193876D01*
X24674485Y-14241495D01*
%TO.C,R30*%
X25493742Y-19781780D02*
X25160409Y-19305590D01*
X24922314Y-19781780D02*
X24922314Y-18781780D01*
X25303266Y-18781780D01*
X25398504Y-18829400D01*
X25446123Y-18877019D01*
X25493742Y-18972257D01*
X25493742Y-19115114D01*
X25446123Y-19210352D01*
X25398504Y-19257971D01*
X25303266Y-19305590D01*
X24922314Y-19305590D01*
X25827076Y-18781780D02*
X26446123Y-18781780D01*
X26112790Y-19162733D01*
X26255647Y-19162733D01*
X26350885Y-19210352D01*
X26398504Y-19257971D01*
X26446123Y-19353209D01*
X26446123Y-19591304D01*
X26398504Y-19686542D01*
X26350885Y-19734161D01*
X26255647Y-19781780D01*
X25969933Y-19781780D01*
X25874695Y-19734161D01*
X25827076Y-19686542D01*
X27065171Y-18781780D02*
X27160409Y-18781780D01*
X27255647Y-18829400D01*
X27303266Y-18877019D01*
X27350885Y-18972257D01*
X27398504Y-19162733D01*
X27398504Y-19400828D01*
X27350885Y-19591304D01*
X27303266Y-19686542D01*
X27255647Y-19734161D01*
X27160409Y-19781780D01*
X27065171Y-19781780D01*
X26969933Y-19734161D01*
X26922314Y-19686542D01*
X26874695Y-19591304D01*
X26827076Y-19400828D01*
X26827076Y-19162733D01*
X26874695Y-18972257D01*
X26922314Y-18877019D01*
X26969933Y-18829400D01*
X27065171Y-18781780D01*
%TO.C,R4*%
X26300133Y-15057380D02*
X25966800Y-14581190D01*
X25728704Y-15057380D02*
X25728704Y-14057380D01*
X26109657Y-14057380D01*
X26204895Y-14105000D01*
X26252514Y-14152619D01*
X26300133Y-14247857D01*
X26300133Y-14390714D01*
X26252514Y-14485952D01*
X26204895Y-14533571D01*
X26109657Y-14581190D01*
X25728704Y-14581190D01*
X27157276Y-14390714D02*
X27157276Y-15057380D01*
X26919180Y-14009761D02*
X26681085Y-14724047D01*
X27300133Y-14724047D01*
%TO.C,R5*%
X26106380Y-33554966D02*
X25630190Y-33888300D01*
X26106380Y-34126395D02*
X25106380Y-34126395D01*
X25106380Y-33745442D01*
X25154000Y-33650204D01*
X25201619Y-33602585D01*
X25296857Y-33554966D01*
X25439714Y-33554966D01*
X25534952Y-33602585D01*
X25582571Y-33650204D01*
X25630190Y-33745442D01*
X25630190Y-34126395D01*
X25106380Y-32650204D02*
X25106380Y-33126395D01*
X25582571Y-33174014D01*
X25534952Y-33126395D01*
X25487333Y-33031157D01*
X25487333Y-32793061D01*
X25534952Y-32697823D01*
X25582571Y-32650204D01*
X25677809Y-32602585D01*
X25915904Y-32602585D01*
X26011142Y-32650204D01*
X26058761Y-32697823D01*
X26106380Y-32793061D01*
X26106380Y-33031157D01*
X26058761Y-33126395D01*
X26011142Y-33174014D01*
%TO.C,R6*%
X24112480Y-33948666D02*
X23636290Y-34282000D01*
X24112480Y-34520095D02*
X23112480Y-34520095D01*
X23112480Y-34139142D01*
X23160100Y-34043904D01*
X23207719Y-33996285D01*
X23302957Y-33948666D01*
X23445814Y-33948666D01*
X23541052Y-33996285D01*
X23588671Y-34043904D01*
X23636290Y-34139142D01*
X23636290Y-34520095D01*
X23112480Y-33091523D02*
X23112480Y-33282000D01*
X23160100Y-33377238D01*
X23207719Y-33424857D01*
X23350576Y-33520095D01*
X23541052Y-33567714D01*
X23922004Y-33567714D01*
X24017242Y-33520095D01*
X24064861Y-33472476D01*
X24112480Y-33377238D01*
X24112480Y-33186761D01*
X24064861Y-33091523D01*
X24017242Y-33043904D01*
X23922004Y-32996285D01*
X23683909Y-32996285D01*
X23588671Y-33043904D01*
X23541052Y-33091523D01*
X23493433Y-33186761D01*
X23493433Y-33377238D01*
X23541052Y-33472476D01*
X23588671Y-33520095D01*
X23683909Y-33567714D01*
%TO.C,R3*%
X38619133Y-33573980D02*
X38285800Y-33097790D01*
X38047704Y-33573980D02*
X38047704Y-32573980D01*
X38428657Y-32573980D01*
X38523895Y-32621600D01*
X38571514Y-32669219D01*
X38619133Y-32764457D01*
X38619133Y-32907314D01*
X38571514Y-33002552D01*
X38523895Y-33050171D01*
X38428657Y-33097790D01*
X38047704Y-33097790D01*
X38952466Y-32573980D02*
X39571514Y-32573980D01*
X39238180Y-32954933D01*
X39381038Y-32954933D01*
X39476276Y-33002552D01*
X39523895Y-33050171D01*
X39571514Y-33145409D01*
X39571514Y-33383504D01*
X39523895Y-33478742D01*
X39476276Y-33526361D01*
X39381038Y-33573980D01*
X39095323Y-33573980D01*
X39000085Y-33526361D01*
X38952466Y-33478742D01*
%TO.C,C11*%
X12082542Y-38838142D02*
X12034923Y-38885761D01*
X11892066Y-38933380D01*
X11796828Y-38933380D01*
X11653971Y-38885761D01*
X11558733Y-38790523D01*
X11511114Y-38695285D01*
X11463495Y-38504809D01*
X11463495Y-38361952D01*
X11511114Y-38171476D01*
X11558733Y-38076238D01*
X11653971Y-37981000D01*
X11796828Y-37933380D01*
X11892066Y-37933380D01*
X12034923Y-37981000D01*
X12082542Y-38028619D01*
X13034923Y-38933380D02*
X12463495Y-38933380D01*
X12749209Y-38933380D02*
X12749209Y-37933380D01*
X12653971Y-38076238D01*
X12558733Y-38171476D01*
X12463495Y-38219095D01*
X13987304Y-38933380D02*
X13415876Y-38933380D01*
X13701590Y-38933380D02*
X13701590Y-37933380D01*
X13606352Y-38076238D01*
X13511114Y-38171476D01*
X13415876Y-38219095D01*
X19227847Y-40076428D02*
X19989752Y-40076428D01*
X19608800Y-40457380D02*
X19608800Y-39695476D01*
%TO.C,C12*%
X13565142Y-23045657D02*
X13612761Y-23093276D01*
X13660380Y-23236133D01*
X13660380Y-23331371D01*
X13612761Y-23474228D01*
X13517523Y-23569466D01*
X13422285Y-23617085D01*
X13231809Y-23664704D01*
X13088952Y-23664704D01*
X12898476Y-23617085D01*
X12803238Y-23569466D01*
X12708000Y-23474228D01*
X12660380Y-23331371D01*
X12660380Y-23236133D01*
X12708000Y-23093276D01*
X12755619Y-23045657D01*
X13660380Y-22093276D02*
X13660380Y-22664704D01*
X13660380Y-22378990D02*
X12660380Y-22378990D01*
X12803238Y-22474228D01*
X12898476Y-22569466D01*
X12946095Y-22664704D01*
X12755619Y-21712323D02*
X12708000Y-21664704D01*
X12660380Y-21569466D01*
X12660380Y-21331371D01*
X12708000Y-21236133D01*
X12755619Y-21188514D01*
X12850857Y-21140895D01*
X12946095Y-21140895D01*
X13088952Y-21188514D01*
X13660380Y-21759942D01*
X13660380Y-21140895D01*
%TO.C,C13*%
X18153142Y-34164542D02*
X18105523Y-34212161D01*
X17962666Y-34259780D01*
X17867428Y-34259780D01*
X17724571Y-34212161D01*
X17629333Y-34116923D01*
X17581714Y-34021685D01*
X17534095Y-33831209D01*
X17534095Y-33688352D01*
X17581714Y-33497876D01*
X17629333Y-33402638D01*
X17724571Y-33307400D01*
X17867428Y-33259780D01*
X17962666Y-33259780D01*
X18105523Y-33307400D01*
X18153142Y-33355019D01*
X19105523Y-34259780D02*
X18534095Y-34259780D01*
X18819809Y-34259780D02*
X18819809Y-33259780D01*
X18724571Y-33402638D01*
X18629333Y-33497876D01*
X18534095Y-33545495D01*
X19438857Y-33259780D02*
X20057904Y-33259780D01*
X19724571Y-33640733D01*
X19867428Y-33640733D01*
X19962666Y-33688352D01*
X20010285Y-33735971D01*
X20057904Y-33831209D01*
X20057904Y-34069304D01*
X20010285Y-34164542D01*
X19962666Y-34212161D01*
X19867428Y-34259780D01*
X19581714Y-34259780D01*
X19486476Y-34212161D01*
X19438857Y-34164542D01*
X17807987Y-35641588D02*
X18569892Y-35641588D01*
X18188940Y-36022540D02*
X18188940Y-35260636D01*
%TO.C,R9*%
X12807653Y-15565380D02*
X12474320Y-15089190D01*
X12236224Y-15565380D02*
X12236224Y-14565380D01*
X12617177Y-14565380D01*
X12712415Y-14613000D01*
X12760034Y-14660619D01*
X12807653Y-14755857D01*
X12807653Y-14898714D01*
X12760034Y-14993952D01*
X12712415Y-15041571D01*
X12617177Y-15089190D01*
X12236224Y-15089190D01*
X13283843Y-15565380D02*
X13474320Y-15565380D01*
X13569558Y-15517761D01*
X13617177Y-15470142D01*
X13712415Y-15327285D01*
X13760034Y-15136809D01*
X13760034Y-14755857D01*
X13712415Y-14660619D01*
X13664796Y-14613000D01*
X13569558Y-14565380D01*
X13379081Y-14565380D01*
X13283843Y-14613000D01*
X13236224Y-14660619D01*
X13188605Y-14755857D01*
X13188605Y-14993952D01*
X13236224Y-15089190D01*
X13283843Y-15136809D01*
X13379081Y-15184428D01*
X13569558Y-15184428D01*
X13664796Y-15136809D01*
X13712415Y-15089190D01*
X13760034Y-14993952D01*
%TO.C,R10*%
X6519942Y-15539980D02*
X6186609Y-15063790D01*
X5948514Y-15539980D02*
X5948514Y-14539980D01*
X6329466Y-14539980D01*
X6424704Y-14587600D01*
X6472323Y-14635219D01*
X6519942Y-14730457D01*
X6519942Y-14873314D01*
X6472323Y-14968552D01*
X6424704Y-15016171D01*
X6329466Y-15063790D01*
X5948514Y-15063790D01*
X7472323Y-15539980D02*
X6900895Y-15539980D01*
X7186609Y-15539980D02*
X7186609Y-14539980D01*
X7091371Y-14682838D01*
X6996133Y-14778076D01*
X6900895Y-14825695D01*
X8091371Y-14539980D02*
X8186609Y-14539980D01*
X8281847Y-14587600D01*
X8329466Y-14635219D01*
X8377085Y-14730457D01*
X8424704Y-14920933D01*
X8424704Y-15159028D01*
X8377085Y-15349504D01*
X8329466Y-15444742D01*
X8281847Y-15492361D01*
X8186609Y-15539980D01*
X8091371Y-15539980D01*
X7996133Y-15492361D01*
X7948514Y-15444742D01*
X7900895Y-15349504D01*
X7853276Y-15159028D01*
X7853276Y-14920933D01*
X7900895Y-14730457D01*
X7948514Y-14635219D01*
X7996133Y-14587600D01*
X8091371Y-14539980D01*
%TO.C,R11*%
X10233422Y-15499340D02*
X9900089Y-15023150D01*
X9661994Y-15499340D02*
X9661994Y-14499340D01*
X10042946Y-14499340D01*
X10138184Y-14546960D01*
X10185803Y-14594579D01*
X10233422Y-14689817D01*
X10233422Y-14832674D01*
X10185803Y-14927912D01*
X10138184Y-14975531D01*
X10042946Y-15023150D01*
X9661994Y-15023150D01*
X11185803Y-15499340D02*
X10614375Y-15499340D01*
X10900089Y-15499340D02*
X10900089Y-14499340D01*
X10804851Y-14642198D01*
X10709613Y-14737436D01*
X10614375Y-14785055D01*
X12138184Y-15499340D02*
X11566756Y-15499340D01*
X11852470Y-15499340D02*
X11852470Y-14499340D01*
X11757232Y-14642198D01*
X11661994Y-14737436D01*
X11566756Y-14785055D01*
%TO.C,R12*%
X7835662Y-9885940D02*
X7502329Y-9409750D01*
X7264234Y-9885940D02*
X7264234Y-8885940D01*
X7645186Y-8885940D01*
X7740424Y-8933560D01*
X7788043Y-8981179D01*
X7835662Y-9076417D01*
X7835662Y-9219274D01*
X7788043Y-9314512D01*
X7740424Y-9362131D01*
X7645186Y-9409750D01*
X7264234Y-9409750D01*
X8788043Y-9885940D02*
X8216615Y-9885940D01*
X8502329Y-9885940D02*
X8502329Y-8885940D01*
X8407091Y-9028798D01*
X8311853Y-9124036D01*
X8216615Y-9171655D01*
X9168996Y-8981179D02*
X9216615Y-8933560D01*
X9311853Y-8885940D01*
X9549948Y-8885940D01*
X9645186Y-8933560D01*
X9692805Y-8981179D01*
X9740424Y-9076417D01*
X9740424Y-9171655D01*
X9692805Y-9314512D01*
X9121377Y-9885940D01*
X9740424Y-9885940D01*
%TO.C,R13*%
X33998942Y-19629380D02*
X33665609Y-19153190D01*
X33427514Y-19629380D02*
X33427514Y-18629380D01*
X33808466Y-18629380D01*
X33903704Y-18677000D01*
X33951323Y-18724619D01*
X33998942Y-18819857D01*
X33998942Y-18962714D01*
X33951323Y-19057952D01*
X33903704Y-19105571D01*
X33808466Y-19153190D01*
X33427514Y-19153190D01*
X34951323Y-19629380D02*
X34379895Y-19629380D01*
X34665609Y-19629380D02*
X34665609Y-18629380D01*
X34570371Y-18772238D01*
X34475133Y-18867476D01*
X34379895Y-18915095D01*
X35284657Y-18629380D02*
X35903704Y-18629380D01*
X35570371Y-19010333D01*
X35713228Y-19010333D01*
X35808466Y-19057952D01*
X35856085Y-19105571D01*
X35903704Y-19200809D01*
X35903704Y-19438904D01*
X35856085Y-19534142D01*
X35808466Y-19581761D01*
X35713228Y-19629380D01*
X35427514Y-19629380D01*
X35332276Y-19581761D01*
X35284657Y-19534142D01*
%TO.C,R16*%
X15590780Y-21064457D02*
X15114590Y-21397790D01*
X15590780Y-21635885D02*
X14590780Y-21635885D01*
X14590780Y-21254933D01*
X14638400Y-21159695D01*
X14686019Y-21112076D01*
X14781257Y-21064457D01*
X14924114Y-21064457D01*
X15019352Y-21112076D01*
X15066971Y-21159695D01*
X15114590Y-21254933D01*
X15114590Y-21635885D01*
X15590780Y-20112076D02*
X15590780Y-20683504D01*
X15590780Y-20397790D02*
X14590780Y-20397790D01*
X14733638Y-20493028D01*
X14828876Y-20588266D01*
X14876495Y-20683504D01*
X14590780Y-19254933D02*
X14590780Y-19445409D01*
X14638400Y-19540647D01*
X14686019Y-19588266D01*
X14828876Y-19683504D01*
X15019352Y-19731123D01*
X15400304Y-19731123D01*
X15495542Y-19683504D01*
X15543161Y-19635885D01*
X15590780Y-19540647D01*
X15590780Y-19350171D01*
X15543161Y-19254933D01*
X15495542Y-19207314D01*
X15400304Y-19159695D01*
X15162209Y-19159695D01*
X15066971Y-19207314D01*
X15019352Y-19254933D01*
X14971733Y-19350171D01*
X14971733Y-19540647D01*
X15019352Y-19635885D01*
X15066971Y-19683504D01*
X15162209Y-19731123D01*
%TO.C,R17*%
X13965180Y-30614857D02*
X13488990Y-30948190D01*
X13965180Y-31186285D02*
X12965180Y-31186285D01*
X12965180Y-30805333D01*
X13012800Y-30710095D01*
X13060419Y-30662476D01*
X13155657Y-30614857D01*
X13298514Y-30614857D01*
X13393752Y-30662476D01*
X13441371Y-30710095D01*
X13488990Y-30805333D01*
X13488990Y-31186285D01*
X13965180Y-29662476D02*
X13965180Y-30233904D01*
X13965180Y-29948190D02*
X12965180Y-29948190D01*
X13108038Y-30043428D01*
X13203276Y-30138666D01*
X13250895Y-30233904D01*
X12965180Y-29329142D02*
X12965180Y-28662476D01*
X13965180Y-29091047D01*
%TO.C,L1*%
X21407380Y-25160266D02*
X21407380Y-25636457D01*
X20407380Y-25636457D01*
X21407380Y-24303123D02*
X21407380Y-24874552D01*
X21407380Y-24588838D02*
X20407380Y-24588838D01*
X20550238Y-24684076D01*
X20645476Y-24779314D01*
X20693095Y-24874552D01*
%TO.C,C17*%
X8586742Y-20226257D02*
X8634361Y-20273876D01*
X8681980Y-20416733D01*
X8681980Y-20511971D01*
X8634361Y-20654828D01*
X8539123Y-20750066D01*
X8443885Y-20797685D01*
X8253409Y-20845304D01*
X8110552Y-20845304D01*
X7920076Y-20797685D01*
X7824838Y-20750066D01*
X7729600Y-20654828D01*
X7681980Y-20511971D01*
X7681980Y-20416733D01*
X7729600Y-20273876D01*
X7777219Y-20226257D01*
X8681980Y-19273876D02*
X8681980Y-19845304D01*
X8681980Y-19559590D02*
X7681980Y-19559590D01*
X7824838Y-19654828D01*
X7920076Y-19750066D01*
X7967695Y-19845304D01*
X7681980Y-18940542D02*
X7681980Y-18273876D01*
X8681980Y-18702447D01*
%TO.C,C18*%
X9796542Y-31472142D02*
X9748923Y-31519761D01*
X9606066Y-31567380D01*
X9510828Y-31567380D01*
X9367971Y-31519761D01*
X9272733Y-31424523D01*
X9225114Y-31329285D01*
X9177495Y-31138809D01*
X9177495Y-30995952D01*
X9225114Y-30805476D01*
X9272733Y-30710238D01*
X9367971Y-30615000D01*
X9510828Y-30567380D01*
X9606066Y-30567380D01*
X9748923Y-30615000D01*
X9796542Y-30662619D01*
X10748923Y-31567380D02*
X10177495Y-31567380D01*
X10463209Y-31567380D02*
X10463209Y-30567380D01*
X10367971Y-30710238D01*
X10272733Y-30805476D01*
X10177495Y-30853095D01*
X11320352Y-30995952D02*
X11225114Y-30948333D01*
X11177495Y-30900714D01*
X11129876Y-30805476D01*
X11129876Y-30757857D01*
X11177495Y-30662619D01*
X11225114Y-30615000D01*
X11320352Y-30567380D01*
X11510828Y-30567380D01*
X11606066Y-30615000D01*
X11653685Y-30662619D01*
X11701304Y-30757857D01*
X11701304Y-30805476D01*
X11653685Y-30900714D01*
X11606066Y-30948333D01*
X11510828Y-30995952D01*
X11320352Y-30995952D01*
X11225114Y-31043571D01*
X11177495Y-31091190D01*
X11129876Y-31186428D01*
X11129876Y-31376904D01*
X11177495Y-31472142D01*
X11225114Y-31519761D01*
X11320352Y-31567380D01*
X11510828Y-31567380D01*
X11606066Y-31519761D01*
X11653685Y-31472142D01*
X11701304Y-31376904D01*
X11701304Y-31186428D01*
X11653685Y-31091190D01*
X11606066Y-31043571D01*
X11510828Y-30995952D01*
%TO.C,R19*%
X33612080Y-11298157D02*
X33135890Y-11631490D01*
X33612080Y-11869585D02*
X32612080Y-11869585D01*
X32612080Y-11488633D01*
X32659700Y-11393395D01*
X32707319Y-11345776D01*
X32802557Y-11298157D01*
X32945414Y-11298157D01*
X33040652Y-11345776D01*
X33088271Y-11393395D01*
X33135890Y-11488633D01*
X33135890Y-11869585D01*
X33612080Y-10345776D02*
X33612080Y-10917204D01*
X33612080Y-10631490D02*
X32612080Y-10631490D01*
X32754938Y-10726728D01*
X32850176Y-10821966D01*
X32897795Y-10917204D01*
X33612080Y-9869585D02*
X33612080Y-9679109D01*
X33564461Y-9583871D01*
X33516842Y-9536252D01*
X33373985Y-9441014D01*
X33183509Y-9393395D01*
X32802557Y-9393395D01*
X32707319Y-9441014D01*
X32659700Y-9488633D01*
X32612080Y-9583871D01*
X32612080Y-9774347D01*
X32659700Y-9869585D01*
X32707319Y-9917204D01*
X32802557Y-9964823D01*
X33040652Y-9964823D01*
X33135890Y-9917204D01*
X33183509Y-9869585D01*
X33231128Y-9774347D01*
X33231128Y-9583871D01*
X33183509Y-9488633D01*
X33135890Y-9441014D01*
X33040652Y-9393395D01*
%TO.C,R22*%
X10713980Y-20251657D02*
X10237790Y-20584990D01*
X10713980Y-20823085D02*
X9713980Y-20823085D01*
X9713980Y-20442133D01*
X9761600Y-20346895D01*
X9809219Y-20299276D01*
X9904457Y-20251657D01*
X10047314Y-20251657D01*
X10142552Y-20299276D01*
X10190171Y-20346895D01*
X10237790Y-20442133D01*
X10237790Y-20823085D01*
X9809219Y-19870704D02*
X9761600Y-19823085D01*
X9713980Y-19727847D01*
X9713980Y-19489752D01*
X9761600Y-19394514D01*
X9809219Y-19346895D01*
X9904457Y-19299276D01*
X9999695Y-19299276D01*
X10142552Y-19346895D01*
X10713980Y-19918323D01*
X10713980Y-19299276D01*
X9809219Y-18918323D02*
X9761600Y-18870704D01*
X9713980Y-18775466D01*
X9713980Y-18537371D01*
X9761600Y-18442133D01*
X9809219Y-18394514D01*
X9904457Y-18346895D01*
X9999695Y-18346895D01*
X10142552Y-18394514D01*
X10713980Y-18965942D01*
X10713980Y-18346895D01*
%TO.C,R24*%
X6954780Y-28836857D02*
X6478590Y-29170190D01*
X6954780Y-29408285D02*
X5954780Y-29408285D01*
X5954780Y-29027333D01*
X6002400Y-28932095D01*
X6050019Y-28884476D01*
X6145257Y-28836857D01*
X6288114Y-28836857D01*
X6383352Y-28884476D01*
X6430971Y-28932095D01*
X6478590Y-29027333D01*
X6478590Y-29408285D01*
X6050019Y-28455904D02*
X6002400Y-28408285D01*
X5954780Y-28313047D01*
X5954780Y-28074952D01*
X6002400Y-27979714D01*
X6050019Y-27932095D01*
X6145257Y-27884476D01*
X6240495Y-27884476D01*
X6383352Y-27932095D01*
X6954780Y-28503523D01*
X6954780Y-27884476D01*
X6288114Y-27027333D02*
X6954780Y-27027333D01*
X5907161Y-27265428D02*
X6621447Y-27503523D01*
X6621447Y-26884476D01*
%TO.C,R25*%
X18299680Y-20975557D02*
X17823490Y-21308890D01*
X18299680Y-21546985D02*
X17299680Y-21546985D01*
X17299680Y-21166033D01*
X17347300Y-21070795D01*
X17394919Y-21023176D01*
X17490157Y-20975557D01*
X17633014Y-20975557D01*
X17728252Y-21023176D01*
X17775871Y-21070795D01*
X17823490Y-21166033D01*
X17823490Y-21546985D01*
X17394919Y-20594604D02*
X17347300Y-20546985D01*
X17299680Y-20451747D01*
X17299680Y-20213652D01*
X17347300Y-20118414D01*
X17394919Y-20070795D01*
X17490157Y-20023176D01*
X17585395Y-20023176D01*
X17728252Y-20070795D01*
X18299680Y-20642223D01*
X18299680Y-20023176D01*
X17299680Y-19118414D02*
X17299680Y-19594604D01*
X17775871Y-19642223D01*
X17728252Y-19594604D01*
X17680633Y-19499366D01*
X17680633Y-19261271D01*
X17728252Y-19166033D01*
X17775871Y-19118414D01*
X17871109Y-19070795D01*
X18109204Y-19070795D01*
X18204442Y-19118414D01*
X18252061Y-19166033D01*
X18299680Y-19261271D01*
X18299680Y-19499366D01*
X18252061Y-19594604D01*
X18204442Y-19642223D01*
%TO.C,C7*%
X12680653Y-18350502D02*
X12633034Y-18398121D01*
X12490177Y-18445740D01*
X12394939Y-18445740D01*
X12252081Y-18398121D01*
X12156843Y-18302883D01*
X12109224Y-18207645D01*
X12061605Y-18017169D01*
X12061605Y-17874312D01*
X12109224Y-17683836D01*
X12156843Y-17588598D01*
X12252081Y-17493360D01*
X12394939Y-17445740D01*
X12490177Y-17445740D01*
X12633034Y-17493360D01*
X12680653Y-17540979D01*
X13013986Y-17445740D02*
X13680653Y-17445740D01*
X13252081Y-18445740D01*
%TO.C,C8*%
X6696413Y-18198102D02*
X6648794Y-18245721D01*
X6505937Y-18293340D01*
X6410699Y-18293340D01*
X6267841Y-18245721D01*
X6172603Y-18150483D01*
X6124984Y-18055245D01*
X6077365Y-17864769D01*
X6077365Y-17721912D01*
X6124984Y-17531436D01*
X6172603Y-17436198D01*
X6267841Y-17340960D01*
X6410699Y-17293340D01*
X6505937Y-17293340D01*
X6648794Y-17340960D01*
X6696413Y-17388579D01*
X7267841Y-17721912D02*
X7172603Y-17674293D01*
X7124984Y-17626674D01*
X7077365Y-17531436D01*
X7077365Y-17483817D01*
X7124984Y-17388579D01*
X7172603Y-17340960D01*
X7267841Y-17293340D01*
X7458318Y-17293340D01*
X7553556Y-17340960D01*
X7601175Y-17388579D01*
X7648794Y-17483817D01*
X7648794Y-17531436D01*
X7601175Y-17626674D01*
X7553556Y-17674293D01*
X7458318Y-17721912D01*
X7267841Y-17721912D01*
X7172603Y-17769531D01*
X7124984Y-17817150D01*
X7077365Y-17912388D01*
X7077365Y-18102864D01*
X7124984Y-18198102D01*
X7172603Y-18245721D01*
X7267841Y-18293340D01*
X7458318Y-18293340D01*
X7553556Y-18245721D01*
X7601175Y-18198102D01*
X7648794Y-18102864D01*
X7648794Y-17912388D01*
X7601175Y-17817150D01*
X7553556Y-17769531D01*
X7458318Y-17721912D01*
%TO.C,C24*%
X30284182Y-38487622D02*
X30236563Y-38535241D01*
X30093706Y-38582860D01*
X29998468Y-38582860D01*
X29855611Y-38535241D01*
X29760373Y-38440003D01*
X29712754Y-38344765D01*
X29665135Y-38154289D01*
X29665135Y-38011432D01*
X29712754Y-37820956D01*
X29760373Y-37725718D01*
X29855611Y-37630480D01*
X29998468Y-37582860D01*
X30093706Y-37582860D01*
X30236563Y-37630480D01*
X30284182Y-37678099D01*
X30665135Y-37678099D02*
X30712754Y-37630480D01*
X30807992Y-37582860D01*
X31046087Y-37582860D01*
X31141325Y-37630480D01*
X31188944Y-37678099D01*
X31236563Y-37773337D01*
X31236563Y-37868575D01*
X31188944Y-38011432D01*
X30617516Y-38582860D01*
X31236563Y-38582860D01*
X32093706Y-37916194D02*
X32093706Y-38582860D01*
X31855611Y-37535241D02*
X31617516Y-38249527D01*
X32236563Y-38249527D01*
X27269487Y-35230108D02*
X28031392Y-35230108D01*
X27650440Y-35611060D02*
X27650440Y-34849156D01*
%TO.C,C25*%
X42851342Y-33485057D02*
X42898961Y-33532676D01*
X42946580Y-33675533D01*
X42946580Y-33770771D01*
X42898961Y-33913628D01*
X42803723Y-34008866D01*
X42708485Y-34056485D01*
X42518009Y-34104104D01*
X42375152Y-34104104D01*
X42184676Y-34056485D01*
X42089438Y-34008866D01*
X41994200Y-33913628D01*
X41946580Y-33770771D01*
X41946580Y-33675533D01*
X41994200Y-33532676D01*
X42041819Y-33485057D01*
X42041819Y-33104104D02*
X41994200Y-33056485D01*
X41946580Y-32961247D01*
X41946580Y-32723152D01*
X41994200Y-32627914D01*
X42041819Y-32580295D01*
X42137057Y-32532676D01*
X42232295Y-32532676D01*
X42375152Y-32580295D01*
X42946580Y-33151723D01*
X42946580Y-32532676D01*
X41946580Y-31627914D02*
X41946580Y-32104104D01*
X42422771Y-32151723D01*
X42375152Y-32104104D01*
X42327533Y-32008866D01*
X42327533Y-31770771D01*
X42375152Y-31675533D01*
X42422771Y-31627914D01*
X42518009Y-31580295D01*
X42756104Y-31580295D01*
X42851342Y-31627914D01*
X42898961Y-31675533D01*
X42946580Y-31770771D01*
X42946580Y-32008866D01*
X42898961Y-32104104D01*
X42851342Y-32151723D01*
X39901168Y-32336692D02*
X39901168Y-31574787D01*
X40282120Y-31955740D02*
X39520216Y-31955740D01*
%TO.C,Q1*%
X28657561Y-18454619D02*
X28562323Y-18407000D01*
X28467085Y-18311761D01*
X28324228Y-18168904D01*
X28228990Y-18121285D01*
X28133752Y-18121285D01*
X28181371Y-18359380D02*
X28086133Y-18311761D01*
X27990895Y-18216523D01*
X27943276Y-18026047D01*
X27943276Y-17692714D01*
X27990895Y-17502238D01*
X28086133Y-17407000D01*
X28181371Y-17359380D01*
X28371847Y-17359380D01*
X28467085Y-17407000D01*
X28562323Y-17502238D01*
X28609942Y-17692714D01*
X28609942Y-18026047D01*
X28562323Y-18216523D01*
X28467085Y-18311761D01*
X28371847Y-18359380D01*
X28181371Y-18359380D01*
X29562323Y-18359380D02*
X28990895Y-18359380D01*
X29276609Y-18359380D02*
X29276609Y-17359380D01*
X29181371Y-17502238D01*
X29086133Y-17597476D01*
X28990895Y-17645095D01*
%TO.C,R28*%
X30497542Y-15082780D02*
X30164209Y-14606590D01*
X29926114Y-15082780D02*
X29926114Y-14082780D01*
X30307066Y-14082780D01*
X30402304Y-14130400D01*
X30449923Y-14178019D01*
X30497542Y-14273257D01*
X30497542Y-14416114D01*
X30449923Y-14511352D01*
X30402304Y-14558971D01*
X30307066Y-14606590D01*
X29926114Y-14606590D01*
X30878495Y-14178019D02*
X30926114Y-14130400D01*
X31021352Y-14082780D01*
X31259447Y-14082780D01*
X31354685Y-14130400D01*
X31402304Y-14178019D01*
X31449923Y-14273257D01*
X31449923Y-14368495D01*
X31402304Y-14511352D01*
X30830876Y-15082780D01*
X31449923Y-15082780D01*
X32021352Y-14511352D02*
X31926114Y-14463733D01*
X31878495Y-14416114D01*
X31830876Y-14320876D01*
X31830876Y-14273257D01*
X31878495Y-14178019D01*
X31926114Y-14130400D01*
X32021352Y-14082780D01*
X32211828Y-14082780D01*
X32307066Y-14130400D01*
X32354685Y-14178019D01*
X32402304Y-14273257D01*
X32402304Y-14320876D01*
X32354685Y-14416114D01*
X32307066Y-14463733D01*
X32211828Y-14511352D01*
X32021352Y-14511352D01*
X31926114Y-14558971D01*
X31878495Y-14606590D01*
X31830876Y-14701828D01*
X31830876Y-14892304D01*
X31878495Y-14987542D01*
X31926114Y-15035161D01*
X32021352Y-15082780D01*
X32211828Y-15082780D01*
X32307066Y-15035161D01*
X32354685Y-14987542D01*
X32402304Y-14892304D01*
X32402304Y-14701828D01*
X32354685Y-14606590D01*
X32307066Y-14558971D01*
X32211828Y-14511352D01*
%TO.C,R29*%
X34589980Y-12098257D02*
X34113790Y-12431590D01*
X34589980Y-12669685D02*
X33589980Y-12669685D01*
X33589980Y-12288733D01*
X33637600Y-12193495D01*
X33685219Y-12145876D01*
X33780457Y-12098257D01*
X33923314Y-12098257D01*
X34018552Y-12145876D01*
X34066171Y-12193495D01*
X34113790Y-12288733D01*
X34113790Y-12669685D01*
X33685219Y-11717304D02*
X33637600Y-11669685D01*
X33589980Y-11574447D01*
X33589980Y-11336352D01*
X33637600Y-11241114D01*
X33685219Y-11193495D01*
X33780457Y-11145876D01*
X33875695Y-11145876D01*
X34018552Y-11193495D01*
X34589980Y-11764923D01*
X34589980Y-11145876D01*
X34589980Y-10669685D02*
X34589980Y-10479209D01*
X34542361Y-10383971D01*
X34494742Y-10336352D01*
X34351885Y-10241114D01*
X34161409Y-10193495D01*
X33780457Y-10193495D01*
X33685219Y-10241114D01*
X33637600Y-10288733D01*
X33589980Y-10383971D01*
X33589980Y-10574447D01*
X33637600Y-10669685D01*
X33685219Y-10717304D01*
X33780457Y-10764923D01*
X34018552Y-10764923D01*
X34113790Y-10717304D01*
X34161409Y-10669685D01*
X34209028Y-10574447D01*
X34209028Y-10383971D01*
X34161409Y-10288733D01*
X34113790Y-10241114D01*
X34018552Y-10193495D01*
%TO.C,C27*%
X13542342Y-12733257D02*
X13589961Y-12780876D01*
X13637580Y-12923733D01*
X13637580Y-13018971D01*
X13589961Y-13161828D01*
X13494723Y-13257066D01*
X13399485Y-13304685D01*
X13209009Y-13352304D01*
X13066152Y-13352304D01*
X12875676Y-13304685D01*
X12780438Y-13257066D01*
X12685200Y-13161828D01*
X12637580Y-13018971D01*
X12637580Y-12923733D01*
X12685200Y-12780876D01*
X12732819Y-12733257D01*
X12732819Y-12352304D02*
X12685200Y-12304685D01*
X12637580Y-12209447D01*
X12637580Y-11971352D01*
X12685200Y-11876114D01*
X12732819Y-11828495D01*
X12828057Y-11780876D01*
X12923295Y-11780876D01*
X13066152Y-11828495D01*
X13637580Y-12399923D01*
X13637580Y-11780876D01*
X12637580Y-11447542D02*
X12637580Y-10780876D01*
X13637580Y-11209447D01*
%TO.C,R7*%
X30943253Y-33022060D02*
X30609920Y-32545870D01*
X30371824Y-33022060D02*
X30371824Y-32022060D01*
X30752777Y-32022060D01*
X30848015Y-32069680D01*
X30895634Y-32117299D01*
X30943253Y-32212537D01*
X30943253Y-32355394D01*
X30895634Y-32450632D01*
X30848015Y-32498251D01*
X30752777Y-32545870D01*
X30371824Y-32545870D01*
X31276586Y-32022060D02*
X31943253Y-32022060D01*
X31514681Y-33022060D01*
%TO.C,P3*%
X42614624Y-21696620D02*
X42614624Y-20696620D01*
X42995577Y-20696620D01*
X43090815Y-20744240D01*
X43138434Y-20791859D01*
X43186053Y-20887097D01*
X43186053Y-21029954D01*
X43138434Y-21125192D01*
X43090815Y-21172811D01*
X42995577Y-21220430D01*
X42614624Y-21220430D01*
X43519386Y-20696620D02*
X44138434Y-20696620D01*
X43805100Y-21077573D01*
X43947958Y-21077573D01*
X44043196Y-21125192D01*
X44090815Y-21172811D01*
X44138434Y-21268049D01*
X44138434Y-21506144D01*
X44090815Y-21601382D01*
X44043196Y-21649001D01*
X43947958Y-21696620D01*
X43662243Y-21696620D01*
X43567005Y-21649001D01*
X43519386Y-21601382D01*
%TD*%
M02*
