%TF.GenerationSoftware,KiCad,Pcbnew,5.0.0-rc2-dev-unknown-b813eac~63~ubuntu16.04.1*%
%TF.CreationDate,2018-04-08T19:45:01+02:00*%
%TF.ProjectId,atmegax8_with_BM20,61746D65676178385F776974685F424D,rev?*%
%TF.SameCoordinates,Original*%
%TF.FileFunction,Legend,Bot*%
%TF.FilePolarity,Positive*%
%FSLAX46Y46*%
G04 Gerber Fmt 4.6, Leading zero omitted, Abs format (unit mm)*
G04 Created by KiCad (PCBNEW 5.0.0-rc2-dev-unknown-b813eac~63~ubuntu16.04.1) date Sun Apr  8 19:45:01 2018*
%MOMM*%
%LPD*%
G01*
G04 APERTURE LIST*
%ADD10C,0.150000*%
%ADD11C,0.120000*%
G04 APERTURE END LIST*
D10*
%TO.C,D1*%
X33121600Y-12992900D02*
X33121600Y-12843040D01*
X33121600Y-13841260D02*
X33121600Y-14041920D01*
X33121600Y-12992900D02*
X33870900Y-12992900D01*
X33121600Y-12992900D02*
X32420560Y-12992900D01*
X33121600Y-12992900D02*
X32420560Y-13841260D01*
X32420560Y-13841260D02*
X33822640Y-13841260D01*
X33822640Y-13841260D02*
X33121600Y-12992900D01*
%TO.C,C21*%
X24612600Y-37048440D02*
X24612600Y-38445440D01*
X24485600Y-36794440D02*
X24485600Y-38572440D01*
X24358600Y-36413440D02*
X24358600Y-38953440D01*
X24231600Y-39080440D02*
X24231600Y-36286440D01*
X24104600Y-36159440D02*
X24104600Y-39207440D01*
X23977600Y-39334440D02*
X23977600Y-36032440D01*
X23850600Y-35905440D02*
X23850600Y-39461440D01*
X24993600Y-35016440D02*
X20421600Y-35016440D01*
X20421600Y-35016440D02*
X19659600Y-35778440D01*
X19659600Y-35778440D02*
X19659600Y-39588440D01*
X19659600Y-39588440D02*
X20421600Y-40350440D01*
X20421600Y-40350440D02*
X24993600Y-40350440D01*
X24993600Y-40350440D02*
X24993600Y-35016440D01*
X20167600Y-37683440D02*
X20929600Y-37683440D01*
X20548600Y-37302440D02*
X20548600Y-38064440D01*
X24739600Y-37683440D02*
G75*
G03X24739600Y-37683440I-2413000J0D01*
G01*
D11*
%TO.C,C19*%
X20388300Y-17815100D02*
X24968300Y-17815100D01*
X19628300Y-18575100D02*
X20388300Y-17815100D01*
X20388300Y-23155100D02*
X19628300Y-22395100D01*
X24968300Y-23155100D02*
X20388300Y-23155100D01*
X19628300Y-22395100D02*
X19628300Y-21605100D01*
X19628300Y-18575100D02*
X19628300Y-19365100D01*
X24968300Y-23155100D02*
X24968300Y-21605100D01*
X24968300Y-17815100D02*
X24968300Y-19365100D01*
D10*
%TO.C,R23*%
X15051480Y-36155600D02*
X16251480Y-36155600D01*
X16251480Y-34405600D02*
X15051480Y-34405600D01*
%TO.C,C5*%
X31711000Y-11666600D02*
X31711000Y-12666600D01*
X30011000Y-12666600D02*
X30011000Y-11666600D01*
%TO.C,C6*%
X20096480Y-32506920D02*
X20096480Y-31109920D01*
X20223480Y-32760920D02*
X20223480Y-30982920D01*
X20350480Y-33141920D02*
X20350480Y-30601920D01*
X20477480Y-30474920D02*
X20477480Y-33268920D01*
X20604480Y-33395920D02*
X20604480Y-30347920D01*
X20731480Y-30220920D02*
X20731480Y-33522920D01*
X20858480Y-33649920D02*
X20858480Y-30093920D01*
X19715480Y-34538920D02*
X24287480Y-34538920D01*
X24287480Y-34538920D02*
X25049480Y-33776920D01*
X25049480Y-33776920D02*
X25049480Y-29966920D01*
X25049480Y-29966920D02*
X24287480Y-29204920D01*
X24287480Y-29204920D02*
X19715480Y-29204920D01*
X19715480Y-29204920D02*
X19715480Y-34538920D01*
X24541480Y-31871920D02*
X23779480Y-31871920D01*
X24160480Y-32252920D02*
X24160480Y-31490920D01*
X24795480Y-31871920D02*
G75*
G03X24795480Y-31871920I-2413000J0D01*
G01*
%TO.C,C9*%
X8376920Y-12075160D02*
X9900920Y-12075160D01*
X10281920Y-12202160D02*
X7995920Y-12202160D01*
X7741920Y-12329160D02*
X10535920Y-12329160D01*
X10789920Y-12456160D02*
X7487920Y-12456160D01*
X7360920Y-12583160D02*
X10916920Y-12583160D01*
X5836920Y-11694160D02*
X12440920Y-11694160D01*
X12440920Y-11694160D02*
X12440920Y-17536160D01*
X12440920Y-17536160D02*
X11678920Y-18298160D01*
X11678920Y-18298160D02*
X6598920Y-18298160D01*
X6598920Y-18298160D02*
X5836920Y-17536160D01*
X5836920Y-17536160D02*
X5836920Y-11694160D01*
X9138920Y-17155160D02*
X9138920Y-16393160D01*
X8757920Y-16774160D02*
X9519920Y-16774160D01*
X12186920Y-14996160D02*
G75*
G03X12186920Y-14996160I-3048000J0D01*
G01*
%TO.C,C10*%
X27894280Y-11724640D02*
X27894280Y-13248640D01*
X27767280Y-13629640D02*
X27767280Y-11343640D01*
X27640280Y-11089640D02*
X27640280Y-13883640D01*
X27513280Y-14137640D02*
X27513280Y-10835640D01*
X27386280Y-10708640D02*
X27386280Y-14264640D01*
X28275280Y-9184640D02*
X28275280Y-15788640D01*
X28275280Y-15788640D02*
X22433280Y-15788640D01*
X22433280Y-15788640D02*
X21671280Y-15026640D01*
X21671280Y-15026640D02*
X21671280Y-9946640D01*
X21671280Y-9946640D02*
X22433280Y-9184640D01*
X22433280Y-9184640D02*
X28275280Y-9184640D01*
X22814280Y-12486640D02*
X23576280Y-12486640D01*
X23195280Y-12105640D02*
X23195280Y-12867640D01*
X28021280Y-12486640D02*
G75*
G03X28021280Y-12486640I-3048000J0D01*
G01*
%TO.C,R8*%
X16271800Y-27801600D02*
X15071800Y-27801600D01*
X15071800Y-29551600D02*
X16271800Y-29551600D01*
%TO.C,R15*%
X15097200Y-25513000D02*
X16297200Y-25513000D01*
X16297200Y-23763000D02*
X15097200Y-23763000D01*
%TO.C,U3*%
X12573000Y-23916640D02*
X7493000Y-23916640D01*
X7493000Y-23916640D02*
X7493000Y-28488640D01*
X7493000Y-28488640D02*
X12573000Y-28488640D01*
X12573000Y-28488640D02*
X12573000Y-23916640D01*
X12573000Y-25440640D02*
X12065000Y-25440640D01*
X12065000Y-25440640D02*
X12065000Y-26710640D01*
X12065000Y-26710640D02*
X12573000Y-26710640D01*
%TO.C,C14*%
X10627360Y-38623240D02*
X9103360Y-38623240D01*
X8722360Y-38496240D02*
X11008360Y-38496240D01*
X11262360Y-38369240D02*
X8468360Y-38369240D01*
X8214360Y-38242240D02*
X11516360Y-38242240D01*
X11643360Y-38115240D02*
X8087360Y-38115240D01*
X13167360Y-39004240D02*
X6563360Y-39004240D01*
X6563360Y-39004240D02*
X6563360Y-33162240D01*
X6563360Y-33162240D02*
X7325360Y-32400240D01*
X7325360Y-32400240D02*
X12405360Y-32400240D01*
X12405360Y-32400240D02*
X13167360Y-33162240D01*
X13167360Y-33162240D02*
X13167360Y-39004240D01*
X9865360Y-33543240D02*
X9865360Y-34305240D01*
X10246360Y-33924240D02*
X9484360Y-33924240D01*
X12913360Y-35702240D02*
G75*
G03X12913360Y-35702240I-3048000J0D01*
G01*
%TO.C,C15*%
X16146400Y-23659200D02*
X15146400Y-23659200D01*
X15146400Y-21959200D02*
X16146400Y-21959200D01*
%TO.C,C16*%
X16095600Y-33814120D02*
X15095600Y-33814120D01*
X15095600Y-32114120D02*
X16095600Y-32114120D01*
%TO.C,C20*%
X20040600Y-26751280D02*
X20040600Y-25354280D01*
X20167600Y-27005280D02*
X20167600Y-25227280D01*
X20294600Y-27386280D02*
X20294600Y-24846280D01*
X20421600Y-24719280D02*
X20421600Y-27513280D01*
X20548600Y-27640280D02*
X20548600Y-24592280D01*
X20675600Y-24465280D02*
X20675600Y-27767280D01*
X20802600Y-27894280D02*
X20802600Y-24338280D01*
X19659600Y-28783280D02*
X24231600Y-28783280D01*
X24231600Y-28783280D02*
X24993600Y-28021280D01*
X24993600Y-28021280D02*
X24993600Y-24211280D01*
X24993600Y-24211280D02*
X24231600Y-23449280D01*
X24231600Y-23449280D02*
X19659600Y-23449280D01*
X19659600Y-23449280D02*
X19659600Y-28783280D01*
X24485600Y-26116280D02*
X23723600Y-26116280D01*
X24104600Y-26497280D02*
X24104600Y-25735280D01*
X24739600Y-26116280D02*
G75*
G03X24739600Y-26116280I-2413000J0D01*
G01*
%TO.C,R18*%
X15051480Y-31603920D02*
X16251480Y-31603920D01*
X16251480Y-29853920D02*
X15051480Y-29853920D01*
%TO.C,R20*%
X13725600Y-20153600D02*
X14925600Y-20153600D01*
X14925600Y-18403600D02*
X13725600Y-18403600D01*
%TO.C,R21*%
X16322600Y-25769600D02*
X15122600Y-25769600D01*
X15122600Y-27519600D02*
X16322600Y-27519600D01*
%TO.C,R26*%
X36920200Y-15498520D02*
X36920200Y-16698520D01*
X38670200Y-16698520D02*
X38670200Y-15498520D01*
%TO.C,C22*%
X19871800Y-13249400D02*
X19871800Y-15249400D01*
X17821800Y-15249400D02*
X17821800Y-13249400D01*
%TO.C,C23*%
X14525360Y-13226160D02*
X14525360Y-14226160D01*
X12825360Y-14226160D02*
X12825360Y-13226160D01*
%TO.C,R27*%
X15677440Y-9051320D02*
X14477440Y-9051320D01*
X14477440Y-10801320D02*
X15677440Y-10801320D01*
%TO.C,P1*%
X8676640Y-8666480D02*
X34076640Y-8666480D01*
X34076640Y-8666480D02*
X34076640Y-6126480D01*
X34076640Y-6126480D02*
X8676640Y-6126480D01*
X5856640Y-8946480D02*
X7406640Y-8946480D01*
X8676640Y-8666480D02*
X8676640Y-6126480D01*
X7406640Y-5846480D02*
X5856640Y-5846480D01*
X5856640Y-5846480D02*
X5856640Y-8946480D01*
D11*
%TO.C,C26*%
X14974200Y-14266800D02*
X14974200Y-13266800D01*
X16674200Y-13266800D02*
X16674200Y-14266800D01*
%TO.C,C28*%
X21598000Y-15406000D02*
X22598000Y-15406000D01*
X22598000Y-17106000D02*
X21598000Y-17106000D01*
%TO.C,D2*%
X38545200Y-12094720D02*
X38545200Y-8894720D01*
X37045200Y-8894720D02*
X37045200Y-12094720D01*
X37045200Y-8894720D02*
X38545200Y-8894720D01*
%TO.C,D3*%
X34962400Y-8909960D02*
X36462400Y-8909960D01*
X34962400Y-8909960D02*
X34962400Y-12109960D01*
X36462400Y-12109960D02*
X36462400Y-8909960D01*
%TO.C,R31*%
X36567000Y-16718840D02*
X36567000Y-15518840D01*
X34807000Y-15518840D02*
X34807000Y-16718840D01*
D10*
%TO.C,U2*%
X29718000Y-22128000D02*
X29718000Y-20828000D01*
X29718000Y-20828000D02*
X43218000Y-20828000D01*
X43218000Y-20828000D02*
X43218000Y-22128000D01*
%TO.C,D1*%
X31846780Y-13033784D02*
X30846780Y-13033784D01*
X30846780Y-13271880D01*
X30894400Y-13414737D01*
X30989638Y-13509975D01*
X31084876Y-13557594D01*
X31275352Y-13605213D01*
X31418209Y-13605213D01*
X31608685Y-13557594D01*
X31703923Y-13509975D01*
X31799161Y-13414737D01*
X31846780Y-13271880D01*
X31846780Y-13033784D01*
X31846780Y-14557594D02*
X31846780Y-13986165D01*
X31846780Y-14271880D02*
X30846780Y-14271880D01*
X30989638Y-14176641D01*
X31084876Y-14081403D01*
X31132495Y-13986165D01*
X35423980Y-11430575D02*
X34423980Y-11430575D01*
X35423980Y-12002003D02*
X34852552Y-11573432D01*
X34423980Y-12002003D02*
X34995409Y-11430575D01*
X35138266Y-15054384D02*
X35138266Y-15530575D01*
X35423980Y-14959146D02*
X34423980Y-15292480D01*
X35423980Y-15625813D01*
%TO.C,C21*%
X22969457Y-34230582D02*
X23017076Y-34278201D01*
X23159933Y-34325820D01*
X23255171Y-34325820D01*
X23398028Y-34278201D01*
X23493266Y-34182963D01*
X23540885Y-34087725D01*
X23588504Y-33897249D01*
X23588504Y-33754392D01*
X23540885Y-33563916D01*
X23493266Y-33468678D01*
X23398028Y-33373440D01*
X23255171Y-33325820D01*
X23159933Y-33325820D01*
X23017076Y-33373440D01*
X22969457Y-33421059D01*
X22588504Y-33421059D02*
X22540885Y-33373440D01*
X22445647Y-33325820D01*
X22207552Y-33325820D01*
X22112314Y-33373440D01*
X22064695Y-33421059D01*
X22017076Y-33516297D01*
X22017076Y-33611535D01*
X22064695Y-33754392D01*
X22636123Y-34325820D01*
X22017076Y-34325820D01*
X21064695Y-34325820D02*
X21636123Y-34325820D01*
X21350409Y-34325820D02*
X21350409Y-33325820D01*
X21445647Y-33468678D01*
X21540885Y-33563916D01*
X21636123Y-33611535D01*
%TO.C,C19*%
X22941157Y-16922242D02*
X22988776Y-16969861D01*
X23131633Y-17017480D01*
X23226871Y-17017480D01*
X23369728Y-16969861D01*
X23464966Y-16874623D01*
X23512585Y-16779385D01*
X23560204Y-16588909D01*
X23560204Y-16446052D01*
X23512585Y-16255576D01*
X23464966Y-16160338D01*
X23369728Y-16065100D01*
X23226871Y-16017480D01*
X23131633Y-16017480D01*
X22988776Y-16065100D01*
X22941157Y-16112719D01*
X21988776Y-17017480D02*
X22560204Y-17017480D01*
X22274490Y-17017480D02*
X22274490Y-16017480D01*
X22369728Y-16160338D01*
X22464966Y-16255576D01*
X22560204Y-16303195D01*
X21512585Y-17017480D02*
X21322109Y-17017480D01*
X21226871Y-16969861D01*
X21179252Y-16922242D01*
X21084014Y-16779385D01*
X21036395Y-16588909D01*
X21036395Y-16207957D01*
X21084014Y-16112719D01*
X21131633Y-16065100D01*
X21226871Y-16017480D01*
X21417347Y-16017480D01*
X21512585Y-16065100D01*
X21560204Y-16112719D01*
X21607823Y-16207957D01*
X21607823Y-16446052D01*
X21560204Y-16541290D01*
X21512585Y-16588909D01*
X21417347Y-16636528D01*
X21226871Y-16636528D01*
X21131633Y-16588909D01*
X21084014Y-16541290D01*
X21036395Y-16446052D01*
X19299252Y-18206528D02*
X18537347Y-18206528D01*
X18918300Y-18587480D02*
X18918300Y-17825576D01*
%TO.C,R23*%
X16263857Y-37358580D02*
X16597190Y-36882390D01*
X16835285Y-37358580D02*
X16835285Y-36358580D01*
X16454333Y-36358580D01*
X16359095Y-36406200D01*
X16311476Y-36453819D01*
X16263857Y-36549057D01*
X16263857Y-36691914D01*
X16311476Y-36787152D01*
X16359095Y-36834771D01*
X16454333Y-36882390D01*
X16835285Y-36882390D01*
X15882904Y-36453819D02*
X15835285Y-36406200D01*
X15740047Y-36358580D01*
X15501952Y-36358580D01*
X15406714Y-36406200D01*
X15359095Y-36453819D01*
X15311476Y-36549057D01*
X15311476Y-36644295D01*
X15359095Y-36787152D01*
X15930523Y-37358580D01*
X15311476Y-37358580D01*
X14978142Y-36358580D02*
X14359095Y-36358580D01*
X14692428Y-36739533D01*
X14549571Y-36739533D01*
X14454333Y-36787152D01*
X14406714Y-36834771D01*
X14359095Y-36930009D01*
X14359095Y-37168104D01*
X14406714Y-37263342D01*
X14454333Y-37310961D01*
X14549571Y-37358580D01*
X14835285Y-37358580D01*
X14930523Y-37310961D01*
X14978142Y-37263342D01*
%TO.C,C5*%
X32767542Y-12050733D02*
X32815161Y-12003114D01*
X32862780Y-11860257D01*
X32862780Y-11765019D01*
X32815161Y-11622161D01*
X32719923Y-11526923D01*
X32624685Y-11479304D01*
X32434209Y-11431685D01*
X32291352Y-11431685D01*
X32100876Y-11479304D01*
X32005638Y-11526923D01*
X31910400Y-11622161D01*
X31862780Y-11765019D01*
X31862780Y-11860257D01*
X31910400Y-12003114D01*
X31958019Y-12050733D01*
X31862780Y-12955495D02*
X31862780Y-12479304D01*
X32338971Y-12431685D01*
X32291352Y-12479304D01*
X32243733Y-12574542D01*
X32243733Y-12812638D01*
X32291352Y-12907876D01*
X32338971Y-12955495D01*
X32434209Y-13003114D01*
X32672304Y-13003114D01*
X32767542Y-12955495D01*
X32815161Y-12907876D01*
X32862780Y-12812638D01*
X32862780Y-12574542D01*
X32815161Y-12479304D01*
X32767542Y-12431685D01*
%TO.C,C6*%
X22549146Y-36039062D02*
X22596765Y-36086681D01*
X22739622Y-36134300D01*
X22834860Y-36134300D01*
X22977718Y-36086681D01*
X23072956Y-35991443D01*
X23120575Y-35896205D01*
X23168194Y-35705729D01*
X23168194Y-35562872D01*
X23120575Y-35372396D01*
X23072956Y-35277158D01*
X22977718Y-35181920D01*
X22834860Y-35134300D01*
X22739622Y-35134300D01*
X22596765Y-35181920D01*
X22549146Y-35229539D01*
X21692003Y-35134300D02*
X21882480Y-35134300D01*
X21977718Y-35181920D01*
X22025337Y-35229539D01*
X22120575Y-35372396D01*
X22168194Y-35562872D01*
X22168194Y-35943824D01*
X22120575Y-36039062D01*
X22072956Y-36086681D01*
X21977718Y-36134300D01*
X21787241Y-36134300D01*
X21692003Y-36086681D01*
X21644384Y-36039062D01*
X21596765Y-35943824D01*
X21596765Y-35705729D01*
X21644384Y-35610491D01*
X21692003Y-35562872D01*
X21787241Y-35515253D01*
X21977718Y-35515253D01*
X22072956Y-35562872D01*
X22120575Y-35610491D01*
X22168194Y-35705729D01*
%TO.C,C9*%
X7773942Y-13930333D02*
X7821561Y-13882714D01*
X7869180Y-13739857D01*
X7869180Y-13644619D01*
X7821561Y-13501761D01*
X7726323Y-13406523D01*
X7631085Y-13358904D01*
X7440609Y-13311285D01*
X7297752Y-13311285D01*
X7107276Y-13358904D01*
X7012038Y-13406523D01*
X6916800Y-13501761D01*
X6869180Y-13644619D01*
X6869180Y-13739857D01*
X6916800Y-13882714D01*
X6964419Y-13930333D01*
X7869180Y-14406523D02*
X7869180Y-14597000D01*
X7821561Y-14692238D01*
X7773942Y-14739857D01*
X7631085Y-14835095D01*
X7440609Y-14882714D01*
X7059657Y-14882714D01*
X6964419Y-14835095D01*
X6916800Y-14787476D01*
X6869180Y-14692238D01*
X6869180Y-14501761D01*
X6916800Y-14406523D01*
X6964419Y-14358904D01*
X7059657Y-14311285D01*
X7297752Y-14311285D01*
X7392990Y-14358904D01*
X7440609Y-14406523D01*
X7488228Y-14501761D01*
X7488228Y-14692238D01*
X7440609Y-14787476D01*
X7392990Y-14835095D01*
X7297752Y-14882714D01*
%TO.C,C10*%
X25616137Y-8525782D02*
X25663756Y-8573401D01*
X25806613Y-8621020D01*
X25901851Y-8621020D01*
X26044708Y-8573401D01*
X26139946Y-8478163D01*
X26187565Y-8382925D01*
X26235184Y-8192449D01*
X26235184Y-8049592D01*
X26187565Y-7859116D01*
X26139946Y-7763878D01*
X26044708Y-7668640D01*
X25901851Y-7621020D01*
X25806613Y-7621020D01*
X25663756Y-7668640D01*
X25616137Y-7716259D01*
X24663756Y-8621020D02*
X25235184Y-8621020D01*
X24949470Y-8621020D02*
X24949470Y-7621020D01*
X25044708Y-7763878D01*
X25139946Y-7859116D01*
X25235184Y-7906735D01*
X24044708Y-7621020D02*
X23949470Y-7621020D01*
X23854232Y-7668640D01*
X23806613Y-7716259D01*
X23758994Y-7811497D01*
X23711375Y-8001973D01*
X23711375Y-8240068D01*
X23758994Y-8430544D01*
X23806613Y-8525782D01*
X23854232Y-8573401D01*
X23949470Y-8621020D01*
X24044708Y-8621020D01*
X24139946Y-8573401D01*
X24187565Y-8525782D01*
X24235184Y-8430544D01*
X24282803Y-8240068D01*
X24282803Y-8001973D01*
X24235184Y-7811497D01*
X24187565Y-7716259D01*
X24139946Y-7668640D01*
X24044708Y-7621020D01*
%TO.C,R8*%
X13380980Y-29017933D02*
X12904790Y-28684600D01*
X13380980Y-28446504D02*
X12380980Y-28446504D01*
X12380980Y-28827457D01*
X12428600Y-28922695D01*
X12476219Y-28970314D01*
X12571457Y-29017933D01*
X12714314Y-29017933D01*
X12809552Y-28970314D01*
X12857171Y-28922695D01*
X12904790Y-28827457D01*
X12904790Y-28446504D01*
X12809552Y-29589361D02*
X12761933Y-29494123D01*
X12714314Y-29446504D01*
X12619076Y-29398885D01*
X12571457Y-29398885D01*
X12476219Y-29446504D01*
X12428600Y-29494123D01*
X12380980Y-29589361D01*
X12380980Y-29779838D01*
X12428600Y-29875076D01*
X12476219Y-29922695D01*
X12571457Y-29970314D01*
X12619076Y-29970314D01*
X12714314Y-29922695D01*
X12761933Y-29875076D01*
X12809552Y-29779838D01*
X12809552Y-29589361D01*
X12857171Y-29494123D01*
X12904790Y-29446504D01*
X13000028Y-29398885D01*
X13190504Y-29398885D01*
X13285742Y-29446504D01*
X13333361Y-29494123D01*
X13380980Y-29589361D01*
X13380980Y-29779838D01*
X13333361Y-29875076D01*
X13285742Y-29922695D01*
X13190504Y-29970314D01*
X13000028Y-29970314D01*
X12904790Y-29922695D01*
X12857171Y-29875076D01*
X12809552Y-29779838D01*
%TO.C,R15*%
X19197580Y-23131542D02*
X18721390Y-22798209D01*
X19197580Y-22560114D02*
X18197580Y-22560114D01*
X18197580Y-22941066D01*
X18245200Y-23036304D01*
X18292819Y-23083923D01*
X18388057Y-23131542D01*
X18530914Y-23131542D01*
X18626152Y-23083923D01*
X18673771Y-23036304D01*
X18721390Y-22941066D01*
X18721390Y-22560114D01*
X19197580Y-24083923D02*
X19197580Y-23512495D01*
X19197580Y-23798209D02*
X18197580Y-23798209D01*
X18340438Y-23702971D01*
X18435676Y-23607733D01*
X18483295Y-23512495D01*
X18197580Y-24988685D02*
X18197580Y-24512495D01*
X18673771Y-24464876D01*
X18626152Y-24512495D01*
X18578533Y-24607733D01*
X18578533Y-24845828D01*
X18626152Y-24941066D01*
X18673771Y-24988685D01*
X18769009Y-25036304D01*
X19007104Y-25036304D01*
X19102342Y-24988685D01*
X19149961Y-24941066D01*
X19197580Y-24845828D01*
X19197580Y-24607733D01*
X19149961Y-24512495D01*
X19102342Y-24464876D01*
%TO.C,U3*%
X9931304Y-25385780D02*
X9931304Y-26195304D01*
X9883685Y-26290542D01*
X9836066Y-26338161D01*
X9740828Y-26385780D01*
X9550352Y-26385780D01*
X9455114Y-26338161D01*
X9407495Y-26290542D01*
X9359876Y-26195304D01*
X9359876Y-25385780D01*
X8978923Y-25385780D02*
X8359876Y-25385780D01*
X8693209Y-25766733D01*
X8550352Y-25766733D01*
X8455114Y-25814352D01*
X8407495Y-25861971D01*
X8359876Y-25957209D01*
X8359876Y-26195304D01*
X8407495Y-26290542D01*
X8455114Y-26338161D01*
X8550352Y-26385780D01*
X8836066Y-26385780D01*
X8931304Y-26338161D01*
X8978923Y-26290542D01*
%TO.C,C14*%
X12142742Y-34815542D02*
X12190361Y-34767923D01*
X12237980Y-34625066D01*
X12237980Y-34529828D01*
X12190361Y-34386971D01*
X12095123Y-34291733D01*
X11999885Y-34244114D01*
X11809409Y-34196495D01*
X11666552Y-34196495D01*
X11476076Y-34244114D01*
X11380838Y-34291733D01*
X11285600Y-34386971D01*
X11237980Y-34529828D01*
X11237980Y-34625066D01*
X11285600Y-34767923D01*
X11333219Y-34815542D01*
X12237980Y-35767923D02*
X12237980Y-35196495D01*
X12237980Y-35482209D02*
X11237980Y-35482209D01*
X11380838Y-35386971D01*
X11476076Y-35291733D01*
X11523695Y-35196495D01*
X11571314Y-36625066D02*
X12237980Y-36625066D01*
X11190361Y-36386971D02*
X11904647Y-36148876D01*
X11904647Y-36767923D01*
%TO.C,C15*%
X15501857Y-21667742D02*
X15549476Y-21715361D01*
X15692333Y-21762980D01*
X15787571Y-21762980D01*
X15930428Y-21715361D01*
X16025666Y-21620123D01*
X16073285Y-21524885D01*
X16120904Y-21334409D01*
X16120904Y-21191552D01*
X16073285Y-21001076D01*
X16025666Y-20905838D01*
X15930428Y-20810600D01*
X15787571Y-20762980D01*
X15692333Y-20762980D01*
X15549476Y-20810600D01*
X15501857Y-20858219D01*
X14549476Y-21762980D02*
X15120904Y-21762980D01*
X14835190Y-21762980D02*
X14835190Y-20762980D01*
X14930428Y-20905838D01*
X15025666Y-21001076D01*
X15120904Y-21048695D01*
X13644714Y-20762980D02*
X14120904Y-20762980D01*
X14168523Y-21239171D01*
X14120904Y-21191552D01*
X14025666Y-21143933D01*
X13787571Y-21143933D01*
X13692333Y-21191552D01*
X13644714Y-21239171D01*
X13597095Y-21334409D01*
X13597095Y-21572504D01*
X13644714Y-21667742D01*
X13692333Y-21715361D01*
X13787571Y-21762980D01*
X14025666Y-21762980D01*
X14120904Y-21715361D01*
X14168523Y-21667742D01*
%TO.C,C16*%
X19794457Y-33885142D02*
X19842076Y-33932761D01*
X19984933Y-33980380D01*
X20080171Y-33980380D01*
X20223028Y-33932761D01*
X20318266Y-33837523D01*
X20365885Y-33742285D01*
X20413504Y-33551809D01*
X20413504Y-33408952D01*
X20365885Y-33218476D01*
X20318266Y-33123238D01*
X20223028Y-33028000D01*
X20080171Y-32980380D01*
X19984933Y-32980380D01*
X19842076Y-33028000D01*
X19794457Y-33075619D01*
X18842076Y-33980380D02*
X19413504Y-33980380D01*
X19127790Y-33980380D02*
X19127790Y-32980380D01*
X19223028Y-33123238D01*
X19318266Y-33218476D01*
X19413504Y-33266095D01*
X17984933Y-32980380D02*
X18175409Y-32980380D01*
X18270647Y-33028000D01*
X18318266Y-33075619D01*
X18413504Y-33218476D01*
X18461123Y-33408952D01*
X18461123Y-33789904D01*
X18413504Y-33885142D01*
X18365885Y-33932761D01*
X18270647Y-33980380D01*
X18080171Y-33980380D01*
X17984933Y-33932761D01*
X17937314Y-33885142D01*
X17889695Y-33789904D01*
X17889695Y-33551809D01*
X17937314Y-33456571D01*
X17984933Y-33408952D01*
X18080171Y-33361333D01*
X18270647Y-33361333D01*
X18365885Y-33408952D01*
X18413504Y-33456571D01*
X18461123Y-33551809D01*
%TO.C,C20*%
X23071057Y-28093942D02*
X23118676Y-28141561D01*
X23261533Y-28189180D01*
X23356771Y-28189180D01*
X23499628Y-28141561D01*
X23594866Y-28046323D01*
X23642485Y-27951085D01*
X23690104Y-27760609D01*
X23690104Y-27617752D01*
X23642485Y-27427276D01*
X23594866Y-27332038D01*
X23499628Y-27236800D01*
X23356771Y-27189180D01*
X23261533Y-27189180D01*
X23118676Y-27236800D01*
X23071057Y-27284419D01*
X22690104Y-27284419D02*
X22642485Y-27236800D01*
X22547247Y-27189180D01*
X22309152Y-27189180D01*
X22213914Y-27236800D01*
X22166295Y-27284419D01*
X22118676Y-27379657D01*
X22118676Y-27474895D01*
X22166295Y-27617752D01*
X22737723Y-28189180D01*
X22118676Y-28189180D01*
X21499628Y-27189180D02*
X21404390Y-27189180D01*
X21309152Y-27236800D01*
X21261533Y-27284419D01*
X21213914Y-27379657D01*
X21166295Y-27570133D01*
X21166295Y-27808228D01*
X21213914Y-27998704D01*
X21261533Y-28093942D01*
X21309152Y-28141561D01*
X21404390Y-28189180D01*
X21499628Y-28189180D01*
X21594866Y-28141561D01*
X21642485Y-28093942D01*
X21690104Y-27998704D01*
X21737723Y-27808228D01*
X21737723Y-27570133D01*
X21690104Y-27379657D01*
X21642485Y-27284419D01*
X21594866Y-27236800D01*
X21499628Y-27189180D01*
%TO.C,R18*%
X13355580Y-30954742D02*
X12879390Y-30621409D01*
X13355580Y-30383314D02*
X12355580Y-30383314D01*
X12355580Y-30764266D01*
X12403200Y-30859504D01*
X12450819Y-30907123D01*
X12546057Y-30954742D01*
X12688914Y-30954742D01*
X12784152Y-30907123D01*
X12831771Y-30859504D01*
X12879390Y-30764266D01*
X12879390Y-30383314D01*
X13355580Y-31907123D02*
X13355580Y-31335695D01*
X13355580Y-31621409D02*
X12355580Y-31621409D01*
X12498438Y-31526171D01*
X12593676Y-31430933D01*
X12641295Y-31335695D01*
X12784152Y-32478552D02*
X12736533Y-32383314D01*
X12688914Y-32335695D01*
X12593676Y-32288076D01*
X12546057Y-32288076D01*
X12450819Y-32335695D01*
X12403200Y-32383314D01*
X12355580Y-32478552D01*
X12355580Y-32669028D01*
X12403200Y-32764266D01*
X12450819Y-32811885D01*
X12546057Y-32859504D01*
X12593676Y-32859504D01*
X12688914Y-32811885D01*
X12736533Y-32764266D01*
X12784152Y-32669028D01*
X12784152Y-32478552D01*
X12831771Y-32383314D01*
X12879390Y-32335695D01*
X12974628Y-32288076D01*
X13165104Y-32288076D01*
X13260342Y-32335695D01*
X13307961Y-32383314D01*
X13355580Y-32478552D01*
X13355580Y-32669028D01*
X13307961Y-32764266D01*
X13260342Y-32811885D01*
X13165104Y-32859504D01*
X12974628Y-32859504D01*
X12879390Y-32811885D01*
X12831771Y-32764266D01*
X12784152Y-32669028D01*
%TO.C,R20*%
X11831580Y-19270742D02*
X11355390Y-18937409D01*
X11831580Y-18699314D02*
X10831580Y-18699314D01*
X10831580Y-19080266D01*
X10879200Y-19175504D01*
X10926819Y-19223123D01*
X11022057Y-19270742D01*
X11164914Y-19270742D01*
X11260152Y-19223123D01*
X11307771Y-19175504D01*
X11355390Y-19080266D01*
X11355390Y-18699314D01*
X10926819Y-19651695D02*
X10879200Y-19699314D01*
X10831580Y-19794552D01*
X10831580Y-20032647D01*
X10879200Y-20127885D01*
X10926819Y-20175504D01*
X11022057Y-20223123D01*
X11117295Y-20223123D01*
X11260152Y-20175504D01*
X11831580Y-19604076D01*
X11831580Y-20223123D01*
X10831580Y-20842171D02*
X10831580Y-20937409D01*
X10879200Y-21032647D01*
X10926819Y-21080266D01*
X11022057Y-21127885D01*
X11212533Y-21175504D01*
X11450628Y-21175504D01*
X11641104Y-21127885D01*
X11736342Y-21080266D01*
X11783961Y-21032647D01*
X11831580Y-20937409D01*
X11831580Y-20842171D01*
X11783961Y-20746933D01*
X11736342Y-20699314D01*
X11641104Y-20651695D01*
X11450628Y-20604076D01*
X11212533Y-20604076D01*
X11022057Y-20651695D01*
X10926819Y-20699314D01*
X10879200Y-20746933D01*
X10831580Y-20842171D01*
%TO.C,R21*%
X19400780Y-27957542D02*
X18924590Y-27624209D01*
X19400780Y-27386114D02*
X18400780Y-27386114D01*
X18400780Y-27767066D01*
X18448400Y-27862304D01*
X18496019Y-27909923D01*
X18591257Y-27957542D01*
X18734114Y-27957542D01*
X18829352Y-27909923D01*
X18876971Y-27862304D01*
X18924590Y-27767066D01*
X18924590Y-27386114D01*
X18496019Y-28338495D02*
X18448400Y-28386114D01*
X18400780Y-28481352D01*
X18400780Y-28719447D01*
X18448400Y-28814685D01*
X18496019Y-28862304D01*
X18591257Y-28909923D01*
X18686495Y-28909923D01*
X18829352Y-28862304D01*
X19400780Y-28290876D01*
X19400780Y-28909923D01*
X19400780Y-29862304D02*
X19400780Y-29290876D01*
X19400780Y-29576590D02*
X18400780Y-29576590D01*
X18543638Y-29481352D01*
X18638876Y-29386114D01*
X18686495Y-29290876D01*
%TO.C,R26*%
X38755580Y-19189462D02*
X38279390Y-18856129D01*
X38755580Y-18618034D02*
X37755580Y-18618034D01*
X37755580Y-18998986D01*
X37803200Y-19094224D01*
X37850819Y-19141843D01*
X37946057Y-19189462D01*
X38088914Y-19189462D01*
X38184152Y-19141843D01*
X38231771Y-19094224D01*
X38279390Y-18998986D01*
X38279390Y-18618034D01*
X37850819Y-19570415D02*
X37803200Y-19618034D01*
X37755580Y-19713272D01*
X37755580Y-19951367D01*
X37803200Y-20046605D01*
X37850819Y-20094224D01*
X37946057Y-20141843D01*
X38041295Y-20141843D01*
X38184152Y-20094224D01*
X38755580Y-19522796D01*
X38755580Y-20141843D01*
X37755580Y-20998986D02*
X37755580Y-20808510D01*
X37803200Y-20713272D01*
X37850819Y-20665653D01*
X37993676Y-20570415D01*
X38184152Y-20522796D01*
X38565104Y-20522796D01*
X38660342Y-20570415D01*
X38707961Y-20618034D01*
X38755580Y-20713272D01*
X38755580Y-20903748D01*
X38707961Y-20998986D01*
X38660342Y-21046605D01*
X38565104Y-21094224D01*
X38327009Y-21094224D01*
X38231771Y-21046605D01*
X38184152Y-20998986D01*
X38136533Y-20903748D01*
X38136533Y-20713272D01*
X38184152Y-20618034D01*
X38231771Y-20570415D01*
X38327009Y-20522796D01*
%TO.C,C22*%
X22004257Y-15241542D02*
X22051876Y-15289161D01*
X22194733Y-15336780D01*
X22289971Y-15336780D01*
X22432828Y-15289161D01*
X22528066Y-15193923D01*
X22575685Y-15098685D01*
X22623304Y-14908209D01*
X22623304Y-14765352D01*
X22575685Y-14574876D01*
X22528066Y-14479638D01*
X22432828Y-14384400D01*
X22289971Y-14336780D01*
X22194733Y-14336780D01*
X22051876Y-14384400D01*
X22004257Y-14432019D01*
X21623304Y-14432019D02*
X21575685Y-14384400D01*
X21480447Y-14336780D01*
X21242352Y-14336780D01*
X21147114Y-14384400D01*
X21099495Y-14432019D01*
X21051876Y-14527257D01*
X21051876Y-14622495D01*
X21099495Y-14765352D01*
X21670923Y-15336780D01*
X21051876Y-15336780D01*
X20670923Y-14432019D02*
X20623304Y-14384400D01*
X20528066Y-14336780D01*
X20289971Y-14336780D01*
X20194733Y-14384400D01*
X20147114Y-14432019D01*
X20099495Y-14527257D01*
X20099495Y-14622495D01*
X20147114Y-14765352D01*
X20718542Y-15336780D01*
X20099495Y-15336780D01*
%TO.C,C23*%
X14587457Y-17222742D02*
X14635076Y-17270361D01*
X14777933Y-17317980D01*
X14873171Y-17317980D01*
X15016028Y-17270361D01*
X15111266Y-17175123D01*
X15158885Y-17079885D01*
X15206504Y-16889409D01*
X15206504Y-16746552D01*
X15158885Y-16556076D01*
X15111266Y-16460838D01*
X15016028Y-16365600D01*
X14873171Y-16317980D01*
X14777933Y-16317980D01*
X14635076Y-16365600D01*
X14587457Y-16413219D01*
X14206504Y-16413219D02*
X14158885Y-16365600D01*
X14063647Y-16317980D01*
X13825552Y-16317980D01*
X13730314Y-16365600D01*
X13682695Y-16413219D01*
X13635076Y-16508457D01*
X13635076Y-16603695D01*
X13682695Y-16746552D01*
X14254123Y-17317980D01*
X13635076Y-17317980D01*
X13301742Y-16317980D02*
X12682695Y-16317980D01*
X13016028Y-16698933D01*
X12873171Y-16698933D01*
X12777933Y-16746552D01*
X12730314Y-16794171D01*
X12682695Y-16889409D01*
X12682695Y-17127504D01*
X12730314Y-17222742D01*
X12777933Y-17270361D01*
X12873171Y-17317980D01*
X13158885Y-17317980D01*
X13254123Y-17270361D01*
X13301742Y-17222742D01*
%TO.C,R27*%
X12072857Y-10078980D02*
X12406190Y-9602790D01*
X12644285Y-10078980D02*
X12644285Y-9078980D01*
X12263333Y-9078980D01*
X12168095Y-9126600D01*
X12120476Y-9174219D01*
X12072857Y-9269457D01*
X12072857Y-9412314D01*
X12120476Y-9507552D01*
X12168095Y-9555171D01*
X12263333Y-9602790D01*
X12644285Y-9602790D01*
X11691904Y-9174219D02*
X11644285Y-9126600D01*
X11549047Y-9078980D01*
X11310952Y-9078980D01*
X11215714Y-9126600D01*
X11168095Y-9174219D01*
X11120476Y-9269457D01*
X11120476Y-9364695D01*
X11168095Y-9507552D01*
X11739523Y-10078980D01*
X11120476Y-10078980D01*
X10787142Y-9078980D02*
X10120476Y-9078980D01*
X10549047Y-10078980D01*
%TO.C,C26*%
X14431342Y-13123942D02*
X14478961Y-13076323D01*
X14526580Y-12933466D01*
X14526580Y-12838228D01*
X14478961Y-12695371D01*
X14383723Y-12600133D01*
X14288485Y-12552514D01*
X14098009Y-12504895D01*
X13955152Y-12504895D01*
X13764676Y-12552514D01*
X13669438Y-12600133D01*
X13574200Y-12695371D01*
X13526580Y-12838228D01*
X13526580Y-12933466D01*
X13574200Y-13076323D01*
X13621819Y-13123942D01*
X13621819Y-13504895D02*
X13574200Y-13552514D01*
X13526580Y-13647752D01*
X13526580Y-13885847D01*
X13574200Y-13981085D01*
X13621819Y-14028704D01*
X13717057Y-14076323D01*
X13812295Y-14076323D01*
X13955152Y-14028704D01*
X14526580Y-13457276D01*
X14526580Y-14076323D01*
X13526580Y-14933466D02*
X13526580Y-14742990D01*
X13574200Y-14647752D01*
X13621819Y-14600133D01*
X13764676Y-14504895D01*
X13955152Y-14457276D01*
X14336104Y-14457276D01*
X14431342Y-14504895D01*
X14478961Y-14552514D01*
X14526580Y-14647752D01*
X14526580Y-14838228D01*
X14478961Y-14933466D01*
X14431342Y-14981085D01*
X14336104Y-15028704D01*
X14098009Y-15028704D01*
X14002771Y-14981085D01*
X13955152Y-14933466D01*
X13907533Y-14838228D01*
X13907533Y-14647752D01*
X13955152Y-14552514D01*
X14002771Y-14504895D01*
X14098009Y-14457276D01*
%TO.C,C28*%
X22740857Y-18363142D02*
X22788476Y-18410761D01*
X22931333Y-18458380D01*
X23026571Y-18458380D01*
X23169428Y-18410761D01*
X23264666Y-18315523D01*
X23312285Y-18220285D01*
X23359904Y-18029809D01*
X23359904Y-17886952D01*
X23312285Y-17696476D01*
X23264666Y-17601238D01*
X23169428Y-17506000D01*
X23026571Y-17458380D01*
X22931333Y-17458380D01*
X22788476Y-17506000D01*
X22740857Y-17553619D01*
X22359904Y-17553619D02*
X22312285Y-17506000D01*
X22217047Y-17458380D01*
X21978952Y-17458380D01*
X21883714Y-17506000D01*
X21836095Y-17553619D01*
X21788476Y-17648857D01*
X21788476Y-17744095D01*
X21836095Y-17886952D01*
X22407523Y-18458380D01*
X21788476Y-18458380D01*
X21217047Y-17886952D02*
X21312285Y-17839333D01*
X21359904Y-17791714D01*
X21407523Y-17696476D01*
X21407523Y-17648857D01*
X21359904Y-17553619D01*
X21312285Y-17506000D01*
X21217047Y-17458380D01*
X21026571Y-17458380D01*
X20931333Y-17506000D01*
X20883714Y-17553619D01*
X20836095Y-17648857D01*
X20836095Y-17696476D01*
X20883714Y-17791714D01*
X20931333Y-17839333D01*
X21026571Y-17886952D01*
X21217047Y-17886952D01*
X21312285Y-17934571D01*
X21359904Y-17982190D01*
X21407523Y-18077428D01*
X21407523Y-18267904D01*
X21359904Y-18363142D01*
X21312285Y-18410761D01*
X21217047Y-18458380D01*
X21026571Y-18458380D01*
X20931333Y-18410761D01*
X20883714Y-18363142D01*
X20836095Y-18267904D01*
X20836095Y-18077428D01*
X20883714Y-17982190D01*
X20931333Y-17934571D01*
X21026571Y-17886952D01*
%TO.C,D2*%
X36547580Y-10356624D02*
X35547580Y-10356624D01*
X35547580Y-10594720D01*
X35595200Y-10737577D01*
X35690438Y-10832815D01*
X35785676Y-10880434D01*
X35976152Y-10928053D01*
X36119009Y-10928053D01*
X36309485Y-10880434D01*
X36404723Y-10832815D01*
X36499961Y-10737577D01*
X36547580Y-10594720D01*
X36547580Y-10356624D01*
X35642819Y-11309005D02*
X35595200Y-11356624D01*
X35547580Y-11451862D01*
X35547580Y-11689958D01*
X35595200Y-11785196D01*
X35642819Y-11832815D01*
X35738057Y-11880434D01*
X35833295Y-11880434D01*
X35976152Y-11832815D01*
X36547580Y-11261386D01*
X36547580Y-11880434D01*
%TO.C,D3*%
X34464780Y-10371864D02*
X33464780Y-10371864D01*
X33464780Y-10609960D01*
X33512400Y-10752817D01*
X33607638Y-10848055D01*
X33702876Y-10895674D01*
X33893352Y-10943293D01*
X34036209Y-10943293D01*
X34226685Y-10895674D01*
X34321923Y-10848055D01*
X34417161Y-10752817D01*
X34464780Y-10609960D01*
X34464780Y-10371864D01*
X33464780Y-11276626D02*
X33464780Y-11895674D01*
X33845733Y-11562340D01*
X33845733Y-11705198D01*
X33893352Y-11800436D01*
X33940971Y-11848055D01*
X34036209Y-11895674D01*
X34274304Y-11895674D01*
X34369542Y-11848055D01*
X34417161Y-11800436D01*
X34464780Y-11705198D01*
X34464780Y-11419483D01*
X34417161Y-11324245D01*
X34369542Y-11276626D01*
%TO.C,R31*%
X37839380Y-15475982D02*
X37363190Y-15142649D01*
X37839380Y-14904554D02*
X36839380Y-14904554D01*
X36839380Y-15285506D01*
X36887000Y-15380744D01*
X36934619Y-15428363D01*
X37029857Y-15475982D01*
X37172714Y-15475982D01*
X37267952Y-15428363D01*
X37315571Y-15380744D01*
X37363190Y-15285506D01*
X37363190Y-14904554D01*
X36839380Y-15809316D02*
X36839380Y-16428363D01*
X37220333Y-16095030D01*
X37220333Y-16237887D01*
X37267952Y-16333125D01*
X37315571Y-16380744D01*
X37410809Y-16428363D01*
X37648904Y-16428363D01*
X37744142Y-16380744D01*
X37791761Y-16333125D01*
X37839380Y-16237887D01*
X37839380Y-15952173D01*
X37791761Y-15856935D01*
X37744142Y-15809316D01*
X37839380Y-17380744D02*
X37839380Y-16809316D01*
X37839380Y-17095030D02*
X36839380Y-17095030D01*
X36982238Y-16999792D01*
X37077476Y-16904554D01*
X37125095Y-16809316D01*
%TD*%
M02*
