%TF.GenerationSoftware,KiCad,Pcbnew,5.0.0-rc2-dev-unknown-b813eac~63~ubuntu16.04.1*%
%TF.CreationDate,2018-04-08T19:45:01+02:00*%
%TF.ProjectId,atmegax8_with_BM20,61746D65676178385F776974685F424D,rev?*%
%TF.SameCoordinates,Original*%
%TF.FileFunction,Copper,L2,Bot,Signal*%
%TF.FilePolarity,Positive*%
%FSLAX46Y46*%
G04 Gerber Fmt 4.6, Leading zero omitted, Abs format (unit mm)*
G04 Created by KiCad (PCBNEW 5.0.0-rc2-dev-unknown-b813eac~63~ubuntu16.04.1) date Sun Apr  8 19:45:01 2018*
%MOMM*%
%LPD*%
G01*
G04 APERTURE LIST*
%TA.AperFunction,SMDPad,CuDef*%
%ADD10R,1.699260X3.299460*%
%TD*%
%TA.AperFunction,SMDPad,CuDef*%
%ADD11R,2.999740X1.600200*%
%TD*%
%TA.AperFunction,SMDPad,CuDef*%
%ADD12R,3.000000X1.600000*%
%TD*%
%TA.AperFunction,SMDPad,CuDef*%
%ADD13R,1.500000X1.300000*%
%TD*%
%TA.AperFunction,SMDPad,CuDef*%
%ADD14R,1.250000X1.500000*%
%TD*%
%TA.AperFunction,SMDPad,CuDef*%
%ADD15R,1.600200X3.599180*%
%TD*%
%TA.AperFunction,SMDPad,CuDef*%
%ADD16R,3.599180X1.600200*%
%TD*%
%TA.AperFunction,SMDPad,CuDef*%
%ADD17R,0.508000X1.143000*%
%TD*%
%TA.AperFunction,SMDPad,CuDef*%
%ADD18R,1.500000X1.250000*%
%TD*%
%TA.AperFunction,SMDPad,CuDef*%
%ADD19R,1.300000X1.500000*%
%TD*%
%TA.AperFunction,SMDPad,CuDef*%
%ADD20R,1.600000X2.000000*%
%TD*%
%TA.AperFunction,ComponentPad*%
%ADD21R,1.727200X2.032000*%
%TD*%
%TA.AperFunction,ComponentPad*%
%ADD22O,1.727200X2.032000*%
%TD*%
%TA.AperFunction,SMDPad,CuDef*%
%ADD23R,1.500000X0.800000*%
%TD*%
%TA.AperFunction,ComponentPad*%
%ADD24R,2.032000X1.727200*%
%TD*%
%TA.AperFunction,ComponentPad*%
%ADD25O,2.032000X1.727200*%
%TD*%
%TA.AperFunction,ViaPad*%
%ADD26C,0.800000*%
%TD*%
%TA.AperFunction,ViaPad*%
%ADD27C,1.000000*%
%TD*%
%TA.AperFunction,Conductor*%
%ADD28C,0.300000*%
%TD*%
%TA.AperFunction,Conductor*%
%ADD29C,0.254000*%
%TD*%
G04 APERTURE END LIST*
D10*
%TO.P,D1,1*%
%TO.N,+BATT*%
X33121600Y-10741660D03*
%TO.P,D1,2*%
%TO.N,+5V*%
X33121600Y-16243300D03*
%TD*%
D11*
%TO.P,C21,1*%
%TO.N,Net-(C21-Pad1)*%
X20126960Y-37683440D03*
%TO.P,C21,2*%
%TO.N,/BTOUTLN*%
X24526240Y-37683440D03*
%TD*%
D12*
%TO.P,C19,2*%
%TO.N,/BTOUTRN*%
X24498300Y-20485100D03*
%TO.P,C19,1*%
%TO.N,Net-(C19-Pad1)*%
X20098300Y-20485100D03*
%TD*%
D13*
%TO.P,R23,1*%
%TO.N,Net-(C21-Pad1)*%
X17001480Y-35280600D03*
%TO.P,R23,2*%
%TO.N,Net-(C18-Pad1)*%
X14301480Y-35280600D03*
%TD*%
D14*
%TO.P,C5,1*%
%TO.N,+BATT*%
X30861000Y-13416600D03*
%TO.P,C5,2*%
%TO.N,GND*%
X30861000Y-10916600D03*
%TD*%
D11*
%TO.P,C6,1*%
%TO.N,/BTOUTL*%
X24582120Y-31871920D03*
%TO.P,C6,2*%
%TO.N,Net-(C6-Pad2)*%
X20182840Y-31871920D03*
%TD*%
D15*
%TO.P,C9,1*%
%TO.N,Net-(C15-Pad1)*%
X9138920Y-17746980D03*
%TO.P,C9,2*%
%TO.N,/AOUTR*%
X9138920Y-12245340D03*
%TD*%
D16*
%TO.P,C10,1*%
%TO.N,+12V*%
X22222460Y-12486640D03*
%TO.P,C10,2*%
%TO.N,GND*%
X27724100Y-12486640D03*
%TD*%
D13*
%TO.P,R8,1*%
%TO.N,Net-(C16-Pad2)*%
X14321800Y-28676600D03*
%TO.P,R8,2*%
%TO.N,Net-(C6-Pad2)*%
X17021800Y-28676600D03*
%TD*%
%TO.P,R15,1*%
%TO.N,Net-(C15-Pad2)*%
X17047200Y-24638000D03*
%TO.P,R15,2*%
%TO.N,Net-(C15-Pad1)*%
X14347200Y-24638000D03*
%TD*%
D17*
%TO.P,U3,8*%
%TO.N,+12C*%
X11938000Y-23027640D03*
%TO.P,U3,7*%
%TO.N,Net-(C15-Pad1)*%
X10668000Y-23027640D03*
%TO.P,U3,6*%
%TO.N,Net-(C15-Pad2)*%
X9398000Y-23027640D03*
%TO.P,U3,5*%
%TO.N,Net-(C17-Pad1)*%
X8128000Y-23027640D03*
%TO.P,U3,4*%
%TO.N,GNDA*%
X8128000Y-29377640D03*
%TO.P,U3,3*%
%TO.N,Net-(C18-Pad1)*%
X9398000Y-29377640D03*
%TO.P,U3,2*%
%TO.N,Net-(C16-Pad2)*%
X10668000Y-29377640D03*
%TO.P,U3,1*%
%TO.N,Net-(C14-Pad1)*%
X11938000Y-29377640D03*
%TD*%
D15*
%TO.P,C14,1*%
%TO.N,Net-(C14-Pad1)*%
X9865360Y-32951420D03*
%TO.P,C14,2*%
%TO.N,/AOUTL*%
X9865360Y-38453060D03*
%TD*%
D18*
%TO.P,C15,1*%
%TO.N,Net-(C15-Pad1)*%
X14396400Y-22809200D03*
%TO.P,C15,2*%
%TO.N,Net-(C15-Pad2)*%
X16896400Y-22809200D03*
%TD*%
%TO.P,C16,1*%
%TO.N,Net-(C14-Pad1)*%
X14345600Y-32964120D03*
%TO.P,C16,2*%
%TO.N,Net-(C16-Pad2)*%
X16845600Y-32964120D03*
%TD*%
D11*
%TO.P,C20,1*%
%TO.N,/BTOUTR*%
X24526240Y-26116280D03*
%TO.P,C20,2*%
%TO.N,Net-(C20-Pad2)*%
X20126960Y-26116280D03*
%TD*%
D13*
%TO.P,R18,1*%
%TO.N,Net-(C16-Pad2)*%
X17001480Y-30728920D03*
%TO.P,R18,2*%
%TO.N,Net-(C14-Pad1)*%
X14301480Y-30728920D03*
%TD*%
%TO.P,R20,1*%
%TO.N,Net-(C19-Pad1)*%
X15675600Y-19278600D03*
%TO.P,R20,2*%
%TO.N,Net-(C17-Pad1)*%
X12975600Y-19278600D03*
%TD*%
%TO.P,R21,1*%
%TO.N,Net-(C15-Pad2)*%
X14372600Y-26644600D03*
%TO.P,R21,2*%
%TO.N,Net-(C20-Pad2)*%
X17072600Y-26644600D03*
%TD*%
D19*
%TO.P,R26,1*%
%TO.N,/LED1*%
X37795200Y-17448520D03*
%TO.P,R26,2*%
%TO.N,Net-(D2-Pad2)*%
X37795200Y-14748520D03*
%TD*%
D20*
%TO.P,C22,1*%
%TO.N,/MIC_BIAS*%
X18846800Y-16249400D03*
%TO.P,C22,2*%
%TO.N,GND*%
X18846800Y-12249400D03*
%TD*%
D14*
%TO.P,C23,1*%
%TO.N,/MICP*%
X13675360Y-14976160D03*
%TO.P,C23,2*%
%TO.N,/MIC_IN2*%
X13675360Y-12476160D03*
%TD*%
D13*
%TO.P,R27,1*%
%TO.N,/MIC_IN2*%
X13727440Y-9926320D03*
%TO.P,R27,2*%
%TO.N,/MIC_BIAS*%
X16427440Y-9926320D03*
%TD*%
D21*
%TO.P,P1,1*%
%TO.N,/AOUTL*%
X7406640Y-7396480D03*
D22*
%TO.P,P1,2*%
%TO.N,GNDA*%
X9946640Y-7396480D03*
%TO.P,P1,3*%
%TO.N,/AOUTR*%
X12486640Y-7396480D03*
%TO.P,P1,4*%
%TO.N,/MIC_IN2*%
X15026640Y-7396480D03*
%TO.P,P1,5*%
%TO.N,/MIC_IN1*%
X17566640Y-7396480D03*
%TO.P,P1,6*%
%TO.N,+12V*%
X20106640Y-7396480D03*
%TO.P,P1,7*%
%TO.N,GND*%
X22646640Y-7396480D03*
%TO.P,P1,8*%
%TO.N,Net-(P1-Pad8)*%
X25186640Y-7396480D03*
%TO.P,P1,9*%
%TO.N,/DataOut*%
X27726640Y-7396480D03*
%TO.P,P1,10*%
%TO.N,/CDC_ENA_12V*%
X30266640Y-7396480D03*
%TO.P,P1,11*%
%TO.N,Net-(P1-Pad11)*%
X32806640Y-7396480D03*
%TD*%
D14*
%TO.P,C26,1*%
%TO.N,/MICP*%
X15824200Y-12516800D03*
%TO.P,C26,2*%
%TO.N,/MICN*%
X15824200Y-15016800D03*
%TD*%
D18*
%TO.P,C28,2*%
%TO.N,GND*%
X23348000Y-16256000D03*
%TO.P,C28,1*%
%TO.N,/MIC_BIAS*%
X20848000Y-16256000D03*
%TD*%
D19*
%TO.P,D2,1*%
%TO.N,GND*%
X37795200Y-9744720D03*
%TO.P,D2,2*%
%TO.N,Net-(D2-Pad2)*%
X37795200Y-12444720D03*
%TD*%
%TO.P,D3,2*%
%TO.N,Net-(D3-Pad2)*%
X35712400Y-12459960D03*
%TO.P,D3,1*%
%TO.N,GND*%
X35712400Y-9759960D03*
%TD*%
%TO.P,R31,2*%
%TO.N,Net-(D3-Pad2)*%
X35687000Y-14768840D03*
%TO.P,R31,1*%
%TO.N,/LED2*%
X35687000Y-17468840D03*
%TD*%
D23*
%TO.P,U2,25*%
%TO.N,/BTOUTL*%
X43218000Y-31628000D03*
%TO.P,U2,20*%
%TO.N,/INL*%
X43218000Y-26128000D03*
%TO.P,U2,22*%
%TO.N,/MICP*%
X43218000Y-28328000D03*
%TO.P,U2,30*%
%TO.N,N/C*%
X43218000Y-37128000D03*
%TO.P,U2,28*%
X43218000Y-34928000D03*
%TO.P,U2,24*%
%TO.N,/BTOUTLN*%
X43218000Y-30528000D03*
%TO.P,U2,21*%
%TO.N,/MICN*%
X43218000Y-27228000D03*
%TO.P,U2,31*%
%TO.N,N/C*%
X43218000Y-38228000D03*
%TO.P,U2,18*%
%TO.N,/IN_DETECT*%
X43218000Y-23928000D03*
%TO.P,U2,29*%
%TO.N,+BATT*%
X43218000Y-36028000D03*
%TO.P,U2,19*%
%TO.N,/INR*%
X43218000Y-25028000D03*
%TO.P,U2,27*%
%TO.N,/BTOUTRN*%
X43218000Y-33828000D03*
%TO.P,U2,17*%
%TO.N,GND*%
X43218000Y-22828000D03*
%TO.P,U2,23*%
%TO.N,/MIC_BIAS*%
X43218000Y-29428000D03*
%TO.P,U2,32*%
%TO.N,GND*%
X43218000Y-39328000D03*
%TO.P,U2,26*%
%TO.N,/BTOUTR*%
X43218000Y-32728000D03*
%TO.P,U2,4*%
%TO.N,N/C*%
X29718000Y-36028000D03*
%TO.P,U2,1*%
%TO.N,GND*%
X29718000Y-39328000D03*
%TO.P,U2,2*%
%TO.N,N/C*%
X29718000Y-38228000D03*
%TO.P,U2,3*%
%TO.N,GND*%
X29718000Y-37128000D03*
%TO.P,U2,7*%
%TO.N,N/C*%
X29718000Y-32728000D03*
%TO.P,U2,5*%
X29718000Y-34928000D03*
%TO.P,U2,9*%
X29718000Y-30528000D03*
%TO.P,U2,6*%
X29718000Y-33828000D03*
%TO.P,U2,10*%
%TO.N,TX*%
X29718000Y-29428000D03*
%TO.P,U2,8*%
%TO.N,/BT_RESET*%
X29718000Y-31628000D03*
%TO.P,U2,11*%
%TO.N,RX*%
X29718000Y-28328000D03*
%TO.P,U2,12*%
%TO.N,N/C*%
X29718000Y-27228000D03*
%TO.P,U2,13*%
%TO.N,/LED1*%
X29718000Y-26128000D03*
%TO.P,U2,14*%
%TO.N,/LED2*%
X29718000Y-25028000D03*
%TO.P,U2,15*%
%TO.N,N/C*%
X29718000Y-23928000D03*
%TO.P,U2,16*%
%TO.N,GND*%
X29718000Y-22828000D03*
%TD*%
D24*
%TO.P,P3,1*%
%TO.N,/IN_DETECT*%
X43352720Y-16144240D03*
D25*
%TO.P,P3,2*%
%TO.N,/INR*%
X43352720Y-13604240D03*
%TO.P,P3,3*%
%TO.N,/INL*%
X43352720Y-11064240D03*
%TO.P,P3,4*%
%TO.N,GND*%
X43352720Y-8524240D03*
%TD*%
D26*
%TO.N,+5V*%
X21158200Y-14869160D03*
X23246080Y-23647400D03*
X20116800Y-28321000D03*
X21336000Y-29997400D03*
D27*
X21361400Y-23647400D03*
D26*
%TO.N,GND*%
X25432320Y-23853960D03*
X41681400Y-22849840D03*
X34767520Y-35189160D03*
X19583400Y-14649398D03*
%TO.N,/BT_RESET*%
X31074360Y-34269680D03*
%TO.N,/ARESET*%
X33446390Y-28536900D03*
X37617400Y-28536900D03*
%TO.N,+BATT*%
X33736280Y-34249360D03*
X41478200Y-19050000D03*
%TO.N,/SCK*%
X35801119Y-34467800D03*
X36055300Y-32162200D03*
%TO.N,/BTOUTL*%
X26670000Y-38846760D03*
X34693127Y-38282110D03*
%TO.N,/BTOUTR*%
X34193480Y-39468360D03*
X27489720Y-39588440D03*
%TO.N,/BTOUTRN*%
X28239720Y-40380920D03*
X35801300Y-39344600D03*
%TO.N,/BTOUTLN*%
X22387560Y-38044120D03*
X33708412Y-37932109D03*
%TO.N,/MICP*%
X33070800Y-19392900D03*
X31553720Y-19367500D03*
%TO.N,/MICN*%
X31503551Y-25493911D03*
X33883600Y-26969720D03*
X14900362Y-14848840D03*
%TO.N,GNDA*%
X7213600Y-31526480D03*
%TO.N,+12C*%
X12115800Y-21285200D03*
%TO.N,Net-(C17-Pad1)*%
X11358880Y-18196560D03*
%TO.N,Net-(C18-Pad1)*%
X11973560Y-31460440D03*
%TO.N,/IN_DETECT*%
X44353299Y-23914100D03*
%TO.N,/INR*%
X40259000Y-25031700D03*
%TO.N,/INL*%
X44703300Y-26136600D03*
%TD*%
D28*
%TO.N,+5V*%
X21158200Y-14869160D02*
X31747460Y-14869160D01*
X31747460Y-14869160D02*
X33121600Y-16243300D01*
X21361400Y-23647400D02*
X23246080Y-23647400D01*
X21336000Y-29540200D02*
X21336000Y-29997400D01*
X20116800Y-28321000D02*
X21336000Y-29540200D01*
%TO.N,GND*%
X25432320Y-23853960D02*
X26458280Y-22828000D01*
X26458280Y-22828000D02*
X29718000Y-22828000D01*
X20406360Y-13761720D02*
X24349430Y-13761720D01*
X24349430Y-13761720D02*
X25624510Y-12486640D01*
X25624510Y-12486640D02*
X27724100Y-12486640D01*
X19983399Y-14184681D02*
X20406360Y-13761720D01*
X19583400Y-14649398D02*
X19983399Y-14249399D01*
X19983399Y-14249399D02*
X19983399Y-14184681D01*
X43218000Y-22828000D02*
X41703240Y-22828000D01*
X41703240Y-22828000D02*
X41681400Y-22849840D01*
X34767520Y-35189160D02*
X34767520Y-34170598D01*
X34767520Y-34170598D02*
X34094442Y-33497520D01*
X34094442Y-33497520D02*
X33202880Y-33497520D01*
X33202880Y-33497520D02*
X32410400Y-34290000D01*
X32410400Y-34290000D02*
X32410400Y-35485600D01*
X32410400Y-35485600D02*
X30768000Y-37128000D01*
X30768000Y-37128000D02*
X29718000Y-37128000D01*
X18846800Y-12249400D02*
X18846800Y-13912798D01*
X18846800Y-13912798D02*
X19583400Y-14649398D01*
X30861000Y-10916600D02*
X29294140Y-10916600D01*
X29294140Y-10916600D02*
X27724100Y-12486640D01*
X27724100Y-12486640D02*
X27724100Y-12090400D01*
X27724100Y-12486640D02*
X28973460Y-12486640D01*
X27724100Y-12486640D02*
X29149040Y-12486640D01*
X27724100Y-12486640D02*
X26771600Y-12486640D01*
X26771600Y-12486640D02*
X22646640Y-8361680D01*
X22646640Y-8361680D02*
X22646640Y-7396480D01*
%TO.N,+12V*%
X22222460Y-12486640D02*
X22222460Y-9512300D01*
X22222460Y-9512300D02*
X20106640Y-7396480D01*
%TO.N,/BT_RESET*%
X31074360Y-34269680D02*
X31074360Y-31934360D01*
X31074360Y-31934360D02*
X30768000Y-31628000D01*
X30768000Y-31628000D02*
X29718000Y-31628000D01*
%TO.N,/ARESET*%
X35930840Y-28536900D02*
X33446390Y-28536900D01*
X35930840Y-28536900D02*
X37617400Y-28536900D01*
%TO.N,+BATT*%
X33736280Y-34249360D02*
X33736280Y-36794239D01*
X33736280Y-36794239D02*
X32958411Y-37572108D01*
X32958411Y-37572108D02*
X32958411Y-39343293D01*
X36967160Y-40218360D02*
X41157520Y-36028000D01*
X32958411Y-39343293D02*
X33833478Y-40218360D01*
X33833478Y-40218360D02*
X36967160Y-40218360D01*
X41157520Y-36028000D02*
X43218000Y-36028000D01*
X34604960Y-15716802D02*
X34604960Y-14174750D01*
X38297041Y-15868841D02*
X34756999Y-15868841D01*
X34756999Y-15868841D02*
X34604960Y-15716802D01*
X41478200Y-19050000D02*
X38297041Y-15868841D01*
X34604960Y-14174750D02*
X33121600Y-12691390D01*
X33121600Y-12691390D02*
X33121600Y-10741660D01*
X30861000Y-13416600D02*
X30861000Y-13291600D01*
X30861000Y-13291600D02*
X33121600Y-11031000D01*
X33121600Y-11031000D02*
X33121600Y-10741660D01*
X45453300Y-34842700D02*
X45453300Y-23609300D01*
X44742100Y-19050000D02*
X45453300Y-19761200D01*
X45453300Y-19761200D02*
X45453300Y-23609300D01*
X41478200Y-19050000D02*
X44742100Y-19050000D01*
X43218000Y-36028000D02*
X44268000Y-36028000D01*
X44268000Y-36028000D02*
X45453300Y-34842700D01*
%TO.N,/SCK*%
X36055300Y-32162200D02*
X36055300Y-34213619D01*
X36055300Y-34213619D02*
X35801119Y-34467800D01*
%TO.N,/BTOUTL*%
X26670000Y-38846760D02*
X26670000Y-36931600D01*
X26075640Y-36337240D02*
X24582120Y-34843720D01*
X26670000Y-36931600D02*
X26075640Y-36337240D01*
X36295097Y-36680140D02*
X34693127Y-38282110D01*
X41485900Y-31628000D02*
X36433760Y-36680140D01*
X36433760Y-36680140D02*
X36295097Y-36680140D01*
X24582120Y-34843720D02*
X24582120Y-31871920D01*
X43218000Y-31628000D02*
X41485900Y-31628000D01*
%TO.N,/BTOUTR*%
X27489720Y-39588440D02*
X27489720Y-39561200D01*
X27489720Y-39561200D02*
X27559701Y-39491219D01*
X27559701Y-37114181D02*
X26476960Y-36031440D01*
X27559701Y-39491219D02*
X27559701Y-37114181D01*
X26476960Y-36031440D02*
X26476960Y-30836788D01*
X26476960Y-30836788D02*
X24526240Y-28886068D01*
X24526240Y-28886068D02*
X24526240Y-27216380D01*
X24526240Y-27216380D02*
X24526240Y-26116280D01*
X37353240Y-37056060D02*
X37002720Y-37406580D01*
X35441299Y-38594599D02*
X35814701Y-38594599D01*
X35814701Y-38594599D02*
X37002720Y-37406580D01*
X34193480Y-39468360D02*
X34593479Y-39068361D01*
X34593479Y-39068361D02*
X34967537Y-39068361D01*
X34967537Y-39068361D02*
X35441299Y-38594599D01*
X36569599Y-37839701D02*
X37353240Y-37056060D01*
X37353240Y-37056060D02*
X41681300Y-32728000D01*
X36569599Y-37839701D02*
X36556899Y-37839701D01*
X41681300Y-32728000D02*
X43218000Y-32728000D01*
%TO.N,Net-(C19-Pad1)*%
X15675600Y-19278600D02*
X19991800Y-19278600D01*
X20098300Y-19385100D02*
X20098300Y-20485100D01*
X19991800Y-19278600D02*
X20098300Y-19385100D01*
%TO.N,/MIC_BIAS*%
X32303720Y-18526760D02*
X31127480Y-17350520D01*
X32303720Y-29210000D02*
X32303720Y-18526760D01*
X32521720Y-29428000D02*
X32303720Y-29210000D01*
X43218000Y-29428000D02*
X32521720Y-29428000D01*
X31127480Y-17350520D02*
X22067520Y-17350520D01*
X22067520Y-17350520D02*
X20973000Y-16256000D01*
X20973000Y-16256000D02*
X20848000Y-16256000D01*
X20848000Y-16256000D02*
X18853400Y-16256000D01*
X18853400Y-16256000D02*
X18846800Y-16249400D01*
X16427440Y-9926320D02*
X16427440Y-10876320D01*
X16427440Y-10876320D02*
X17696799Y-12145679D01*
X17696799Y-12145679D02*
X17696799Y-13799399D01*
X17696799Y-13799399D02*
X18846800Y-14949400D01*
X18846800Y-14949400D02*
X18846800Y-16249400D01*
%TO.N,/BTOUTRN*%
X24498300Y-20485100D02*
X24498300Y-24313399D01*
X25151080Y-24966179D02*
X26306111Y-24966179D01*
X24498300Y-24313399D02*
X25151080Y-24966179D01*
X26976970Y-35653610D02*
X28239720Y-36916360D01*
X26306111Y-24966179D02*
X26395680Y-25055748D01*
X26395680Y-25055748D02*
X26395680Y-30048388D01*
X26395680Y-30048388D02*
X26976970Y-30629678D01*
X26976970Y-30629678D02*
X26976970Y-35653610D01*
X28239720Y-36916360D02*
X28239720Y-40380920D01*
X43218000Y-33828000D02*
X41775120Y-33828000D01*
X41775120Y-33828000D02*
X36258520Y-39344600D01*
X36258520Y-39344600D02*
X35801300Y-39344600D01*
%TO.N,/BTOUTLN*%
X22387560Y-38044120D02*
X24165560Y-38044120D01*
X24165560Y-38044120D02*
X24526240Y-37683440D01*
X34333126Y-37532109D02*
X33933126Y-37932109D01*
X33933126Y-37932109D02*
X33708412Y-37932109D01*
X43218000Y-30528000D02*
X41724840Y-30528000D01*
X41724840Y-30528000D02*
X34720731Y-37532109D01*
X34720731Y-37532109D02*
X34333126Y-37532109D01*
%TO.N,/MICP*%
X33383220Y-27749500D02*
X33070800Y-27437080D01*
X41541700Y-27749500D02*
X33383220Y-27749500D01*
X42120200Y-28328000D02*
X41541700Y-27749500D01*
X43218000Y-28328000D02*
X42120200Y-28328000D01*
X33070800Y-27437080D02*
X33070800Y-19392900D01*
X30702930Y-17850530D02*
X31553720Y-18701320D01*
X31553720Y-18701320D02*
X31553720Y-19367500D01*
X15824200Y-12641800D02*
X15824200Y-12516800D01*
X30702930Y-17850530D02*
X18017928Y-17850530D01*
X18017928Y-17850530D02*
X17196789Y-17029391D01*
X17196789Y-17029391D02*
X17196789Y-14014389D01*
X17196789Y-14014389D02*
X15824200Y-12641800D01*
X13675360Y-14976160D02*
X13675360Y-14851160D01*
X13675360Y-14851160D02*
X15824200Y-12702320D01*
X15824200Y-12702320D02*
X15824200Y-12516800D01*
%TO.N,/MICN*%
X31480760Y-22120860D02*
X31480760Y-25471120D01*
X31480760Y-25471120D02*
X31503551Y-25493911D01*
X31480760Y-22120860D02*
X30600799Y-21240899D01*
X34141880Y-27228000D02*
X33883600Y-26969720D01*
X41478200Y-27228000D02*
X34141880Y-27228000D01*
X41478200Y-27228000D02*
X43218000Y-27228000D01*
X30344720Y-18330520D02*
X30600799Y-18586599D01*
X17819110Y-18330520D02*
X30344720Y-18330520D01*
X15824200Y-16335610D02*
X17819110Y-18330520D01*
X15824200Y-15016800D02*
X15824200Y-16335610D01*
X30600799Y-18586599D02*
X30600799Y-21240899D01*
X15824200Y-15016800D02*
X15068322Y-15016800D01*
X15068322Y-15016800D02*
X14900362Y-14848840D01*
%TO.N,Net-(C6-Pad2)*%
X17021800Y-28676600D02*
X18186400Y-28676600D01*
X18186400Y-28676600D02*
X20182840Y-30673040D01*
X20182840Y-30673040D02*
X20182840Y-31871920D01*
%TO.N,/AOUTL*%
X9865360Y-38453060D02*
X9865360Y-38409880D01*
X9865360Y-38409880D02*
X6233160Y-34777680D01*
X6233160Y-34777680D02*
X6233160Y-8569960D01*
X6233160Y-8569960D02*
X7406640Y-7396480D01*
%TO.N,/AOUTR*%
X9138920Y-12245340D02*
X9138920Y-10744200D01*
X9138920Y-10744200D02*
X12486640Y-7396480D01*
%TO.N,GNDA*%
X7437120Y-29377640D02*
X7437120Y-31302960D01*
X7437120Y-31302960D02*
X7213600Y-31526480D01*
X9946640Y-7396480D02*
X9939020Y-7396480D01*
X9939020Y-7396480D02*
X6941820Y-10393680D01*
X7269480Y-29377640D02*
X7437120Y-29377640D01*
X7437120Y-29377640D02*
X8128000Y-29377640D01*
X6941820Y-29049980D02*
X7269480Y-29377640D01*
X6941820Y-10393680D02*
X6941820Y-29049980D01*
%TO.N,+12C*%
X11938000Y-23027640D02*
X11938000Y-21463000D01*
X11938000Y-21463000D02*
X12115800Y-21285200D01*
%TO.N,Net-(C15-Pad1)*%
X14347200Y-24638000D02*
X14347200Y-22858400D01*
X14347200Y-22858400D02*
X14396400Y-22809200D01*
X9138920Y-17746980D02*
X9138920Y-21015960D01*
X10383520Y-21752560D02*
X10668000Y-22037040D01*
X9875520Y-21752560D02*
X10383520Y-21752560D01*
X9138920Y-21015960D02*
X9875520Y-21752560D01*
X9138920Y-17746980D02*
X9138920Y-19024600D01*
X10668000Y-22037040D02*
X10668000Y-23027640D01*
X10668000Y-23027640D02*
X10668000Y-24150320D01*
X11043920Y-24526240D02*
X13615680Y-24526240D01*
X10668000Y-24150320D02*
X11043920Y-24526240D01*
%TO.N,Net-(C14-Pad1)*%
X9865360Y-32951420D02*
X9865360Y-32120840D01*
X9865360Y-32120840D02*
X11938000Y-30048200D01*
X14332900Y-32951420D02*
X14345600Y-32964120D01*
X14345600Y-32964120D02*
X14345600Y-30773040D01*
X14345600Y-30773040D02*
X14301480Y-30728920D01*
X11938000Y-29377640D02*
X11938000Y-30048200D01*
X11938000Y-30048200D02*
X11938000Y-30058360D01*
X12608560Y-30728920D02*
X14301480Y-30728920D01*
X11938000Y-30058360D02*
X12608560Y-30728920D01*
%TO.N,Net-(C15-Pad2)*%
X14372600Y-26644600D02*
X14122400Y-26644600D01*
X14122400Y-26644600D02*
X12801600Y-25323800D01*
X10515600Y-25323800D02*
X9398000Y-24206200D01*
X12801600Y-25323800D02*
X10515600Y-25323800D01*
X9398000Y-24206200D02*
X9398000Y-23027640D01*
X17047200Y-24638000D02*
X17047200Y-22960000D01*
X17047200Y-22960000D02*
X16896400Y-22809200D01*
X14372600Y-26644600D02*
X15040600Y-26644600D01*
X15040600Y-26644600D02*
X17047200Y-24638000D01*
%TO.N,Net-(C16-Pad2)*%
X10668000Y-29377640D02*
X10668000Y-28387040D01*
X11120120Y-27934920D02*
X13879840Y-27934920D01*
X10668000Y-28387040D02*
X11120120Y-27934920D01*
X13879840Y-27934920D02*
X14326880Y-28381960D01*
X16845600Y-32964120D02*
X16845600Y-30884800D01*
X16845600Y-30884800D02*
X17001480Y-30728920D01*
X17001480Y-30728920D02*
X16673840Y-30728920D01*
X16673840Y-30728920D02*
X14326880Y-28381960D01*
%TO.N,Net-(C17-Pad1)*%
X11358880Y-18196560D02*
X11893560Y-18196560D01*
X11893560Y-18196560D02*
X12975600Y-19278600D01*
X12975600Y-19278600D02*
X12975600Y-17618720D01*
X12975600Y-17618720D02*
X10586720Y-15229840D01*
X7640320Y-15615920D02*
X7640320Y-22539960D01*
X7640320Y-22539960D02*
X8128000Y-23027640D01*
X10586720Y-15229840D02*
X8026400Y-15229840D01*
X8026400Y-15229840D02*
X7640320Y-15615920D01*
%TO.N,Net-(C18-Pad1)*%
X12034520Y-31521400D02*
X12034520Y-35560000D01*
X11973560Y-31460440D02*
X12034520Y-31521400D01*
X9398000Y-29377640D02*
X9398000Y-29768800D01*
X9398000Y-29768800D02*
X8270240Y-30896560D01*
X8244840Y-30921960D02*
X8244840Y-31567120D01*
X8270240Y-30896560D02*
X8244840Y-30921960D01*
X8468360Y-35560000D02*
X12034520Y-35560000D01*
X12034520Y-35560000D02*
X14022080Y-35560000D01*
X8244840Y-31567120D02*
X8244840Y-35336480D01*
X8244840Y-35336480D02*
X8468360Y-35560000D01*
X14022080Y-35560000D02*
X14301480Y-35280600D01*
%TO.N,Net-(C20-Pad2)*%
X16945600Y-26090880D02*
X20101560Y-26090880D01*
X20101560Y-26090880D02*
X20126960Y-26116280D01*
%TO.N,Net-(C21-Pad1)*%
X17001480Y-35280600D02*
X17724120Y-35280600D01*
X17724120Y-35280600D02*
X20126960Y-37683440D01*
X19928840Y-37881560D02*
X20126960Y-37683440D01*
%TO.N,/MICP*%
X13675360Y-14976160D02*
X13675360Y-15615920D01*
%TO.N,/MIC_BIAS*%
X16215360Y-10138400D02*
X16427440Y-9926320D01*
%TO.N,/MIC_IN2*%
X13675360Y-12476160D02*
X13675360Y-9978400D01*
X13675360Y-9978400D02*
X13727440Y-9926320D01*
X13727440Y-9926320D02*
X13727440Y-8695680D01*
X13727440Y-8695680D02*
X15026640Y-7396480D01*
X14478000Y-7945120D02*
X15026640Y-7396480D01*
%TO.N,Net-(D2-Pad2)*%
X37795200Y-12444720D02*
X37795200Y-14748520D01*
%TO.N,Net-(D3-Pad2)*%
X35712400Y-12459960D02*
X35712400Y-14743440D01*
X35712400Y-14743440D02*
X35687000Y-14768840D01*
%TO.N,/LED1*%
X36769040Y-26035000D02*
X36584321Y-26219719D01*
X36584321Y-26219719D02*
X34002279Y-26219719D01*
X38531800Y-24272240D02*
X36769040Y-26035000D01*
X38531800Y-19235120D02*
X38531800Y-24272240D01*
X37795200Y-17448520D02*
X37795200Y-18498520D01*
X37795200Y-18498520D02*
X38531800Y-19235120D01*
%TO.N,/IN_DETECT*%
X43218000Y-23928000D02*
X44339399Y-23928000D01*
X44339399Y-23928000D02*
X44353299Y-23914100D01*
%TO.N,/INR*%
X40259000Y-25031700D02*
X43214300Y-25031700D01*
X43214300Y-25031700D02*
X43218000Y-25028000D01*
%TO.N,/INL*%
X43218000Y-26128000D02*
X44694700Y-26128000D01*
X44694700Y-26128000D02*
X44703300Y-26136600D01*
%TD*%
D29*
%TO.N,GND*%
G36*
X30864439Y-27406933D02*
X31068947Y-27611441D01*
X31336151Y-27722120D01*
X31625369Y-27722120D01*
X31826720Y-27638718D01*
X31826720Y-29163029D01*
X31817377Y-29210000D01*
X31826720Y-29256971D01*
X31826720Y-29256974D01*
X31854397Y-29396115D01*
X31959823Y-29553897D01*
X31999649Y-29580508D01*
X32151212Y-29732071D01*
X32177823Y-29771897D01*
X32335604Y-29877323D01*
X32521720Y-29914344D01*
X32568695Y-29905000D01*
X42149910Y-29905000D01*
X42159973Y-29955589D01*
X42174947Y-29978000D01*
X42159973Y-30000411D01*
X42149910Y-30051000D01*
X41771811Y-30051000D01*
X41724840Y-30041657D01*
X41677869Y-30051000D01*
X41677865Y-30051000D01*
X41538724Y-30078677D01*
X41380943Y-30184103D01*
X41354334Y-30223926D01*
X34523152Y-37055109D01*
X34380095Y-37055109D01*
X34333125Y-37045766D01*
X34286155Y-37055109D01*
X34286151Y-37055109D01*
X34147010Y-37082786D01*
X34093085Y-37118817D01*
X34135019Y-37056060D01*
X34185603Y-36980355D01*
X34213280Y-36841214D01*
X34213280Y-36841210D01*
X34222623Y-36794239D01*
X34213280Y-36747268D01*
X34213280Y-34800494D01*
X34352601Y-34661173D01*
X34463280Y-34393969D01*
X34463280Y-34323191D01*
X35074119Y-34323191D01*
X35074119Y-34612409D01*
X35184798Y-34879613D01*
X35389306Y-35084121D01*
X35656510Y-35194800D01*
X35945728Y-35194800D01*
X36212932Y-35084121D01*
X36417440Y-34879613D01*
X36528119Y-34612409D01*
X36528119Y-34323191D01*
X36522532Y-34309702D01*
X36532300Y-34260594D01*
X36532300Y-34260591D01*
X36541643Y-34213620D01*
X36532300Y-34166649D01*
X36532300Y-32713334D01*
X36671621Y-32574013D01*
X36782300Y-32306809D01*
X36782300Y-32017591D01*
X36671621Y-31750387D01*
X36467113Y-31545879D01*
X36199909Y-31435200D01*
X35910691Y-31435200D01*
X35643487Y-31545879D01*
X35438979Y-31750387D01*
X35328300Y-32017591D01*
X35328300Y-32306809D01*
X35438979Y-32574013D01*
X35578300Y-32713334D01*
X35578301Y-33773195D01*
X35389306Y-33851479D01*
X35184798Y-34055987D01*
X35074119Y-34323191D01*
X34463280Y-34323191D01*
X34463280Y-34104751D01*
X34352601Y-33837547D01*
X34148093Y-33633039D01*
X33880889Y-33522360D01*
X33591671Y-33522360D01*
X33324467Y-33633039D01*
X33119959Y-33837547D01*
X33009280Y-34104751D01*
X33009280Y-34393969D01*
X33119959Y-34661173D01*
X33259280Y-34800494D01*
X33259281Y-36596658D01*
X32654339Y-37201600D01*
X32614514Y-37228211D01*
X32509088Y-37385993D01*
X32481411Y-37525134D01*
X32481411Y-37525137D01*
X32472068Y-37572108D01*
X32481411Y-37619079D01*
X32481412Y-39296317D01*
X32472068Y-39343293D01*
X32509088Y-39529408D01*
X32525991Y-39554704D01*
X32614515Y-39687190D01*
X32654338Y-39713799D01*
X33462972Y-40522434D01*
X33489581Y-40562257D01*
X33529404Y-40588866D01*
X33647362Y-40667683D01*
X33833478Y-40704704D01*
X33880453Y-40695360D01*
X36920189Y-40695360D01*
X36967160Y-40704703D01*
X37014131Y-40695360D01*
X37014135Y-40695360D01*
X37153276Y-40667683D01*
X37311057Y-40562257D01*
X37337668Y-40522431D01*
X38246349Y-39613750D01*
X41833000Y-39613750D01*
X41833000Y-39854310D01*
X41929673Y-40087699D01*
X42108302Y-40266327D01*
X42341691Y-40363000D01*
X42932250Y-40363000D01*
X43091000Y-40204250D01*
X43091000Y-39455000D01*
X43345000Y-39455000D01*
X43345000Y-40204250D01*
X43503750Y-40363000D01*
X44094309Y-40363000D01*
X44327698Y-40266327D01*
X44506327Y-40087699D01*
X44603000Y-39854310D01*
X44603000Y-39613750D01*
X44444250Y-39455000D01*
X43345000Y-39455000D01*
X43091000Y-39455000D01*
X41991750Y-39455000D01*
X41833000Y-39613750D01*
X38246349Y-39613750D01*
X41355100Y-36505000D01*
X42149910Y-36505000D01*
X42159973Y-36555589D01*
X42174947Y-36578000D01*
X42159973Y-36600411D01*
X42134594Y-36728000D01*
X42134594Y-37528000D01*
X42159973Y-37655589D01*
X42174947Y-37678000D01*
X42159973Y-37700411D01*
X42134594Y-37828000D01*
X42134594Y-38378782D01*
X42108302Y-38389673D01*
X41929673Y-38568301D01*
X41833000Y-38801690D01*
X41833000Y-39042250D01*
X41991750Y-39201000D01*
X43091000Y-39201000D01*
X43091000Y-39181000D01*
X43345000Y-39181000D01*
X43345000Y-39201000D01*
X44444250Y-39201000D01*
X44603000Y-39042250D01*
X44603000Y-38801690D01*
X44506327Y-38568301D01*
X44327698Y-38389673D01*
X44301406Y-38378782D01*
X44301406Y-37828000D01*
X44276027Y-37700411D01*
X44261053Y-37678000D01*
X44276027Y-37655589D01*
X44301406Y-37528000D01*
X44301406Y-36728000D01*
X44276027Y-36600411D01*
X44261053Y-36578000D01*
X44276027Y-36555589D01*
X44284900Y-36510981D01*
X44314971Y-36505000D01*
X44314975Y-36505000D01*
X44454116Y-36477323D01*
X44611897Y-36371897D01*
X44638508Y-36332071D01*
X45757375Y-35213205D01*
X45797197Y-35186597D01*
X45902623Y-35028816D01*
X45923200Y-34925368D01*
X45923200Y-40919400D01*
X28729374Y-40919400D01*
X28856041Y-40792733D01*
X28966720Y-40525529D01*
X28966720Y-40363000D01*
X29432250Y-40363000D01*
X29591000Y-40204250D01*
X29591000Y-39455000D01*
X29845000Y-39455000D01*
X29845000Y-40204250D01*
X30003750Y-40363000D01*
X30594309Y-40363000D01*
X30827698Y-40266327D01*
X31006327Y-40087699D01*
X31103000Y-39854310D01*
X31103000Y-39613750D01*
X30944250Y-39455000D01*
X29845000Y-39455000D01*
X29591000Y-39455000D01*
X29571000Y-39455000D01*
X29571000Y-39201000D01*
X29591000Y-39201000D01*
X29591000Y-39181000D01*
X29845000Y-39181000D01*
X29845000Y-39201000D01*
X30944250Y-39201000D01*
X31103000Y-39042250D01*
X31103000Y-38801690D01*
X31006327Y-38568301D01*
X30827698Y-38389673D01*
X30801406Y-38378782D01*
X30801406Y-38077218D01*
X30827698Y-38066327D01*
X31006327Y-37887699D01*
X31103000Y-37654310D01*
X31103000Y-37413750D01*
X30944250Y-37255000D01*
X29845000Y-37255000D01*
X29845000Y-37275000D01*
X29591000Y-37275000D01*
X29591000Y-37255000D01*
X29571000Y-37255000D01*
X29571000Y-37001000D01*
X29591000Y-37001000D01*
X29591000Y-36981000D01*
X29845000Y-36981000D01*
X29845000Y-37001000D01*
X30944250Y-37001000D01*
X31103000Y-36842250D01*
X31103000Y-36601690D01*
X31006327Y-36368301D01*
X30827698Y-36189673D01*
X30801406Y-36178782D01*
X30801406Y-35628000D01*
X30776027Y-35500411D01*
X30761053Y-35478000D01*
X30776027Y-35455589D01*
X30801406Y-35328000D01*
X30801406Y-34943518D01*
X30929751Y-34996680D01*
X31218969Y-34996680D01*
X31486173Y-34886001D01*
X31690681Y-34681493D01*
X31801360Y-34414289D01*
X31801360Y-34125071D01*
X31690681Y-33857867D01*
X31551360Y-33718546D01*
X31551360Y-31981329D01*
X31560703Y-31934359D01*
X31551360Y-31887389D01*
X31551360Y-31887385D01*
X31523683Y-31748244D01*
X31418257Y-31590463D01*
X31378431Y-31563852D01*
X31138508Y-31323929D01*
X31111897Y-31284103D01*
X30954116Y-31178677D01*
X30814975Y-31151000D01*
X30814971Y-31151000D01*
X30784900Y-31145019D01*
X30776027Y-31100411D01*
X30761053Y-31078000D01*
X30776027Y-31055589D01*
X30801406Y-30928000D01*
X30801406Y-30128000D01*
X30776027Y-30000411D01*
X30761053Y-29978000D01*
X30776027Y-29955589D01*
X30801406Y-29828000D01*
X30801406Y-29028000D01*
X30776027Y-28900411D01*
X30761053Y-28878000D01*
X30776027Y-28855589D01*
X30801406Y-28728000D01*
X30801406Y-27928000D01*
X30776027Y-27800411D01*
X30761053Y-27778000D01*
X30776027Y-27755589D01*
X30801406Y-27628000D01*
X30801406Y-27254757D01*
X30864439Y-27406933D01*
X30864439Y-27406933D01*
G37*
X30864439Y-27406933D02*
X31068947Y-27611441D01*
X31336151Y-27722120D01*
X31625369Y-27722120D01*
X31826720Y-27638718D01*
X31826720Y-29163029D01*
X31817377Y-29210000D01*
X31826720Y-29256971D01*
X31826720Y-29256974D01*
X31854397Y-29396115D01*
X31959823Y-29553897D01*
X31999649Y-29580508D01*
X32151212Y-29732071D01*
X32177823Y-29771897D01*
X32335604Y-29877323D01*
X32521720Y-29914344D01*
X32568695Y-29905000D01*
X42149910Y-29905000D01*
X42159973Y-29955589D01*
X42174947Y-29978000D01*
X42159973Y-30000411D01*
X42149910Y-30051000D01*
X41771811Y-30051000D01*
X41724840Y-30041657D01*
X41677869Y-30051000D01*
X41677865Y-30051000D01*
X41538724Y-30078677D01*
X41380943Y-30184103D01*
X41354334Y-30223926D01*
X34523152Y-37055109D01*
X34380095Y-37055109D01*
X34333125Y-37045766D01*
X34286155Y-37055109D01*
X34286151Y-37055109D01*
X34147010Y-37082786D01*
X34093085Y-37118817D01*
X34135019Y-37056060D01*
X34185603Y-36980355D01*
X34213280Y-36841214D01*
X34213280Y-36841210D01*
X34222623Y-36794239D01*
X34213280Y-36747268D01*
X34213280Y-34800494D01*
X34352601Y-34661173D01*
X34463280Y-34393969D01*
X34463280Y-34323191D01*
X35074119Y-34323191D01*
X35074119Y-34612409D01*
X35184798Y-34879613D01*
X35389306Y-35084121D01*
X35656510Y-35194800D01*
X35945728Y-35194800D01*
X36212932Y-35084121D01*
X36417440Y-34879613D01*
X36528119Y-34612409D01*
X36528119Y-34323191D01*
X36522532Y-34309702D01*
X36532300Y-34260594D01*
X36532300Y-34260591D01*
X36541643Y-34213620D01*
X36532300Y-34166649D01*
X36532300Y-32713334D01*
X36671621Y-32574013D01*
X36782300Y-32306809D01*
X36782300Y-32017591D01*
X36671621Y-31750387D01*
X36467113Y-31545879D01*
X36199909Y-31435200D01*
X35910691Y-31435200D01*
X35643487Y-31545879D01*
X35438979Y-31750387D01*
X35328300Y-32017591D01*
X35328300Y-32306809D01*
X35438979Y-32574013D01*
X35578300Y-32713334D01*
X35578301Y-33773195D01*
X35389306Y-33851479D01*
X35184798Y-34055987D01*
X35074119Y-34323191D01*
X34463280Y-34323191D01*
X34463280Y-34104751D01*
X34352601Y-33837547D01*
X34148093Y-33633039D01*
X33880889Y-33522360D01*
X33591671Y-33522360D01*
X33324467Y-33633039D01*
X33119959Y-33837547D01*
X33009280Y-34104751D01*
X33009280Y-34393969D01*
X33119959Y-34661173D01*
X33259280Y-34800494D01*
X33259281Y-36596658D01*
X32654339Y-37201600D01*
X32614514Y-37228211D01*
X32509088Y-37385993D01*
X32481411Y-37525134D01*
X32481411Y-37525137D01*
X32472068Y-37572108D01*
X32481411Y-37619079D01*
X32481412Y-39296317D01*
X32472068Y-39343293D01*
X32509088Y-39529408D01*
X32525991Y-39554704D01*
X32614515Y-39687190D01*
X32654338Y-39713799D01*
X33462972Y-40522434D01*
X33489581Y-40562257D01*
X33529404Y-40588866D01*
X33647362Y-40667683D01*
X33833478Y-40704704D01*
X33880453Y-40695360D01*
X36920189Y-40695360D01*
X36967160Y-40704703D01*
X37014131Y-40695360D01*
X37014135Y-40695360D01*
X37153276Y-40667683D01*
X37311057Y-40562257D01*
X37337668Y-40522431D01*
X38246349Y-39613750D01*
X41833000Y-39613750D01*
X41833000Y-39854310D01*
X41929673Y-40087699D01*
X42108302Y-40266327D01*
X42341691Y-40363000D01*
X42932250Y-40363000D01*
X43091000Y-40204250D01*
X43091000Y-39455000D01*
X43345000Y-39455000D01*
X43345000Y-40204250D01*
X43503750Y-40363000D01*
X44094309Y-40363000D01*
X44327698Y-40266327D01*
X44506327Y-40087699D01*
X44603000Y-39854310D01*
X44603000Y-39613750D01*
X44444250Y-39455000D01*
X43345000Y-39455000D01*
X43091000Y-39455000D01*
X41991750Y-39455000D01*
X41833000Y-39613750D01*
X38246349Y-39613750D01*
X41355100Y-36505000D01*
X42149910Y-36505000D01*
X42159973Y-36555589D01*
X42174947Y-36578000D01*
X42159973Y-36600411D01*
X42134594Y-36728000D01*
X42134594Y-37528000D01*
X42159973Y-37655589D01*
X42174947Y-37678000D01*
X42159973Y-37700411D01*
X42134594Y-37828000D01*
X42134594Y-38378782D01*
X42108302Y-38389673D01*
X41929673Y-38568301D01*
X41833000Y-38801690D01*
X41833000Y-39042250D01*
X41991750Y-39201000D01*
X43091000Y-39201000D01*
X43091000Y-39181000D01*
X43345000Y-39181000D01*
X43345000Y-39201000D01*
X44444250Y-39201000D01*
X44603000Y-39042250D01*
X44603000Y-38801690D01*
X44506327Y-38568301D01*
X44327698Y-38389673D01*
X44301406Y-38378782D01*
X44301406Y-37828000D01*
X44276027Y-37700411D01*
X44261053Y-37678000D01*
X44276027Y-37655589D01*
X44301406Y-37528000D01*
X44301406Y-36728000D01*
X44276027Y-36600411D01*
X44261053Y-36578000D01*
X44276027Y-36555589D01*
X44284900Y-36510981D01*
X44314971Y-36505000D01*
X44314975Y-36505000D01*
X44454116Y-36477323D01*
X44611897Y-36371897D01*
X44638508Y-36332071D01*
X45757375Y-35213205D01*
X45797197Y-35186597D01*
X45902623Y-35028816D01*
X45923200Y-34925368D01*
X45923200Y-40919400D01*
X28729374Y-40919400D01*
X28856041Y-40792733D01*
X28966720Y-40525529D01*
X28966720Y-40363000D01*
X29432250Y-40363000D01*
X29591000Y-40204250D01*
X29591000Y-39455000D01*
X29845000Y-39455000D01*
X29845000Y-40204250D01*
X30003750Y-40363000D01*
X30594309Y-40363000D01*
X30827698Y-40266327D01*
X31006327Y-40087699D01*
X31103000Y-39854310D01*
X31103000Y-39613750D01*
X30944250Y-39455000D01*
X29845000Y-39455000D01*
X29591000Y-39455000D01*
X29571000Y-39455000D01*
X29571000Y-39201000D01*
X29591000Y-39201000D01*
X29591000Y-39181000D01*
X29845000Y-39181000D01*
X29845000Y-39201000D01*
X30944250Y-39201000D01*
X31103000Y-39042250D01*
X31103000Y-38801690D01*
X31006327Y-38568301D01*
X30827698Y-38389673D01*
X30801406Y-38378782D01*
X30801406Y-38077218D01*
X30827698Y-38066327D01*
X31006327Y-37887699D01*
X31103000Y-37654310D01*
X31103000Y-37413750D01*
X30944250Y-37255000D01*
X29845000Y-37255000D01*
X29845000Y-37275000D01*
X29591000Y-37275000D01*
X29591000Y-37255000D01*
X29571000Y-37255000D01*
X29571000Y-37001000D01*
X29591000Y-37001000D01*
X29591000Y-36981000D01*
X29845000Y-36981000D01*
X29845000Y-37001000D01*
X30944250Y-37001000D01*
X31103000Y-36842250D01*
X31103000Y-36601690D01*
X31006327Y-36368301D01*
X30827698Y-36189673D01*
X30801406Y-36178782D01*
X30801406Y-35628000D01*
X30776027Y-35500411D01*
X30761053Y-35478000D01*
X30776027Y-35455589D01*
X30801406Y-35328000D01*
X30801406Y-34943518D01*
X30929751Y-34996680D01*
X31218969Y-34996680D01*
X31486173Y-34886001D01*
X31690681Y-34681493D01*
X31801360Y-34414289D01*
X31801360Y-34125071D01*
X31690681Y-33857867D01*
X31551360Y-33718546D01*
X31551360Y-31981329D01*
X31560703Y-31934359D01*
X31551360Y-31887389D01*
X31551360Y-31887385D01*
X31523683Y-31748244D01*
X31418257Y-31590463D01*
X31378431Y-31563852D01*
X31138508Y-31323929D01*
X31111897Y-31284103D01*
X30954116Y-31178677D01*
X30814975Y-31151000D01*
X30814971Y-31151000D01*
X30784900Y-31145019D01*
X30776027Y-31100411D01*
X30761053Y-31078000D01*
X30776027Y-31055589D01*
X30801406Y-30928000D01*
X30801406Y-30128000D01*
X30776027Y-30000411D01*
X30761053Y-29978000D01*
X30776027Y-29955589D01*
X30801406Y-29828000D01*
X30801406Y-29028000D01*
X30776027Y-28900411D01*
X30761053Y-28878000D01*
X30776027Y-28855589D01*
X30801406Y-28728000D01*
X30801406Y-27928000D01*
X30776027Y-27800411D01*
X30761053Y-27778000D01*
X30776027Y-27755589D01*
X30801406Y-27628000D01*
X30801406Y-27254757D01*
X30864439Y-27406933D01*
G36*
X30123800Y-21193923D02*
X30114456Y-21240899D01*
X30151476Y-21427014D01*
X30151477Y-21427015D01*
X30256903Y-21584796D01*
X30296726Y-21611405D01*
X30478321Y-21793000D01*
X30003750Y-21793000D01*
X29845000Y-21951750D01*
X29845000Y-22701000D01*
X29865000Y-22701000D01*
X29865000Y-22955000D01*
X29845000Y-22955000D01*
X29845000Y-22975000D01*
X29591000Y-22975000D01*
X29591000Y-22955000D01*
X28491750Y-22955000D01*
X28333000Y-23113750D01*
X28333000Y-23354310D01*
X28429673Y-23587699D01*
X28608302Y-23766327D01*
X28634594Y-23777218D01*
X28634594Y-24328000D01*
X28659973Y-24455589D01*
X28674947Y-24478000D01*
X28659973Y-24500411D01*
X28634594Y-24628000D01*
X28634594Y-25428000D01*
X28659973Y-25555589D01*
X28674947Y-25578000D01*
X28659973Y-25600411D01*
X28634594Y-25728000D01*
X28634594Y-26528000D01*
X28659973Y-26655589D01*
X28674947Y-26678000D01*
X28659973Y-26700411D01*
X28634594Y-26828000D01*
X28634594Y-27628000D01*
X28659973Y-27755589D01*
X28674947Y-27778000D01*
X28659973Y-27800411D01*
X28634594Y-27928000D01*
X28634594Y-28728000D01*
X28659973Y-28855589D01*
X28674947Y-28878000D01*
X28659973Y-28900411D01*
X28634594Y-29028000D01*
X28634594Y-29828000D01*
X28659973Y-29955589D01*
X28674947Y-29978000D01*
X28659973Y-30000411D01*
X28634594Y-30128000D01*
X28634594Y-30928000D01*
X28659973Y-31055589D01*
X28674947Y-31078000D01*
X28659973Y-31100411D01*
X28634594Y-31228000D01*
X28634594Y-32028000D01*
X28659973Y-32155589D01*
X28674947Y-32178000D01*
X28659973Y-32200411D01*
X28634594Y-32328000D01*
X28634594Y-33128000D01*
X28659973Y-33255589D01*
X28674947Y-33278000D01*
X28659973Y-33300411D01*
X28634594Y-33428000D01*
X28634594Y-33522015D01*
X28583617Y-33445723D01*
X28543791Y-33419112D01*
X28536711Y-33412032D01*
X28536711Y-25193482D01*
X28546054Y-25146511D01*
X28536711Y-25099540D01*
X28536711Y-25099536D01*
X28509034Y-24960395D01*
X28403608Y-24802614D01*
X28363785Y-24776005D01*
X25889470Y-22301690D01*
X28333000Y-22301690D01*
X28333000Y-22542250D01*
X28491750Y-22701000D01*
X29591000Y-22701000D01*
X29591000Y-21951750D01*
X29432250Y-21793000D01*
X28841691Y-21793000D01*
X28608302Y-21889673D01*
X28429673Y-22068301D01*
X28333000Y-22301690D01*
X25889470Y-22301690D01*
X25206285Y-21618506D01*
X25998300Y-21618506D01*
X26125889Y-21593127D01*
X26234054Y-21520854D01*
X26306327Y-21412689D01*
X26331706Y-21285100D01*
X26331706Y-19685100D01*
X26306327Y-19557511D01*
X26234054Y-19449346D01*
X26125889Y-19377073D01*
X25998300Y-19351694D01*
X22998300Y-19351694D01*
X22870711Y-19377073D01*
X22762546Y-19449346D01*
X22690273Y-19557511D01*
X22664894Y-19685100D01*
X22664894Y-21285100D01*
X22690273Y-21412689D01*
X22762546Y-21520854D01*
X22870711Y-21593127D01*
X22998300Y-21618506D01*
X24018602Y-21618506D01*
X24021300Y-21632071D01*
X24021300Y-21632074D01*
X24048977Y-21771215D01*
X24154403Y-21928997D01*
X24194229Y-21955608D01*
X27582712Y-25344092D01*
X27582711Y-29598272D01*
X25234225Y-27249786D01*
X26026110Y-27249786D01*
X26153699Y-27224407D01*
X26261864Y-27152134D01*
X26334137Y-27043969D01*
X26359516Y-26916380D01*
X26359516Y-25316180D01*
X26334137Y-25188591D01*
X26261864Y-25080426D01*
X26153699Y-25008153D01*
X26026110Y-24982774D01*
X23026370Y-24982774D01*
X22898781Y-25008153D01*
X22790616Y-25080426D01*
X22718343Y-25188591D01*
X22692964Y-25316180D01*
X22692964Y-26916380D01*
X22718343Y-27043969D01*
X22790616Y-27152134D01*
X22898781Y-27224407D01*
X23026370Y-27249786D01*
X24046542Y-27249786D01*
X24076917Y-27402495D01*
X24129683Y-27481464D01*
X24182344Y-27560277D01*
X24222167Y-27586886D01*
X27082701Y-30447421D01*
X27082702Y-36690677D01*
X27076327Y-36681136D01*
X27040506Y-36627526D01*
X27013897Y-36587703D01*
X26974074Y-36561094D01*
X26446148Y-36033169D01*
X26446146Y-36033166D01*
X25059120Y-34646141D01*
X25059120Y-33005426D01*
X26081990Y-33005426D01*
X26209579Y-32980047D01*
X26317744Y-32907774D01*
X26390017Y-32799609D01*
X26415396Y-32672020D01*
X26415396Y-31071820D01*
X26390017Y-30944231D01*
X26317744Y-30836066D01*
X26209579Y-30763793D01*
X26081990Y-30738414D01*
X23082250Y-30738414D01*
X22954661Y-30763793D01*
X22846496Y-30836066D01*
X22774223Y-30944231D01*
X22748844Y-31071820D01*
X22748844Y-32672020D01*
X22774223Y-32799609D01*
X22846496Y-32907774D01*
X22954661Y-32980047D01*
X23082250Y-33005426D01*
X24105121Y-33005426D01*
X24105120Y-34796749D01*
X24095777Y-34843720D01*
X24105120Y-34890691D01*
X24105120Y-34890694D01*
X24132797Y-35029835D01*
X24238223Y-35187617D01*
X24278049Y-35214228D01*
X25613754Y-36549934D01*
X23026370Y-36549934D01*
X22898781Y-36575313D01*
X22790616Y-36647586D01*
X22718343Y-36755751D01*
X22692964Y-36883340D01*
X22692964Y-37383723D01*
X22532169Y-37317120D01*
X22242951Y-37317120D01*
X21975747Y-37427799D01*
X21960236Y-37443310D01*
X21960236Y-36883340D01*
X21934857Y-36755751D01*
X21862584Y-36647586D01*
X21754419Y-36575313D01*
X21626830Y-36549934D01*
X19668034Y-36549934D01*
X18094628Y-34976529D01*
X18084886Y-34961949D01*
X18084886Y-34630600D01*
X18059507Y-34503011D01*
X17987234Y-34394846D01*
X17879069Y-34322573D01*
X17751480Y-34297194D01*
X16510000Y-34297194D01*
X16510000Y-33922526D01*
X17595600Y-33922526D01*
X17723189Y-33897147D01*
X17831354Y-33824874D01*
X17903627Y-33716709D01*
X17929006Y-33589120D01*
X17929006Y-32339120D01*
X17903627Y-32211531D01*
X17831354Y-32103366D01*
X17723189Y-32031093D01*
X17595600Y-32005714D01*
X17322600Y-32005714D01*
X17322600Y-31712326D01*
X17751480Y-31712326D01*
X17879069Y-31686947D01*
X17987234Y-31614674D01*
X18059507Y-31506509D01*
X18084886Y-31378920D01*
X18084886Y-30078920D01*
X18059507Y-29951331D01*
X17987234Y-29843166D01*
X17879069Y-29770893D01*
X17751480Y-29745514D01*
X16510000Y-29745514D01*
X16510000Y-29660006D01*
X17771800Y-29660006D01*
X17899389Y-29634627D01*
X18007554Y-29562354D01*
X18079827Y-29454189D01*
X18105206Y-29326600D01*
X18105206Y-29269985D01*
X19573634Y-30738414D01*
X18682970Y-30738414D01*
X18555381Y-30763793D01*
X18447216Y-30836066D01*
X18374943Y-30944231D01*
X18349564Y-31071820D01*
X18349564Y-32672020D01*
X18374943Y-32799609D01*
X18447216Y-32907774D01*
X18555381Y-32980047D01*
X18682970Y-33005426D01*
X21682710Y-33005426D01*
X21810299Y-32980047D01*
X21918464Y-32907774D01*
X21990737Y-32799609D01*
X22016116Y-32672020D01*
X22016116Y-31071820D01*
X21990737Y-30944231D01*
X21918464Y-30836066D01*
X21810299Y-30763793D01*
X21682710Y-30738414D01*
X20659840Y-30738414D01*
X20659840Y-30720015D01*
X20669184Y-30673040D01*
X20632163Y-30486924D01*
X20553346Y-30368966D01*
X20526737Y-30329143D01*
X20486915Y-30302535D01*
X18556908Y-28372529D01*
X18530297Y-28332703D01*
X18372516Y-28227277D01*
X18233375Y-28199600D01*
X18233371Y-28199600D01*
X18186400Y-28190257D01*
X18139429Y-28199600D01*
X18105206Y-28199600D01*
X18105206Y-28176391D01*
X19389800Y-28176391D01*
X19389800Y-28465609D01*
X19500479Y-28732813D01*
X19704987Y-28937321D01*
X19972191Y-29048000D01*
X20169221Y-29048000D01*
X20715909Y-29594689D01*
X20609000Y-29852791D01*
X20609000Y-30142009D01*
X20719679Y-30409213D01*
X20924187Y-30613721D01*
X21191391Y-30724400D01*
X21480609Y-30724400D01*
X21747813Y-30613721D01*
X21952321Y-30409213D01*
X22063000Y-30142009D01*
X22063000Y-29852791D01*
X21952321Y-29585587D01*
X21801340Y-29434606D01*
X21785323Y-29354084D01*
X21679897Y-29196303D01*
X21640075Y-29169695D01*
X20843800Y-28373421D01*
X20843800Y-28176391D01*
X20733121Y-27909187D01*
X20528613Y-27704679D01*
X20261409Y-27594000D01*
X19972191Y-27594000D01*
X19704987Y-27704679D01*
X19500479Y-27909187D01*
X19389800Y-28176391D01*
X18105206Y-28176391D01*
X18105206Y-28026600D01*
X18079827Y-27899011D01*
X18007554Y-27790846D01*
X17899389Y-27718573D01*
X17771800Y-27693194D01*
X16510000Y-27693194D01*
X16510000Y-27628006D01*
X17822600Y-27628006D01*
X17950189Y-27602627D01*
X18058354Y-27530354D01*
X18130627Y-27422189D01*
X18156006Y-27294600D01*
X18156006Y-26567880D01*
X18293684Y-26567880D01*
X18293684Y-26916380D01*
X18319063Y-27043969D01*
X18391336Y-27152134D01*
X18499501Y-27224407D01*
X18627090Y-27249786D01*
X21626830Y-27249786D01*
X21754419Y-27224407D01*
X21862584Y-27152134D01*
X21934857Y-27043969D01*
X21960236Y-26916380D01*
X21960236Y-25316180D01*
X21934857Y-25188591D01*
X21862584Y-25080426D01*
X21754419Y-25008153D01*
X21626830Y-24982774D01*
X18627090Y-24982774D01*
X18499501Y-25008153D01*
X18391336Y-25080426D01*
X18319063Y-25188591D01*
X18293684Y-25316180D01*
X18293684Y-25613880D01*
X17835036Y-25613880D01*
X17924789Y-25596027D01*
X18032954Y-25523754D01*
X18105227Y-25415589D01*
X18130606Y-25288000D01*
X18130606Y-23988000D01*
X18105227Y-23860411D01*
X18032954Y-23752246D01*
X17924789Y-23679973D01*
X17880380Y-23671139D01*
X17882154Y-23669954D01*
X17954427Y-23561789D01*
X17970119Y-23482899D01*
X20534400Y-23482899D01*
X20534400Y-23811901D01*
X20660303Y-24115858D01*
X20892942Y-24348497D01*
X21196899Y-24474400D01*
X21525901Y-24474400D01*
X21829858Y-24348497D01*
X22062497Y-24115858D01*
X22188400Y-23811901D01*
X22188400Y-23540200D01*
X23335845Y-23540200D01*
X23559942Y-23764297D01*
X23863899Y-23890200D01*
X24192901Y-23890200D01*
X24496858Y-23764297D01*
X24729497Y-23531658D01*
X24855400Y-23227701D01*
X24855400Y-22898699D01*
X24729497Y-22594742D01*
X24496858Y-22362103D01*
X24192901Y-22236200D01*
X23863899Y-22236200D01*
X23559942Y-22362103D01*
X23335845Y-22586200D01*
X21992575Y-22586200D01*
X21945600Y-22576856D01*
X21898625Y-22586200D01*
X21759484Y-22613877D01*
X21601703Y-22719303D01*
X21575094Y-22759126D01*
X21513820Y-22820400D01*
X21196899Y-22820400D01*
X20892942Y-22946303D01*
X20660303Y-23178942D01*
X20534400Y-23482899D01*
X17970119Y-23482899D01*
X17979806Y-23434200D01*
X17979806Y-22184200D01*
X17954427Y-22056611D01*
X17882154Y-21948446D01*
X17773989Y-21876173D01*
X17646400Y-21850794D01*
X16510000Y-21850794D01*
X16510000Y-20245218D01*
X16553189Y-20236627D01*
X16661354Y-20164354D01*
X16733627Y-20056189D01*
X16759006Y-19928600D01*
X16759006Y-19755600D01*
X18264894Y-19755600D01*
X18264894Y-21285100D01*
X18290273Y-21412689D01*
X18362546Y-21520854D01*
X18470711Y-21593127D01*
X18598300Y-21618506D01*
X21598300Y-21618506D01*
X21725889Y-21593127D01*
X21834054Y-21520854D01*
X21906327Y-21412689D01*
X21931706Y-21285100D01*
X21931706Y-19685100D01*
X21906327Y-19557511D01*
X21834054Y-19449346D01*
X21725889Y-19377073D01*
X21598300Y-19351694D01*
X20577998Y-19351694D01*
X20575300Y-19338129D01*
X20575300Y-19338125D01*
X20547623Y-19198984D01*
X20442197Y-19041203D01*
X20402372Y-19014593D01*
X20362308Y-18974529D01*
X20335697Y-18934703D01*
X20177916Y-18829277D01*
X20068537Y-18807520D01*
X30123799Y-18807520D01*
X30123800Y-21193923D01*
X30123800Y-21193923D01*
G37*
X30123800Y-21193923D02*
X30114456Y-21240899D01*
X30151476Y-21427014D01*
X30151477Y-21427015D01*
X30256903Y-21584796D01*
X30296726Y-21611405D01*
X30478321Y-21793000D01*
X30003750Y-21793000D01*
X29845000Y-21951750D01*
X29845000Y-22701000D01*
X29865000Y-22701000D01*
X29865000Y-22955000D01*
X29845000Y-22955000D01*
X29845000Y-22975000D01*
X29591000Y-22975000D01*
X29591000Y-22955000D01*
X28491750Y-22955000D01*
X28333000Y-23113750D01*
X28333000Y-23354310D01*
X28429673Y-23587699D01*
X28608302Y-23766327D01*
X28634594Y-23777218D01*
X28634594Y-24328000D01*
X28659973Y-24455589D01*
X28674947Y-24478000D01*
X28659973Y-24500411D01*
X28634594Y-24628000D01*
X28634594Y-25428000D01*
X28659973Y-25555589D01*
X28674947Y-25578000D01*
X28659973Y-25600411D01*
X28634594Y-25728000D01*
X28634594Y-26528000D01*
X28659973Y-26655589D01*
X28674947Y-26678000D01*
X28659973Y-26700411D01*
X28634594Y-26828000D01*
X28634594Y-27628000D01*
X28659973Y-27755589D01*
X28674947Y-27778000D01*
X28659973Y-27800411D01*
X28634594Y-27928000D01*
X28634594Y-28728000D01*
X28659973Y-28855589D01*
X28674947Y-28878000D01*
X28659973Y-28900411D01*
X28634594Y-29028000D01*
X28634594Y-29828000D01*
X28659973Y-29955589D01*
X28674947Y-29978000D01*
X28659973Y-30000411D01*
X28634594Y-30128000D01*
X28634594Y-30928000D01*
X28659973Y-31055589D01*
X28674947Y-31078000D01*
X28659973Y-31100411D01*
X28634594Y-31228000D01*
X28634594Y-32028000D01*
X28659973Y-32155589D01*
X28674947Y-32178000D01*
X28659973Y-32200411D01*
X28634594Y-32328000D01*
X28634594Y-33128000D01*
X28659973Y-33255589D01*
X28674947Y-33278000D01*
X28659973Y-33300411D01*
X28634594Y-33428000D01*
X28634594Y-33522015D01*
X28583617Y-33445723D01*
X28543791Y-33419112D01*
X28536711Y-33412032D01*
X28536711Y-25193482D01*
X28546054Y-25146511D01*
X28536711Y-25099540D01*
X28536711Y-25099536D01*
X28509034Y-24960395D01*
X28403608Y-24802614D01*
X28363785Y-24776005D01*
X25889470Y-22301690D01*
X28333000Y-22301690D01*
X28333000Y-22542250D01*
X28491750Y-22701000D01*
X29591000Y-22701000D01*
X29591000Y-21951750D01*
X29432250Y-21793000D01*
X28841691Y-21793000D01*
X28608302Y-21889673D01*
X28429673Y-22068301D01*
X28333000Y-22301690D01*
X25889470Y-22301690D01*
X25206285Y-21618506D01*
X25998300Y-21618506D01*
X26125889Y-21593127D01*
X26234054Y-21520854D01*
X26306327Y-21412689D01*
X26331706Y-21285100D01*
X26331706Y-19685100D01*
X26306327Y-19557511D01*
X26234054Y-19449346D01*
X26125889Y-19377073D01*
X25998300Y-19351694D01*
X22998300Y-19351694D01*
X22870711Y-19377073D01*
X22762546Y-19449346D01*
X22690273Y-19557511D01*
X22664894Y-19685100D01*
X22664894Y-21285100D01*
X22690273Y-21412689D01*
X22762546Y-21520854D01*
X22870711Y-21593127D01*
X22998300Y-21618506D01*
X24018602Y-21618506D01*
X24021300Y-21632071D01*
X24021300Y-21632074D01*
X24048977Y-21771215D01*
X24154403Y-21928997D01*
X24194229Y-21955608D01*
X27582712Y-25344092D01*
X27582711Y-29598272D01*
X25234225Y-27249786D01*
X26026110Y-27249786D01*
X26153699Y-27224407D01*
X26261864Y-27152134D01*
X26334137Y-27043969D01*
X26359516Y-26916380D01*
X26359516Y-25316180D01*
X26334137Y-25188591D01*
X26261864Y-25080426D01*
X26153699Y-25008153D01*
X26026110Y-24982774D01*
X23026370Y-24982774D01*
X22898781Y-25008153D01*
X22790616Y-25080426D01*
X22718343Y-25188591D01*
X22692964Y-25316180D01*
X22692964Y-26916380D01*
X22718343Y-27043969D01*
X22790616Y-27152134D01*
X22898781Y-27224407D01*
X23026370Y-27249786D01*
X24046542Y-27249786D01*
X24076917Y-27402495D01*
X24129683Y-27481464D01*
X24182344Y-27560277D01*
X24222167Y-27586886D01*
X27082701Y-30447421D01*
X27082702Y-36690677D01*
X27076327Y-36681136D01*
X27040506Y-36627526D01*
X27013897Y-36587703D01*
X26974074Y-36561094D01*
X26446148Y-36033169D01*
X26446146Y-36033166D01*
X25059120Y-34646141D01*
X25059120Y-33005426D01*
X26081990Y-33005426D01*
X26209579Y-32980047D01*
X26317744Y-32907774D01*
X26390017Y-32799609D01*
X26415396Y-32672020D01*
X26415396Y-31071820D01*
X26390017Y-30944231D01*
X26317744Y-30836066D01*
X26209579Y-30763793D01*
X26081990Y-30738414D01*
X23082250Y-30738414D01*
X22954661Y-30763793D01*
X22846496Y-30836066D01*
X22774223Y-30944231D01*
X22748844Y-31071820D01*
X22748844Y-32672020D01*
X22774223Y-32799609D01*
X22846496Y-32907774D01*
X22954661Y-32980047D01*
X23082250Y-33005426D01*
X24105121Y-33005426D01*
X24105120Y-34796749D01*
X24095777Y-34843720D01*
X24105120Y-34890691D01*
X24105120Y-34890694D01*
X24132797Y-35029835D01*
X24238223Y-35187617D01*
X24278049Y-35214228D01*
X25613754Y-36549934D01*
X23026370Y-36549934D01*
X22898781Y-36575313D01*
X22790616Y-36647586D01*
X22718343Y-36755751D01*
X22692964Y-36883340D01*
X22692964Y-37383723D01*
X22532169Y-37317120D01*
X22242951Y-37317120D01*
X21975747Y-37427799D01*
X21960236Y-37443310D01*
X21960236Y-36883340D01*
X21934857Y-36755751D01*
X21862584Y-36647586D01*
X21754419Y-36575313D01*
X21626830Y-36549934D01*
X19668034Y-36549934D01*
X18094628Y-34976529D01*
X18084886Y-34961949D01*
X18084886Y-34630600D01*
X18059507Y-34503011D01*
X17987234Y-34394846D01*
X17879069Y-34322573D01*
X17751480Y-34297194D01*
X16510000Y-34297194D01*
X16510000Y-33922526D01*
X17595600Y-33922526D01*
X17723189Y-33897147D01*
X17831354Y-33824874D01*
X17903627Y-33716709D01*
X17929006Y-33589120D01*
X17929006Y-32339120D01*
X17903627Y-32211531D01*
X17831354Y-32103366D01*
X17723189Y-32031093D01*
X17595600Y-32005714D01*
X17322600Y-32005714D01*
X17322600Y-31712326D01*
X17751480Y-31712326D01*
X17879069Y-31686947D01*
X17987234Y-31614674D01*
X18059507Y-31506509D01*
X18084886Y-31378920D01*
X18084886Y-30078920D01*
X18059507Y-29951331D01*
X17987234Y-29843166D01*
X17879069Y-29770893D01*
X17751480Y-29745514D01*
X16510000Y-29745514D01*
X16510000Y-29660006D01*
X17771800Y-29660006D01*
X17899389Y-29634627D01*
X18007554Y-29562354D01*
X18079827Y-29454189D01*
X18105206Y-29326600D01*
X18105206Y-29269985D01*
X19573634Y-30738414D01*
X18682970Y-30738414D01*
X18555381Y-30763793D01*
X18447216Y-30836066D01*
X18374943Y-30944231D01*
X18349564Y-31071820D01*
X18349564Y-32672020D01*
X18374943Y-32799609D01*
X18447216Y-32907774D01*
X18555381Y-32980047D01*
X18682970Y-33005426D01*
X21682710Y-33005426D01*
X21810299Y-32980047D01*
X21918464Y-32907774D01*
X21990737Y-32799609D01*
X22016116Y-32672020D01*
X22016116Y-31071820D01*
X21990737Y-30944231D01*
X21918464Y-30836066D01*
X21810299Y-30763793D01*
X21682710Y-30738414D01*
X20659840Y-30738414D01*
X20659840Y-30720015D01*
X20669184Y-30673040D01*
X20632163Y-30486924D01*
X20553346Y-30368966D01*
X20526737Y-30329143D01*
X20486915Y-30302535D01*
X18556908Y-28372529D01*
X18530297Y-28332703D01*
X18372516Y-28227277D01*
X18233375Y-28199600D01*
X18233371Y-28199600D01*
X18186400Y-28190257D01*
X18139429Y-28199600D01*
X18105206Y-28199600D01*
X18105206Y-28176391D01*
X19389800Y-28176391D01*
X19389800Y-28465609D01*
X19500479Y-28732813D01*
X19704987Y-28937321D01*
X19972191Y-29048000D01*
X20169221Y-29048000D01*
X20715909Y-29594689D01*
X20609000Y-29852791D01*
X20609000Y-30142009D01*
X20719679Y-30409213D01*
X20924187Y-30613721D01*
X21191391Y-30724400D01*
X21480609Y-30724400D01*
X21747813Y-30613721D01*
X21952321Y-30409213D01*
X22063000Y-30142009D01*
X22063000Y-29852791D01*
X21952321Y-29585587D01*
X21801340Y-29434606D01*
X21785323Y-29354084D01*
X21679897Y-29196303D01*
X21640075Y-29169695D01*
X20843800Y-28373421D01*
X20843800Y-28176391D01*
X20733121Y-27909187D01*
X20528613Y-27704679D01*
X20261409Y-27594000D01*
X19972191Y-27594000D01*
X19704987Y-27704679D01*
X19500479Y-27909187D01*
X19389800Y-28176391D01*
X18105206Y-28176391D01*
X18105206Y-28026600D01*
X18079827Y-27899011D01*
X18007554Y-27790846D01*
X17899389Y-27718573D01*
X17771800Y-27693194D01*
X16510000Y-27693194D01*
X16510000Y-27628006D01*
X17822600Y-27628006D01*
X17950189Y-27602627D01*
X18058354Y-27530354D01*
X18130627Y-27422189D01*
X18156006Y-27294600D01*
X18156006Y-26567880D01*
X18293684Y-26567880D01*
X18293684Y-26916380D01*
X18319063Y-27043969D01*
X18391336Y-27152134D01*
X18499501Y-27224407D01*
X18627090Y-27249786D01*
X21626830Y-27249786D01*
X21754419Y-27224407D01*
X21862584Y-27152134D01*
X21934857Y-27043969D01*
X21960236Y-26916380D01*
X21960236Y-25316180D01*
X21934857Y-25188591D01*
X21862584Y-25080426D01*
X21754419Y-25008153D01*
X21626830Y-24982774D01*
X18627090Y-24982774D01*
X18499501Y-25008153D01*
X18391336Y-25080426D01*
X18319063Y-25188591D01*
X18293684Y-25316180D01*
X18293684Y-25613880D01*
X17835036Y-25613880D01*
X17924789Y-25596027D01*
X18032954Y-25523754D01*
X18105227Y-25415589D01*
X18130606Y-25288000D01*
X18130606Y-23988000D01*
X18105227Y-23860411D01*
X18032954Y-23752246D01*
X17924789Y-23679973D01*
X17880380Y-23671139D01*
X17882154Y-23669954D01*
X17954427Y-23561789D01*
X17970119Y-23482899D01*
X20534400Y-23482899D01*
X20534400Y-23811901D01*
X20660303Y-24115858D01*
X20892942Y-24348497D01*
X21196899Y-24474400D01*
X21525901Y-24474400D01*
X21829858Y-24348497D01*
X22062497Y-24115858D01*
X22188400Y-23811901D01*
X22188400Y-23540200D01*
X23335845Y-23540200D01*
X23559942Y-23764297D01*
X23863899Y-23890200D01*
X24192901Y-23890200D01*
X24496858Y-23764297D01*
X24729497Y-23531658D01*
X24855400Y-23227701D01*
X24855400Y-22898699D01*
X24729497Y-22594742D01*
X24496858Y-22362103D01*
X24192901Y-22236200D01*
X23863899Y-22236200D01*
X23559942Y-22362103D01*
X23335845Y-22586200D01*
X21992575Y-22586200D01*
X21945600Y-22576856D01*
X21898625Y-22586200D01*
X21759484Y-22613877D01*
X21601703Y-22719303D01*
X21575094Y-22759126D01*
X21513820Y-22820400D01*
X21196899Y-22820400D01*
X20892942Y-22946303D01*
X20660303Y-23178942D01*
X20534400Y-23482899D01*
X17970119Y-23482899D01*
X17979806Y-23434200D01*
X17979806Y-22184200D01*
X17954427Y-22056611D01*
X17882154Y-21948446D01*
X17773989Y-21876173D01*
X17646400Y-21850794D01*
X16510000Y-21850794D01*
X16510000Y-20245218D01*
X16553189Y-20236627D01*
X16661354Y-20164354D01*
X16733627Y-20056189D01*
X16759006Y-19928600D01*
X16759006Y-19755600D01*
X18264894Y-19755600D01*
X18264894Y-21285100D01*
X18290273Y-21412689D01*
X18362546Y-21520854D01*
X18470711Y-21593127D01*
X18598300Y-21618506D01*
X21598300Y-21618506D01*
X21725889Y-21593127D01*
X21834054Y-21520854D01*
X21906327Y-21412689D01*
X21931706Y-21285100D01*
X21931706Y-19685100D01*
X21906327Y-19557511D01*
X21834054Y-19449346D01*
X21725889Y-19377073D01*
X21598300Y-19351694D01*
X20577998Y-19351694D01*
X20575300Y-19338129D01*
X20575300Y-19338125D01*
X20547623Y-19198984D01*
X20442197Y-19041203D01*
X20402372Y-19014593D01*
X20362308Y-18974529D01*
X20335697Y-18934703D01*
X20177916Y-18829277D01*
X20068537Y-18807520D01*
X30123799Y-18807520D01*
X30123800Y-21193923D01*
G36*
X34386491Y-16172912D02*
X34413102Y-16212738D01*
X34570883Y-16318164D01*
X34710024Y-16345841D01*
X34756999Y-16355185D01*
X34803974Y-16345841D01*
X38099462Y-16345841D01*
X38118735Y-16365114D01*
X37145200Y-16365114D01*
X37017611Y-16390493D01*
X36909446Y-16462766D01*
X36837173Y-16570931D01*
X36811794Y-16698520D01*
X36811794Y-18198520D01*
X36837173Y-18326109D01*
X36909446Y-18434274D01*
X37017611Y-18506547D01*
X37145200Y-18531926D01*
X38445200Y-18531926D01*
X38572789Y-18506547D01*
X38680954Y-18434274D01*
X38753227Y-18326109D01*
X38778606Y-18198520D01*
X38778606Y-17024985D01*
X40751200Y-18997580D01*
X40751200Y-19194609D01*
X40861879Y-19461813D01*
X41066387Y-19666321D01*
X41333591Y-19777000D01*
X41622809Y-19777000D01*
X41890013Y-19666321D01*
X42029334Y-19527000D01*
X44544521Y-19527000D01*
X44976300Y-19958780D01*
X44976301Y-23518416D01*
X44969620Y-23502287D01*
X44765112Y-23297779D01*
X44603000Y-23230630D01*
X44603000Y-23113750D01*
X44444250Y-22955000D01*
X43345000Y-22955000D01*
X43345000Y-22975000D01*
X43091000Y-22975000D01*
X43091000Y-22955000D01*
X41991750Y-22955000D01*
X41833000Y-23113750D01*
X41833000Y-23354310D01*
X41929673Y-23587699D01*
X42108302Y-23766327D01*
X42134594Y-23777218D01*
X42134594Y-24328000D01*
X42159973Y-24455589D01*
X42174947Y-24478000D01*
X42159973Y-24500411D01*
X42149174Y-24554700D01*
X40810134Y-24554700D01*
X40670813Y-24415379D01*
X40403609Y-24304700D01*
X40114391Y-24304700D01*
X39847187Y-24415379D01*
X39642679Y-24619887D01*
X39532000Y-24887091D01*
X39532000Y-25176309D01*
X39642679Y-25443513D01*
X39847187Y-25648021D01*
X40114391Y-25758700D01*
X40403609Y-25758700D01*
X40670813Y-25648021D01*
X40810134Y-25508700D01*
X42150646Y-25508700D01*
X42159973Y-25555589D01*
X42174947Y-25578000D01*
X42159973Y-25600411D01*
X42134594Y-25728000D01*
X42134594Y-26528000D01*
X42159973Y-26655589D01*
X42174947Y-26678000D01*
X42159973Y-26700411D01*
X42149910Y-26751000D01*
X34579902Y-26751000D01*
X34499921Y-26557907D01*
X34295413Y-26353399D01*
X34028209Y-26242720D01*
X33738991Y-26242720D01*
X33547800Y-26321914D01*
X33547800Y-22301690D01*
X41833000Y-22301690D01*
X41833000Y-22542250D01*
X41991750Y-22701000D01*
X43091000Y-22701000D01*
X43091000Y-21951750D01*
X43345000Y-21951750D01*
X43345000Y-22701000D01*
X44444250Y-22701000D01*
X44603000Y-22542250D01*
X44603000Y-22301690D01*
X44506327Y-22068301D01*
X44327698Y-21889673D01*
X44094309Y-21793000D01*
X43503750Y-21793000D01*
X43345000Y-21951750D01*
X43091000Y-21951750D01*
X42932250Y-21793000D01*
X42341691Y-21793000D01*
X42108302Y-21889673D01*
X41929673Y-22068301D01*
X41833000Y-22301690D01*
X33547800Y-22301690D01*
X33547800Y-19944034D01*
X33687121Y-19804713D01*
X33797800Y-19537509D01*
X33797800Y-19248291D01*
X33687121Y-18981087D01*
X33482613Y-18776579D01*
X33215409Y-18665900D01*
X32926191Y-18665900D01*
X32780720Y-18726156D01*
X32780720Y-18573735D01*
X32790064Y-18526760D01*
X32753043Y-18340644D01*
X32676732Y-18226436D01*
X33971230Y-18226436D01*
X34098819Y-18201057D01*
X34206984Y-18128784D01*
X34279257Y-18020619D01*
X34304636Y-17893030D01*
X34304636Y-16718840D01*
X34703594Y-16718840D01*
X34703594Y-18218840D01*
X34728973Y-18346429D01*
X34801246Y-18454594D01*
X34909411Y-18526867D01*
X35037000Y-18552246D01*
X36337000Y-18552246D01*
X36464589Y-18526867D01*
X36572754Y-18454594D01*
X36645027Y-18346429D01*
X36670406Y-18218840D01*
X36670406Y-16718840D01*
X36645027Y-16591251D01*
X36572754Y-16483086D01*
X36464589Y-16410813D01*
X36337000Y-16385434D01*
X35037000Y-16385434D01*
X34909411Y-16410813D01*
X34801246Y-16483086D01*
X34728973Y-16591251D01*
X34703594Y-16718840D01*
X34304636Y-16718840D01*
X34304636Y-16091057D01*
X34386491Y-16172912D01*
X34386491Y-16172912D01*
G37*
X34386491Y-16172912D02*
X34413102Y-16212738D01*
X34570883Y-16318164D01*
X34710024Y-16345841D01*
X34756999Y-16355185D01*
X34803974Y-16345841D01*
X38099462Y-16345841D01*
X38118735Y-16365114D01*
X37145200Y-16365114D01*
X37017611Y-16390493D01*
X36909446Y-16462766D01*
X36837173Y-16570931D01*
X36811794Y-16698520D01*
X36811794Y-18198520D01*
X36837173Y-18326109D01*
X36909446Y-18434274D01*
X37017611Y-18506547D01*
X37145200Y-18531926D01*
X38445200Y-18531926D01*
X38572789Y-18506547D01*
X38680954Y-18434274D01*
X38753227Y-18326109D01*
X38778606Y-18198520D01*
X38778606Y-17024985D01*
X40751200Y-18997580D01*
X40751200Y-19194609D01*
X40861879Y-19461813D01*
X41066387Y-19666321D01*
X41333591Y-19777000D01*
X41622809Y-19777000D01*
X41890013Y-19666321D01*
X42029334Y-19527000D01*
X44544521Y-19527000D01*
X44976300Y-19958780D01*
X44976301Y-23518416D01*
X44969620Y-23502287D01*
X44765112Y-23297779D01*
X44603000Y-23230630D01*
X44603000Y-23113750D01*
X44444250Y-22955000D01*
X43345000Y-22955000D01*
X43345000Y-22975000D01*
X43091000Y-22975000D01*
X43091000Y-22955000D01*
X41991750Y-22955000D01*
X41833000Y-23113750D01*
X41833000Y-23354310D01*
X41929673Y-23587699D01*
X42108302Y-23766327D01*
X42134594Y-23777218D01*
X42134594Y-24328000D01*
X42159973Y-24455589D01*
X42174947Y-24478000D01*
X42159973Y-24500411D01*
X42149174Y-24554700D01*
X40810134Y-24554700D01*
X40670813Y-24415379D01*
X40403609Y-24304700D01*
X40114391Y-24304700D01*
X39847187Y-24415379D01*
X39642679Y-24619887D01*
X39532000Y-24887091D01*
X39532000Y-25176309D01*
X39642679Y-25443513D01*
X39847187Y-25648021D01*
X40114391Y-25758700D01*
X40403609Y-25758700D01*
X40670813Y-25648021D01*
X40810134Y-25508700D01*
X42150646Y-25508700D01*
X42159973Y-25555589D01*
X42174947Y-25578000D01*
X42159973Y-25600411D01*
X42134594Y-25728000D01*
X42134594Y-26528000D01*
X42159973Y-26655589D01*
X42174947Y-26678000D01*
X42159973Y-26700411D01*
X42149910Y-26751000D01*
X34579902Y-26751000D01*
X34499921Y-26557907D01*
X34295413Y-26353399D01*
X34028209Y-26242720D01*
X33738991Y-26242720D01*
X33547800Y-26321914D01*
X33547800Y-22301690D01*
X41833000Y-22301690D01*
X41833000Y-22542250D01*
X41991750Y-22701000D01*
X43091000Y-22701000D01*
X43091000Y-21951750D01*
X43345000Y-21951750D01*
X43345000Y-22701000D01*
X44444250Y-22701000D01*
X44603000Y-22542250D01*
X44603000Y-22301690D01*
X44506327Y-22068301D01*
X44327698Y-21889673D01*
X44094309Y-21793000D01*
X43503750Y-21793000D01*
X43345000Y-21951750D01*
X43091000Y-21951750D01*
X42932250Y-21793000D01*
X42341691Y-21793000D01*
X42108302Y-21889673D01*
X41929673Y-22068301D01*
X41833000Y-22301690D01*
X33547800Y-22301690D01*
X33547800Y-19944034D01*
X33687121Y-19804713D01*
X33797800Y-19537509D01*
X33797800Y-19248291D01*
X33687121Y-18981087D01*
X33482613Y-18776579D01*
X33215409Y-18665900D01*
X32926191Y-18665900D01*
X32780720Y-18726156D01*
X32780720Y-18573735D01*
X32790064Y-18526760D01*
X32753043Y-18340644D01*
X32676732Y-18226436D01*
X33971230Y-18226436D01*
X34098819Y-18201057D01*
X34206984Y-18128784D01*
X34279257Y-18020619D01*
X34304636Y-17893030D01*
X34304636Y-16718840D01*
X34703594Y-16718840D01*
X34703594Y-18218840D01*
X34728973Y-18346429D01*
X34801246Y-18454594D01*
X34909411Y-18526867D01*
X35037000Y-18552246D01*
X36337000Y-18552246D01*
X36464589Y-18526867D01*
X36572754Y-18454594D01*
X36645027Y-18346429D01*
X36670406Y-18218840D01*
X36670406Y-16718840D01*
X36645027Y-16591251D01*
X36572754Y-16483086D01*
X36464589Y-16410813D01*
X36337000Y-16385434D01*
X35037000Y-16385434D01*
X34909411Y-16410813D01*
X34801246Y-16483086D01*
X34728973Y-16591251D01*
X34703594Y-16718840D01*
X34304636Y-16718840D01*
X34304636Y-16091057D01*
X34386491Y-16172912D01*
G36*
X21744604Y-6045748D02*
X21354686Y-6482160D01*
X21236319Y-6820548D01*
X21228160Y-6779532D01*
X20965015Y-6385705D01*
X20571189Y-6122560D01*
X20106640Y-6030155D01*
X19642092Y-6122560D01*
X19248266Y-6385705D01*
X18985120Y-6779531D01*
X18916040Y-7126818D01*
X18916040Y-7666141D01*
X18985120Y-8013428D01*
X19248265Y-8407255D01*
X19642091Y-8670400D01*
X20106640Y-8762805D01*
X20571188Y-8670400D01*
X20651990Y-8616410D01*
X21745461Y-9709881D01*
X21745460Y-11353134D01*
X20422870Y-11353134D01*
X20295281Y-11378513D01*
X20281800Y-11387521D01*
X20281800Y-11123091D01*
X20185127Y-10889702D01*
X20006499Y-10711073D01*
X19773110Y-10614400D01*
X19132550Y-10614400D01*
X18973800Y-10773150D01*
X18973800Y-12122400D01*
X18993800Y-12122400D01*
X18993800Y-12376400D01*
X18973800Y-12376400D01*
X18973800Y-13725650D01*
X19132550Y-13884400D01*
X19773110Y-13884400D01*
X20006499Y-13787727D01*
X20185127Y-13609098D01*
X20213655Y-13540226D01*
X20295281Y-13594767D01*
X20422870Y-13620146D01*
X24022050Y-13620146D01*
X24149639Y-13594767D01*
X24257804Y-13522494D01*
X24330077Y-13414329D01*
X24355456Y-13286740D01*
X24355456Y-12772390D01*
X25289510Y-12772390D01*
X25289510Y-13413050D01*
X25386183Y-13646439D01*
X25564812Y-13825067D01*
X25798201Y-13921740D01*
X27438350Y-13921740D01*
X27597100Y-13762990D01*
X27597100Y-12613640D01*
X25448260Y-12613640D01*
X25289510Y-12772390D01*
X24355456Y-12772390D01*
X24355456Y-11686540D01*
X24330332Y-11560230D01*
X25289510Y-11560230D01*
X25289510Y-12200890D01*
X25448260Y-12359640D01*
X27597100Y-12359640D01*
X27597100Y-11210290D01*
X27438350Y-11051540D01*
X25798201Y-11051540D01*
X25564812Y-11148213D01*
X25386183Y-11326841D01*
X25289510Y-11560230D01*
X24330332Y-11560230D01*
X24330077Y-11558951D01*
X24257804Y-11450786D01*
X24149639Y-11378513D01*
X24022050Y-11353134D01*
X22699460Y-11353134D01*
X22699460Y-10040291D01*
X29601000Y-10040291D01*
X29601000Y-10630850D01*
X29759750Y-10789600D01*
X30734000Y-10789600D01*
X30734000Y-9690350D01*
X30575250Y-9531600D01*
X30109690Y-9531600D01*
X29876301Y-9628273D01*
X29697673Y-9806902D01*
X29601000Y-10040291D01*
X22699460Y-10040291D01*
X22699460Y-9559269D01*
X22708803Y-9512299D01*
X22699460Y-9465329D01*
X22699460Y-9465325D01*
X22671783Y-9326184D01*
X22566357Y-9168403D01*
X22526534Y-9141794D01*
X22353946Y-8969206D01*
X22519640Y-8882697D01*
X22519640Y-7523480D01*
X22499640Y-7523480D01*
X22499640Y-7269480D01*
X22519640Y-7269480D01*
X22519640Y-7249480D01*
X22773640Y-7249480D01*
X22773640Y-7269480D01*
X22793640Y-7269480D01*
X22793640Y-7523480D01*
X22773640Y-7523480D01*
X22773640Y-8882697D01*
X23005666Y-9003838D01*
X23021431Y-9001189D01*
X23548676Y-8747212D01*
X23938594Y-8310800D01*
X24056961Y-7972411D01*
X24065120Y-8013428D01*
X24328265Y-8407255D01*
X24722091Y-8670400D01*
X25186640Y-8762805D01*
X25651188Y-8670400D01*
X26045015Y-8407255D01*
X26308160Y-8013429D01*
X26377240Y-7666142D01*
X26377240Y-7126819D01*
X26377240Y-7126818D01*
X26536040Y-7126818D01*
X26536040Y-7666141D01*
X26605120Y-8013428D01*
X26868265Y-8407255D01*
X27262091Y-8670400D01*
X27726640Y-8762805D01*
X28191188Y-8670400D01*
X28585015Y-8407255D01*
X28848160Y-8013429D01*
X28917240Y-7666142D01*
X28917240Y-7126819D01*
X28917240Y-7126818D01*
X29076040Y-7126818D01*
X29076040Y-7666141D01*
X29145120Y-8013428D01*
X29408265Y-8407255D01*
X29802091Y-8670400D01*
X30266640Y-8762805D01*
X30731188Y-8670400D01*
X31125015Y-8407255D01*
X31388160Y-8013429D01*
X31457240Y-7666142D01*
X31457240Y-7126819D01*
X31388160Y-6779532D01*
X31125015Y-6385705D01*
X30731189Y-6122560D01*
X30266640Y-6030155D01*
X29802092Y-6122560D01*
X29408266Y-6385705D01*
X29145120Y-6779531D01*
X29076040Y-7126818D01*
X28917240Y-7126818D01*
X28848160Y-6779532D01*
X28585015Y-6385705D01*
X28191189Y-6122560D01*
X27726640Y-6030155D01*
X27262092Y-6122560D01*
X26868266Y-6385705D01*
X26605120Y-6779531D01*
X26536040Y-7126818D01*
X26377240Y-7126818D01*
X26308160Y-6779532D01*
X26045015Y-6385705D01*
X25651189Y-6122560D01*
X25186640Y-6030155D01*
X24722092Y-6122560D01*
X24328266Y-6385705D01*
X24065120Y-6779531D01*
X24056961Y-6820548D01*
X23938594Y-6482160D01*
X23548676Y-6045748D01*
X23231163Y-5892800D01*
X45923201Y-5892800D01*
X45923201Y-19678534D01*
X45902623Y-19575084D01*
X45823806Y-19457126D01*
X45797197Y-19417303D01*
X45757375Y-19390695D01*
X45112608Y-18745928D01*
X45085997Y-18706103D01*
X44928216Y-18600677D01*
X44789075Y-18573000D01*
X44789071Y-18573000D01*
X44742100Y-18563657D01*
X44695129Y-18573000D01*
X42029334Y-18573000D01*
X41890013Y-18433679D01*
X41622809Y-18323000D01*
X41425780Y-18323000D01*
X38743478Y-15640699D01*
X38753227Y-15626109D01*
X38778606Y-15498520D01*
X38778606Y-15280640D01*
X42003314Y-15280640D01*
X42003314Y-17007840D01*
X42028693Y-17135429D01*
X42100966Y-17243594D01*
X42209131Y-17315867D01*
X42336720Y-17341246D01*
X44368720Y-17341246D01*
X44496309Y-17315867D01*
X44604474Y-17243594D01*
X44676747Y-17135429D01*
X44702126Y-17007840D01*
X44702126Y-15280640D01*
X44676747Y-15153051D01*
X44604474Y-15044886D01*
X44496309Y-14972613D01*
X44368720Y-14947234D01*
X42336720Y-14947234D01*
X42209131Y-14972613D01*
X42100966Y-15044886D01*
X42028693Y-15153051D01*
X42003314Y-15280640D01*
X38778606Y-15280640D01*
X38778606Y-13998520D01*
X38753227Y-13870931D01*
X38680954Y-13762766D01*
X38572789Y-13690493D01*
X38445200Y-13665114D01*
X38272200Y-13665114D01*
X38272200Y-13604240D01*
X41986395Y-13604240D01*
X42078800Y-14068789D01*
X42341945Y-14462615D01*
X42735771Y-14725760D01*
X43083058Y-14794840D01*
X43622382Y-14794840D01*
X43969669Y-14725760D01*
X44363495Y-14462615D01*
X44626640Y-14068789D01*
X44719045Y-13604240D01*
X44626640Y-13139691D01*
X44363495Y-12745865D01*
X43969669Y-12482720D01*
X43622382Y-12413640D01*
X43083058Y-12413640D01*
X42735771Y-12482720D01*
X42341945Y-12745865D01*
X42078800Y-13139691D01*
X41986395Y-13604240D01*
X38272200Y-13604240D01*
X38272200Y-13528126D01*
X38445200Y-13528126D01*
X38572789Y-13502747D01*
X38680954Y-13430474D01*
X38753227Y-13322309D01*
X38778606Y-13194720D01*
X38778606Y-11694720D01*
X38753227Y-11567131D01*
X38680954Y-11458966D01*
X38572789Y-11386693D01*
X38445200Y-11361314D01*
X37145200Y-11361314D01*
X37017611Y-11386693D01*
X36909446Y-11458966D01*
X36837173Y-11567131D01*
X36811794Y-11694720D01*
X36811794Y-13194720D01*
X36837173Y-13322309D01*
X36909446Y-13430474D01*
X37017611Y-13502747D01*
X37145200Y-13528126D01*
X37318200Y-13528126D01*
X37318201Y-13665114D01*
X37145200Y-13665114D01*
X37017611Y-13690493D01*
X36909446Y-13762766D01*
X36837173Y-13870931D01*
X36811794Y-13998520D01*
X36811794Y-15391841D01*
X36670406Y-15391841D01*
X36670406Y-14018840D01*
X36645027Y-13891251D01*
X36572754Y-13783086D01*
X36464589Y-13710813D01*
X36337000Y-13685434D01*
X36189400Y-13685434D01*
X36189400Y-13543366D01*
X36362400Y-13543366D01*
X36489989Y-13517987D01*
X36598154Y-13445714D01*
X36670427Y-13337549D01*
X36695806Y-13209960D01*
X36695806Y-11709960D01*
X36670427Y-11582371D01*
X36598154Y-11474206D01*
X36489989Y-11401933D01*
X36362400Y-11376554D01*
X35062400Y-11376554D01*
X34934811Y-11401933D01*
X34826646Y-11474206D01*
X34754373Y-11582371D01*
X34728994Y-11709960D01*
X34728994Y-13209960D01*
X34754373Y-13337549D01*
X34826646Y-13445714D01*
X34934811Y-13517987D01*
X35062400Y-13543366D01*
X35235400Y-13543366D01*
X35235401Y-13685434D01*
X35037000Y-13685434D01*
X34909411Y-13710813D01*
X34853177Y-13748387D01*
X33829585Y-12724796D01*
X33971230Y-12724796D01*
X34098819Y-12699417D01*
X34206984Y-12627144D01*
X34279257Y-12518979D01*
X34304636Y-12391390D01*
X34304636Y-10045710D01*
X34427400Y-10045710D01*
X34427400Y-10636269D01*
X34524073Y-10869658D01*
X34702701Y-11048287D01*
X34936090Y-11144960D01*
X35426650Y-11144960D01*
X35585400Y-10986210D01*
X35585400Y-9886960D01*
X35839400Y-9886960D01*
X35839400Y-10986210D01*
X35998150Y-11144960D01*
X36488710Y-11144960D01*
X36722099Y-11048287D01*
X36761420Y-11008966D01*
X36785501Y-11033047D01*
X37018890Y-11129720D01*
X37509450Y-11129720D01*
X37668200Y-10970970D01*
X37668200Y-9871720D01*
X37922200Y-9871720D01*
X37922200Y-10970970D01*
X38080950Y-11129720D01*
X38571510Y-11129720D01*
X38804899Y-11033047D01*
X38983527Y-10854418D01*
X39080200Y-10621029D01*
X39080200Y-10030470D01*
X38921450Y-9871720D01*
X37922200Y-9871720D01*
X37668200Y-9871720D01*
X36668950Y-9871720D01*
X36653710Y-9886960D01*
X35839400Y-9886960D01*
X35585400Y-9886960D01*
X34586150Y-9886960D01*
X34427400Y-10045710D01*
X34304636Y-10045710D01*
X34304636Y-9091930D01*
X34279257Y-8964341D01*
X34225343Y-8883651D01*
X34427400Y-8883651D01*
X34427400Y-9474210D01*
X34586150Y-9632960D01*
X35585400Y-9632960D01*
X35585400Y-8533710D01*
X35839400Y-8533710D01*
X35839400Y-9632960D01*
X36838650Y-9632960D01*
X36853890Y-9617720D01*
X37668200Y-9617720D01*
X37668200Y-8518470D01*
X37922200Y-8518470D01*
X37922200Y-9617720D01*
X38921450Y-9617720D01*
X39080200Y-9458970D01*
X39080200Y-8883266D01*
X41745362Y-8883266D01*
X41748011Y-8899031D01*
X42001988Y-9426276D01*
X42438400Y-9816194D01*
X42776788Y-9934561D01*
X42735771Y-9942720D01*
X42341945Y-10205865D01*
X42078800Y-10599691D01*
X41986395Y-11064240D01*
X42078800Y-11528789D01*
X42341945Y-11922615D01*
X42735771Y-12185760D01*
X43083058Y-12254840D01*
X43622382Y-12254840D01*
X43969669Y-12185760D01*
X44363495Y-11922615D01*
X44626640Y-11528789D01*
X44719045Y-11064240D01*
X44626640Y-10599691D01*
X44363495Y-10205865D01*
X43969669Y-9942720D01*
X43928652Y-9934561D01*
X44267040Y-9816194D01*
X44703452Y-9426276D01*
X44957429Y-8899031D01*
X44960078Y-8883266D01*
X44838937Y-8651240D01*
X43479720Y-8651240D01*
X43479720Y-8671240D01*
X43225720Y-8671240D01*
X43225720Y-8651240D01*
X41866503Y-8651240D01*
X41745362Y-8883266D01*
X39080200Y-8883266D01*
X39080200Y-8868411D01*
X38983527Y-8635022D01*
X38804899Y-8456393D01*
X38571510Y-8359720D01*
X38080950Y-8359720D01*
X37922200Y-8518470D01*
X37668200Y-8518470D01*
X37509450Y-8359720D01*
X37018890Y-8359720D01*
X36785501Y-8456393D01*
X36746180Y-8495714D01*
X36722099Y-8471633D01*
X36488710Y-8374960D01*
X35998150Y-8374960D01*
X35839400Y-8533710D01*
X35585400Y-8533710D01*
X35426650Y-8374960D01*
X34936090Y-8374960D01*
X34702701Y-8471633D01*
X34524073Y-8650262D01*
X34427400Y-8883651D01*
X34225343Y-8883651D01*
X34206984Y-8856176D01*
X34098819Y-8783903D01*
X33971230Y-8758524D01*
X32828162Y-8758524D01*
X33271188Y-8670400D01*
X33665015Y-8407255D01*
X33826740Y-8165214D01*
X41745362Y-8165214D01*
X41866503Y-8397240D01*
X43225720Y-8397240D01*
X43225720Y-7183316D01*
X43479720Y-7183316D01*
X43479720Y-8397240D01*
X44838937Y-8397240D01*
X44960078Y-8165214D01*
X44957429Y-8149449D01*
X44703452Y-7622204D01*
X44267040Y-7232286D01*
X43714633Y-7039056D01*
X43479720Y-7183316D01*
X43225720Y-7183316D01*
X42990807Y-7039056D01*
X42438400Y-7232286D01*
X42001988Y-7622204D01*
X41748011Y-8149449D01*
X41745362Y-8165214D01*
X33826740Y-8165214D01*
X33928160Y-8013429D01*
X33997240Y-7666142D01*
X33997240Y-7126819D01*
X33928160Y-6779532D01*
X33665015Y-6385705D01*
X33271189Y-6122560D01*
X32806640Y-6030155D01*
X32342092Y-6122560D01*
X31948266Y-6385705D01*
X31685120Y-6779531D01*
X31616040Y-7126818D01*
X31616040Y-7666141D01*
X31685120Y-8013428D01*
X31948265Y-8407255D01*
X32342091Y-8670400D01*
X32785118Y-8758524D01*
X32271970Y-8758524D01*
X32144381Y-8783903D01*
X32036216Y-8856176D01*
X31963943Y-8964341D01*
X31938564Y-9091930D01*
X31938564Y-9721139D01*
X31845699Y-9628273D01*
X31612310Y-9531600D01*
X31146750Y-9531600D01*
X30988000Y-9690350D01*
X30988000Y-10789600D01*
X31008000Y-10789600D01*
X31008000Y-11043600D01*
X30988000Y-11043600D01*
X30988000Y-12142850D01*
X31146750Y-12301600D01*
X31176421Y-12301600D01*
X31144827Y-12333194D01*
X30236000Y-12333194D01*
X30108411Y-12358573D01*
X30106817Y-12359638D01*
X29999942Y-12359638D01*
X30073126Y-12286454D01*
X30109690Y-12301600D01*
X30575250Y-12301600D01*
X30734000Y-12142850D01*
X30734000Y-11043600D01*
X29759750Y-11043600D01*
X29721990Y-11081360D01*
X29649999Y-11051540D01*
X28009850Y-11051540D01*
X27851100Y-11210290D01*
X27851100Y-12359640D01*
X27871100Y-12359640D01*
X27871100Y-12613640D01*
X27851100Y-12613640D01*
X27851100Y-13762990D01*
X28009850Y-13921740D01*
X29649999Y-13921740D01*
X29883388Y-13825067D01*
X29902594Y-13805861D01*
X29902594Y-14166600D01*
X29927973Y-14294189D01*
X30000246Y-14402354D01*
X30108411Y-14474627D01*
X30236000Y-14500006D01*
X31486000Y-14500006D01*
X31613589Y-14474627D01*
X31721754Y-14402354D01*
X31794027Y-14294189D01*
X31819406Y-14166600D01*
X31819406Y-13007773D01*
X32134419Y-12692761D01*
X32144381Y-12699417D01*
X32271970Y-12724796D01*
X32641902Y-12724796D01*
X32644600Y-12738361D01*
X32644600Y-12738364D01*
X32672277Y-12877505D01*
X32777703Y-13035287D01*
X32817529Y-13061898D01*
X34026860Y-14271229D01*
X33971230Y-14260164D01*
X32271970Y-14260164D01*
X32144381Y-14285543D01*
X32036216Y-14357816D01*
X31963943Y-14465981D01*
X31938564Y-14593570D01*
X31938564Y-15766300D01*
X25287364Y-15766300D01*
X25267021Y-15717187D01*
X25062513Y-15512679D01*
X24795309Y-15402000D01*
X24690464Y-15402000D01*
X24636327Y-15271301D01*
X24457698Y-15092673D01*
X24224309Y-14996000D01*
X23633750Y-14996000D01*
X23475000Y-15154750D01*
X23475000Y-16129000D01*
X23495000Y-16129000D01*
X23495000Y-16383000D01*
X23475000Y-16383000D01*
X23475000Y-16403000D01*
X23221000Y-16403000D01*
X23221000Y-16383000D01*
X22121750Y-16383000D01*
X21963000Y-16541750D01*
X21963000Y-16571420D01*
X21931406Y-16539826D01*
X21931406Y-15631000D01*
X21906282Y-15504690D01*
X21963000Y-15504690D01*
X21963000Y-15970250D01*
X22121750Y-16129000D01*
X23221000Y-16129000D01*
X23221000Y-15154750D01*
X23062250Y-14996000D01*
X22471691Y-14996000D01*
X22238302Y-15092673D01*
X22059673Y-15271301D01*
X21963000Y-15504690D01*
X21906282Y-15504690D01*
X21906027Y-15503411D01*
X21833754Y-15395246D01*
X21725589Y-15322973D01*
X21598000Y-15297594D01*
X20098000Y-15297594D01*
X19980206Y-15321025D01*
X19980206Y-15249400D01*
X19954827Y-15121811D01*
X19882554Y-15013646D01*
X19774389Y-14941373D01*
X19646800Y-14915994D01*
X19326498Y-14915994D01*
X19323800Y-14902426D01*
X19323800Y-14902425D01*
X19296123Y-14763284D01*
X19190697Y-14605503D01*
X19150875Y-14578895D01*
X18456379Y-13884400D01*
X18561050Y-13884400D01*
X18719800Y-13725650D01*
X18719800Y-12376400D01*
X18699800Y-12376400D01*
X18699800Y-12122400D01*
X18719800Y-12122400D01*
X18719800Y-10773150D01*
X18561050Y-10614400D01*
X17920490Y-10614400D01*
X17687101Y-10711073D01*
X17508473Y-10889702D01*
X17411800Y-11123091D01*
X17411800Y-11186100D01*
X17135425Y-10909726D01*
X17177440Y-10909726D01*
X17305029Y-10884347D01*
X17413194Y-10812074D01*
X17485467Y-10703909D01*
X17510846Y-10576320D01*
X17510846Y-9276320D01*
X17485467Y-9148731D01*
X17413194Y-9040566D01*
X17305029Y-8968293D01*
X17177440Y-8942914D01*
X16510000Y-8942914D01*
X16510000Y-8110528D01*
X16708265Y-8407255D01*
X17102091Y-8670400D01*
X17566640Y-8762805D01*
X18031188Y-8670400D01*
X18425015Y-8407255D01*
X18688160Y-8013429D01*
X18757240Y-7666142D01*
X18757240Y-7126819D01*
X18688160Y-6779532D01*
X18425015Y-6385705D01*
X18031189Y-6122560D01*
X17566640Y-6030155D01*
X17102092Y-6122560D01*
X16708266Y-6385705D01*
X16510000Y-6682431D01*
X16510000Y-5892800D01*
X22062117Y-5892800D01*
X21744604Y-6045748D01*
X21744604Y-6045748D01*
G37*
X21744604Y-6045748D02*
X21354686Y-6482160D01*
X21236319Y-6820548D01*
X21228160Y-6779532D01*
X20965015Y-6385705D01*
X20571189Y-6122560D01*
X20106640Y-6030155D01*
X19642092Y-6122560D01*
X19248266Y-6385705D01*
X18985120Y-6779531D01*
X18916040Y-7126818D01*
X18916040Y-7666141D01*
X18985120Y-8013428D01*
X19248265Y-8407255D01*
X19642091Y-8670400D01*
X20106640Y-8762805D01*
X20571188Y-8670400D01*
X20651990Y-8616410D01*
X21745461Y-9709881D01*
X21745460Y-11353134D01*
X20422870Y-11353134D01*
X20295281Y-11378513D01*
X20281800Y-11387521D01*
X20281800Y-11123091D01*
X20185127Y-10889702D01*
X20006499Y-10711073D01*
X19773110Y-10614400D01*
X19132550Y-10614400D01*
X18973800Y-10773150D01*
X18973800Y-12122400D01*
X18993800Y-12122400D01*
X18993800Y-12376400D01*
X18973800Y-12376400D01*
X18973800Y-13725650D01*
X19132550Y-13884400D01*
X19773110Y-13884400D01*
X20006499Y-13787727D01*
X20185127Y-13609098D01*
X20213655Y-13540226D01*
X20295281Y-13594767D01*
X20422870Y-13620146D01*
X24022050Y-13620146D01*
X24149639Y-13594767D01*
X24257804Y-13522494D01*
X24330077Y-13414329D01*
X24355456Y-13286740D01*
X24355456Y-12772390D01*
X25289510Y-12772390D01*
X25289510Y-13413050D01*
X25386183Y-13646439D01*
X25564812Y-13825067D01*
X25798201Y-13921740D01*
X27438350Y-13921740D01*
X27597100Y-13762990D01*
X27597100Y-12613640D01*
X25448260Y-12613640D01*
X25289510Y-12772390D01*
X24355456Y-12772390D01*
X24355456Y-11686540D01*
X24330332Y-11560230D01*
X25289510Y-11560230D01*
X25289510Y-12200890D01*
X25448260Y-12359640D01*
X27597100Y-12359640D01*
X27597100Y-11210290D01*
X27438350Y-11051540D01*
X25798201Y-11051540D01*
X25564812Y-11148213D01*
X25386183Y-11326841D01*
X25289510Y-11560230D01*
X24330332Y-11560230D01*
X24330077Y-11558951D01*
X24257804Y-11450786D01*
X24149639Y-11378513D01*
X24022050Y-11353134D01*
X22699460Y-11353134D01*
X22699460Y-10040291D01*
X29601000Y-10040291D01*
X29601000Y-10630850D01*
X29759750Y-10789600D01*
X30734000Y-10789600D01*
X30734000Y-9690350D01*
X30575250Y-9531600D01*
X30109690Y-9531600D01*
X29876301Y-9628273D01*
X29697673Y-9806902D01*
X29601000Y-10040291D01*
X22699460Y-10040291D01*
X22699460Y-9559269D01*
X22708803Y-9512299D01*
X22699460Y-9465329D01*
X22699460Y-9465325D01*
X22671783Y-9326184D01*
X22566357Y-9168403D01*
X22526534Y-9141794D01*
X22353946Y-8969206D01*
X22519640Y-8882697D01*
X22519640Y-7523480D01*
X22499640Y-7523480D01*
X22499640Y-7269480D01*
X22519640Y-7269480D01*
X22519640Y-7249480D01*
X22773640Y-7249480D01*
X22773640Y-7269480D01*
X22793640Y-7269480D01*
X22793640Y-7523480D01*
X22773640Y-7523480D01*
X22773640Y-8882697D01*
X23005666Y-9003838D01*
X23021431Y-9001189D01*
X23548676Y-8747212D01*
X23938594Y-8310800D01*
X24056961Y-7972411D01*
X24065120Y-8013428D01*
X24328265Y-8407255D01*
X24722091Y-8670400D01*
X25186640Y-8762805D01*
X25651188Y-8670400D01*
X26045015Y-8407255D01*
X26308160Y-8013429D01*
X26377240Y-7666142D01*
X26377240Y-7126819D01*
X26377240Y-7126818D01*
X26536040Y-7126818D01*
X26536040Y-7666141D01*
X26605120Y-8013428D01*
X26868265Y-8407255D01*
X27262091Y-8670400D01*
X27726640Y-8762805D01*
X28191188Y-8670400D01*
X28585015Y-8407255D01*
X28848160Y-8013429D01*
X28917240Y-7666142D01*
X28917240Y-7126819D01*
X28917240Y-7126818D01*
X29076040Y-7126818D01*
X29076040Y-7666141D01*
X29145120Y-8013428D01*
X29408265Y-8407255D01*
X29802091Y-8670400D01*
X30266640Y-8762805D01*
X30731188Y-8670400D01*
X31125015Y-8407255D01*
X31388160Y-8013429D01*
X31457240Y-7666142D01*
X31457240Y-7126819D01*
X31388160Y-6779532D01*
X31125015Y-6385705D01*
X30731189Y-6122560D01*
X30266640Y-6030155D01*
X29802092Y-6122560D01*
X29408266Y-6385705D01*
X29145120Y-6779531D01*
X29076040Y-7126818D01*
X28917240Y-7126818D01*
X28848160Y-6779532D01*
X28585015Y-6385705D01*
X28191189Y-6122560D01*
X27726640Y-6030155D01*
X27262092Y-6122560D01*
X26868266Y-6385705D01*
X26605120Y-6779531D01*
X26536040Y-7126818D01*
X26377240Y-7126818D01*
X26308160Y-6779532D01*
X26045015Y-6385705D01*
X25651189Y-6122560D01*
X25186640Y-6030155D01*
X24722092Y-6122560D01*
X24328266Y-6385705D01*
X24065120Y-6779531D01*
X24056961Y-6820548D01*
X23938594Y-6482160D01*
X23548676Y-6045748D01*
X23231163Y-5892800D01*
X45923201Y-5892800D01*
X45923201Y-19678534D01*
X45902623Y-19575084D01*
X45823806Y-19457126D01*
X45797197Y-19417303D01*
X45757375Y-19390695D01*
X45112608Y-18745928D01*
X45085997Y-18706103D01*
X44928216Y-18600677D01*
X44789075Y-18573000D01*
X44789071Y-18573000D01*
X44742100Y-18563657D01*
X44695129Y-18573000D01*
X42029334Y-18573000D01*
X41890013Y-18433679D01*
X41622809Y-18323000D01*
X41425780Y-18323000D01*
X38743478Y-15640699D01*
X38753227Y-15626109D01*
X38778606Y-15498520D01*
X38778606Y-15280640D01*
X42003314Y-15280640D01*
X42003314Y-17007840D01*
X42028693Y-17135429D01*
X42100966Y-17243594D01*
X42209131Y-17315867D01*
X42336720Y-17341246D01*
X44368720Y-17341246D01*
X44496309Y-17315867D01*
X44604474Y-17243594D01*
X44676747Y-17135429D01*
X44702126Y-17007840D01*
X44702126Y-15280640D01*
X44676747Y-15153051D01*
X44604474Y-15044886D01*
X44496309Y-14972613D01*
X44368720Y-14947234D01*
X42336720Y-14947234D01*
X42209131Y-14972613D01*
X42100966Y-15044886D01*
X42028693Y-15153051D01*
X42003314Y-15280640D01*
X38778606Y-15280640D01*
X38778606Y-13998520D01*
X38753227Y-13870931D01*
X38680954Y-13762766D01*
X38572789Y-13690493D01*
X38445200Y-13665114D01*
X38272200Y-13665114D01*
X38272200Y-13604240D01*
X41986395Y-13604240D01*
X42078800Y-14068789D01*
X42341945Y-14462615D01*
X42735771Y-14725760D01*
X43083058Y-14794840D01*
X43622382Y-14794840D01*
X43969669Y-14725760D01*
X44363495Y-14462615D01*
X44626640Y-14068789D01*
X44719045Y-13604240D01*
X44626640Y-13139691D01*
X44363495Y-12745865D01*
X43969669Y-12482720D01*
X43622382Y-12413640D01*
X43083058Y-12413640D01*
X42735771Y-12482720D01*
X42341945Y-12745865D01*
X42078800Y-13139691D01*
X41986395Y-13604240D01*
X38272200Y-13604240D01*
X38272200Y-13528126D01*
X38445200Y-13528126D01*
X38572789Y-13502747D01*
X38680954Y-13430474D01*
X38753227Y-13322309D01*
X38778606Y-13194720D01*
X38778606Y-11694720D01*
X38753227Y-11567131D01*
X38680954Y-11458966D01*
X38572789Y-11386693D01*
X38445200Y-11361314D01*
X37145200Y-11361314D01*
X37017611Y-11386693D01*
X36909446Y-11458966D01*
X36837173Y-11567131D01*
X36811794Y-11694720D01*
X36811794Y-13194720D01*
X36837173Y-13322309D01*
X36909446Y-13430474D01*
X37017611Y-13502747D01*
X37145200Y-13528126D01*
X37318200Y-13528126D01*
X37318201Y-13665114D01*
X37145200Y-13665114D01*
X37017611Y-13690493D01*
X36909446Y-13762766D01*
X36837173Y-13870931D01*
X36811794Y-13998520D01*
X36811794Y-15391841D01*
X36670406Y-15391841D01*
X36670406Y-14018840D01*
X36645027Y-13891251D01*
X36572754Y-13783086D01*
X36464589Y-13710813D01*
X36337000Y-13685434D01*
X36189400Y-13685434D01*
X36189400Y-13543366D01*
X36362400Y-13543366D01*
X36489989Y-13517987D01*
X36598154Y-13445714D01*
X36670427Y-13337549D01*
X36695806Y-13209960D01*
X36695806Y-11709960D01*
X36670427Y-11582371D01*
X36598154Y-11474206D01*
X36489989Y-11401933D01*
X36362400Y-11376554D01*
X35062400Y-11376554D01*
X34934811Y-11401933D01*
X34826646Y-11474206D01*
X34754373Y-11582371D01*
X34728994Y-11709960D01*
X34728994Y-13209960D01*
X34754373Y-13337549D01*
X34826646Y-13445714D01*
X34934811Y-13517987D01*
X35062400Y-13543366D01*
X35235400Y-13543366D01*
X35235401Y-13685434D01*
X35037000Y-13685434D01*
X34909411Y-13710813D01*
X34853177Y-13748387D01*
X33829585Y-12724796D01*
X33971230Y-12724796D01*
X34098819Y-12699417D01*
X34206984Y-12627144D01*
X34279257Y-12518979D01*
X34304636Y-12391390D01*
X34304636Y-10045710D01*
X34427400Y-10045710D01*
X34427400Y-10636269D01*
X34524073Y-10869658D01*
X34702701Y-11048287D01*
X34936090Y-11144960D01*
X35426650Y-11144960D01*
X35585400Y-10986210D01*
X35585400Y-9886960D01*
X35839400Y-9886960D01*
X35839400Y-10986210D01*
X35998150Y-11144960D01*
X36488710Y-11144960D01*
X36722099Y-11048287D01*
X36761420Y-11008966D01*
X36785501Y-11033047D01*
X37018890Y-11129720D01*
X37509450Y-11129720D01*
X37668200Y-10970970D01*
X37668200Y-9871720D01*
X37922200Y-9871720D01*
X37922200Y-10970970D01*
X38080950Y-11129720D01*
X38571510Y-11129720D01*
X38804899Y-11033047D01*
X38983527Y-10854418D01*
X39080200Y-10621029D01*
X39080200Y-10030470D01*
X38921450Y-9871720D01*
X37922200Y-9871720D01*
X37668200Y-9871720D01*
X36668950Y-9871720D01*
X36653710Y-9886960D01*
X35839400Y-9886960D01*
X35585400Y-9886960D01*
X34586150Y-9886960D01*
X34427400Y-10045710D01*
X34304636Y-10045710D01*
X34304636Y-9091930D01*
X34279257Y-8964341D01*
X34225343Y-8883651D01*
X34427400Y-8883651D01*
X34427400Y-9474210D01*
X34586150Y-9632960D01*
X35585400Y-9632960D01*
X35585400Y-8533710D01*
X35839400Y-8533710D01*
X35839400Y-9632960D01*
X36838650Y-9632960D01*
X36853890Y-9617720D01*
X37668200Y-9617720D01*
X37668200Y-8518470D01*
X37922200Y-8518470D01*
X37922200Y-9617720D01*
X38921450Y-9617720D01*
X39080200Y-9458970D01*
X39080200Y-8883266D01*
X41745362Y-8883266D01*
X41748011Y-8899031D01*
X42001988Y-9426276D01*
X42438400Y-9816194D01*
X42776788Y-9934561D01*
X42735771Y-9942720D01*
X42341945Y-10205865D01*
X42078800Y-10599691D01*
X41986395Y-11064240D01*
X42078800Y-11528789D01*
X42341945Y-11922615D01*
X42735771Y-12185760D01*
X43083058Y-12254840D01*
X43622382Y-12254840D01*
X43969669Y-12185760D01*
X44363495Y-11922615D01*
X44626640Y-11528789D01*
X44719045Y-11064240D01*
X44626640Y-10599691D01*
X44363495Y-10205865D01*
X43969669Y-9942720D01*
X43928652Y-9934561D01*
X44267040Y-9816194D01*
X44703452Y-9426276D01*
X44957429Y-8899031D01*
X44960078Y-8883266D01*
X44838937Y-8651240D01*
X43479720Y-8651240D01*
X43479720Y-8671240D01*
X43225720Y-8671240D01*
X43225720Y-8651240D01*
X41866503Y-8651240D01*
X41745362Y-8883266D01*
X39080200Y-8883266D01*
X39080200Y-8868411D01*
X38983527Y-8635022D01*
X38804899Y-8456393D01*
X38571510Y-8359720D01*
X38080950Y-8359720D01*
X37922200Y-8518470D01*
X37668200Y-8518470D01*
X37509450Y-8359720D01*
X37018890Y-8359720D01*
X36785501Y-8456393D01*
X36746180Y-8495714D01*
X36722099Y-8471633D01*
X36488710Y-8374960D01*
X35998150Y-8374960D01*
X35839400Y-8533710D01*
X35585400Y-8533710D01*
X35426650Y-8374960D01*
X34936090Y-8374960D01*
X34702701Y-8471633D01*
X34524073Y-8650262D01*
X34427400Y-8883651D01*
X34225343Y-8883651D01*
X34206984Y-8856176D01*
X34098819Y-8783903D01*
X33971230Y-8758524D01*
X32828162Y-8758524D01*
X33271188Y-8670400D01*
X33665015Y-8407255D01*
X33826740Y-8165214D01*
X41745362Y-8165214D01*
X41866503Y-8397240D01*
X43225720Y-8397240D01*
X43225720Y-7183316D01*
X43479720Y-7183316D01*
X43479720Y-8397240D01*
X44838937Y-8397240D01*
X44960078Y-8165214D01*
X44957429Y-8149449D01*
X44703452Y-7622204D01*
X44267040Y-7232286D01*
X43714633Y-7039056D01*
X43479720Y-7183316D01*
X43225720Y-7183316D01*
X42990807Y-7039056D01*
X42438400Y-7232286D01*
X42001988Y-7622204D01*
X41748011Y-8149449D01*
X41745362Y-8165214D01*
X33826740Y-8165214D01*
X33928160Y-8013429D01*
X33997240Y-7666142D01*
X33997240Y-7126819D01*
X33928160Y-6779532D01*
X33665015Y-6385705D01*
X33271189Y-6122560D01*
X32806640Y-6030155D01*
X32342092Y-6122560D01*
X31948266Y-6385705D01*
X31685120Y-6779531D01*
X31616040Y-7126818D01*
X31616040Y-7666141D01*
X31685120Y-8013428D01*
X31948265Y-8407255D01*
X32342091Y-8670400D01*
X32785118Y-8758524D01*
X32271970Y-8758524D01*
X32144381Y-8783903D01*
X32036216Y-8856176D01*
X31963943Y-8964341D01*
X31938564Y-9091930D01*
X31938564Y-9721139D01*
X31845699Y-9628273D01*
X31612310Y-9531600D01*
X31146750Y-9531600D01*
X30988000Y-9690350D01*
X30988000Y-10789600D01*
X31008000Y-10789600D01*
X31008000Y-11043600D01*
X30988000Y-11043600D01*
X30988000Y-12142850D01*
X31146750Y-12301600D01*
X31176421Y-12301600D01*
X31144827Y-12333194D01*
X30236000Y-12333194D01*
X30108411Y-12358573D01*
X30106817Y-12359638D01*
X29999942Y-12359638D01*
X30073126Y-12286454D01*
X30109690Y-12301600D01*
X30575250Y-12301600D01*
X30734000Y-12142850D01*
X30734000Y-11043600D01*
X29759750Y-11043600D01*
X29721990Y-11081360D01*
X29649999Y-11051540D01*
X28009850Y-11051540D01*
X27851100Y-11210290D01*
X27851100Y-12359640D01*
X27871100Y-12359640D01*
X27871100Y-12613640D01*
X27851100Y-12613640D01*
X27851100Y-13762990D01*
X28009850Y-13921740D01*
X29649999Y-13921740D01*
X29883388Y-13825067D01*
X29902594Y-13805861D01*
X29902594Y-14166600D01*
X29927973Y-14294189D01*
X30000246Y-14402354D01*
X30108411Y-14474627D01*
X30236000Y-14500006D01*
X31486000Y-14500006D01*
X31613589Y-14474627D01*
X31721754Y-14402354D01*
X31794027Y-14294189D01*
X31819406Y-14166600D01*
X31819406Y-13007773D01*
X32134419Y-12692761D01*
X32144381Y-12699417D01*
X32271970Y-12724796D01*
X32641902Y-12724796D01*
X32644600Y-12738361D01*
X32644600Y-12738364D01*
X32672277Y-12877505D01*
X32777703Y-13035287D01*
X32817529Y-13061898D01*
X34026860Y-14271229D01*
X33971230Y-14260164D01*
X32271970Y-14260164D01*
X32144381Y-14285543D01*
X32036216Y-14357816D01*
X31963943Y-14465981D01*
X31938564Y-14593570D01*
X31938564Y-15766300D01*
X25287364Y-15766300D01*
X25267021Y-15717187D01*
X25062513Y-15512679D01*
X24795309Y-15402000D01*
X24690464Y-15402000D01*
X24636327Y-15271301D01*
X24457698Y-15092673D01*
X24224309Y-14996000D01*
X23633750Y-14996000D01*
X23475000Y-15154750D01*
X23475000Y-16129000D01*
X23495000Y-16129000D01*
X23495000Y-16383000D01*
X23475000Y-16383000D01*
X23475000Y-16403000D01*
X23221000Y-16403000D01*
X23221000Y-16383000D01*
X22121750Y-16383000D01*
X21963000Y-16541750D01*
X21963000Y-16571420D01*
X21931406Y-16539826D01*
X21931406Y-15631000D01*
X21906282Y-15504690D01*
X21963000Y-15504690D01*
X21963000Y-15970250D01*
X22121750Y-16129000D01*
X23221000Y-16129000D01*
X23221000Y-15154750D01*
X23062250Y-14996000D01*
X22471691Y-14996000D01*
X22238302Y-15092673D01*
X22059673Y-15271301D01*
X21963000Y-15504690D01*
X21906282Y-15504690D01*
X21906027Y-15503411D01*
X21833754Y-15395246D01*
X21725589Y-15322973D01*
X21598000Y-15297594D01*
X20098000Y-15297594D01*
X19980206Y-15321025D01*
X19980206Y-15249400D01*
X19954827Y-15121811D01*
X19882554Y-15013646D01*
X19774389Y-14941373D01*
X19646800Y-14915994D01*
X19326498Y-14915994D01*
X19323800Y-14902426D01*
X19323800Y-14902425D01*
X19296123Y-14763284D01*
X19190697Y-14605503D01*
X19150875Y-14578895D01*
X18456379Y-13884400D01*
X18561050Y-13884400D01*
X18719800Y-13725650D01*
X18719800Y-12376400D01*
X18699800Y-12376400D01*
X18699800Y-12122400D01*
X18719800Y-12122400D01*
X18719800Y-10773150D01*
X18561050Y-10614400D01*
X17920490Y-10614400D01*
X17687101Y-10711073D01*
X17508473Y-10889702D01*
X17411800Y-11123091D01*
X17411800Y-11186100D01*
X17135425Y-10909726D01*
X17177440Y-10909726D01*
X17305029Y-10884347D01*
X17413194Y-10812074D01*
X17485467Y-10703909D01*
X17510846Y-10576320D01*
X17510846Y-9276320D01*
X17485467Y-9148731D01*
X17413194Y-9040566D01*
X17305029Y-8968293D01*
X17177440Y-8942914D01*
X16510000Y-8942914D01*
X16510000Y-8110528D01*
X16708265Y-8407255D01*
X17102091Y-8670400D01*
X17566640Y-8762805D01*
X18031188Y-8670400D01*
X18425015Y-8407255D01*
X18688160Y-8013429D01*
X18757240Y-7666142D01*
X18757240Y-7126819D01*
X18688160Y-6779532D01*
X18425015Y-6385705D01*
X18031189Y-6122560D01*
X17566640Y-6030155D01*
X17102092Y-6122560D01*
X16708266Y-6385705D01*
X16510000Y-6682431D01*
X16510000Y-5892800D01*
X22062117Y-5892800D01*
X21744604Y-6045748D01*
%TO.N,GNDA*%
G36*
X9044604Y-6045748D02*
X8654686Y-6482160D01*
X8603646Y-6628073D01*
X8603646Y-6380480D01*
X8578267Y-6252891D01*
X8505994Y-6144726D01*
X8397829Y-6072453D01*
X8270240Y-6047074D01*
X6543040Y-6047074D01*
X6415451Y-6072453D01*
X6307286Y-6144726D01*
X6235013Y-6252891D01*
X6209634Y-6380480D01*
X6209634Y-7918907D01*
X5929087Y-8199454D01*
X5889264Y-8226063D01*
X5862655Y-8265886D01*
X5862654Y-8265887D01*
X5783837Y-8383845D01*
X5746817Y-8569960D01*
X5756161Y-8616936D01*
X5756160Y-34730709D01*
X5746817Y-34777680D01*
X5756160Y-34824651D01*
X5756160Y-34824654D01*
X5783837Y-34963795D01*
X5889263Y-35121577D01*
X5929089Y-35148188D01*
X8731854Y-37950954D01*
X8731854Y-40252650D01*
X8757233Y-40380239D01*
X8829506Y-40488404D01*
X8937671Y-40560677D01*
X9065260Y-40586056D01*
X10665460Y-40586056D01*
X10793049Y-40560677D01*
X10901214Y-40488404D01*
X10973487Y-40380239D01*
X10998866Y-40252650D01*
X10998866Y-36653470D01*
X10973487Y-36525881D01*
X10901214Y-36417716D01*
X10793049Y-36345443D01*
X10665460Y-36320064D01*
X9065260Y-36320064D01*
X8937671Y-36345443D01*
X8829506Y-36417716D01*
X8757233Y-36525881D01*
X8740428Y-36610368D01*
X6710160Y-34580101D01*
X6710160Y-28679830D01*
X7239000Y-28679830D01*
X7239000Y-29091890D01*
X7397750Y-29250640D01*
X8001000Y-29250640D01*
X8001000Y-28329890D01*
X7842250Y-28171140D01*
X7747691Y-28171140D01*
X7514302Y-28267813D01*
X7335673Y-28446441D01*
X7239000Y-28679830D01*
X6710160Y-28679830D01*
X6710160Y-8767539D01*
X6731813Y-8745886D01*
X8270240Y-8745886D01*
X8397829Y-8720507D01*
X8505994Y-8648234D01*
X8578267Y-8540069D01*
X8603646Y-8412480D01*
X8603646Y-8164887D01*
X8654686Y-8310800D01*
X9044604Y-8747212D01*
X9571849Y-9001189D01*
X9587614Y-9003838D01*
X9819640Y-8882697D01*
X9819640Y-7523480D01*
X9799640Y-7523480D01*
X9799640Y-7269480D01*
X9819640Y-7269480D01*
X9819640Y-7249480D01*
X10073640Y-7249480D01*
X10073640Y-7269480D01*
X10093640Y-7269480D01*
X10093640Y-7523480D01*
X10073640Y-7523480D01*
X10073640Y-8882697D01*
X10239334Y-8969206D01*
X9096197Y-10112344D01*
X8338820Y-10112344D01*
X8211231Y-10137723D01*
X8103066Y-10209996D01*
X8030793Y-10318161D01*
X8005414Y-10445750D01*
X8005414Y-14044930D01*
X8030793Y-14172519D01*
X8103066Y-14280684D01*
X8211231Y-14352957D01*
X8338820Y-14378336D01*
X9939020Y-14378336D01*
X10066609Y-14352957D01*
X10174774Y-14280684D01*
X10247047Y-14172519D01*
X10272426Y-14044930D01*
X10272426Y-10445750D01*
X10247047Y-10318161D01*
X10244039Y-10313660D01*
X11941289Y-8616410D01*
X12022091Y-8670400D01*
X12486640Y-8762805D01*
X12951188Y-8670400D01*
X13345015Y-8407255D01*
X13608160Y-8013429D01*
X13677240Y-7666142D01*
X13677240Y-7126819D01*
X13608160Y-6779532D01*
X13345015Y-6385705D01*
X12951189Y-6122560D01*
X12486640Y-6030155D01*
X12022092Y-6122560D01*
X11628266Y-6385705D01*
X11365120Y-6779531D01*
X11356961Y-6820548D01*
X11238594Y-6482160D01*
X10848676Y-6045748D01*
X10531163Y-5892800D01*
X16154400Y-5892800D01*
X16154400Y-6810902D01*
X16148160Y-6779532D01*
X15885015Y-6385705D01*
X15491189Y-6122560D01*
X15026640Y-6030155D01*
X14562092Y-6122560D01*
X14168266Y-6385705D01*
X13905120Y-6779531D01*
X13836040Y-7126818D01*
X13836040Y-7666141D01*
X13876914Y-7871627D01*
X13423367Y-8325174D01*
X13383544Y-8351783D01*
X13356935Y-8391606D01*
X13356934Y-8391607D01*
X13278117Y-8509565D01*
X13241097Y-8695680D01*
X13250441Y-8742656D01*
X13250441Y-8942914D01*
X12977440Y-8942914D01*
X12849851Y-8968293D01*
X12741686Y-9040566D01*
X12669413Y-9148731D01*
X12644034Y-9276320D01*
X12644034Y-10576320D01*
X12669413Y-10703909D01*
X12741686Y-10812074D01*
X12849851Y-10884347D01*
X12977440Y-10909726D01*
X13198361Y-10909726D01*
X13198360Y-11392754D01*
X13050360Y-11392754D01*
X12922771Y-11418133D01*
X12814606Y-11490406D01*
X12742333Y-11598571D01*
X12716954Y-11726160D01*
X12716954Y-13226160D01*
X12742333Y-13353749D01*
X12814606Y-13461914D01*
X12922771Y-13534187D01*
X13050360Y-13559566D01*
X14292375Y-13559566D01*
X13959187Y-13892754D01*
X13050360Y-13892754D01*
X12922771Y-13918133D01*
X12814606Y-13990406D01*
X12742333Y-14098571D01*
X12716954Y-14226160D01*
X12716954Y-15726160D01*
X12742333Y-15853749D01*
X12814606Y-15961914D01*
X12922771Y-16034187D01*
X13050360Y-16059566D01*
X13480749Y-16059566D01*
X13489245Y-16065243D01*
X13675360Y-16102264D01*
X13861476Y-16065243D01*
X13869972Y-16059566D01*
X14300360Y-16059566D01*
X14427949Y-16034187D01*
X14536114Y-15961914D01*
X14608387Y-15853749D01*
X14633766Y-15726160D01*
X14633766Y-15525312D01*
X14755753Y-15575840D01*
X14865794Y-15575840D01*
X14865794Y-15766800D01*
X14891173Y-15894389D01*
X14963446Y-16002554D01*
X15071611Y-16074827D01*
X15199200Y-16100206D01*
X15347201Y-16100206D01*
X15347201Y-16288634D01*
X15337857Y-16335610D01*
X15374877Y-16521725D01*
X15374878Y-16521726D01*
X15480304Y-16679507D01*
X15520127Y-16706116D01*
X16154400Y-17340389D01*
X16154400Y-18295194D01*
X14925600Y-18295194D01*
X14798011Y-18320573D01*
X14689846Y-18392846D01*
X14617573Y-18501011D01*
X14592194Y-18628600D01*
X14592194Y-19928600D01*
X14617573Y-20056189D01*
X14689846Y-20164354D01*
X14798011Y-20236627D01*
X14925600Y-20262006D01*
X16154400Y-20262006D01*
X16154400Y-21850794D01*
X16146400Y-21850794D01*
X16018811Y-21876173D01*
X15910646Y-21948446D01*
X15838373Y-22056611D01*
X15812994Y-22184200D01*
X15812994Y-23434200D01*
X15838373Y-23561789D01*
X15910646Y-23669954D01*
X16018811Y-23742227D01*
X16063220Y-23751061D01*
X16061446Y-23752246D01*
X15989173Y-23860411D01*
X15963794Y-23988000D01*
X15963794Y-25046826D01*
X15294464Y-25716157D01*
X15250189Y-25686573D01*
X15122600Y-25661194D01*
X13813574Y-25661194D01*
X13773785Y-25621406D01*
X15097200Y-25621406D01*
X15224789Y-25596027D01*
X15332954Y-25523754D01*
X15405227Y-25415589D01*
X15430606Y-25288000D01*
X15430606Y-23988000D01*
X15405227Y-23860411D01*
X15332954Y-23752246D01*
X15295974Y-23727537D01*
X15382154Y-23669954D01*
X15454427Y-23561789D01*
X15479806Y-23434200D01*
X15479806Y-22184200D01*
X15454427Y-22056611D01*
X15382154Y-21948446D01*
X15273989Y-21876173D01*
X15146400Y-21850794D01*
X13646400Y-21850794D01*
X13518811Y-21876173D01*
X13410646Y-21948446D01*
X13338373Y-22056611D01*
X13312994Y-22184200D01*
X13312994Y-23434200D01*
X13338373Y-23561789D01*
X13410646Y-23669954D01*
X13447626Y-23694663D01*
X13361446Y-23752246D01*
X13289173Y-23860411D01*
X13263794Y-23988000D01*
X13263794Y-24049240D01*
X11241500Y-24049240D01*
X11145000Y-23952741D01*
X11145000Y-23843416D01*
X11157754Y-23834894D01*
X11230027Y-23726729D01*
X11255406Y-23599140D01*
X11255406Y-22456140D01*
X11350594Y-22456140D01*
X11350594Y-23599140D01*
X11375973Y-23726729D01*
X11448246Y-23834894D01*
X11556411Y-23907167D01*
X11684000Y-23932546D01*
X12192000Y-23932546D01*
X12319589Y-23907167D01*
X12427754Y-23834894D01*
X12500027Y-23726729D01*
X12525406Y-23599140D01*
X12525406Y-22456140D01*
X12500027Y-22328551D01*
X12427754Y-22220386D01*
X12415000Y-22211864D01*
X12415000Y-21948167D01*
X12527613Y-21901521D01*
X12732121Y-21697013D01*
X12842800Y-21429809D01*
X12842800Y-21140591D01*
X12732121Y-20873387D01*
X12527613Y-20668879D01*
X12260409Y-20558200D01*
X11971191Y-20558200D01*
X11703987Y-20668879D01*
X11499479Y-20873387D01*
X11388800Y-21140591D01*
X11388800Y-21429809D01*
X11461001Y-21604118D01*
X11461001Y-22211864D01*
X11448246Y-22220386D01*
X11375973Y-22328551D01*
X11350594Y-22456140D01*
X11255406Y-22456140D01*
X11230027Y-22328551D01*
X11157754Y-22220386D01*
X11145000Y-22211864D01*
X11145000Y-22084009D01*
X11154343Y-22037039D01*
X11145000Y-21990069D01*
X11145000Y-21990065D01*
X11117323Y-21850924D01*
X11011897Y-21693143D01*
X10972069Y-21666531D01*
X10754028Y-21448489D01*
X10727417Y-21408663D01*
X10569636Y-21303237D01*
X10430495Y-21275560D01*
X10430491Y-21275560D01*
X10383520Y-21266217D01*
X10336549Y-21275560D01*
X10073100Y-21275560D01*
X9615920Y-20818381D01*
X9615920Y-19879976D01*
X9939020Y-19879976D01*
X10066609Y-19854597D01*
X10174774Y-19782324D01*
X10247047Y-19674159D01*
X10272426Y-19546570D01*
X10272426Y-15947390D01*
X10247047Y-15819801D01*
X10174774Y-15711636D01*
X10167596Y-15706840D01*
X10389141Y-15706840D01*
X12498601Y-17816300D01*
X12498601Y-18127021D01*
X12264068Y-17892489D01*
X12237457Y-17852663D01*
X12079676Y-17747237D01*
X11940535Y-17719560D01*
X11940531Y-17719560D01*
X11902437Y-17711983D01*
X11770693Y-17580239D01*
X11503489Y-17469560D01*
X11214271Y-17469560D01*
X10947067Y-17580239D01*
X10742559Y-17784747D01*
X10631880Y-18051951D01*
X10631880Y-18341169D01*
X10742559Y-18608373D01*
X10947067Y-18812881D01*
X11214271Y-18923560D01*
X11503489Y-18923560D01*
X11770693Y-18812881D01*
X11802997Y-18780577D01*
X11892194Y-18869773D01*
X11892194Y-19928600D01*
X11917573Y-20056189D01*
X11989846Y-20164354D01*
X12098011Y-20236627D01*
X12225600Y-20262006D01*
X13725600Y-20262006D01*
X13853189Y-20236627D01*
X13961354Y-20164354D01*
X14033627Y-20056189D01*
X14059006Y-19928600D01*
X14059006Y-18628600D01*
X14033627Y-18501011D01*
X13961354Y-18392846D01*
X13853189Y-18320573D01*
X13725600Y-18295194D01*
X13452600Y-18295194D01*
X13452600Y-17665689D01*
X13461943Y-17618719D01*
X13452600Y-17571749D01*
X13452600Y-17571745D01*
X13424923Y-17432604D01*
X13319497Y-17274823D01*
X13279671Y-17248212D01*
X10957228Y-14925769D01*
X10930617Y-14885943D01*
X10772836Y-14780517D01*
X10633695Y-14752840D01*
X10633691Y-14752840D01*
X10586720Y-14743497D01*
X10539749Y-14752840D01*
X8073375Y-14752840D01*
X8026400Y-14743496D01*
X7840284Y-14780517D01*
X7738032Y-14848840D01*
X7682503Y-14885943D01*
X7655894Y-14925766D01*
X7336248Y-15245413D01*
X7296423Y-15272023D01*
X7190997Y-15429805D01*
X7163320Y-15568946D01*
X7163320Y-15568949D01*
X7153977Y-15615920D01*
X7163320Y-15662891D01*
X7163321Y-22492984D01*
X7153977Y-22539960D01*
X7190997Y-22726075D01*
X7268139Y-22841525D01*
X7296424Y-22883857D01*
X7336246Y-22910465D01*
X7540594Y-23114813D01*
X7540594Y-23599140D01*
X7565973Y-23726729D01*
X7638246Y-23834894D01*
X7746411Y-23907167D01*
X7874000Y-23932546D01*
X8382000Y-23932546D01*
X8509589Y-23907167D01*
X8617754Y-23834894D01*
X8690027Y-23726729D01*
X8715406Y-23599140D01*
X8715406Y-22456140D01*
X8690027Y-22328551D01*
X8617754Y-22220386D01*
X8509589Y-22148113D01*
X8382000Y-22122734D01*
X8117320Y-22122734D01*
X8117320Y-19791848D01*
X8211231Y-19854597D01*
X8338820Y-19879976D01*
X8661921Y-19879976D01*
X8661921Y-20968984D01*
X8652577Y-21015960D01*
X8689597Y-21202075D01*
X8757192Y-21303237D01*
X8795024Y-21359857D01*
X8834846Y-21386466D01*
X9505013Y-22056633D01*
X9531623Y-22096457D01*
X9570949Y-22122734D01*
X9144000Y-22122734D01*
X9016411Y-22148113D01*
X8908246Y-22220386D01*
X8835973Y-22328551D01*
X8810594Y-22456140D01*
X8810594Y-23599140D01*
X8835973Y-23726729D01*
X8908246Y-23834894D01*
X8921000Y-23843416D01*
X8921000Y-24159228D01*
X8911657Y-24206200D01*
X8921000Y-24253171D01*
X8921000Y-24253174D01*
X8948677Y-24392315D01*
X9054103Y-24550097D01*
X9093929Y-24576708D01*
X10145093Y-25627873D01*
X10171703Y-25667697D01*
X10329484Y-25773123D01*
X10468625Y-25800800D01*
X10468628Y-25800800D01*
X10515599Y-25810143D01*
X10562570Y-25800800D01*
X12604021Y-25800800D01*
X13289194Y-26485974D01*
X13289194Y-27294600D01*
X13314573Y-27422189D01*
X13338448Y-27457920D01*
X11167090Y-27457920D01*
X11120119Y-27448577D01*
X11073148Y-27457920D01*
X11073145Y-27457920D01*
X10934004Y-27485597D01*
X10776223Y-27591023D01*
X10749614Y-27630846D01*
X10363926Y-28016535D01*
X10324104Y-28043143D01*
X10297495Y-28082966D01*
X10297494Y-28082967D01*
X10218677Y-28200925D01*
X10181657Y-28387040D01*
X10191001Y-28434016D01*
X10191001Y-28561864D01*
X10178246Y-28570386D01*
X10105973Y-28678551D01*
X10080594Y-28806140D01*
X10080594Y-29949140D01*
X10105973Y-30076729D01*
X10178246Y-30184894D01*
X10286411Y-30257167D01*
X10414000Y-30282546D01*
X10922000Y-30282546D01*
X11049589Y-30257167D01*
X11064248Y-30247372D01*
X10493197Y-30818424D01*
X9065260Y-30818424D01*
X9012451Y-30828928D01*
X9558833Y-30282546D01*
X9652000Y-30282546D01*
X9779589Y-30257167D01*
X9887754Y-30184894D01*
X9960027Y-30076729D01*
X9985406Y-29949140D01*
X9985406Y-28806140D01*
X9960027Y-28678551D01*
X9887754Y-28570386D01*
X9779589Y-28498113D01*
X9652000Y-28472734D01*
X9144000Y-28472734D01*
X9016411Y-28498113D01*
X8957919Y-28537196D01*
X8920327Y-28446441D01*
X8741698Y-28267813D01*
X8508309Y-28171140D01*
X8413750Y-28171140D01*
X8255000Y-28329890D01*
X8255000Y-29250640D01*
X8275000Y-29250640D01*
X8275000Y-29504640D01*
X8255000Y-29504640D01*
X8255000Y-29524640D01*
X8001000Y-29524640D01*
X8001000Y-29504640D01*
X7397750Y-29504640D01*
X7239000Y-29663390D01*
X7239000Y-30075450D01*
X7335673Y-30308839D01*
X7514302Y-30487467D01*
X7747691Y-30584140D01*
X7842250Y-30584140D01*
X8000998Y-30425392D01*
X8000998Y-30491223D01*
X7940769Y-30551452D01*
X7900943Y-30578063D01*
X7795517Y-30735845D01*
X7767840Y-30874986D01*
X7767840Y-30874989D01*
X7758497Y-30921960D01*
X7767840Y-30968932D01*
X7767841Y-31520142D01*
X7767840Y-31520146D01*
X7767841Y-35289504D01*
X7758497Y-35336480D01*
X7795517Y-35522595D01*
X7836997Y-35584673D01*
X7900944Y-35680377D01*
X7940767Y-35706986D01*
X8097852Y-35864071D01*
X8124463Y-35903897D01*
X8282244Y-36009323D01*
X8421385Y-36037000D01*
X8421388Y-36037000D01*
X8468359Y-36046343D01*
X8515330Y-36037000D01*
X11987545Y-36037000D01*
X12034520Y-36046344D01*
X12081495Y-36037000D01*
X13239238Y-36037000D01*
X13243453Y-36058189D01*
X13315726Y-36166354D01*
X13423891Y-36238627D01*
X13551480Y-36264006D01*
X15051480Y-36264006D01*
X15179069Y-36238627D01*
X15287234Y-36166354D01*
X15359507Y-36058189D01*
X15384886Y-35930600D01*
X15384886Y-34630600D01*
X15359507Y-34503011D01*
X15287234Y-34394846D01*
X15179069Y-34322573D01*
X15051480Y-34297194D01*
X13551480Y-34297194D01*
X13423891Y-34322573D01*
X13315726Y-34394846D01*
X13243453Y-34503011D01*
X13218074Y-34630600D01*
X13218074Y-35083000D01*
X12511520Y-35083000D01*
X12511520Y-31950614D01*
X12589881Y-31872253D01*
X12700560Y-31605049D01*
X12700560Y-31315831D01*
X12655071Y-31206011D01*
X12655530Y-31205920D01*
X13218074Y-31205920D01*
X13218074Y-31378920D01*
X13243453Y-31506509D01*
X13315726Y-31614674D01*
X13423891Y-31686947D01*
X13551480Y-31712326D01*
X13868601Y-31712326D01*
X13868600Y-32005714D01*
X13595600Y-32005714D01*
X13468011Y-32031093D01*
X13359846Y-32103366D01*
X13287573Y-32211531D01*
X13262194Y-32339120D01*
X13262194Y-33589120D01*
X13287573Y-33716709D01*
X13359846Y-33824874D01*
X13468011Y-33897147D01*
X13595600Y-33922526D01*
X15095600Y-33922526D01*
X15223189Y-33897147D01*
X15331354Y-33824874D01*
X15403627Y-33716709D01*
X15429006Y-33589120D01*
X15429006Y-32339120D01*
X15403627Y-32211531D01*
X15331354Y-32103366D01*
X15223189Y-32031093D01*
X15095600Y-32005714D01*
X14822600Y-32005714D01*
X14822600Y-31712326D01*
X15051480Y-31712326D01*
X15179069Y-31686947D01*
X15287234Y-31614674D01*
X15359507Y-31506509D01*
X15384886Y-31378920D01*
X15384886Y-30114546D01*
X15918074Y-30647734D01*
X15918074Y-31378920D01*
X15943453Y-31506509D01*
X16015726Y-31614674D01*
X16123891Y-31686947D01*
X16154400Y-31693016D01*
X16154400Y-32005714D01*
X16095600Y-32005714D01*
X15968011Y-32031093D01*
X15859846Y-32103366D01*
X15787573Y-32211531D01*
X15762194Y-32339120D01*
X15762194Y-33589120D01*
X15787573Y-33716709D01*
X15859846Y-33824874D01*
X15968011Y-33897147D01*
X16095600Y-33922526D01*
X16154400Y-33922526D01*
X16154400Y-34316504D01*
X16123891Y-34322573D01*
X16015726Y-34394846D01*
X15943453Y-34503011D01*
X15918074Y-34630600D01*
X15918074Y-35930600D01*
X15943453Y-36058189D01*
X16015726Y-36166354D01*
X16123891Y-36238627D01*
X16154400Y-36244696D01*
X16154400Y-40919400D01*
X5676900Y-40919400D01*
X5676900Y-5892800D01*
X9362117Y-5892800D01*
X9044604Y-6045748D01*
X9044604Y-6045748D01*
G37*
X9044604Y-6045748D02*
X8654686Y-6482160D01*
X8603646Y-6628073D01*
X8603646Y-6380480D01*
X8578267Y-6252891D01*
X8505994Y-6144726D01*
X8397829Y-6072453D01*
X8270240Y-6047074D01*
X6543040Y-6047074D01*
X6415451Y-6072453D01*
X6307286Y-6144726D01*
X6235013Y-6252891D01*
X6209634Y-6380480D01*
X6209634Y-7918907D01*
X5929087Y-8199454D01*
X5889264Y-8226063D01*
X5862655Y-8265886D01*
X5862654Y-8265887D01*
X5783837Y-8383845D01*
X5746817Y-8569960D01*
X5756161Y-8616936D01*
X5756160Y-34730709D01*
X5746817Y-34777680D01*
X5756160Y-34824651D01*
X5756160Y-34824654D01*
X5783837Y-34963795D01*
X5889263Y-35121577D01*
X5929089Y-35148188D01*
X8731854Y-37950954D01*
X8731854Y-40252650D01*
X8757233Y-40380239D01*
X8829506Y-40488404D01*
X8937671Y-40560677D01*
X9065260Y-40586056D01*
X10665460Y-40586056D01*
X10793049Y-40560677D01*
X10901214Y-40488404D01*
X10973487Y-40380239D01*
X10998866Y-40252650D01*
X10998866Y-36653470D01*
X10973487Y-36525881D01*
X10901214Y-36417716D01*
X10793049Y-36345443D01*
X10665460Y-36320064D01*
X9065260Y-36320064D01*
X8937671Y-36345443D01*
X8829506Y-36417716D01*
X8757233Y-36525881D01*
X8740428Y-36610368D01*
X6710160Y-34580101D01*
X6710160Y-28679830D01*
X7239000Y-28679830D01*
X7239000Y-29091890D01*
X7397750Y-29250640D01*
X8001000Y-29250640D01*
X8001000Y-28329890D01*
X7842250Y-28171140D01*
X7747691Y-28171140D01*
X7514302Y-28267813D01*
X7335673Y-28446441D01*
X7239000Y-28679830D01*
X6710160Y-28679830D01*
X6710160Y-8767539D01*
X6731813Y-8745886D01*
X8270240Y-8745886D01*
X8397829Y-8720507D01*
X8505994Y-8648234D01*
X8578267Y-8540069D01*
X8603646Y-8412480D01*
X8603646Y-8164887D01*
X8654686Y-8310800D01*
X9044604Y-8747212D01*
X9571849Y-9001189D01*
X9587614Y-9003838D01*
X9819640Y-8882697D01*
X9819640Y-7523480D01*
X9799640Y-7523480D01*
X9799640Y-7269480D01*
X9819640Y-7269480D01*
X9819640Y-7249480D01*
X10073640Y-7249480D01*
X10073640Y-7269480D01*
X10093640Y-7269480D01*
X10093640Y-7523480D01*
X10073640Y-7523480D01*
X10073640Y-8882697D01*
X10239334Y-8969206D01*
X9096197Y-10112344D01*
X8338820Y-10112344D01*
X8211231Y-10137723D01*
X8103066Y-10209996D01*
X8030793Y-10318161D01*
X8005414Y-10445750D01*
X8005414Y-14044930D01*
X8030793Y-14172519D01*
X8103066Y-14280684D01*
X8211231Y-14352957D01*
X8338820Y-14378336D01*
X9939020Y-14378336D01*
X10066609Y-14352957D01*
X10174774Y-14280684D01*
X10247047Y-14172519D01*
X10272426Y-14044930D01*
X10272426Y-10445750D01*
X10247047Y-10318161D01*
X10244039Y-10313660D01*
X11941289Y-8616410D01*
X12022091Y-8670400D01*
X12486640Y-8762805D01*
X12951188Y-8670400D01*
X13345015Y-8407255D01*
X13608160Y-8013429D01*
X13677240Y-7666142D01*
X13677240Y-7126819D01*
X13608160Y-6779532D01*
X13345015Y-6385705D01*
X12951189Y-6122560D01*
X12486640Y-6030155D01*
X12022092Y-6122560D01*
X11628266Y-6385705D01*
X11365120Y-6779531D01*
X11356961Y-6820548D01*
X11238594Y-6482160D01*
X10848676Y-6045748D01*
X10531163Y-5892800D01*
X16154400Y-5892800D01*
X16154400Y-6810902D01*
X16148160Y-6779532D01*
X15885015Y-6385705D01*
X15491189Y-6122560D01*
X15026640Y-6030155D01*
X14562092Y-6122560D01*
X14168266Y-6385705D01*
X13905120Y-6779531D01*
X13836040Y-7126818D01*
X13836040Y-7666141D01*
X13876914Y-7871627D01*
X13423367Y-8325174D01*
X13383544Y-8351783D01*
X13356935Y-8391606D01*
X13356934Y-8391607D01*
X13278117Y-8509565D01*
X13241097Y-8695680D01*
X13250441Y-8742656D01*
X13250441Y-8942914D01*
X12977440Y-8942914D01*
X12849851Y-8968293D01*
X12741686Y-9040566D01*
X12669413Y-9148731D01*
X12644034Y-9276320D01*
X12644034Y-10576320D01*
X12669413Y-10703909D01*
X12741686Y-10812074D01*
X12849851Y-10884347D01*
X12977440Y-10909726D01*
X13198361Y-10909726D01*
X13198360Y-11392754D01*
X13050360Y-11392754D01*
X12922771Y-11418133D01*
X12814606Y-11490406D01*
X12742333Y-11598571D01*
X12716954Y-11726160D01*
X12716954Y-13226160D01*
X12742333Y-13353749D01*
X12814606Y-13461914D01*
X12922771Y-13534187D01*
X13050360Y-13559566D01*
X14292375Y-13559566D01*
X13959187Y-13892754D01*
X13050360Y-13892754D01*
X12922771Y-13918133D01*
X12814606Y-13990406D01*
X12742333Y-14098571D01*
X12716954Y-14226160D01*
X12716954Y-15726160D01*
X12742333Y-15853749D01*
X12814606Y-15961914D01*
X12922771Y-16034187D01*
X13050360Y-16059566D01*
X13480749Y-16059566D01*
X13489245Y-16065243D01*
X13675360Y-16102264D01*
X13861476Y-16065243D01*
X13869972Y-16059566D01*
X14300360Y-16059566D01*
X14427949Y-16034187D01*
X14536114Y-15961914D01*
X14608387Y-15853749D01*
X14633766Y-15726160D01*
X14633766Y-15525312D01*
X14755753Y-15575840D01*
X14865794Y-15575840D01*
X14865794Y-15766800D01*
X14891173Y-15894389D01*
X14963446Y-16002554D01*
X15071611Y-16074827D01*
X15199200Y-16100206D01*
X15347201Y-16100206D01*
X15347201Y-16288634D01*
X15337857Y-16335610D01*
X15374877Y-16521725D01*
X15374878Y-16521726D01*
X15480304Y-16679507D01*
X15520127Y-16706116D01*
X16154400Y-17340389D01*
X16154400Y-18295194D01*
X14925600Y-18295194D01*
X14798011Y-18320573D01*
X14689846Y-18392846D01*
X14617573Y-18501011D01*
X14592194Y-18628600D01*
X14592194Y-19928600D01*
X14617573Y-20056189D01*
X14689846Y-20164354D01*
X14798011Y-20236627D01*
X14925600Y-20262006D01*
X16154400Y-20262006D01*
X16154400Y-21850794D01*
X16146400Y-21850794D01*
X16018811Y-21876173D01*
X15910646Y-21948446D01*
X15838373Y-22056611D01*
X15812994Y-22184200D01*
X15812994Y-23434200D01*
X15838373Y-23561789D01*
X15910646Y-23669954D01*
X16018811Y-23742227D01*
X16063220Y-23751061D01*
X16061446Y-23752246D01*
X15989173Y-23860411D01*
X15963794Y-23988000D01*
X15963794Y-25046826D01*
X15294464Y-25716157D01*
X15250189Y-25686573D01*
X15122600Y-25661194D01*
X13813574Y-25661194D01*
X13773785Y-25621406D01*
X15097200Y-25621406D01*
X15224789Y-25596027D01*
X15332954Y-25523754D01*
X15405227Y-25415589D01*
X15430606Y-25288000D01*
X15430606Y-23988000D01*
X15405227Y-23860411D01*
X15332954Y-23752246D01*
X15295974Y-23727537D01*
X15382154Y-23669954D01*
X15454427Y-23561789D01*
X15479806Y-23434200D01*
X15479806Y-22184200D01*
X15454427Y-22056611D01*
X15382154Y-21948446D01*
X15273989Y-21876173D01*
X15146400Y-21850794D01*
X13646400Y-21850794D01*
X13518811Y-21876173D01*
X13410646Y-21948446D01*
X13338373Y-22056611D01*
X13312994Y-22184200D01*
X13312994Y-23434200D01*
X13338373Y-23561789D01*
X13410646Y-23669954D01*
X13447626Y-23694663D01*
X13361446Y-23752246D01*
X13289173Y-23860411D01*
X13263794Y-23988000D01*
X13263794Y-24049240D01*
X11241500Y-24049240D01*
X11145000Y-23952741D01*
X11145000Y-23843416D01*
X11157754Y-23834894D01*
X11230027Y-23726729D01*
X11255406Y-23599140D01*
X11255406Y-22456140D01*
X11350594Y-22456140D01*
X11350594Y-23599140D01*
X11375973Y-23726729D01*
X11448246Y-23834894D01*
X11556411Y-23907167D01*
X11684000Y-23932546D01*
X12192000Y-23932546D01*
X12319589Y-23907167D01*
X12427754Y-23834894D01*
X12500027Y-23726729D01*
X12525406Y-23599140D01*
X12525406Y-22456140D01*
X12500027Y-22328551D01*
X12427754Y-22220386D01*
X12415000Y-22211864D01*
X12415000Y-21948167D01*
X12527613Y-21901521D01*
X12732121Y-21697013D01*
X12842800Y-21429809D01*
X12842800Y-21140591D01*
X12732121Y-20873387D01*
X12527613Y-20668879D01*
X12260409Y-20558200D01*
X11971191Y-20558200D01*
X11703987Y-20668879D01*
X11499479Y-20873387D01*
X11388800Y-21140591D01*
X11388800Y-21429809D01*
X11461001Y-21604118D01*
X11461001Y-22211864D01*
X11448246Y-22220386D01*
X11375973Y-22328551D01*
X11350594Y-22456140D01*
X11255406Y-22456140D01*
X11230027Y-22328551D01*
X11157754Y-22220386D01*
X11145000Y-22211864D01*
X11145000Y-22084009D01*
X11154343Y-22037039D01*
X11145000Y-21990069D01*
X11145000Y-21990065D01*
X11117323Y-21850924D01*
X11011897Y-21693143D01*
X10972069Y-21666531D01*
X10754028Y-21448489D01*
X10727417Y-21408663D01*
X10569636Y-21303237D01*
X10430495Y-21275560D01*
X10430491Y-21275560D01*
X10383520Y-21266217D01*
X10336549Y-21275560D01*
X10073100Y-21275560D01*
X9615920Y-20818381D01*
X9615920Y-19879976D01*
X9939020Y-19879976D01*
X10066609Y-19854597D01*
X10174774Y-19782324D01*
X10247047Y-19674159D01*
X10272426Y-19546570D01*
X10272426Y-15947390D01*
X10247047Y-15819801D01*
X10174774Y-15711636D01*
X10167596Y-15706840D01*
X10389141Y-15706840D01*
X12498601Y-17816300D01*
X12498601Y-18127021D01*
X12264068Y-17892489D01*
X12237457Y-17852663D01*
X12079676Y-17747237D01*
X11940535Y-17719560D01*
X11940531Y-17719560D01*
X11902437Y-17711983D01*
X11770693Y-17580239D01*
X11503489Y-17469560D01*
X11214271Y-17469560D01*
X10947067Y-17580239D01*
X10742559Y-17784747D01*
X10631880Y-18051951D01*
X10631880Y-18341169D01*
X10742559Y-18608373D01*
X10947067Y-18812881D01*
X11214271Y-18923560D01*
X11503489Y-18923560D01*
X11770693Y-18812881D01*
X11802997Y-18780577D01*
X11892194Y-18869773D01*
X11892194Y-19928600D01*
X11917573Y-20056189D01*
X11989846Y-20164354D01*
X12098011Y-20236627D01*
X12225600Y-20262006D01*
X13725600Y-20262006D01*
X13853189Y-20236627D01*
X13961354Y-20164354D01*
X14033627Y-20056189D01*
X14059006Y-19928600D01*
X14059006Y-18628600D01*
X14033627Y-18501011D01*
X13961354Y-18392846D01*
X13853189Y-18320573D01*
X13725600Y-18295194D01*
X13452600Y-18295194D01*
X13452600Y-17665689D01*
X13461943Y-17618719D01*
X13452600Y-17571749D01*
X13452600Y-17571745D01*
X13424923Y-17432604D01*
X13319497Y-17274823D01*
X13279671Y-17248212D01*
X10957228Y-14925769D01*
X10930617Y-14885943D01*
X10772836Y-14780517D01*
X10633695Y-14752840D01*
X10633691Y-14752840D01*
X10586720Y-14743497D01*
X10539749Y-14752840D01*
X8073375Y-14752840D01*
X8026400Y-14743496D01*
X7840284Y-14780517D01*
X7738032Y-14848840D01*
X7682503Y-14885943D01*
X7655894Y-14925766D01*
X7336248Y-15245413D01*
X7296423Y-15272023D01*
X7190997Y-15429805D01*
X7163320Y-15568946D01*
X7163320Y-15568949D01*
X7153977Y-15615920D01*
X7163320Y-15662891D01*
X7163321Y-22492984D01*
X7153977Y-22539960D01*
X7190997Y-22726075D01*
X7268139Y-22841525D01*
X7296424Y-22883857D01*
X7336246Y-22910465D01*
X7540594Y-23114813D01*
X7540594Y-23599140D01*
X7565973Y-23726729D01*
X7638246Y-23834894D01*
X7746411Y-23907167D01*
X7874000Y-23932546D01*
X8382000Y-23932546D01*
X8509589Y-23907167D01*
X8617754Y-23834894D01*
X8690027Y-23726729D01*
X8715406Y-23599140D01*
X8715406Y-22456140D01*
X8690027Y-22328551D01*
X8617754Y-22220386D01*
X8509589Y-22148113D01*
X8382000Y-22122734D01*
X8117320Y-22122734D01*
X8117320Y-19791848D01*
X8211231Y-19854597D01*
X8338820Y-19879976D01*
X8661921Y-19879976D01*
X8661921Y-20968984D01*
X8652577Y-21015960D01*
X8689597Y-21202075D01*
X8757192Y-21303237D01*
X8795024Y-21359857D01*
X8834846Y-21386466D01*
X9505013Y-22056633D01*
X9531623Y-22096457D01*
X9570949Y-22122734D01*
X9144000Y-22122734D01*
X9016411Y-22148113D01*
X8908246Y-22220386D01*
X8835973Y-22328551D01*
X8810594Y-22456140D01*
X8810594Y-23599140D01*
X8835973Y-23726729D01*
X8908246Y-23834894D01*
X8921000Y-23843416D01*
X8921000Y-24159228D01*
X8911657Y-24206200D01*
X8921000Y-24253171D01*
X8921000Y-24253174D01*
X8948677Y-24392315D01*
X9054103Y-24550097D01*
X9093929Y-24576708D01*
X10145093Y-25627873D01*
X10171703Y-25667697D01*
X10329484Y-25773123D01*
X10468625Y-25800800D01*
X10468628Y-25800800D01*
X10515599Y-25810143D01*
X10562570Y-25800800D01*
X12604021Y-25800800D01*
X13289194Y-26485974D01*
X13289194Y-27294600D01*
X13314573Y-27422189D01*
X13338448Y-27457920D01*
X11167090Y-27457920D01*
X11120119Y-27448577D01*
X11073148Y-27457920D01*
X11073145Y-27457920D01*
X10934004Y-27485597D01*
X10776223Y-27591023D01*
X10749614Y-27630846D01*
X10363926Y-28016535D01*
X10324104Y-28043143D01*
X10297495Y-28082966D01*
X10297494Y-28082967D01*
X10218677Y-28200925D01*
X10181657Y-28387040D01*
X10191001Y-28434016D01*
X10191001Y-28561864D01*
X10178246Y-28570386D01*
X10105973Y-28678551D01*
X10080594Y-28806140D01*
X10080594Y-29949140D01*
X10105973Y-30076729D01*
X10178246Y-30184894D01*
X10286411Y-30257167D01*
X10414000Y-30282546D01*
X10922000Y-30282546D01*
X11049589Y-30257167D01*
X11064248Y-30247372D01*
X10493197Y-30818424D01*
X9065260Y-30818424D01*
X9012451Y-30828928D01*
X9558833Y-30282546D01*
X9652000Y-30282546D01*
X9779589Y-30257167D01*
X9887754Y-30184894D01*
X9960027Y-30076729D01*
X9985406Y-29949140D01*
X9985406Y-28806140D01*
X9960027Y-28678551D01*
X9887754Y-28570386D01*
X9779589Y-28498113D01*
X9652000Y-28472734D01*
X9144000Y-28472734D01*
X9016411Y-28498113D01*
X8957919Y-28537196D01*
X8920327Y-28446441D01*
X8741698Y-28267813D01*
X8508309Y-28171140D01*
X8413750Y-28171140D01*
X8255000Y-28329890D01*
X8255000Y-29250640D01*
X8275000Y-29250640D01*
X8275000Y-29504640D01*
X8255000Y-29504640D01*
X8255000Y-29524640D01*
X8001000Y-29524640D01*
X8001000Y-29504640D01*
X7397750Y-29504640D01*
X7239000Y-29663390D01*
X7239000Y-30075450D01*
X7335673Y-30308839D01*
X7514302Y-30487467D01*
X7747691Y-30584140D01*
X7842250Y-30584140D01*
X8000998Y-30425392D01*
X8000998Y-30491223D01*
X7940769Y-30551452D01*
X7900943Y-30578063D01*
X7795517Y-30735845D01*
X7767840Y-30874986D01*
X7767840Y-30874989D01*
X7758497Y-30921960D01*
X7767840Y-30968932D01*
X7767841Y-31520142D01*
X7767840Y-31520146D01*
X7767841Y-35289504D01*
X7758497Y-35336480D01*
X7795517Y-35522595D01*
X7836997Y-35584673D01*
X7900944Y-35680377D01*
X7940767Y-35706986D01*
X8097852Y-35864071D01*
X8124463Y-35903897D01*
X8282244Y-36009323D01*
X8421385Y-36037000D01*
X8421388Y-36037000D01*
X8468359Y-36046343D01*
X8515330Y-36037000D01*
X11987545Y-36037000D01*
X12034520Y-36046344D01*
X12081495Y-36037000D01*
X13239238Y-36037000D01*
X13243453Y-36058189D01*
X13315726Y-36166354D01*
X13423891Y-36238627D01*
X13551480Y-36264006D01*
X15051480Y-36264006D01*
X15179069Y-36238627D01*
X15287234Y-36166354D01*
X15359507Y-36058189D01*
X15384886Y-35930600D01*
X15384886Y-34630600D01*
X15359507Y-34503011D01*
X15287234Y-34394846D01*
X15179069Y-34322573D01*
X15051480Y-34297194D01*
X13551480Y-34297194D01*
X13423891Y-34322573D01*
X13315726Y-34394846D01*
X13243453Y-34503011D01*
X13218074Y-34630600D01*
X13218074Y-35083000D01*
X12511520Y-35083000D01*
X12511520Y-31950614D01*
X12589881Y-31872253D01*
X12700560Y-31605049D01*
X12700560Y-31315831D01*
X12655071Y-31206011D01*
X12655530Y-31205920D01*
X13218074Y-31205920D01*
X13218074Y-31378920D01*
X13243453Y-31506509D01*
X13315726Y-31614674D01*
X13423891Y-31686947D01*
X13551480Y-31712326D01*
X13868601Y-31712326D01*
X13868600Y-32005714D01*
X13595600Y-32005714D01*
X13468011Y-32031093D01*
X13359846Y-32103366D01*
X13287573Y-32211531D01*
X13262194Y-32339120D01*
X13262194Y-33589120D01*
X13287573Y-33716709D01*
X13359846Y-33824874D01*
X13468011Y-33897147D01*
X13595600Y-33922526D01*
X15095600Y-33922526D01*
X15223189Y-33897147D01*
X15331354Y-33824874D01*
X15403627Y-33716709D01*
X15429006Y-33589120D01*
X15429006Y-32339120D01*
X15403627Y-32211531D01*
X15331354Y-32103366D01*
X15223189Y-32031093D01*
X15095600Y-32005714D01*
X14822600Y-32005714D01*
X14822600Y-31712326D01*
X15051480Y-31712326D01*
X15179069Y-31686947D01*
X15287234Y-31614674D01*
X15359507Y-31506509D01*
X15384886Y-31378920D01*
X15384886Y-30114546D01*
X15918074Y-30647734D01*
X15918074Y-31378920D01*
X15943453Y-31506509D01*
X16015726Y-31614674D01*
X16123891Y-31686947D01*
X16154400Y-31693016D01*
X16154400Y-32005714D01*
X16095600Y-32005714D01*
X15968011Y-32031093D01*
X15859846Y-32103366D01*
X15787573Y-32211531D01*
X15762194Y-32339120D01*
X15762194Y-33589120D01*
X15787573Y-33716709D01*
X15859846Y-33824874D01*
X15968011Y-33897147D01*
X16095600Y-33922526D01*
X16154400Y-33922526D01*
X16154400Y-34316504D01*
X16123891Y-34322573D01*
X16015726Y-34394846D01*
X15943453Y-34503011D01*
X15918074Y-34630600D01*
X15918074Y-35930600D01*
X15943453Y-36058189D01*
X16015726Y-36166354D01*
X16123891Y-36238627D01*
X16154400Y-36244696D01*
X16154400Y-40919400D01*
X5676900Y-40919400D01*
X5676900Y-5892800D01*
X9362117Y-5892800D01*
X9044604Y-6045748D01*
%TD*%
M02*
