M48
;DRILL file {KiCad 5.0.0-rc2-dev-unknown-b813eac~63~ubuntu16.04.1} date Sun Apr  8 19:42:19 2018
;FORMAT={-:-/ absolute / metric / decimal}
FMAT,2
METRIC,TZ
T1C0.500
T2C1.016
%
G90
G05
M71
T1
X7.214Y-31.526
X11.359Y-18.197
X11.974Y-31.46
X12.116Y-21.285
X14.9Y-14.849
X19.583Y-14.649
X20.117Y-28.321
X21.158Y-14.869
X21.336Y-29.997
X21.361Y-23.647
X22.388Y-38.044
X23.246Y-23.647
X25.432Y-23.854
X26.67Y-38.847
X27.49Y-39.588
X28.24Y-40.381
X31.074Y-34.27
X31.504Y-25.494
X31.554Y-19.367
X33.071Y-19.393
X33.446Y-28.537
X33.708Y-37.932
X33.736Y-34.249
X33.884Y-26.97
X34.193Y-39.468
X34.693Y-38.282
X34.768Y-35.189
X35.801Y-34.468
X35.801Y-39.345
X36.055Y-32.162
X37.617Y-28.537
X40.259Y-25.032
X41.478Y-19.05
X41.681Y-22.85
X44.353Y-23.914
X44.703Y-26.137
T2
X43.353Y-8.524
X43.353Y-11.064
X43.353Y-13.604
X43.353Y-16.144
X7.407Y-7.396
X9.947Y-7.396
X12.487Y-7.396
X15.027Y-7.396
X17.567Y-7.396
X20.107Y-7.396
X22.647Y-7.396
X25.187Y-7.396
X27.727Y-7.396
X30.267Y-7.396
X32.807Y-7.396
T0
M30
